<svg width="61" height="61" viewBox="0 0 61 61" fill="none" xmlns="http://www.w3.org/2000/svg">
<path d="M61 18.481V11.0351L58.2511 10.3592C58.1301 10.0325 57.9933 9.70589 57.8418 9.38023L59.3097 6.95498L54.044 1.68931L51.6198 3.15823C51.2941 3.00671 50.9675 2.86995 50.6408 2.74894L49.9649 0H42.519L41.843 2.74894C41.5164 2.86995 41.1898 3.00671 40.8641 3.15823L38.4389 1.69029L33.1732 6.95597L34.6411 9.38121C34.4896 9.70687 34.3528 10.0335 34.2318 10.3602L31.4839 11.0351V17.7097H4.91935C2.20682 17.7097 0 19.9165 0 22.629V46.2419C0 48.9545 2.20682 51.1613 4.91935 51.1613H12.7903V55.0968H8.85484C7.76963 55.0968 6.8871 55.9793 6.8871 57.0645V59.0323C6.8871 60.1175 7.76963 61 8.85484 61H29.5161H31.5232H61V57.0645C61 49.9059 56.1918 43.858 49.6373 41.9552C51.7418 40.5404 53.129 38.1398 53.129 35.4194C53.129 32.8524 51.8884 30.5758 49.9816 29.1383L50.082 29.0409L50.6408 26.7672C50.9675 26.6462 51.2941 26.5094 51.6198 26.3579L54.045 27.8258L59.3107 22.5602L57.8428 20.1349C57.9943 19.8093 58.131 19.4826 58.252 19.156L61 18.481ZM4.91935 19.6774H38.371C39.9983 19.6774 41.3226 21.0017 41.3226 22.629V28.6129C40.5817 29.0429 39.9176 29.5909 39.3548 30.2304V23.6129C39.3548 22.5277 38.4723 21.6452 37.3871 21.6452H5.90323C4.81802 21.6452 3.93548 22.5277 3.93548 23.6129V43.2903H1.96774V22.629C1.96774 21.0017 3.29203 19.6774 4.91935 19.6774ZM39.3548 14.7581C39.3548 10.9613 42.4452 7.87097 46.2419 7.87097C50.0387 7.87097 53.129 10.9613 53.129 14.7581C53.129 18.5548 50.0387 21.6452 46.2419 21.6452C45.0731 21.6452 43.9357 21.3372 42.9224 20.7764C42.4226 19.5535 41.4465 18.5775 40.2226 18.0776C39.6628 17.0623 39.3548 15.9259 39.3548 14.7581ZM50.0456 53.0985L46.6552 59.0323H46.5528L50.6231 44.3785C51.0432 44.5566 51.4525 44.7573 51.851 44.9747L51.2272 48.7203L48.981 50.9665L50.0456 53.0985ZM43.861 59.0323L40.4705 53.0985L41.5361 50.9675L39.2899 48.7213L38.6661 44.9757C39.0636 44.7583 39.4729 44.5575 39.894 44.3795L43.9633 59.0323H43.861ZM33.4516 43.2903H31.4839V27.5484H33.4516V43.2903ZM39.3548 42.4816V40.6083C39.8035 41.1189 40.3121 41.5754 40.8789 41.9552C40.3594 42.1057 39.8507 42.2799 39.3548 42.4816ZM37.3871 43.2903H35.4194V25.5806H29.5161V43.2903H27.5484V29.5161H21.6452V43.2903H19.6774V33.4516H13.7742V43.2903H5.90323V23.6129H37.3871V43.2903ZM25.5806 43.2903H23.6129V31.4839H25.5806V43.2903ZM17.7097 43.2903H15.7419V35.4194H17.7097V43.2903ZM1.96774 46.2419V45.2581H34.8812C33.6012 46.3846 32.5071 47.7109 31.6462 49.1936H4.91935C3.29203 49.1936 1.96774 47.8693 1.96774 46.2419ZM14.7581 51.1613H30.6751C30.1704 52.4029 29.8251 53.7223 29.6529 55.0968H14.7581V51.1613ZM8.85484 59.0323V57.0645H29.5161V59.0323H8.85484ZM31.4839 59.0323V57.0645C31.4839 52.6273 33.6012 48.6849 36.8696 46.1642L37.453 49.6658L39.1423 51.3551L38.2401 53.1595L41.5951 59.0323H36.4032V51.1613H34.4355V59.0323H31.5232H31.4839ZM59.0323 57.0645V59.0323H56.0806V51.1613H54.1129V59.0323H48.921L52.277 53.1595L51.3748 51.3551L53.0641 49.6658L53.6475 46.1642C56.915 48.6849 59.0323 52.6273 59.0323 57.0645ZM48.7528 43.7567L45.2581 56.3384L41.7634 43.7567C42.882 43.4625 44.0489 43.2903 45.2581 43.2903C46.4672 43.2903 47.6341 43.4625 48.7528 43.7567ZM51.1613 35.4194C51.1613 38.675 48.5137 41.3226 45.2581 41.3226C42.0024 41.3226 39.3548 38.675 39.3548 35.4194C39.3548 32.1637 42.0024 29.5161 45.2581 29.5161C48.5137 29.5161 51.1613 32.1637 51.1613 35.4194ZM56.8274 22.2611L53.7449 25.3435L51.7044 24.1088L51.2144 24.3636C50.6507 24.6568 50.079 24.8959 49.5172 25.074L48.9899 25.2402L48.3061 28.0246L48.2018 28.1259C47.2917 27.756 46.299 27.5484 45.2581 27.5484C44.5772 27.5484 43.921 27.6438 43.2903 27.8071V23.0856C44.2348 23.4201 45.2276 23.6129 46.2419 23.6129C51.1249 23.6129 55.0968 19.641 55.0968 14.7581C55.0968 9.87511 51.1249 5.90323 46.2419 5.90323C41.359 5.90323 37.3871 9.87511 37.3871 14.7581C37.3871 15.7724 37.5799 16.7652 37.9145 17.7097H33.4516V12.5778L35.7608 12.0101L35.927 11.4828C36.1051 10.922 36.3442 10.3503 36.6374 9.78558L36.8922 9.29561L35.6575 7.25506L38.7399 4.1726L40.7805 5.40735L41.2704 5.15253C41.8342 4.85934 42.4058 4.62026 42.9676 4.44218L43.495 4.2759L44.0617 1.96774H48.4222L48.9899 4.27689L49.5172 4.44316C50.078 4.62124 50.6497 4.86032 51.2144 5.15352L51.7044 5.40834L53.7449 4.17358L56.8274 7.25605L55.5926 9.2966L55.8475 9.78656C56.1407 10.3503 56.3797 10.922 56.5578 11.4837L56.7241 12.0111L59.0323 12.5778V16.9383L56.7231 17.506L56.5568 18.0324C56.3788 18.5942 56.1397 19.1658 55.8465 19.7305L55.5917 20.2205L56.8274 22.2611Z" fill="#2D2E83"/>
</svg>
