<svg width="62" height="62" viewBox="0 0 62 62" fill="none" xmlns="http://www.w3.org/2000/svg">
<g clip-path="url(#clip0)">
<path d="M0.968534 53.2856C0.432719 53.2856 0 52.8524 0 52.3171C0 48.0438 3.47689 44.5669 7.75017 44.5669C8.28598 44.5669 8.7187 44.9996 8.7187 45.5354C8.7187 46.0708 8.28598 46.504 7.75017 46.504C4.54426 46.504 1.93707 49.1112 1.93707 52.3171C1.93707 52.8524 1.50435 53.2856 0.968534 53.2856Z" fill="#2D2E83"/>
<path d="M14.5272 46.5049L7.75027 46.504C7.21493 46.504 6.78174 46.0698 6.78174 45.5354C6.78174 44.9996 7.21588 44.5669 7.75027 44.5669L14.5272 44.5678C15.0625 44.5678 15.4957 45.0015 15.4957 45.5364C15.4957 46.0717 15.0616 46.5049 14.5272 46.5049Z" fill="#2D2E83"/>
<path d="M0.96948 58.1217C0.435084 58.1217 0.000945834 57.689 0.000945834 57.1532L0 52.3167C0 51.7818 0.432719 51.3481 0.968534 51.3481C1.50293 51.3481 1.93707 51.7809 1.93707 52.3167L1.93801 57.1532C1.93801 57.6881 1.5053 58.1217 0.96948 58.1217Z" fill="#2D2E83"/>
<path d="M41.6452 53.2856C41.1094 53.2856 40.6767 52.8524 40.6767 52.3171C40.6767 49.1112 38.0695 46.504 34.8636 46.504C34.3277 46.504 33.895 46.0708 33.895 45.5354C33.895 44.9996 34.3277 44.5669 34.8636 44.5669C39.1368 44.5669 42.6137 48.0438 42.6137 52.3171C42.6137 52.8524 42.1805 53.2856 41.6452 53.2856Z" fill="#2D2E83"/>
<path d="M28.0867 46.5049C27.5518 46.5049 27.1182 46.0717 27.1182 45.5364C27.1182 45.0015 27.5509 44.5678 28.0867 44.5678L34.8636 44.5669C35.398 44.5669 35.8321 44.9996 35.8321 45.5354C35.8321 46.0698 35.3989 46.504 34.8636 46.504L28.0867 46.5049Z" fill="#2D2E83"/>
<path d="M1.9378 59.0902C0.869481 59.0902 0.000732422 58.2214 0.000732422 57.1531C0.000732422 56.6178 0.433925 56.1846 0.969267 56.1846C1.50508 56.1846 1.9378 56.6178 1.9378 57.1531V57.155C2.47362 57.155 2.90634 57.5872 2.90634 58.1226C2.90634 58.6575 2.47362 59.0902 1.9378 59.0902Z" fill="#2D2E83"/>
<path d="M41.6489 59.0904H1.93802C1.40267 59.0904 0.969482 58.6577 0.969482 58.1219C0.969482 57.5865 1.40267 57.1533 1.93802 57.1533H41.6489C42.1847 57.1533 42.6174 57.5865 42.6174 58.1219C42.6174 58.6577 42.1847 59.0904 41.6489 59.0904Z" fill="#2D2E83"/>
<path d="M14.5271 46.505C13.9913 46.505 13.5586 46.0718 13.5586 45.5365V40.9554C13.5586 40.4195 13.9913 39.9868 14.5271 39.9868C15.0625 39.9868 15.4957 40.4195 15.4957 40.9554V45.5365C15.4957 46.0718 15.0625 46.505 14.5271 46.505Z" fill="#2D2E83"/>
<path d="M28.0867 46.5041C27.5509 46.5041 27.1182 46.0709 27.1182 45.5356V40.9554C27.1182 40.4195 27.5509 39.9868 28.0867 39.9868C28.622 39.9868 29.0552 40.4195 29.0552 40.9554V45.5356C29.0552 46.0709 28.622 46.5041 28.0867 46.5041Z" fill="#2D2E83"/>
<path d="M21.3069 43.5989C12.7622 43.5989 5.8103 36.6465 5.8103 28.1023C5.8103 27.5665 6.24302 27.1338 6.77884 27.1338C7.31418 27.1338 7.74737 27.5665 7.74737 28.1023C7.74737 35.5791 13.8296 41.6618 21.3069 41.6618C28.7841 41.6618 34.8663 35.5791 34.8663 28.1023C34.8663 27.5665 35.2991 27.1338 35.8349 27.1338C36.3702 27.1338 36.8034 27.5665 36.8034 28.1023C36.8034 36.6465 29.851 43.5989 21.3069 43.5989Z" fill="#2D2E83"/>
<path d="M35.8349 20.3533C35.2991 20.3533 34.8663 19.9201 34.8663 19.3847C34.8663 11.9074 28.7841 5.82525 21.3069 5.82525C13.8296 5.82525 7.74737 11.9074 7.74737 19.3847C7.74737 19.9201 7.31418 20.3533 6.77884 20.3533C6.24302 20.3533 5.8103 19.9201 5.8103 19.3847C5.8103 10.8401 12.7622 3.88818 21.3069 3.88818C29.851 3.88818 36.8034 10.8401 36.8034 19.3847C36.8034 19.9201 36.3702 20.3533 35.8349 20.3533Z" fill="#2D2E83"/>
<path d="M6.77884 29.0712C6.24302 29.0712 5.8103 28.638 5.8103 28.1027V23.2591C5.8103 22.7232 6.24302 22.2905 6.77884 22.2905C7.31418 22.2905 7.74737 22.7232 7.74737 23.2591V28.1027C7.74737 28.638 7.31418 29.0712 6.77884 29.0712Z" fill="#2D2E83"/>
<path d="M35.835 29.0712C35.2992 29.0712 34.8665 28.638 34.8665 28.1027V23.2591C34.8665 22.7232 35.2992 22.2905 35.835 22.2905C36.3703 22.2905 36.8035 22.7232 36.8035 23.2591V28.1027C36.8035 28.638 36.3703 29.0712 35.835 29.0712Z" fill="#2D2E83"/>
<path d="M37.772 24.2276H4.84183C4.30601 24.2276 3.87329 23.7944 3.87329 23.2591C3.87329 22.7232 4.30601 22.2905 4.84183 22.2905H37.772C38.3073 22.2905 38.7405 22.7232 38.7405 23.2591C38.7405 23.7944 38.3073 24.2276 37.772 24.2276Z" fill="#2D2E83"/>
<path d="M37.7717 24.2273C37.5083 24.2273 37.2449 24.1204 37.0538 23.9095C37.0287 23.8834 33.515 20.3531 21.3066 20.3531C9.09824 20.3531 5.58542 23.8825 5.55137 23.9189C5.18438 24.3024 4.57432 24.3237 4.187 23.9638C3.79921 23.6025 3.76847 23.0019 4.12457 22.6085C4.27969 22.4373 8.07627 18.417 21.3075 18.417C34.5388 18.417 38.3354 22.4373 38.4905 22.6085C38.8495 23.0048 38.8197 23.6177 38.4234 23.9771C38.2375 24.1435 38.0039 24.2273 37.7717 24.2273Z" fill="#2D2E83"/>
<path d="M35.835 22.9286C35.2992 22.9286 34.8665 22.4959 34.8665 21.9601V19.385C34.8665 18.8492 35.2992 18.4165 35.835 18.4165C36.3703 18.4165 36.8035 18.8492 36.8035 19.385V21.9601C36.8035 22.4959 36.3703 22.9286 35.835 22.9286Z" fill="#2D2E83"/>
<path d="M6.77884 22.9286C6.24302 22.9286 5.8103 22.4959 5.8103 21.9601V19.385C5.8103 18.8492 6.24302 18.4165 6.77884 18.4165C7.31418 18.4165 7.74737 18.8492 7.74737 19.385V21.9601C7.74737 22.4959 7.31418 22.9286 6.77884 22.9286Z" fill="#2D2E83"/>
<path d="M21.3068 16.4792C19.1701 16.4792 17.4326 14.7413 17.4326 12.6051C17.4326 10.4685 19.1701 8.73096 21.3068 8.73096C23.4434 8.73096 25.1809 10.4685 25.1809 12.6051C25.1809 14.7413 23.4434 16.4792 21.3068 16.4792ZM21.3068 10.668C20.2384 10.668 19.3697 11.5368 19.3697 12.6051C19.3697 13.6734 20.2384 14.5422 21.3068 14.5422C22.3751 14.5422 23.2438 13.6734 23.2438 12.6051C23.2438 11.5368 22.3751 10.668 21.3068 10.668Z" fill="#2D2E83"/>
<path d="M21.3069 5.82553C20.7711 5.82553 20.3384 5.39233 20.3384 4.85699V3.88846C20.3384 3.35264 20.7711 2.91992 21.3069 2.91992C21.8423 2.91992 22.2754 3.35264 22.2754 3.88846V4.85699C22.2754 5.39233 21.8423 5.82553 21.3069 5.82553Z" fill="#2D2E83"/>
<path d="M18.4003 48.4385C18.2551 48.4385 18.1066 48.4059 17.9694 48.3368L14.0953 46.4031C13.6167 46.1647 13.4219 45.5825 13.6612 45.104C13.8995 44.6235 14.4855 44.4329 14.9598 44.6703L18.8339 46.6045C19.3125 46.8424 19.5074 47.4246 19.2681 47.9032C19.0988 48.2432 18.7559 48.4385 18.4003 48.4385Z" fill="#2D2E83"/>
<path d="M18.401 48.4383C17.9953 48.4383 17.6165 48.181 17.4817 47.7752C17.3133 47.2673 17.5876 46.7192 18.096 46.5499L21.0016 45.5842C21.5081 45.4196 22.0572 45.6906 22.2269 46.1981C22.3953 46.706 22.121 47.2541 21.6126 47.4234L18.707 48.3891C18.6053 48.4222 18.5027 48.4383 18.401 48.4383Z" fill="#2D2E83"/>
<path d="M24.2133 48.4381C23.8577 48.4381 23.5148 48.2428 23.3455 47.9018C23.1062 47.4232 23.301 46.8411 23.7792 46.6032L27.6533 44.669C28.1309 44.4316 28.715 44.624 28.9524 45.1026C29.1917 45.5812 28.9969 46.1634 28.5183 46.4017L24.6441 48.3355C24.507 48.4055 24.3585 48.4381 24.2133 48.4381Z" fill="#2D2E83"/>
<path d="M24.2123 48.4382C24.1116 48.4382 24.008 48.4221 23.9073 48.389L21.0017 47.4233C20.4942 47.254 20.219 46.7068 20.3874 46.198C20.5571 45.6915 21.1053 45.4195 21.6127 45.5841L24.5183 46.5498C25.0257 46.7191 25.301 47.2663 25.1326 47.7751C24.9969 48.1809 24.6181 48.4382 24.2123 48.4382Z" fill="#2D2E83"/>
<path d="M21.3358 52.3126C20.8005 52.3126 20.3625 51.8798 20.3625 51.344C20.3625 50.8087 20.7905 50.3755 21.3254 50.3755H21.3358C21.8707 50.3755 22.3043 50.8087 22.3043 51.344C22.3043 51.8798 21.8707 52.3126 21.3358 52.3126Z" fill="#2D2E83"/>
<path d="M61.0166 59.0902H41.6431C41.1073 59.0902 40.6746 58.6575 40.6746 58.1217V55.2151C40.6746 54.6798 41.1073 54.2466 41.6431 54.2466H61.0166C61.552 54.2466 61.9852 54.6798 61.9852 55.2151V58.1217C61.9852 58.6575 61.552 59.0902 61.0166 59.0902ZM42.6116 57.1531H60.0481V56.1837H42.6116V57.1531Z" fill="#2D2E83"/>
<path d="M61.0166 56.1864C60.4808 56.1864 60.0481 55.7537 60.0481 55.2179V53.2798H42.6116V55.2179C42.6116 55.7537 42.1784 56.1864 41.6431 56.1864C41.1073 56.1864 40.6746 55.7537 40.6746 55.2179V52.3113C40.6746 51.776 41.1073 51.3428 41.6431 51.3428H61.0166C61.552 51.3428 61.9852 51.776 61.9852 52.3113V55.2179C61.9852 55.7537 61.552 56.1864 61.0166 56.1864Z" fill="#2D2E83"/>
<path d="M61.0166 53.2797C60.4808 53.2797 60.0481 52.8469 60.0481 52.3111V50.3731H42.6116V52.3111C42.6116 52.8469 42.1784 53.2797 41.6431 53.2797C41.1073 53.2797 40.6746 52.8469 40.6746 52.3111V49.4046C40.6746 48.8692 41.1073 48.436 41.6431 48.436H61.0166C61.552 48.436 61.9852 48.8692 61.9852 49.4046V52.3111C61.9852 52.8469 61.552 53.2797 61.0166 53.2797Z" fill="#2D2E83"/>
<path d="M61.0166 45.5363H41.6431C41.1073 45.5363 40.6746 45.1031 40.6746 44.5677V17.4417C40.6746 16.9063 41.1073 16.4731 41.6431 16.4731H56.1971C56.7329 16.4731 57.1657 16.9063 57.1657 17.4417C57.1657 17.9775 56.7329 18.4102 56.1971 18.4102H42.6116V43.5992H60.0481V22.2711C60.0481 21.7353 60.4808 21.3026 61.0166 21.3026C61.552 21.3026 61.9852 21.7353 61.9852 22.2711V44.5677C61.9852 45.1031 61.552 45.5363 61.0166 45.5363Z" fill="#2D2E83"/>
<path d="M61.0314 23.2394C60.7831 23.2394 60.5353 23.1443 60.3466 22.9556L55.5134 18.1224C55.1345 17.7436 55.1345 17.1317 55.5134 16.7529C55.8922 16.374 56.5041 16.374 56.8829 16.7529L61.7161 21.5861C62.0945 21.9644 62.0945 22.5768 61.7161 22.9556C61.527 23.1453 61.2792 23.2394 61.0314 23.2394Z" fill="#2D2E83"/>
<path d="M56.1983 23.2396C55.6629 23.2396 55.2297 22.8065 55.2297 22.2711V17.4417C55.2297 16.9063 55.6629 16.4731 56.1983 16.4731C56.7341 16.4731 57.1668 16.9063 57.1668 17.4417V22.2711C57.1668 22.8065 56.7331 23.2396 56.1983 23.2396Z" fill="#2D2E83"/>
<path d="M61.0165 23.2393H56.197C55.6617 23.2393 55.2285 22.8061 55.2285 22.2708C55.2285 21.735 55.6617 21.3022 56.197 21.3022H61.0165C61.5519 21.3022 61.9851 21.735 61.9851 22.2708C61.9851 22.8061 61.5519 23.2393 61.0165 23.2393Z" fill="#2D2E83"/>
<path d="M51.3305 36.8129C47.5931 36.8129 44.5508 33.7721 44.5508 30.0341C44.5508 26.2967 47.5931 23.2544 51.3305 23.2544C55.068 23.2544 58.1103 26.2967 58.1103 30.0341C58.1103 33.7721 55.0689 36.8129 51.3305 36.8129ZM51.3305 25.1915C48.6604 25.1915 46.4878 27.364 46.4878 30.0341C46.4878 32.7047 48.6604 34.8759 51.3305 34.8759C54.0006 34.8759 56.1732 32.7047 56.1732 30.0341C56.1732 27.364 54.0006 25.1915 51.3305 25.1915Z" fill="#2D2E83"/>
<path d="M51.3304 32.9401C49.7286 32.9401 48.4248 31.6368 48.4248 30.0345C48.4248 28.4327 49.7286 27.1289 51.3304 27.1289C52.9322 27.1289 54.236 28.4327 54.236 30.0345C54.236 31.6368 52.9331 32.9401 51.3304 32.9401ZM51.3304 29.066C50.7955 29.066 50.3619 29.5001 50.3619 30.0345C50.3619 30.5694 50.7955 31.003 51.3304 31.003C51.8648 31.003 52.2989 30.5694 52.2989 30.0345C52.2989 29.5001 51.8648 29.066 51.3304 29.066Z" fill="#2D2E83"/>
<path d="M47.6772 35.5202C47.5699 35.5202 47.4602 35.5018 47.3538 35.464C46.8492 35.2852 46.5857 34.7319 46.765 34.2282C47.4474 32.2992 49.2828 31.0029 51.3305 31.0029C53.3787 31.0029 55.2141 32.3001 55.8961 34.2292C56.0753 34.7338 55.8109 35.2871 55.3063 35.464C54.8055 35.6441 54.2489 35.3788 54.0715 34.8742C53.6615 33.7179 52.5606 32.94 51.3315 32.94C50.1023 32.94 49.0023 33.7179 48.5914 34.8752C48.449 35.2724 48.0754 35.5202 47.6772 35.5202Z" fill="#2D2E83"/>
<path d="M57.1417 40.6885H45.5193C44.9835 40.6885 44.5508 40.2558 44.5508 39.72C44.5508 39.1847 44.9835 38.7515 45.5193 38.7515H57.1417C57.6771 38.7515 58.1103 39.1847 58.1103 39.72C58.1103 40.2558 57.6771 40.6885 57.1417 40.6885Z" fill="#2D2E83"/>
</g>
<defs>
<clipPath id="clip0">
<rect width="62" height="62" fill="white"/>
</clipPath>
</defs>
</svg>
