<svg id="analytics" xmlns="http://www.w3.org/2000/svg" width="60.125" height="60.125" viewBox="0 0 60.125 60.125">
  <path id="Path_1999" data-name="Path 1999" d="M55.114,6.012H49.1V1a1,1,0,0,0-1-1H12.025a1,1,0,0,0-1,1v5.01H5.01A5.016,5.016,0,0,0,0,11.023V43.089A5.016,5.016,0,0,0,5.01,48.1H24.772l-1.535,6.139a3,3,0,0,0,.814,5.886H36.075a3,3,0,0,0,.814-5.886L35.353,48.1H55.114a5.016,5.016,0,0,0,5.01-5.01V11.023a5.016,5.016,0,0,0-5.01-5.01Zm0,2a3.006,3.006,0,0,1,3.006,3.006v29.06H49.1V8.017ZM47.1,2V40.083H13.027V2ZM5.01,8.017h6.012V40.083H2V11.023A3.006,3.006,0,0,1,5.01,8.017Zm31.064,50.1H24.05a1,1,0,0,1,0-2H36.075a1,1,0,0,1,0,2Zm-1.282-4.008h-9.46l1.5-6.012h6.454ZM55.114,46.1H5.01A3.006,3.006,0,0,1,2,43.089v-1H58.121v1A3.006,3.006,0,0,1,55.114,46.1Zm0,0" fill="#344684"/>
  <path id="Path_2000" data-name="Path 2000" d="M224,344h4.008v2H224Zm0,0" transform="translate(-195.942 -300.911)" fill="#344684"/>
  <path id="Path_2001" data-name="Path 2001" d="M130.035,60.586,124.8,62.067l.545,1.928,5.231-1.481a37.183,37.183,0,0,0,15.969-9.3l1.7-1.75V53.01h2V49h-.009a.98.98,0,0,0-.069-.389,1,1,0,0,0-.924-.613h-4.008v2h1.628l-1.748,1.789a35.167,35.167,0,0,1-15.089,8.793Zm0,0" transform="translate(-109.168 -41.987)" fill="#344684"/>
  <path id="Path_2002" data-name="Path 2002" d="M121,206.029h4.008a1,1,0,0,0,1-1V193a1,1,0,0,0-1-1H121a1,1,0,0,0-1,1v12.025A1,1,0,0,0,121,206.029ZM122,194h2v10.021h-2Zm0,0" transform="translate(-104.969 -167.95)" fill="#e5b909"/>
  <path id="Path_2003" data-name="Path 2003" d="M189.01,176H185a1,1,0,0,0-1,1v14.029a1,1,0,0,0,1,1h4.008a1,1,0,0,0,1-1V177A1,1,0,0,0,189.01,176Zm-1,14.029h-2V178h2Zm0,0" transform="translate(-160.952 -153.954)" fill="#e5b909"/>
  <path id="Path_2004" data-name="Path 2004" d="M253.01,144H249a1,1,0,0,0-1,1v18.037a1,1,0,0,0,1,1h4.008a1,1,0,0,0,1-1V145A1,1,0,0,0,253.01,144Zm-1,18.037h-2V146h2Zm0,0" transform="translate(-216.936 -125.963)" fill="#e5b909"/>
  <path id="Path_2005" data-name="Path 2005" d="M312,113v22.046a1,1,0,0,0,1,1h4.008a1,1,0,0,0,1-1V113a1,1,0,0,0-1-1H313A1,1,0,0,0,312,113Zm2,1h2v20.042h-2Zm0,0" transform="translate(-272.919 -97.971)" fill="#e5b909"/>
  <path id="Path_2006" data-name="Path 2006" d="M120,32h12.025v2H120Zm0,0" transform="translate(-104.969 -27.992)" fill="#344684"/>
  <path id="Path_2007" data-name="Path 2007" d="M120,64h4.008v2H120Zm0,0" transform="translate(-104.969 -55.983)" fill="#344684"/>
  <path id="Path_2008" data-name="Path 2008" d="M168,64h6.012v2H168Zm0,0" transform="translate(-146.956 -55.983)" fill="#344684"/>
</svg>
