<svg width="50" height="40" viewBox="0 0 50 40" fill="none" xmlns="http://www.w3.org/2000/svg">
<path fill-rule="evenodd" clip-rule="evenodd" d="M33.3333 3.27559C33.3333 2.37101 34.266 1.6377 35.4166 1.6377H45.8333C46.7995 1.6377 47.6389 2.15998 47.8609 2.89928C48.0829 3.63858 47.6292 4.40086 46.765 4.74057L13.4316 17.8437C12.9868 18.0186 12.4771 18.0626 11.9946 17.9678L3.66131 16.3299C2.54507 16.1105 1.8664 15.2212 2.14546 14.3436C2.42452 13.466 3.55563 12.9325 4.67187 13.1519L12.2575 14.6428L37.0081 4.91349H35.4166C34.266 4.91349 33.3333 4.18018 33.3333 3.27559ZM46.9285 8.4339C47.5427 8.73233 47.9166 9.25952 47.9166 9.82718V31.1198C47.9166 32.0244 46.9839 32.7577 45.8333 32.7577H37.4999C36.3493 32.7577 35.4166 32.0244 35.4166 31.1198V13.103C35.4166 12.4826 35.8624 11.9154 36.5682 11.638L44.9016 8.3622C45.5474 8.10833 46.3143 8.13546 46.9285 8.4339ZM39.5833 14.1152V29.4819H43.7499V12.4773L39.5833 14.1152ZM30.2619 14.9855C30.8761 15.2839 31.2499 15.8111 31.2499 16.3788V31.1198C31.2499 32.0244 30.3172 32.7577 29.1666 32.7577H20.8333C19.6827 32.7577 18.7499 32.0244 18.7499 31.1198V19.6546C18.7499 19.0342 19.1958 18.467 19.9016 18.1896L28.2349 14.9138C28.8807 14.6599 29.6477 14.687 30.2619 14.9855ZM22.9166 20.6668V29.4819H27.0833V19.0289L22.9166 20.6668ZM2.88448 20.0014C3.39014 19.6911 4.0495 19.5811 4.67187 19.7035L13.0052 21.3414C13.9326 21.5236 14.5833 22.1788 14.5833 22.9303V31.1198C14.5833 32.0244 13.6505 32.7577 12.4999 32.7577H4.16659C3.016 32.7577 2.08326 32.0244 2.08326 31.1198V21.2924C2.08326 20.7881 2.37882 20.3118 2.88448 20.0014ZM6.24992 23.3902V29.4819H10.4166V24.2092L6.24992 23.3902ZM2.08326 36.0335C2.08326 35.1289 3.016 34.3956 4.16659 34.3956H45.8333C46.9839 34.3956 47.9166 35.1289 47.9166 36.0335C47.9166 36.9381 46.9839 37.6714 45.8333 37.6714H4.16659C3.016 37.6714 2.08326 36.9381 2.08326 36.0335Z" fill="#2D2E83"/>
<path d="M6.25 29.4821V23.3904L10.4167 24.2094V29.4821H6.25Z" fill="white"/>
<path d="M22.9167 29.4821V20.667L27.0833 19.0291V29.4821H22.9167Z" fill="white"/>
<path d="M39.5833 29.4821V14.1154L43.75 12.4775V29.4821H39.5833Z" fill="white"/>
</svg>
