<svg width="185" height="62" viewBox="0 0 185 62" fill="none" xmlns="http://www.w3.org/2000/svg">
<path d="M125.271 29.5041V33.0245H123.065V35.3331H125.271V43.1773C125.271 45.8559 126.483 46.9273 129.531 46.9273C130.067 46.9273 130.577 46.8635 131.024 46.787V44.5038C130.641 44.5421 130.399 44.5676 129.978 44.5676C128.613 44.5676 128.013 43.9299 128.013 42.4758V35.3331H131.024V33.0245H128.013V29.5041H125.271Z" fill="white"/>
<path d="M138.789 47.1186C142.845 47.1186 145.333 44.4018 145.333 39.8993C145.333 35.4224 142.833 32.6928 138.789 32.6928C134.733 32.6928 132.233 35.4224 132.233 39.8993C132.233 44.4018 134.72 47.1186 138.789 47.1186ZM138.789 44.6824C136.404 44.6824 135.065 42.935 135.065 39.8993C135.065 36.8892 136.404 35.129 138.789 35.129C141.162 35.129 142.514 36.8892 142.514 39.8993C142.514 42.9222 141.162 44.6824 138.789 44.6824Z" fill="white"/>
<path d="M147.461 46.8507H150.203V38.6494C150.203 36.6979 151.67 35.3841 153.749 35.3841C154.233 35.3841 155.05 35.4734 155.279 35.5499V32.8459C154.986 32.7694 154.463 32.7311 154.055 32.7311C152.244 32.7311 150.7 33.726 150.305 35.0908H150.101V32.9607H147.461V46.8507Z" fill="white"/>
<path d="M162.088 35.027C164.116 35.027 165.443 36.4428 165.507 38.6239H158.491C158.645 36.4555 160.06 35.027 162.088 35.027ZM165.494 43.1008C164.984 44.185 163.848 44.7845 162.19 44.7845C159.997 44.7845 158.581 43.2411 158.491 40.8049V40.6519H168.3V39.6953C168.3 35.3331 165.966 32.6928 162.101 32.6928C158.185 32.6928 155.698 35.5117 155.698 39.9504C155.698 44.389 158.134 47.1186 162.114 47.1186C165.29 47.1186 167.509 45.588 168.134 43.1008H165.494Z" fill="white"/>
<path d="M107.288 41.7214C107.499 45.1321 110.341 47.3134 114.572 47.3134C119.093 47.3134 121.922 45.0264 121.922 41.3776C121.922 38.5089 120.309 36.9225 116.396 36.0103L114.294 35.4947C111.809 34.913 110.804 34.1331 110.804 32.7714C110.804 31.0528 112.364 29.9291 114.704 29.9291C116.925 29.9291 118.459 31.0264 118.736 32.7846H121.618C121.446 29.5721 118.617 27.3115 114.744 27.3115C110.579 27.3115 107.803 29.5721 107.803 32.9697C107.803 35.7723 109.376 37.4381 112.827 38.2445L115.286 38.8394C117.811 39.4343 118.921 40.3068 118.921 41.761C118.921 43.4532 117.176 44.6827 114.797 44.6827C112.245 44.6827 110.474 43.5325 110.222 41.7214H107.288Z" fill="white"/>
<path d="M78.8803 32.7311C76.9925 32.7311 75.3599 33.675 74.5181 35.2566H74.314V32.9607H71.6738V51.468H74.416V44.7462H74.6329C75.3599 46.213 76.9288 47.0803 78.9058 47.0803C82.4133 47.0803 84.6454 44.3125 84.6454 39.8993C84.6454 35.4862 82.4133 32.7311 78.8803 32.7311ZM78.1022 44.6186C75.8063 44.6186 74.365 42.8074 74.365 39.9121C74.365 37.004 75.8063 35.1928 78.115 35.1928C80.4363 35.1928 81.8266 36.9657 81.8266 39.8993C81.8266 42.8457 80.4363 44.6186 78.1022 44.6186Z" fill="white"/>
<path d="M94.2412 32.7311C92.3535 32.7311 90.7208 33.675 89.879 35.2566H89.6749V32.9607H87.0347V51.468H89.777V44.7462H89.9938C90.7208 46.213 92.2897 47.0803 94.2667 47.0803C97.7743 47.0803 100.006 44.3125 100.006 39.8993C100.006 35.4862 97.7743 32.7311 94.2412 32.7311ZM93.4631 44.6186C91.1673 44.6186 89.726 42.8074 89.726 39.9121C89.726 37.004 91.1673 35.1928 93.4759 35.1928C95.7973 35.1928 97.1876 36.9657 97.1876 39.8993C97.1876 42.8457 95.7973 44.6186 93.4631 44.6186Z" fill="white"/>
<path d="M66.7536 46.8507H69.9L63.0123 27.7742H59.8263L52.9387 46.8507H55.9793L57.7375 41.7875H65.0086L66.7536 46.8507ZM61.2673 31.2379H61.492L64.255 39.3021H58.4911L61.2673 31.2379Z" fill="white"/>
<path d="M54.7814 13.3844V22.5871H58.104C60.8463 22.5871 62.4343 20.897 62.4343 17.9571C62.4343 15.0617 60.8336 13.3844 58.104 13.3844H54.7814ZM56.2099 14.6854H57.9446C59.8514 14.6854 60.9802 15.8971 60.9802 17.9762C60.9802 20.0871 59.8706 21.2861 57.9446 21.2861H56.2099V14.6854Z" fill="white"/>
<path d="M67.2977 22.721C69.3257 22.721 70.5693 21.3626 70.5693 19.1114C70.5693 16.8729 69.3194 15.5081 67.2977 15.5081C65.2697 15.5081 64.0197 16.8729 64.0197 19.1114C64.0197 21.3626 65.2633 22.721 67.2977 22.721ZM67.2977 21.5029C66.1051 21.5029 65.4355 20.6292 65.4355 19.1114C65.4355 17.6063 66.1051 16.7262 67.2977 16.7262C68.4839 16.7262 69.1599 17.6063 69.1599 19.1114C69.1599 20.6228 68.4839 21.5029 67.2977 21.5029Z" fill="white"/>
<path d="M81.1597 15.642H79.7885L78.5513 20.9417H78.4429L77.0144 15.642H75.7006L74.2721 20.9417H74.17L72.9264 15.642H71.5362L73.4494 22.5871H74.8588L76.2873 17.4724H76.3958L77.8307 22.5871H79.2528L81.1597 15.642Z" fill="white"/>
<path d="M82.7387 22.5871H84.1099V18.5246C84.1099 17.4405 84.754 16.7645 85.768 16.7645C86.782 16.7645 87.2667 17.3193 87.2667 18.4354V22.5871H88.6379V18.091C88.6379 16.4392 87.7833 15.5081 86.2336 15.5081C85.1877 15.5081 84.4989 15.9737 84.1609 16.7453H84.0589V15.642H82.7387V22.5871Z" fill="white"/>
<path d="M90.7973 22.5871H92.1684V12.9316H90.7973V22.5871Z" fill="white"/>
<path d="M97.3252 22.721C99.3532 22.721 100.597 21.3626 100.597 19.1114C100.597 16.8729 99.3468 15.5081 97.3252 15.5081C95.2972 15.5081 94.0472 16.8729 94.0472 19.1114C94.0472 21.3626 95.2908 22.721 97.3252 22.721ZM97.3252 21.5029C96.1326 21.5029 95.463 20.6292 95.463 19.1114C95.463 17.6063 96.1326 16.7262 97.3252 16.7262C98.5114 16.7262 99.1874 17.6063 99.1874 19.1114C99.1874 20.6228 98.5114 21.5029 97.3252 21.5029Z" fill="white"/>
<path d="M104.682 21.5475C103.936 21.5475 103.394 21.184 103.394 20.559C103.394 19.9468 103.828 19.6216 104.784 19.5578L106.481 19.4494V20.0297C106.481 20.8907 105.715 21.5475 104.682 21.5475ZM104.331 22.7019C105.243 22.7019 106.002 22.3065 106.417 21.6113H106.525V22.5871H107.845V17.8423C107.845 16.3755 106.863 15.5081 105.122 15.5081C103.547 15.5081 102.425 16.2734 102.284 17.466H103.611C103.764 16.9749 104.293 16.6943 105.058 16.6943C105.996 16.6943 106.481 17.1089 106.481 17.8423V18.4417L104.599 18.5502C102.948 18.6522 102.016 19.3728 102.016 20.6228C102.016 21.8919 102.992 22.7019 104.331 22.7019Z" fill="white"/>
<path d="M112.498 22.7019C113.455 22.7019 114.265 22.2491 114.679 21.4902H114.788V22.5871H116.102V12.9316H114.73V16.7453H114.628C114.252 15.9801 113.449 15.5273 112.498 15.5273C110.745 15.5273 109.616 16.9175 109.616 19.1114C109.616 21.3116 110.732 22.7019 112.498 22.7019ZM112.887 16.7581C114.035 16.7581 114.756 17.6701 114.756 19.1177C114.756 20.5718 114.042 21.471 112.887 21.471C111.727 21.471 111.032 20.5846 111.032 19.1114C111.032 17.6509 111.733 16.7581 112.887 16.7581Z" fill="white"/>
<path d="M124.993 22.721C127.021 22.721 128.265 21.3626 128.265 19.1114C128.265 16.8729 127.015 15.5081 124.993 15.5081C122.965 15.5081 121.715 16.8729 121.715 19.1114C121.715 21.3626 122.959 22.721 124.993 22.721ZM124.993 21.5029C123.8 21.5029 123.131 20.6292 123.131 19.1114C123.131 17.6063 123.8 16.7262 124.993 16.7262C126.179 16.7262 126.855 17.6063 126.855 19.1114C126.855 20.6228 126.179 21.5029 124.993 21.5029Z" fill="white"/>
<path d="M130.08 22.5871H131.451V18.5246C131.451 17.4405 132.095 16.7645 133.109 16.7645C134.123 16.7645 134.608 17.3193 134.608 18.4354V22.5871H135.979V18.091C135.979 16.4392 135.124 15.5081 133.575 15.5081C132.529 15.5081 131.84 15.9737 131.502 16.7453H131.4V15.642H130.08V22.5871Z" fill="white"/>
<path d="M142.294 13.9138V15.6739H141.19V16.8282H142.294V20.7504C142.294 22.0896 142.9 22.6253 144.424 22.6253C144.692 22.6253 144.947 22.5934 145.17 22.5552V21.4136C144.979 21.4328 144.857 21.4455 144.647 21.4455C143.965 21.4455 143.665 21.1266 143.665 20.3996V16.8282H145.17V15.6739H143.665V13.9138H142.294Z" fill="white"/>
<path d="M147.01 22.5871H148.382V18.531C148.382 17.4787 149.007 16.7709 150.129 16.7709C151.098 16.7709 151.615 17.3321 151.615 18.4417V22.5871H152.986V18.1037C152.986 16.452 152.074 15.5145 150.595 15.5145C149.549 15.5145 148.815 15.9801 148.477 16.7581H148.369V12.9316H147.01V22.5871Z" fill="white"/>
<path d="M157.932 16.6752C158.946 16.6752 159.61 17.3831 159.642 18.4736H156.134C156.211 17.3895 156.918 16.6752 157.932 16.6752ZM159.635 20.7121C159.38 21.2542 158.813 21.5539 157.983 21.5539C156.887 21.5539 156.179 20.7823 156.134 19.5642V19.4876H161.038V19.0093C161.038 16.8282 159.871 15.5081 157.939 15.5081C155.981 15.5081 154.737 16.9175 154.737 19.1369C154.737 21.3562 155.955 22.721 157.945 22.721C159.533 22.721 160.643 21.9557 160.955 20.7121H159.635Z" fill="white"/>
<path d="M38.0597 31.1946C38.0929 28.6116 39.4801 26.1675 41.6807 24.8146C40.2925 22.8319 37.9672 21.5748 35.548 21.4991C32.9677 21.2283 30.4662 23.0432 29.1513 23.0432C27.811 23.0432 25.7865 21.526 23.6065 21.5709C20.765 21.6627 18.116 23.2782 16.7335 25.7625C13.7618 30.9076 15.9784 38.4692 18.8251 42.6282C20.2494 44.6647 21.9139 46.9395 24.092 46.8589C26.2233 46.7705 27.0193 45.4998 29.592 45.4998C32.1409 45.4998 32.8877 46.8589 35.1099 46.8076C37.3969 46.7704 38.8379 44.762 40.2121 42.7062C41.2355 41.2551 42.0229 39.6513 42.5453 37.9543C39.8577 36.8175 38.0628 34.1128 38.0597 31.1946Z" fill="white"/>
<path d="M33.8622 18.764C35.1092 17.2671 35.7236 15.343 35.5748 13.4004C33.6697 13.6005 31.9099 14.511 30.6461 15.9505C29.4102 17.357 28.7671 19.2472 28.8887 21.1156C30.7945 21.1352 32.668 20.2494 33.8622 18.764Z" fill="white"/>
<path d="M29.4254 61.4579L29.4445 60.4581L29.4254 61.4579ZM184.385 32.0381L183.385 32.0189L184.385 32.0381ZM154.965 61.4579L154.946 60.4581L154.965 61.4579ZM154.965 0.00550406L154.984 -0.994312L154.965 0.00550406ZM184.385 29.4254L185.385 29.4062L184.385 29.4254ZM30.7317 1H153.659V-1H30.7317V1ZM153.659 60.4634H30.7317V62.4634H153.659V60.4634ZM30.7317 60.4634C30.0477 60.4634 29.7198 60.4634 29.4445 60.4581L29.4062 62.4577C29.7055 62.4635 30.057 62.4634 30.7317 62.4634V60.4634ZM-1 30.7317C-1 31.4064 -1.00005 31.7579 -0.994312 32.0572L1.00532 32.0189C1.00005 31.7436 1 31.4157 1 30.7317H-1ZM29.4445 60.4581C13.8633 60.1596 1.30383 47.6001 1.00532 32.0189L-0.994312 32.0572C-0.675217 48.713 12.7504 62.1386 29.4062 62.4577L29.4445 60.4581ZM183.39 30.7317C183.39 31.4157 183.39 31.7436 183.385 32.0189L185.385 32.0572C185.39 31.7579 185.39 31.4064 185.39 30.7317H183.39ZM153.659 62.4634C154.333 62.4634 154.685 62.4635 154.984 62.4577L154.946 60.4581C154.67 60.4634 154.343 60.4634 153.659 60.4634V62.4634ZM183.385 32.0189C183.086 47.6001 170.527 60.1596 154.946 60.4581L154.984 62.4577C171.64 62.1386 185.065 48.713 185.385 32.0572L183.385 32.0189ZM153.659 1C154.343 1 154.67 1.00005 154.946 1.00532L154.984 -0.994312C154.685 -1.00005 154.333 -1 153.659 -1V1ZM185.39 30.7317C185.39 30.057 185.39 29.7055 185.385 29.4062L183.385 29.4445C183.39 29.7198 183.39 30.0477 183.39 30.7317H185.39ZM154.946 1.00532C170.527 1.30383 183.086 13.8633 183.385 29.4445L185.385 29.4062C185.065 12.7504 171.64 -0.675217 154.984 -0.994312L154.946 1.00532ZM30.7317 -1C30.057 -1 29.7055 -1.00005 29.4062 -0.994312L29.4445 1.00532C29.7198 1.00005 30.0477 1 30.7317 1V-1ZM1 30.7317C1 30.0477 1.00005 29.7198 1.00532 29.4445L-0.994312 29.4062C-1.00005 29.7055 -1 30.057 -1 30.7317H1ZM29.4062 -0.994312C12.7504 -0.675217 -0.675217 12.7504 -0.994312 29.4062L1.00532 29.4445C1.30383 13.8633 13.8633 1.30383 29.4445 1.00532L29.4062 -0.994312Z" fill="#A6A6A6"/>
</svg>
