<svg width="56" height="56" viewBox="0 0 56 56" fill="none" xmlns="http://www.w3.org/2000/svg">
<path d="M54.8461 31.7549L47.3127 26.2259C47.3004 26.2168 47.2878 26.2081 47.2752 26.1998C46.5636 25.7364 45.7152 25.684 45.0057 26.0599C44.2812 26.444 43.8385 27.218 43.8214 28.1306C43.8213 28.1357 43.8213 28.1408 43.8213 28.1459V29.7626H34.0973C33.5032 29.7626 32.946 29.9225 32.4652 30.2004V24.4657C32.4652 24.0127 32.098 23.6454 31.6449 23.6454C31.1919 23.6454 30.8246 24.0127 30.8246 24.4657V50.0426H25.1732V15.0249C25.1732 14.5718 24.8059 14.2046 24.3529 14.2046H22.8583C22.583 14.1976 22.3833 14.1025 22.2953 13.9367C22.2182 13.7912 22.2356 13.6095 22.3426 13.4354L27.5348 6.36402C27.5497 6.34378 27.5636 6.323 27.5764 6.30145C27.7063 6.08577 27.8646 5.95703 28.0001 5.95703H28.0003C28.135 5.95714 28.292 6.08533 28.4204 6.29992C28.4337 6.32202 28.4479 6.34334 28.4631 6.36402L33.656 13.4364C33.7632 13.6095 33.781 13.7905 33.7043 13.9354C33.6176 14.0996 33.4119 14.1975 33.1394 14.2045H31.6448C31.1918 14.2045 30.8245 14.5717 30.8245 15.0248V20.8629C30.8245 21.3159 31.1918 21.6832 31.6448 21.6832C32.0978 21.6832 32.4651 21.3159 32.4651 20.8629V15.8451H33.1485C33.154 15.8451 33.1594 15.8451 33.1648 15.845C34.0418 15.8276 34.7856 15.4004 35.1547 14.7022C35.5153 14.02 35.4648 13.2057 35.0198 12.5239C35.0116 12.5113 35.0031 12.4989 34.9941 12.4868L29.8064 5.42164C29.3725 4.71945 28.7171 4.31717 28.0021 4.31641C28.0013 4.31641 28.0007 4.31641 27.9999 4.31641C27.2846 4.31641 26.6277 4.71825 26.1917 5.42098L21.0036 12.4868C20.9943 12.4995 20.9853 12.5124 20.9768 12.5255C20.5333 13.2087 20.4843 14.0234 20.8458 14.7052C21.2149 15.4015 21.9578 15.8275 22.8329 15.8449C22.8383 15.845 22.8437 15.845 22.8492 15.845H23.5326V22.7189C23.0518 22.4409 22.4946 22.281 21.9005 22.281H12.1765V20.6675C12.1765 20.663 12.1765 20.6586 12.1764 20.6541C12.1615 19.7411 11.7195 18.966 10.9943 18.5805C10.2839 18.2031 9.4348 18.2545 8.72266 18.7184C8.70986 18.7267 8.69739 18.7353 8.68514 18.7444L1.15128 24.2737C0.419782 24.727 0.000766673 25.4097 1.0482e-06 26.1523C-0.000764577 26.8961 0.417923 27.5809 1.15052 28.0367L8.68503 33.5665C8.69728 33.5755 8.70986 33.5842 8.72255 33.5925C9.43458 34.0563 10.2837 34.1078 10.9942 33.7303C11.7194 33.3449 12.1614 32.5696 12.1763 31.6568C12.1763 31.6523 12.1764 31.6478 12.1764 31.6433V30.0298H16.2404V39.6487C16.2404 40.1017 16.6077 40.469 17.0608 40.469C17.5138 40.469 17.8811 40.1017 17.8811 39.6487V29.2095C17.8811 28.7565 17.5138 28.3892 17.0608 28.3892H11.3561C10.903 28.3892 10.5358 28.7565 10.5358 29.2095V31.6359C10.5293 31.949 10.4188 32.1782 10.2242 32.2816C10.0509 32.3736 9.83686 32.354 9.6343 32.2283L2.09388 26.6942C2.07419 26.6798 2.05384 26.6662 2.03295 26.6535C1.78708 26.5049 1.64041 26.3182 1.64052 26.1541C1.64063 25.991 1.78686 25.8058 2.03142 25.6586C2.05286 25.6457 2.07364 25.6318 2.09377 25.6171L9.63419 20.0829C9.83675 19.9571 10.0508 19.9373 10.224 20.0295C10.4186 20.133 10.5292 20.3622 10.5357 20.6753V23.1017C10.5357 23.5547 10.9029 23.922 11.356 23.922H21.9003C22.8002 23.922 23.5324 24.6541 23.5324 25.5541V50.0427H17.881V43.2514C17.881 42.7984 17.5137 42.4311 17.0606 42.4311C16.6076 42.4311 16.2403 42.7984 16.2403 43.2514V50.863C16.2403 51.3161 16.6076 51.6833 17.0606 51.6833H38.9367C39.3898 51.6833 39.757 51.3161 39.757 50.863V37.508H43.8211V39.1247C43.8211 39.1298 43.8211 39.135 43.8212 39.14C43.8383 40.0536 44.2816 40.8285 45.0072 41.2131C45.7163 41.5889 46.5641 41.5369 47.2749 41.074C47.2877 41.0655 47.3003 41.0569 47.3127 41.0478L54.846 35.5157C55.5799 35.0622 55.9998 34.3789 55.9998 33.6354C55.9998 32.8918 55.5801 32.2085 54.8461 31.7549ZM53.967 34.1303C53.9453 34.1434 53.9241 34.1575 53.9036 34.1725L46.3633 39.7096C46.1613 39.8352 45.9481 39.8549 45.7756 39.7634C45.5806 39.6601 45.4694 39.4304 45.4619 39.1161V36.6877C45.4619 36.2347 45.0947 35.8674 44.6416 35.8674H38.937C38.4839 35.8674 38.1166 36.2347 38.1166 36.6877V50.0426H32.4652V33.0354C32.4652 32.1355 33.1974 31.4033 34.0973 31.4033H44.6416C45.0947 31.4033 45.4619 31.0361 45.4619 30.583V28.1546C45.4693 27.8414 45.5801 27.6125 45.7741 27.5097C45.9468 27.4182 46.1606 27.4383 46.3634 27.5643L53.9038 33.0984C53.9243 33.1134 53.9454 33.1275 53.9672 33.1405C54.2128 33.288 54.3595 33.4729 54.3595 33.6355C54.3595 33.798 54.2127 33.9828 53.967 34.1303Z" fill="#2D2E83"/>
</svg>
