<svg width="51" height="51" viewBox="0 0 51 51" fill="none" xmlns="http://www.w3.org/2000/svg">
<path d="M0.84375 43.875H13.5V42.1875H1.6875V1.6875H16.0312V9.28125C16.0313 9.44812 16.0808 9.61124 16.1735 9.74999C16.2662 9.88873 16.3979 9.99687 16.5521 10.0607C16.7063 10.1246 16.8759 10.1413 17.0396 10.1088C17.2033 10.0762 17.3536 9.99589 17.4716 9.87791L19.4062 7.94322L21.3409 9.87791C21.4991 10.0361 21.7137 10.1249 21.9375 10.1249C22.1613 10.1249 22.3759 10.0361 22.5341 9.87791L24.4688 7.94322L26.4034 9.87791C26.5214 9.99589 26.6717 10.0762 26.8354 10.1088C26.9991 10.1413 27.1687 10.1246 27.3229 10.0607C27.4771 9.99687 27.6088 9.88873 27.7015 9.74999C27.7942 9.61124 27.8437 9.44812 27.8438 9.28125V1.6875H42.1875V15.1875H43.875V0.84375C43.875 0.619974 43.7861 0.405364 43.6279 0.247131C43.4696 0.0888977 43.255 2.23772e-06 43.0312 0H0.84375C0.619974 2.23772e-06 0.405364 0.0888977 0.247131 0.247131C0.0888977 0.405364 2.23772e-06 0.619974 0 0.84375V43.0312C2.23772e-06 43.255 0.0888977 43.4696 0.247131 43.6279C0.405364 43.7861 0.619974 43.875 0.84375 43.875ZM26.1562 7.24428L25.0654 6.15334C24.9071 5.99516 24.6925 5.9063 24.4688 5.9063C24.245 5.9063 24.0304 5.99516 23.8721 6.15334L21.9375 8.08803L20.0029 6.15334C19.8446 5.99516 19.63 5.9063 19.4062 5.9063C19.1825 5.9063 18.9679 5.99516 18.8096 6.15334L17.7188 7.24428V1.6875H26.1562V7.24428Z" fill="#2D2E83"/>
<path d="M11.8125 19.4062C11.8125 19.1825 11.7236 18.9679 11.5654 18.8096C11.4071 18.6514 11.1925 18.5625 10.9688 18.5625H4.21875C3.99497 18.5625 3.78036 18.6514 3.62213 18.8096C3.4639 18.9679 3.375 19.1825 3.375 19.4062V26.1562C3.375 26.38 3.4639 26.5946 3.62213 26.7529C3.78036 26.9111 3.99497 27 4.21875 27H10.9688C11.1925 27 11.4071 26.9111 11.5654 26.7529C11.7236 26.5946 11.8125 26.38 11.8125 26.1562V19.4062ZM10.125 25.3125H5.0625V20.25H10.125V25.3125Z" fill="#2D2E83"/>
<path d="M10.9688 28.6875H4.21875C3.99497 28.6875 3.78036 28.7764 3.62213 28.9346C3.4639 29.0929 3.375 29.3075 3.375 29.5312V36.2812C3.375 36.505 3.4639 36.7196 3.62213 36.8779C3.78036 37.0361 3.99497 37.125 4.21875 37.125H10.9688C11.1925 37.125 11.4071 37.0361 11.5654 36.8779C11.7236 36.7196 11.8125 36.505 11.8125 36.2812V29.5312C11.8125 29.3075 11.7236 29.0929 11.5654 28.9346C11.4071 28.7764 11.1925 28.6875 10.9688 28.6875ZM10.125 35.4375H5.0625V30.375H10.125V35.4375Z" fill="#2D2E83"/>
<path d="M13.5 25.3125H27V27H13.5V25.3125Z" fill="#2D2E83"/>
<path d="M13.5 35.4375H27V37.125H13.5V35.4375Z" fill="#2D2E83"/>
<path d="M49.7812 16.875H29.5312C29.3075 16.875 29.0929 16.9639 28.9346 17.1221C28.7764 17.2804 28.6875 17.495 28.6875 17.7188V40.5H19.4062C18.2878 40.5013 17.2154 40.9462 16.4245 41.737C15.6337 42.5279 15.1888 43.6003 15.1875 44.7188V49.7812C15.1875 50.005 15.2764 50.2196 15.4346 50.3779C15.5929 50.5361 15.8075 50.625 16.0312 50.625H36.2812C36.505 50.625 36.7196 50.5361 36.8779 50.3779C37.0361 50.2196 37.125 50.005 37.125 49.7812V48.9375H46.4062C47.5247 48.9362 48.5971 48.4913 49.388 47.7005C50.1788 46.9096 50.6237 45.8372 50.625 44.7188V17.7188C50.625 17.495 50.5361 17.2804 50.3779 17.1221C50.2196 16.9639 50.005 16.875 49.7812 16.875ZM35.4375 44.7188V48.9375H16.875V44.7188C16.8758 44.0477 17.1427 43.4043 17.6172 42.9297C18.0918 42.4552 18.7352 42.1883 19.4062 42.1875H36.2833C35.7335 42.9168 35.4365 43.8055 35.4375 44.7188ZM37.125 47.25V44.7188C37.125 44.0474 37.3917 43.4036 37.8664 42.9289C38.3411 42.4542 38.9849 42.1875 39.6562 42.1875C40.3276 42.1875 40.9714 42.4542 41.4461 42.9289C41.9208 43.4036 42.1875 44.0474 42.1875 44.7188C42.1865 45.632 42.4834 46.5207 43.0333 47.25H37.125ZM48.9375 44.7188C48.9375 45.3901 48.6708 46.0339 48.1961 46.5086C47.7214 46.9833 47.0776 47.25 46.4062 47.25C45.7349 47.25 45.0911 46.9833 44.6164 46.5086C44.1417 46.0339 43.875 45.3901 43.875 44.7188C43.8737 43.6003 43.4288 42.5279 42.638 41.737C41.8471 40.9462 40.7747 40.5013 39.6562 40.5H30.375V18.5625H48.9375V44.7188Z" fill="#2D2E83"/>
<path d="M32.9062 25.3125H46.4062C46.63 25.3125 46.8446 25.2236 47.0029 25.0654C47.1611 24.9071 47.25 24.6925 47.25 24.4688V21.0938C47.25 20.87 47.1611 20.6554 47.0029 20.4971C46.8446 20.3389 46.63 20.25 46.4062 20.25H32.9062C32.6825 20.25 32.4679 20.3389 32.3096 20.4971C32.1514 20.6554 32.0625 20.87 32.0625 21.0938V24.4688C32.0625 24.6925 32.1514 24.9071 32.3096 25.0654C32.4679 25.2236 32.6825 25.3125 32.9062 25.3125ZM33.75 21.9375H45.5625V23.625H33.75V21.9375Z" fill="#2D2E83"/>
<path d="M32.0625 27H36.2812V28.6875H32.0625V27Z" fill="#2D2E83"/>
<path d="M37.9688 27H43.0312V28.6875H37.9688V27Z" fill="#2D2E83"/>
<path d="M44.7188 27H47.25V28.6875H44.7188V27Z" fill="#2D2E83"/>
<path d="M41.3438 30.375H47.25V32.0625H41.3438V30.375Z" fill="#2D2E83"/>
<path d="M32.0625 30.375H39.6562V32.0625H32.0625V30.375Z" fill="#2D2E83"/>
<path d="M32.0625 33.75H33.75V35.4375H32.0625V33.75Z" fill="#2D2E83"/>
<path d="M35.4375 33.75H40.5V35.4375H35.4375V33.75Z" fill="#2D2E83"/>
<path d="M42.1875 33.75H47.25V35.4375H42.1875V33.75Z" fill="#2D2E83"/>
<path d="M32.0625 37.125H35.4375V38.8125H32.0625V37.125Z" fill="#2D2E83"/>
<path d="M37.125 37.125H40.5V38.8125H37.125V37.125Z" fill="#2D2E83"/>
<path d="M42.1875 37.125H47.25V38.8125H42.1875V37.125Z" fill="#2D2E83"/>
</svg>
