<svg width="164" height="164" viewBox="0 0 164 164" fill="none" xmlns="http://www.w3.org/2000/svg">
<g clip-path="url(#clip0)">
<path d="M68.1057 34.8464C69.1317 37.9826 71.2842 40.612 74.0834 42.2565V43.6864L63.4913 47.8341C62.5147 48.1874 54.2253 51.4953 54.2253 62.0342V71.2588C54.2253 72.6887 55.3842 73.8502 56.8147 73.8502H63.3936C64.8241 73.8502 65.983 72.6909 65.983 71.2607C65.983 69.8309 64.8241 68.6713 63.3936 68.6713H59.4038V62.0338C59.4038 54.8694 65.0051 52.7916 65.2226 52.7141C65.2626 52.7006 65.3027 52.6862 65.3418 52.6705L75.0418 48.8716L80.194 53.8893C80.678 54.3605 81.3263 54.6241 82.0005 54.6241C82.0143 54.6241 82.0278 54.6238 82.0415 54.6238C82.7305 54.6129 83.3869 54.3275 83.8651 53.8313L88.73 48.7816L98.4082 52.6625C98.4537 52.6807 98.5004 52.6977 98.5466 52.7137C98.6049 52.7333 104.366 54.7538 104.366 62.0332V68.6707H89.8424H73.9264H71.6212C70.1906 68.6707 69.0318 69.8299 69.0318 71.2601C69.0318 72.69 70.1906 73.8495 71.6212 73.8495H73.9264H89.8424H106.955C108.385 73.8495 109.544 72.6724 109.544 71.2422V62.0338C109.544 51.5356 101.319 48.2121 100.289 47.8379L89.9728 43.7011V42.2562C92.7733 40.6107 94.9264 37.98 95.9517 34.8416C99.7003 34.5405 102.66 31.4005 102.66 27.5763C102.66 25.3021 101.614 23.2691 99.9781 21.9302V17.3625C99.9781 7.7887 92.1893 0 82.6159 0H81.3846C71.8111 0 64.0224 7.7887 64.0224 17.3625V21.91C62.3718 23.2486 61.3132 25.2902 61.3132 27.5766C61.3132 31.4293 64.3174 34.5863 68.1057 34.8464ZM96.6141 26.0555C96.708 26.0849 96.8044 26.1077 96.9024 26.1262C97.2602 26.5058 97.4815 27.0151 97.4815 27.5766C97.4815 28.2762 97.1391 28.8953 96.6141 29.281V26.0555ZM84.7937 45.4036L81.9416 48.3645L79.2619 45.7546V44.0009C79.7846 44.0631 80.3147 44.0986 80.8538 44.0986H83.2017C83.7411 44.0986 84.2712 44.0631 84.7937 44.0009V45.4036ZM91.4353 30.6862C91.4353 35.2263 87.7418 38.9192 83.2024 38.9192H80.8545C76.3144 38.9192 72.6205 35.2257 72.6205 30.6862V23.8953C75.9739 23.5311 81.8971 22.3523 86.4702 18.5416C87.4958 20.2953 89.0785 22.1886 91.4357 23.2976V30.6862H91.4353ZM69.2012 17.3625C69.2012 10.6443 74.6667 5.1788 81.3846 5.1788H82.6159C89.3338 5.1788 94.7993 10.6443 94.7993 17.3625V18.998C94.7554 18.9842 94.7099 18.9746 94.665 18.9628C94.6429 18.9573 94.6215 18.9497 94.5994 18.9445C91.0205 18.1303 89.8488 13.3493 89.8402 13.3134C89.6156 12.3211 88.8306 11.5524 87.8337 11.3483C86.8366 11.1437 85.8129 11.5431 85.2168 12.3676C80.5588 18.8071 70.1692 18.8798 70.0395 18.8798C70.0366 18.8798 70.034 18.8798 70.0311 18.8798C69.9421 18.8798 69.8537 18.8843 69.7669 18.8933C69.7438 18.8958 69.7211 18.901 69.6983 18.9035C69.6352 18.9115 69.5718 18.9199 69.5103 18.932C69.478 18.9391 69.4466 18.949 69.4142 18.957C69.3639 18.9695 69.3123 18.9804 69.263 18.9958C69.2419 19.0025 69.2223 19.0115 69.2015 19.0182V17.3625H69.2012ZM67.0154 26.1874C67.1621 26.1647 67.3043 26.1301 67.4417 26.0836V29.3409C66.87 28.9613 66.492 28.3127 66.492 27.5766C66.492 27.0449 66.69 26.5596 67.0154 26.1874Z" fill="#2D2E83"/>
<path d="M105.827 8.98494C122.565 14.4709 137.043 25.6921 146.593 40.5815C147.088 41.3525 147.923 41.7733 148.775 41.7733C149.254 41.7733 149.738 41.6407 150.171 41.363C151.374 40.5911 151.724 38.9892 150.952 37.7855C140.761 21.8954 125.308 9.91961 107.44 4.06334C106.078 3.61715 104.618 4.35899 104.173 5.71743C103.728 7.07716 104.468 8.53938 105.827 8.98494Z" fill="#2D2E83"/>
<path d="M13.5982 41.3636C14.031 41.6413 14.515 41.7739 14.9938 41.7739C15.8462 41.7739 16.6815 41.353 17.1758 40.582C26.8361 25.5203 41.5022 14.238 58.4714 8.81351C59.8336 8.3782 60.5851 6.92078 60.1491 5.5585C59.7135 4.19621 58.2555 3.44476 56.8945 3.88071C38.7799 9.67066 23.1256 21.7121 12.816 37.7857C12.0447 38.9898 12.3945 40.5916 13.5982 41.3636Z" fill="#2D2E83"/>
<path d="M49.8389 151.831C36.4473 145.676 25.1528 135.848 17.1761 123.412C16.4038 122.207 14.8013 121.858 13.5985 122.63C12.3948 123.402 12.0447 125.004 12.8166 126.207C21.3289 139.479 33.3832 149.967 47.6759 156.537C48.0266 156.698 48.394 156.775 48.756 156.775C49.7361 156.775 50.6743 156.215 51.1102 155.266C51.7073 153.967 51.1384 152.429 49.8389 151.831Z" fill="#2D2E83"/>
<path d="M150.171 122.63C148.968 121.858 147.365 122.207 146.593 123.411C138.731 135.67 127.619 145.412 114.46 151.583C113.166 152.191 112.608 153.733 113.216 155.027C113.656 155.967 114.589 156.518 115.561 156.518C115.93 156.518 116.304 156.438 116.66 156.272C130.704 149.685 142.562 139.29 150.953 126.207C151.724 125.003 151.375 123.402 150.171 122.63Z" fill="#2D2E83"/>
<path d="M55.323 116.314V107.106C55.323 96.6082 47.0987 93.2853 46.0679 92.9102L35.7513 88.773V87.3281C38.5518 85.6827 40.7049 83.0516 41.7302 79.9132C45.4785 79.6121 48.4385 76.4721 48.4385 72.6479C48.4385 70.374 47.3921 68.341 45.7562 67.0018V62.4341C45.7562 52.8603 37.9675 45.0713 28.394 45.0713H27.1628C17.589 45.0713 9.80058 52.8603 9.80058 62.4341V66.9816C8.15002 68.3205 7.09139 70.3618 7.09139 72.6479C7.09139 76.5006 10.0956 79.6576 13.8833 79.9177C14.9096 83.0539 17.0617 85.6836 19.8613 87.3281V88.7577L9.26919 92.906C8.29031 93.2593 0.00320435 96.5678 0.00320435 107.106V116.33C0.00320435 117.761 1.16209 118.922 2.59261 118.922H9.17149C10.602 118.922 11.7609 117.763 11.7609 116.332C11.7609 114.902 10.602 113.743 9.17149 113.743H5.18201V107.106C5.18201 99.9407 10.7833 97.8635 11.0005 97.7863C11.0405 97.7728 11.0806 97.7584 11.1199 97.7427L20.8196 93.9442L25.9722 98.9618C26.4558 99.433 27.1042 99.6963 27.7784 99.6963C27.7922 99.6963 27.8056 99.6963 27.8194 99.696C28.5084 99.6854 29.1647 99.3997 29.6429 98.9035L34.5078 93.8538L44.1857 97.7347C44.2315 97.7533 44.2569 97.7629 44.3039 97.7786C44.5423 97.8635 50.1439 99.941 50.1439 107.106V113.743H35.6206H19.7049H17.3997C15.9691 113.743 14.8103 114.902 14.8103 116.332C14.8103 117.763 15.9691 118.922 17.3997 118.922H19.7049H35.6209H52.7336C54.1638 118.922 55.323 117.744 55.323 116.314ZM42.3926 71.1267C42.4862 71.1562 42.5829 71.1789 42.6806 71.1975C43.0387 71.5771 43.26 72.0864 43.26 72.6479C43.26 73.3475 42.9176 73.9666 42.3926 74.3523V71.1267ZM13.2202 74.4122C12.6485 74.0326 12.2705 73.384 12.2705 72.6479C12.2705 72.1162 12.4691 71.6309 12.7942 71.2587C12.9406 71.2356 13.0831 71.2014 13.2202 71.1549V74.4122ZM15.8176 63.9514C15.8148 63.9514 15.8122 63.9514 15.8093 63.9514C15.7203 63.9514 15.6319 63.9559 15.5451 63.9649C15.522 63.9674 15.4993 63.9726 15.4765 63.9751C15.4134 63.9831 15.3503 63.9915 15.2885 64.0036C15.2561 64.0107 15.2247 64.0206 15.1924 64.0286C15.1421 64.0411 15.0905 64.052 15.0412 64.0674C15.0201 64.0738 15.0005 64.0831 14.9797 64.0898V62.4344C14.9797 55.7156 20.4452 50.2501 27.1631 50.2501H28.3944C35.1123 50.2501 40.5777 55.7159 40.5777 62.4341V64.0693C40.5339 64.0555 40.4884 64.0459 40.4435 64.0341C40.4214 64.0286 40.4 64.0206 40.3779 64.0158C36.799 63.2016 35.6273 58.4212 35.6187 58.385C35.3941 57.3927 34.6091 56.624 33.6122 56.4203C32.6151 56.2159 31.5911 56.6147 30.9956 57.4395C26.3367 63.8784 15.9474 63.9514 15.8176 63.9514ZM30.5722 90.4749L27.7201 93.4358L25.0404 90.8259V89.0722C25.5631 89.1344 26.0932 89.1699 26.6323 89.1699H28.9802C29.5196 89.1699 30.0497 89.1344 30.5722 89.0722V90.4749ZM28.9805 83.9908H26.6327C22.0926 83.9908 18.3987 80.2973 18.3987 75.7575V68.9666H18.399C21.7524 68.6024 27.6756 67.4239 32.2487 63.6129C33.2743 65.3672 34.857 67.2596 37.2142 68.3689V75.7575C37.2138 80.2976 33.5203 83.9908 28.9805 83.9908Z" fill="#2D2E83"/>
<path d="M154.741 92.9102L144.425 88.773V87.3281C147.225 85.6827 149.378 83.0516 150.404 79.9132C154.152 79.6121 157.112 76.4721 157.112 72.6479C157.112 70.374 156.066 68.341 154.43 67.0018V62.4341C154.43 52.8603 146.641 45.0713 137.068 45.0713H135.836C126.263 45.0713 118.474 52.8603 118.474 62.4341V66.9816C116.823 68.3205 115.765 70.3618 115.765 72.6479C115.765 76.5006 118.769 79.6576 122.557 79.9177C123.583 83.0539 125.735 85.6836 128.535 87.3281V88.7577L117.943 92.906C116.964 93.2593 108.677 96.5678 108.677 107.106V116.33C108.677 117.761 109.836 118.922 111.266 118.922H117.845C119.276 118.922 120.435 117.763 120.435 116.332C120.435 114.902 119.276 113.743 117.845 113.743H113.856V107.106C113.856 99.9407 119.457 97.8635 119.674 97.7863C119.714 97.7728 119.754 97.7584 119.793 97.7427L129.493 93.9442L134.646 98.9618C135.129 99.433 135.778 99.6963 136.452 99.6963C136.466 99.6963 136.479 99.6963 136.493 99.696C137.182 99.6854 137.839 99.3997 138.317 98.9035L143.182 93.8538L152.86 97.7347C152.905 97.7533 152.931 97.7629 152.978 97.7786C153.216 97.8635 158.818 99.941 158.818 107.106V113.743H144.294H128.378H126.073C124.643 113.743 123.484 114.902 123.484 116.332C123.484 117.763 124.643 118.922 126.073 118.922H128.378H144.294H161.407C162.838 118.922 163.997 117.745 163.997 116.314V107.106C163.996 96.6082 155.772 93.2853 154.741 92.9102ZM151.066 71.1271C151.16 71.1565 151.256 71.1793 151.354 71.1978C151.712 71.5774 151.934 72.0867 151.934 72.6482C151.934 73.3478 151.591 73.9669 151.066 74.3526V71.1271ZM121.894 74.4125C121.322 74.0329 120.944 73.3843 120.944 72.6482C120.944 72.1165 121.143 71.6312 121.468 71.259C121.614 71.236 121.757 71.2017 121.894 71.1552V74.4125ZM124.491 63.9518C124.488 63.9518 124.486 63.9518 124.483 63.9518C124.394 63.9518 124.305 63.9562 124.219 63.9652C124.196 63.9678 124.173 63.9729 124.15 63.9755C124.087 63.9835 124.024 63.9918 123.962 64.004C123.93 64.011 123.898 64.0209 123.866 64.0289C123.816 64.0414 123.764 64.0523 123.714 64.0677C123.694 64.0741 123.674 64.0834 123.653 64.0901V62.4348C123.653 55.7159 129.118 50.2504 135.836 50.2504H137.068C143.786 50.2504 149.251 55.7162 149.251 62.4344V64.0696C149.207 64.0559 149.162 64.0462 149.117 64.0344C149.095 64.0289 149.074 64.0209 149.051 64.0161C145.473 63.2019 144.301 58.4216 144.292 58.3854C144.068 57.393 143.283 56.6243 142.286 56.4206C141.289 56.2162 140.265 56.615 139.669 57.4398C135.011 63.8787 124.621 63.9518 124.491 63.9518ZM139.246 90.4752L136.394 93.4361L133.714 90.8262V89.0725C134.237 89.1347 134.767 89.1702 135.306 89.1702H137.654C138.193 89.1702 138.723 89.1347 139.246 89.0725V90.4752ZM137.654 83.9914H135.306C130.766 83.9914 127.072 80.2979 127.072 75.7578V68.9669H127.072C130.427 68.6017 136.353 67.4207 140.922 63.6132C141.948 65.3675 143.53 67.2599 145.887 68.3692V75.7578C145.887 80.2982 142.194 83.9914 137.654 83.9914Z" fill="#2D2E83"/>
<path d="M100.289 137.989L89.9727 133.851V132.407C92.7732 130.761 94.9263 128.13 95.9517 124.992C99.7003 124.691 102.66 121.55 102.66 117.726C102.66 115.452 101.614 113.419 99.978 112.08V107.512C99.978 97.9384 92.1893 90.1494 82.6158 90.1494H81.3845C71.811 90.1494 64.0223 97.9381 64.0223 107.512V112.06C62.3718 113.399 61.3131 115.44 61.3131 117.726C61.3131 121.579 64.3173 124.736 68.105 124.996C69.1313 128.132 71.2835 130.762 74.083 132.407V133.836L63.4906 137.984C62.5117 138.337 54.2246 141.646 54.2246 152.184V161.408C54.2246 162.839 55.3835 164 56.814 164H63.3929C64.8234 164 65.9823 162.841 65.9823 161.41C65.9823 159.98 64.8234 158.821 63.3929 158.821H59.4031V152.184C59.4031 145.019 65.0044 142.942 65.2219 142.864C65.2619 142.851 65.302 142.837 65.3414 142.821L75.0411 139.022L80.1936 144.04C80.6773 144.511 81.3256 144.774 81.9998 144.774C82.0136 144.774 82.0271 144.774 82.0408 144.774C82.7298 144.763 83.3862 144.478 83.8644 143.981L88.7293 138.932L98.4072 142.813C98.453 142.831 98.4783 142.841 98.5254 142.856C98.7637 142.941 104.365 145.019 104.365 152.184V158.821H89.842H73.9261H71.6208C70.1903 158.821 69.0314 159.98 69.0314 161.41C69.0314 162.841 70.1903 164 71.6208 164H73.9261H89.842H106.955C108.385 164 109.544 162.822 109.544 161.392V152.184C109.544 141.687 101.32 138.363 100.289 137.989ZM96.6141 116.205C96.7079 116.234 96.8043 116.257 96.902 116.276C97.2601 116.655 97.4815 117.165 97.4815 117.726C97.4815 118.426 97.1391 119.045 96.6141 119.431V116.205ZM67.4417 119.491C66.8699 119.111 66.4919 118.462 66.4919 117.726C66.4919 117.194 66.6905 116.709 67.0153 116.337C67.162 116.314 67.3046 116.28 67.4417 116.233V119.491ZM70.0388 109.029C70.0359 109.029 70.0333 109.029 70.0304 109.029C69.9414 109.029 69.853 109.033 69.7662 109.042C69.7389 109.045 69.7127 109.051 69.6855 109.055C69.6268 109.062 69.5673 109.07 69.5096 109.081C69.4689 109.089 69.4298 109.102 69.3895 109.112C69.3469 109.123 69.3036 109.132 69.262 109.145C69.2409 109.151 69.2213 109.16 69.2002 109.167V107.512C69.2005 100.794 74.6663 95.3282 81.3839 95.3282H82.6152C89.3331 95.3282 94.7985 100.794 94.7985 107.512V109.147C94.7569 109.134 94.7133 109.125 94.6704 109.114C94.6464 109.107 94.623 109.099 94.5987 109.093C91.0198 108.279 89.8481 103.499 89.8395 103.463C89.6149 102.47 88.8299 101.701 87.833 101.498C86.8359 101.293 85.8122 101.692 85.2164 102.517C80.5581 108.956 70.1688 109.029 70.0388 109.029ZM84.7936 135.553L81.9415 138.514L79.2618 135.904V134.151C79.7846 134.213 80.3147 134.248 80.8538 134.248H83.2017C83.7411 134.248 84.2712 134.212 84.7936 134.151V135.553ZM83.202 129.069H80.8541C76.314 129.069 72.6201 125.376 72.6201 120.836V114.045H72.6205C75.9738 113.681 81.897 112.502 86.4701 108.691C87.4958 110.445 89.0784 112.338 91.4356 113.447V120.836C91.4353 125.375 87.7417 129.069 83.202 129.069Z" fill="#2D2E83"/>
</g>
<defs>
<clipPath id="clip0">
<rect width="164" height="164" fill="white"/>
</clipPath>
</defs>
</svg>
