<svg width="92" height="82" viewBox="0 0 92 82" fill="none" xmlns="http://www.w3.org/2000/svg">
<path fill-rule="evenodd" clip-rule="evenodd" d="M12.2134 0.693359L18.3564 6.32443C12.2356 12.9981 8.49984 21.8949 8.49984 31.6643C8.49984 41.4336 12.2356 50.3304 18.3564 57.0041L12.2134 62.6351C4.73238 54.4784 0.166504 43.6045 0.166504 31.6643C0.166504 19.724 4.73238 8.8501 12.2134 0.693359ZM79.7858 0.693359C87.2668 8.8501 91.8327 19.724 91.8327 31.6643C91.8327 43.6045 87.2668 54.4784 79.7858 62.6351L73.6428 57.0041C79.7637 50.3304 83.4994 41.4336 83.4994 31.6643C83.4994 21.8949 79.7637 12.9981 73.6428 6.32443L79.7858 0.693359ZM32.3374 81.6667L35.1152 73.3333H56.8866L59.6644 81.6667H68.4485L54.7558 40.5886C57.0672 38.3203 58.5009 35.1609 58.5009 31.6667C58.5009 24.7631 52.9045 19.1667 46.0009 19.1667C39.0974 19.1667 33.5009 24.7631 33.5009 31.6667C33.5009 35.1609 34.9347 38.3203 37.246 40.5886L23.5533 81.6667H32.3374ZM37.8926 64.9997L40.6704 56.6663H51.3307L54.1085 64.9997H37.8926ZM48.5536 48.332L47.1474 44.1134C46.7699 44.1478 46.3876 44.1653 46.0012 44.1653C45.6148 44.1653 45.2325 44.1478 44.855 44.1134L43.4488 48.332H48.5536ZM50.1667 31.6663C50.1667 33.9675 48.3013 35.833 46.0001 35.833C43.6989 35.833 41.8334 33.9675 41.8334 31.6663C41.8334 29.3652 43.6989 27.4997 46.0001 27.4997C48.3013 27.4997 50.1667 29.3652 50.1667 31.6663ZM75.1677 31.6651C75.1677 24.0668 72.2621 17.147 67.5015 11.9564L61.3585 17.5875C64.7589 21.2951 66.8343 26.2377 66.8343 31.6651C66.8343 37.0925 64.7589 42.0352 61.3585 45.7428L67.5015 51.3739C72.2621 46.1832 75.1677 39.2635 75.1677 31.6651ZM30.6425 17.5875L24.4995 11.9564C19.7389 17.147 16.8333 24.0668 16.8333 31.6651C16.8333 39.2635 19.7389 46.1832 24.4995 51.3739L30.6425 45.7428C27.2421 42.0352 25.1667 37.0925 25.1667 31.6651C25.1667 26.2377 27.2421 21.2951 30.6425 17.5875Z" fill="white"/>
</svg>
