<svg width="62" height="61" viewBox="0 0 62 61" fill="none" xmlns="http://www.w3.org/2000/svg">
<path d="M24.5416 6.31445L25.3288 6.31899C37.0853 6.45501 46.5 9.64332 46.5 15.1552L46.502 24.2058C53.8317 25.4092 59.4166 31.6427 59.4166 39.1515C59.4166 47.5216 52.477 54.307 43.9166 54.307C41.5888 54.307 39.3314 53.803 37.2772 52.8495C33.6537 53.7896 29.2116 54.307 24.5416 54.307C12.6846 54.307 3.01212 51.2385 2.59718 45.8303L2.58331 45.4663V15.1552L2.59718 14.7912C3.01212 9.38294 12.6845 6.31445 24.5416 6.31445ZM7.74897 41.3675L7.74998 45.4663C7.74998 45.876 8.45126 46.3891 9.69001 46.9041L10.418 47.1846C10.6778 47.2777 10.9543 47.3704 11.2467 47.4618L12.1702 47.7321C12.3317 47.7764 12.4969 47.8202 12.6656 47.8635L13.7202 48.1166C14.6332 48.3213 15.6296 48.5092 16.6939 48.6709L18.0028 48.8517L19.3709 49.0037C20.9995 49.1626 22.7371 49.2552 24.5416 49.2552C26.86 49.2552 29.1056 49.1158 31.1819 48.8551L31.9274 48.7525L31.649 48.4162L31.4114 48.1076C31.3482 48.0234 31.286 47.9386 31.2246 47.8531L31.649 48.4162C31.4056 48.1083 31.1743 47.7913 30.9557 47.4659C30.9119 47.4007 30.8699 47.3372 30.8284 47.2734C30.7606 47.1691 30.6932 47.0625 30.6272 46.9551C30.5622 46.8495 30.4988 46.7435 30.4366 46.6366C30.3918 46.5595 30.3483 46.4832 30.3055 46.4066C30.2384 46.2865 30.1727 46.1649 30.1087 46.0425C30.0541 45.938 30.0002 45.832 29.9477 45.7253C29.8939 45.6162 29.8419 45.5075 29.7913 45.3981C29.7457 45.2997 29.7009 45.2002 29.6572 45.1002C29.6053 44.9813 29.5553 44.8627 29.5069 44.7434C29.4683 44.6486 29.4304 44.5524 29.3934 44.4557C29.3398 44.3153 29.2883 44.1742 29.239 44.0324L29.2352 44.0216C27.7143 44.1429 26.14 44.2033 24.5416 44.2033C17.8075 44.2033 11.7781 43.2136 7.74897 41.3675ZM53.9239 41.6793L50.7799 41.6766C50.6683 42.2993 50.5193 42.9414 50.3358 43.6025C49.9322 45.0564 49.37 46.5711 48.6874 48.1167C51.2517 46.8096 53.1862 44.4794 53.9239 41.6793ZM37.0534 41.6766L33.9091 41.6804C34.6068 44.3266 36.3875 46.5944 38.8284 47.9479C38.9326 48.0057 39.0377 48.0616 39.1437 48.1157L39.2928 48.4457C38.5438 46.786 37.9297 45.1594 37.4975 43.6025C37.3139 42.9414 37.1649 42.2993 37.0534 41.6766ZM45.5055 41.6795H42.3278C42.3751 41.8752 42.4271 42.0751 42.4837 42.279C42.8216 43.4962 43.3111 44.8103 43.9142 46.1703L43.8136 46.4061C44.4652 44.9623 44.9922 43.5664 45.3496 42.279C45.4062 42.0751 45.4582 41.8752 45.5055 41.6795ZM7.74897 31.2638L7.74998 35.3626C7.74998 35.7723 8.45126 36.2854 9.69001 36.8004L10.418 37.0809C10.6778 37.174 10.9543 37.2667 11.2467 37.3581L12.1702 37.6284C12.3317 37.6727 12.4969 37.7165 12.6656 37.7598L13.7202 38.0129C14.6332 38.2176 15.6296 38.4055 16.6939 38.5672L18.0028 38.748L19.3709 38.9C20.9995 39.0589 22.7371 39.1515 24.5416 39.1515C25.8599 39.1515 27.1579 39.1066 28.4197 39.0189C28.433 37.2447 28.7621 35.5196 29.3713 33.9047C27.8092 34.0354 26.1888 34.0996 24.5416 34.0996C17.8075 34.0996 11.7781 33.1099 7.74897 31.2638ZM39.1448 30.1888L38.9191 30.3048C37.917 30.847 37.0065 31.5536 36.2265 32.4026C35.1128 33.6149 34.3204 35.0587 33.9086 36.6249L37.0529 36.6289C37.1645 36.0054 37.3137 35.3624 37.4975 34.7005C37.9009 33.2473 38.4627 31.7335 39.1448 30.1888ZM43.9191 32.1327L44.0197 31.8969C43.3681 33.3407 42.8411 34.7366 42.4837 36.024C42.4268 36.2288 42.3746 36.4296 42.3272 36.6261H45.5061C45.4586 36.4296 45.4065 36.2288 45.3496 36.024C45.0117 34.8068 44.5222 33.4926 43.9191 32.1327ZM48.6854 30.1857L48.5405 29.8573C49.2895 31.517 49.9036 33.1435 50.3358 34.7005C50.5196 35.3624 50.6687 36.0054 50.7804 36.6289L53.9246 36.6262C53.1874 33.825 51.2524 31.4938 48.6854 30.1857ZM41.3369 21.1589C37.3078 23.0057 31.2772 23.9959 24.5416 23.9959C17.8075 23.9959 11.7781 23.0062 7.74897 21.1601L7.74998 25.2589C7.74998 25.6686 8.45126 26.1816 9.69001 26.6967L10.418 26.9772C10.6778 27.0703 10.9543 27.163 11.2467 27.2544L12.1702 27.5247C12.3317 27.569 12.4969 27.6128 12.6656 27.6561L13.7202 27.9092C14.6332 28.1139 15.6296 28.3018 16.6939 28.4635L18.0028 28.6443L19.3709 28.7962C20.9995 28.9552 22.7371 29.0478 24.5416 29.0478C27.5497 29.0478 30.4448 28.8139 33.0246 28.3767C35.2037 26.2607 37.9749 24.8285 41.0002 24.2646L41.3333 24.2106L41.3369 21.1589ZM24.5416 11.3663C22.7371 11.3663 20.9995 11.4589 19.3709 11.6178L18.0027 11.7698L16.6939 11.9506C15.6296 12.1123 14.6332 12.3002 13.7202 12.5049L12.6656 12.758C12.4969 12.8013 12.3317 12.8451 12.1702 12.8894L11.2467 13.1597C10.9543 13.2511 10.6778 13.3438 10.418 13.4369L9.69 13.7174C8.45126 14.2324 7.74998 14.7455 7.74998 15.1552C7.74998 15.5649 8.45126 16.0779 9.69001 16.593L10.418 16.8735C10.6778 16.9666 10.9543 17.0592 11.2467 17.1507L12.1702 17.421C12.3317 17.4653 12.4969 17.5091 12.6656 17.5524L13.7202 17.8055C14.6332 18.0102 15.6296 18.1981 16.6939 18.3598L18.0028 18.5406L19.3709 18.6925C20.9995 18.8515 22.7371 18.9441 24.5416 18.9441C26.3462 18.9441 28.0838 18.8515 29.7124 18.6925L31.0805 18.5406L32.3894 18.3598C33.4537 18.1981 34.45 18.0102 35.363 17.8055L36.4176 17.5524C36.5864 17.5091 36.7516 17.4653 36.9131 17.421L37.8366 17.1507C38.1289 17.0592 38.4055 16.9666 38.6653 16.8735L39.3933 16.593C40.632 16.0779 41.3333 15.5649 41.3333 15.1552C41.3333 14.7455 40.632 14.2324 39.3933 13.7174L38.6653 13.4369C38.4055 13.3438 38.1289 13.2511 37.8366 13.1597L36.9131 12.8894C36.7516 12.8451 36.5864 12.8013 36.4177 12.758L35.3631 12.5049C34.4501 12.3002 33.4537 12.1123 32.3894 11.9506L31.0805 11.7698L29.7124 11.6178C28.0838 11.4589 26.3462 11.3663 24.5416 11.3663Z" fill="#2D2E83"/>
<path d="M24.5417 11.3672C22.7372 11.3672 20.9995 11.4597 19.371 11.6187L18.0028 11.7707L16.694 11.9515C15.6296 12.1131 14.6333 12.3011 13.7203 12.5058L12.6657 12.7588C12.4969 12.8021 12.3317 12.846 12.1702 12.8902L11.2468 13.1606C10.9544 13.252 10.6778 13.3446 10.4181 13.4378L9.69006 13.7183C8.45131 14.2333 7.75003 14.7464 7.75003 15.1561C7.75003 15.5658 8.45131 16.0788 9.69006 16.5938L10.4181 16.8744C10.6778 16.9675 10.9544 17.0601 11.2468 17.1516L12.1703 17.4219C12.3317 17.4662 12.4969 17.51 12.6657 17.5533L13.7203 17.8064C14.6333 18.0111 15.6297 18.199 16.694 18.3607L18.0028 18.5415L19.371 18.6934C20.9995 18.8524 22.7372 18.945 24.5417 18.945C26.3462 18.945 28.0839 18.8524 29.7124 18.6934L31.0806 18.5415L32.3894 18.3607C33.4537 18.199 34.4501 18.0111 35.3631 17.8064L36.4177 17.5533C36.5865 17.51 36.7517 17.4662 36.9131 17.4219L37.8366 17.1516C38.129 17.0601 38.4056 16.9675 38.6653 16.8744L39.3933 16.5938C40.6321 16.0788 41.3334 15.5658 41.3334 15.1561C41.3334 14.7464 40.6321 14.2333 39.3933 13.7183L38.6653 13.4378C38.4056 13.3446 38.129 13.252 37.8366 13.1606L36.9132 12.8902C36.7517 12.846 36.5865 12.8021 36.4177 12.7588L35.3631 12.5058C34.4501 12.3011 33.4538 12.1131 32.3894 11.9515L31.0806 11.7707L29.7124 11.6187C28.0839 11.4597 26.3462 11.3672 24.5417 11.3672Z" fill="white"/>
<path d="M39.1449 30.1897L38.9192 30.3057C37.917 30.8479 37.0066 31.5545 36.2266 32.4035C35.1128 33.6158 34.3205 35.0596 33.9087 36.6257L37.053 36.6298C37.1646 36.0063 37.3138 35.3633 37.4975 34.7014C37.901 33.2482 38.4627 31.7344 39.1449 30.1897Z" fill="white"/>
<path d="M43.9192 32.1336L44.0197 31.8978C43.3681 33.3416 42.8411 34.7375 42.4837 36.0249C42.4269 36.2297 42.3747 36.4304 42.3273 36.6269H45.5061C45.4587 36.4304 45.4065 36.2297 45.3497 36.0249C45.0118 34.8077 44.5223 33.4935 43.9192 32.1336Z" fill="white"/>
<path d="M48.6854 30.1866C49.3679 31.732 49.9323 33.2476 50.3359 34.7014C50.5197 35.3633 50.6688 36.0063 50.7804 36.6298L53.9247 36.6271C53.1875 33.8258 51.2525 31.4947 48.6854 30.1866Z" fill="white"/>
<path d="M53.924 41.6802L50.78 41.6775C50.6684 42.3002 50.5194 42.9423 50.3359 43.6033C49.9322 45.0573 49.37 46.572 48.6874 48.1176C51.2517 46.8105 53.1863 44.4803 53.924 41.6802Z" fill="white"/>
<path d="M45.5055 41.6804H42.3279C42.3752 41.8761 42.4271 42.076 42.4837 42.2799C42.8217 43.497 43.3111 44.8112 43.9142 46.1711L43.8137 46.407C44.4653 44.9632 44.9923 43.5673 45.3497 42.2799C45.4063 42.076 45.4582 41.8761 45.5055 41.6804Z" fill="white"/>
<path d="M37.0534 41.6775L33.9092 41.6812C34.6068 44.3275 36.3875 46.5952 38.8285 47.9488C38.9327 48.0065 39.0378 48.0625 39.1437 48.1166L39.2928 48.4465C38.5438 46.7869 37.9298 45.1603 37.4975 43.6033C37.314 42.9423 37.165 42.3002 37.0534 41.6775Z" fill="white"/>
</svg>
