<svg width="57" height="57" viewBox="0 0 57 57" fill="none" xmlns="http://www.w3.org/2000/svg">
<path d="M26.7188 24.0469H24.9375V34.7344H26.7188V24.0469Z" fill="#2D2E83"/>
<path d="M24.0469 24.0469H22.2656V34.7344H24.0469V24.0469Z" fill="#2D2E83"/>
<path d="M11.5781 13.3594H16.9219C17.7115 13.3584 18.4784 13.0956 19.1027 12.6121C19.7269 12.1286 20.1732 11.4517 20.3716 10.6875H22.2656V16.9219H24.0469V12.4688H24.9375V15.1406H26.7188V8.90625C26.7179 8.19787 26.4362 7.51874 25.9353 7.01784C25.4344 6.51695 24.7553 6.23519 24.0469 6.23438H4.45312C3.74475 6.23519 3.06562 6.51695 2.56472 7.01784C2.06382 7.51874 1.78206 8.19787 1.78125 8.90625V44.5312C1.78206 45.2396 2.06382 45.9188 2.56472 46.4197C3.06562 46.9206 3.74475 47.2023 4.45312 47.2031H6.23438V45.4219H4.45312C4.217 45.4216 3.99062 45.3277 3.82366 45.1607C3.65669 44.9938 3.56277 44.7674 3.5625 44.5312V42.75H4.45312V43.6406C4.45313 43.8768 4.54696 44.1034 4.71399 44.2704C4.88101 44.4374 5.10754 44.5312 5.34375 44.5312H6.23438V10.6875H8.12837C8.3268 11.4517 8.77308 12.1286 9.39732 12.6121C10.0216 13.0956 10.7885 13.3584 11.5781 13.3594ZM3.5625 40.9688V12.4688H4.45312V40.9688H3.5625ZM5.34375 8.90625C5.10754 8.90625 4.88101 9.00009 4.71399 9.16711C4.54696 9.33413 4.45313 9.56067 4.45312 9.79688V10.6875H3.5625V8.90625C3.56277 8.67012 3.65669 8.44375 3.82366 8.27678C3.99062 8.10982 4.217 8.0159 4.45312 8.01562H24.0469C24.283 8.0159 24.5094 8.10982 24.6763 8.27678C24.8433 8.44375 24.9372 8.67012 24.9375 8.90625V10.6875H24.0469V9.79688C24.0469 9.56067 23.953 9.33413 23.786 9.16711C23.619 9.00009 23.3925 8.90625 23.1562 8.90625H19.5938C19.3575 8.90625 19.131 9.00009 18.964 9.16711C18.797 9.33413 18.7031 9.56067 18.7031 9.79688C18.7026 10.2691 18.5147 10.7219 18.1808 11.0558C17.8469 11.3897 17.3941 11.5776 16.9219 11.5781H11.5781C11.1059 11.5776 10.6531 11.3897 10.3192 11.0558C9.98526 10.7219 9.79741 10.2691 9.79688 9.79688C9.79687 9.56067 9.70304 9.33413 9.53601 9.16711C9.36899 9.00009 9.14246 8.90625 8.90625 8.90625H5.34375Z" fill="#2D2E83"/>
<path d="M15.1406 8.90625H12.4688V10.6875H15.1406V8.90625Z" fill="#2D2E83"/>
<path d="M16.9219 10.6875C17.4138 10.6875 17.8125 10.2888 17.8125 9.79688C17.8125 9.305 17.4138 8.90625 16.9219 8.90625C16.43 8.90625 16.0312 9.305 16.0312 9.79688C16.0312 10.2888 16.43 10.6875 16.9219 10.6875Z" fill="#2D2E83"/>
<path d="M24.9375 36.5156C24.2798 36.5152 23.6452 36.7583 23.1562 37.1982C22.667 36.7587 22.0326 36.5156 21.375 36.5156C20.7174 36.5156 20.083 36.7587 19.5938 37.1981C19.2371 36.8778 18.8007 36.6596 18.3305 36.5664C17.8603 36.4733 17.3737 36.5087 16.9219 36.6688V30.2812C16.9219 29.5726 16.6404 28.893 16.1393 28.3919C15.6382 27.8909 14.9586 27.6094 14.25 27.6094C13.5414 27.6094 12.8618 27.8909 12.3607 28.3919C11.8596 28.893 11.5781 29.5726 11.5781 30.2812V36.5181C10.8084 35.9376 9.87033 35.624 8.90625 35.625C8.67004 35.625 8.44351 35.7188 8.27649 35.8859C8.10946 36.0529 8.01563 36.2794 8.01562 36.5156V47.2031C8.01563 47.379 8.06768 47.5508 8.16522 47.6971L11.5781 52.8166V55.2188H13.3594V53.4375H15.1406V51.6562H12.9454L9.79688 46.9334V37.5589C10.3175 37.7437 10.7681 38.085 11.087 38.536C11.4059 38.9871 11.5775 39.5257 11.5781 40.0781V43.6406H13.3594V30.2812C13.3594 30.045 13.4532 29.8185 13.6202 29.6515C13.7873 29.4845 14.0138 29.3906 14.25 29.3906C14.4862 29.3906 14.7127 29.4845 14.8798 29.6515C15.0468 29.8185 15.1406 30.045 15.1406 30.2812V40.0781H16.9219V39.1875C16.9219 38.9513 17.0157 38.7248 17.1827 38.5577C17.3498 38.3907 17.5763 38.2969 17.8125 38.2969C18.0487 38.2969 18.2752 38.3907 18.4423 38.5577C18.6093 38.7248 18.7031 38.9513 18.7031 39.1875V40.0781H20.4844V39.1875C20.4844 38.9513 20.5782 38.7248 20.7452 38.5577C20.9123 38.3907 21.1388 38.2969 21.375 38.2969C21.6112 38.2969 21.8377 38.3907 22.0048 38.5577C22.1718 38.7248 22.2656 38.9513 22.2656 39.1875V40.0781H24.0469V39.1875C24.0469 38.9513 24.1407 38.7248 24.3077 38.5577C24.4748 38.3907 24.7013 38.2969 24.9375 38.2969C25.1737 38.2969 25.4002 38.3907 25.5673 38.5577C25.7343 38.7248 25.8281 38.9513 25.8281 39.1875V46.9334L22.6796 51.6562H20.4844V53.4375H22.2656V55.2188H24.0469V52.8166L27.4598 47.6971C27.5573 47.5508 27.6094 47.379 27.6094 47.2031V39.1875C27.6086 38.4791 27.3268 37.8 26.8259 37.2991C26.325 36.7982 25.6459 36.5164 24.9375 36.5156Z" fill="#2D2E83"/>
<path d="M19.1488 32.419C19.5031 31.6058 19.6495 30.7172 19.5747 29.8333C19.4998 28.9494 19.2061 28.0981 18.7201 27.3561C18.234 26.614 17.5709 26.0047 16.7905 25.583C16.0101 25.1612 15.137 24.9404 14.25 24.9404C13.3629 24.9404 12.4898 25.1613 11.7094 25.583C10.929 26.0047 10.2659 26.6141 9.77987 27.3561C9.29382 28.0981 9.00013 28.9495 8.9253 29.8334C8.85047 30.7173 8.99685 31.6059 9.35124 32.4191L10.9835 31.7059C10.7476 31.1638 10.6502 30.5714 10.7003 29.9823C10.7504 29.3932 10.9463 28.8258 11.2704 28.3313C11.5945 27.8368 12.0365 27.4308 12.5567 27.1497C13.0769 26.8687 13.6588 26.7216 14.25 26.7216C14.8413 26.7216 15.4232 26.8687 15.9434 27.1498C16.4636 27.4308 16.9056 27.8369 17.2297 28.3314C17.5537 28.8259 17.7496 29.3933 17.7997 29.9824C17.8498 30.5715 17.7524 31.1638 17.5165 31.7059L19.1488 32.419Z" fill="#2D2E83"/>
<path d="M11.9123 24.4997L11.2439 22.8486C9.54285 23.5402 8.12909 24.7921 7.23688 26.3971L8.79438 27.2614C9.48854 26.0123 10.5886 25.038 11.9123 24.4997Z" fill="#2D2E83"/>
<path d="M21.1927 26.2727C20.2959 24.7269 18.9113 23.5225 17.2561 22.8486L16.5877 24.4997C17.8757 25.0242 18.9531 25.9616 19.6508 27.1647L21.1927 26.2727Z" fill="#2D2E83"/>
<path d="M54.3281 1.78125H29.3906C29.1544 1.78125 28.9279 1.87509 28.7608 2.04211C28.5938 2.20913 28.5 2.43567 28.5 2.67188V14.7717L22.5264 20.7452C22.4019 20.8698 22.3171 21.0285 22.2827 21.2013C22.2484 21.374 22.266 21.5531 22.3334 21.7158C22.4008 21.8786 22.515 22.0176 22.6614 22.1155C22.8079 22.2134 22.9801 22.2656 23.1562 22.2656H28.5V25.8281C28.5 26.0643 28.5938 26.2909 28.7608 26.4579C28.9279 26.6249 29.1544 26.7187 29.3906 26.7188H54.3281C54.5643 26.7187 54.7908 26.6249 54.9579 26.4579C55.1249 26.2909 55.2187 26.0643 55.2187 25.8281V2.67188C55.2187 2.43567 55.1249 2.20913 54.9579 2.04211C54.7908 1.87509 54.5643 1.78125 54.3281 1.78125ZM53.4375 24.9375H30.2812V21.375C30.2812 21.1388 30.1874 20.9123 30.0204 20.7452C29.8533 20.5782 29.6268 20.4844 29.3906 20.4844H25.3064L30.0204 15.7704C30.1874 15.6033 30.2812 15.3768 30.2812 15.1406V3.5625H53.4375V24.9375Z" fill="#2D2E83"/>
<path d="M32.9531 22.2656H36.5156C36.7518 22.2656 36.9784 22.1718 37.1454 22.0048C37.3124 21.8377 37.4062 21.6112 37.4062 21.375V14.25C37.4062 14.0138 37.3124 13.7873 37.1454 13.6202C36.9784 13.4532 36.7518 13.3594 36.5156 13.3594H32.9531C32.7169 13.3594 32.4904 13.4532 32.3234 13.6202C32.1563 13.7873 32.0625 14.0138 32.0625 14.25V21.375C32.0625 21.6112 32.1563 21.8377 32.3234 22.0048C32.4904 22.1718 32.7169 22.2656 32.9531 22.2656ZM33.8438 15.1406H35.625V20.4844H33.8438V15.1406Z" fill="#2D2E83"/>
<path d="M40.0781 22.2656H43.6406C43.8768 22.2656 44.1034 22.1718 44.2704 22.0048C44.4374 21.8377 44.5312 21.6112 44.5312 21.375V10.6875C44.5312 10.4513 44.4374 10.2248 44.2704 10.0577C44.1034 9.89071 43.8768 9.79688 43.6406 9.79688H40.0781C39.8419 9.79688 39.6154 9.89071 39.4484 10.0577C39.2813 10.2248 39.1875 10.4513 39.1875 10.6875V21.375C39.1875 21.6112 39.2813 21.8377 39.4484 22.0048C39.6154 22.1718 39.8419 22.2656 40.0781 22.2656ZM40.9688 11.5781H42.75V20.4844H40.9688V11.5781Z" fill="#2D2E83"/>
<path d="M47.2031 22.2656H50.7656C51.0018 22.2656 51.2284 22.1718 51.3954 22.0048C51.5624 21.8377 51.6562 21.6112 51.6562 21.375V6.23438C51.6562 5.99817 51.5624 5.77163 51.3954 5.60461C51.2284 5.43759 51.0018 5.34375 50.7656 5.34375H47.2031C46.9669 5.34375 46.7404 5.43759 46.5734 5.60461C46.4063 5.77163 46.3125 5.99817 46.3125 6.23438V21.375C46.3125 21.6112 46.4063 21.8377 46.5734 22.0048C46.7404 22.1718 46.9669 22.2656 47.2031 22.2656ZM48.0938 7.125H49.875V20.4844H48.0938V7.125Z" fill="#2D2E83"/>
</svg>
