<svg width="57" height="57" viewBox="0 0 57 57" fill="none" xmlns="http://www.w3.org/2000/svg">
<path d="M0 40.0781H3.45117V36.7383H0V20.0391H3.45117V16.6992H0V0H57V16.6992H53.5488V20.0391H57V36.7383H53.5488V40.0781H57V57H0V40.0781ZM53.6602 3.33984H3.33984V13.3594H53.6602V3.33984ZM50.209 16.6992H6.79102V20.0391H50.209V16.6992ZM53.6602 23.3789H3.33984V33.3984H53.6602V23.3789ZM50.209 36.7383H6.79102V40.0781H50.209V36.7383ZM3.33984 53.6602H53.6602V43.418H3.33984V53.6602Z" fill="#2D2E83"/>
<path d="M6.79102 50.0977H10.1309V46.7578H6.79102V50.0977Z" fill="#2D2E83"/>
<path d="M13.4707 50.0977H16.8105V46.7578H13.4707V50.0977Z" fill="#2D2E83"/>
<path d="M20.1504 50.0977H23.4902V46.7578H20.1504V50.0977Z" fill="#2D2E83"/>
<path d="M33.5098 50.0977H50.209V46.7578H33.5098V50.0977Z" fill="#2D2E83"/>
<path d="M6.79102 30.0586H10.1309V26.7188H6.79102V30.0586Z" fill="#2D2E83"/>
<path d="M13.4707 30.0586H16.8105V26.7188H13.4707V30.0586Z" fill="#2D2E83"/>
<path d="M20.1504 30.0586H23.4902V26.7188H20.1504V30.0586Z" fill="#2D2E83"/>
<path d="M33.5098 30.0586H50.209V26.7188H33.5098V30.0586Z" fill="#2D2E83"/>
<path d="M6.79102 10.0195H10.1309V6.67969H6.79102V10.0195Z" fill="#2D2E83"/>
<path d="M13.4707 10.0195H16.8105V6.67969H13.4707V10.0195Z" fill="#2D2E83"/>
<path d="M20.1504 10.0195H23.4902V6.67969H20.1504V10.0195Z" fill="#2D2E83"/>
<path d="M33.5098 10.0195H50.209V6.67969H33.5098V10.0195Z" fill="#2D2E83"/>
</svg>
