<svg width="31" height="52" viewBox="0 0 31 52" fill="none" xmlns="http://www.w3.org/2000/svg">
<path d="M3.4444 51.666H27.5552C29.4575 51.666 30.9996 50.1239 30.9996 48.2216V3.4444C30.9996 1.54211 29.4575 0 27.5552 0H3.4444C1.54211 0 0 1.54211 0 3.4444V48.2216C0 50.1239 1.54211 51.666 3.4444 51.666ZM27.5552 49.9438H3.4444C2.49326 49.9438 1.7222 49.1728 1.7222 48.2216V46.8783C2.2423 47.1913 2.83736 47.358 3.4444 47.3605H27.5552C28.1622 47.358 28.7573 47.1913 29.2774 46.8783V48.2216C29.2774 49.1728 28.5063 49.9438 27.5552 49.9438ZM22.1217 1.7222L21.0195 2.90191C20.7037 3.238 20.2663 3.43342 19.8053 3.4444H11.2804C10.8044 3.44509 10.3493 3.24872 10.0232 2.90191L8.87794 1.7222H22.1217ZM1.7222 3.4444C1.7222 2.49326 2.49326 1.7222 3.4444 1.7222H6.51853L8.72294 4.08161C9.37511 4.77524 10.2853 5.16799 11.2374 5.1666H19.8053C20.7574 5.16799 21.6675 4.77524 22.3197 4.08161L24.4811 1.7222H27.5552C28.5063 1.7222 29.2774 2.49326 29.2774 3.4444V43.9161C29.2774 44.8673 28.5063 45.6383 27.5552 45.6383H3.4444C2.49326 45.6383 1.7222 44.8673 1.7222 43.9161V3.4444Z" fill="#2D2E83"/>
<path d="M4.91696 21.7944L6.52722 22.0355L6.97499 23.1033L6.02778 24.4122C5.48946 25.098 5.54863 26.078 6.16556 26.6941L7.74998 28.2785C8.35456 28.8836 9.31162 28.9533 9.99745 28.4421L11.3063 27.4691L12.3741 27.9168L12.6152 29.5271C12.7401 30.3796 13.4758 31.0087 14.3374 30.9996H16.6279C17.4895 31.0087 18.2252 30.3796 18.3501 29.5271L18.5912 27.9168L19.659 27.4691L20.9679 28.4163C21.6537 28.9546 22.6337 28.8954 23.2498 28.2785L24.8342 26.6941C25.4511 26.078 25.5103 25.098 24.972 24.4122L24.0248 23.1033L24.4725 22.0355L26.0828 21.7944C26.9353 21.6695 27.5644 20.9338 27.5553 20.0722V17.7989C27.5644 16.9373 26.9353 16.2016 26.0828 16.0767L24.4725 15.8356L24.0248 14.7678L24.972 13.4762C25.5103 12.7903 25.4511 11.8104 24.8342 11.1943L23.2498 9.60985C22.6337 8.99292 21.6537 8.93375 20.9679 9.47207L19.659 10.4193L18.5912 9.97151L18.3501 8.36125C18.2252 7.50871 17.4895 6.87967 16.6279 6.88877H14.3546C13.493 6.87967 12.7573 7.50871 12.6324 8.36125L12.3913 9.97151L11.3235 10.4193L10.0319 9.47207C9.34606 8.96091 8.389 9.03058 7.78442 9.63568L6.16556 11.1943C5.54863 11.8104 5.48946 12.7903 6.02778 13.4762L7.00082 14.7851L6.55305 15.8528L4.94279 16.0939C4.09026 16.2188 3.46121 16.9545 3.47031 17.8161V20.1067C3.4763 20.9468 4.08762 21.66 4.91696 21.7944ZM5.16668 17.7989L6.77694 17.5578C7.37687 17.4711 7.88705 17.0754 8.12025 16.5159L8.55941 15.4395C8.80575 14.8701 8.7268 14.2122 8.35275 13.7173L7.37971 12.417L9.00719 10.7896L10.3333 11.797C10.8282 12.1711 11.4861 12.25 12.0555 12.0037L13.1319 11.5645C13.6914 11.3313 14.0871 10.8212 14.1738 10.2212L14.3546 8.61097H16.6451L16.8863 10.2212C16.973 10.8212 17.3687 11.3313 17.9282 11.5645L19.0046 12.0037C19.5739 12.25 20.2318 12.1711 20.7268 11.797L22.027 10.824L23.6545 12.4515L22.647 13.7776C22.273 14.2725 22.194 14.9304 22.4404 15.4998L22.8795 16.5761C23.1127 17.1357 23.6229 17.5314 24.2228 17.6181L25.8331 17.8592V20.1497L24.2228 20.3908C23.6229 20.4775 23.1127 20.8732 22.8795 21.4328L22.4404 22.5091C22.194 23.0785 22.273 23.7364 22.647 24.2313L23.6201 25.5316L21.9926 27.1591L20.6665 26.0913C20.1715 25.7172 19.5137 25.6383 18.9443 25.8846L17.8679 26.3238C17.3084 26.557 16.9127 27.0672 16.826 27.6671L16.6451 29.2774H14.3546L14.1135 27.6671C14.0268 27.0672 13.6311 26.557 13.0716 26.3238L11.9952 25.8846C11.7876 25.7993 11.5652 25.7555 11.3408 25.7555C10.9691 25.753 10.6066 25.8708 10.3074 26.0913L9.00719 27.0643L7.37971 25.4369L8.35275 24.1108C8.7268 23.6158 8.80575 22.958 8.55941 22.3886L8.12025 21.3122C7.88705 20.7527 7.37687 20.357 6.77694 20.2703L5.16668 20.0894V17.7989Z" fill="#2D2E83"/>
<path d="M15.4996 24.9719C18.8286 24.9719 21.5273 22.2732 21.5273 18.9442C21.5273 15.6152 18.8286 12.9165 15.4996 12.9165C12.1706 12.9165 9.47192 15.6152 9.47192 18.9442C9.47192 22.2732 12.1706 24.9719 15.4996 24.9719ZM15.4996 14.6387C17.8775 14.6387 19.8051 16.5663 19.8051 18.9442C19.8051 21.3221 17.8775 23.2497 15.4996 23.2497C13.1218 23.2497 11.1941 21.3221 11.1941 18.9442C11.1941 16.5663 13.1218 14.6387 15.4996 14.6387Z" fill="#2D2E83"/>
<path d="M15.4998 32.7222C15.0242 32.7222 14.6387 33.1077 14.6387 33.5833V37.8888C14.6387 38.3643 15.0242 38.7499 15.4998 38.7499C15.9753 38.7499 16.3609 38.3643 16.3609 37.8888V33.5833C16.3609 33.1077 15.9753 32.7222 15.4998 32.7222Z" fill="#2D2E83"/>
<path d="M15.4998 40.4717C15.0242 40.4717 14.6387 40.8572 14.6387 41.3328V43.055C14.6387 43.5306 15.0242 43.9161 15.4998 43.9161C15.9753 43.9161 16.3609 43.5306 16.3609 43.055V41.3328C16.3609 40.8572 15.9753 40.4717 15.4998 40.4717Z" fill="#2D2E83"/>
<path d="M10.333 31C9.85745 31 9.47192 31.3855 9.47192 31.8611V32.7222C9.47192 33.1978 9.85745 33.5833 10.333 33.5833C10.8086 33.5833 11.1941 33.1978 11.1941 32.7222V31.8611C11.1941 31.3855 10.8086 31 10.333 31Z" fill="#2D2E83"/>
<path d="M10.333 35.3052C9.85745 35.3052 9.47192 35.6907 9.47192 36.1663V41.3329C9.47192 41.8085 9.85745 42.194 10.333 42.194C10.8086 42.194 11.1941 41.8085 11.1941 41.3329V36.1663C11.1941 35.6907 10.8086 35.3052 10.333 35.3052Z" fill="#2D2E83"/>
<path d="M20.6665 31C20.1909 31 19.8054 31.3855 19.8054 31.8611V32.7222C19.8054 33.1978 20.1909 33.5833 20.6665 33.5833C21.1421 33.5833 21.5276 33.1978 21.5276 32.7222V31.8611C21.5276 31.3855 21.1421 31 20.6665 31Z" fill="#2D2E83"/>
<path d="M20.6665 35.3052C20.1909 35.3052 19.8054 35.6907 19.8054 36.1663V41.3329C19.8054 41.8085 20.1909 42.194 20.6665 42.194C21.1421 42.194 21.5276 41.8085 21.5276 41.3329V36.1663C21.5276 35.6907 21.1421 35.3052 20.6665 35.3052Z" fill="#2D2E83"/>
</svg>
