<svg width="187" height="61" viewBox="0 0 187 61" fill="none" xmlns="http://www.w3.org/2000/svg">
<path fill-rule="evenodd" clip-rule="evenodd" d="M29.6825 13.5361C30.5312 13.5361 31.2191 14.2241 31.2191 15.0727V28.902H38.902V15.0727C38.902 14.2241 39.59 13.5361 40.4386 13.5361C41.2873 13.5361 41.9752 14.2241 41.9752 15.0727V28.902H49.6581V15.0727C49.6581 14.2241 50.3461 13.5361 51.1947 13.5361C52.0434 13.5361 52.7313 14.2241 52.7313 15.0727V30.1232L57.2035 40.5582C57.2852 40.7375 57.3334 40.9352 57.3402 41.1435C57.3408 41.1605 57.3411 41.1776 57.3411 41.1946L57.3411 41.1984V45.8044C57.3411 46.6531 56.6531 47.341 55.8045 47.341H25.0728C24.2241 47.341 23.5362 46.6531 23.5362 45.8044V41.1947C23.5362 41.1823 23.5363 41.17 23.5366 41.1576C23.5417 40.9442 23.5902 40.7415 23.6738 40.5582L28.146 30.1232V15.0727C28.146 14.2241 28.8339 13.5361 29.6825 13.5361ZM26.6094 42.7313V44.2678H54.2679V42.7313H26.6094ZM30.6958 31.9752H50.1815L53.4742 39.6581H27.4031L30.6958 31.9752Z" fill="white"/>
<path d="M53.4751 39.6595L50.1824 31.9766H30.6966L27.4039 39.6595H53.4751Z" fill="white"/>
<path d="M30 1H157V-1H30V1ZM186 30V31H188V30H186ZM157 60H30V62H157V60ZM1 31V30H-1V31H1ZM30 60C13.9837 60 1 47.0163 1 31H-1C-1 48.1208 12.8792 62 30 62V60ZM186 31C186 47.0163 173.016 60 157 60V62C174.121 62 188 48.1208 188 31H186ZM157 1C173.016 1 186 13.9837 186 30H188C188 12.8792 174.121 -1 157 -1V1ZM30 -1C12.8792 -1 -1 12.8792 -1 30H1C1 13.9837 13.9837 1 30 1V-1Z" fill="#A6A6A6"/>
<path d="M86.296 49L82.6 42.472H81.016V49H77.656V32.248H83.944C85.24 32.248 86.344 32.48 87.256 32.944C88.168 33.392 88.848 34.008 89.296 34.792C89.76 35.56 89.992 36.424 89.992 37.384C89.992 38.488 89.672 39.488 89.032 40.384C88.392 41.264 87.44 41.872 86.176 42.208L90.184 49H86.296ZM81.016 39.952H83.824C84.736 39.952 85.416 39.736 85.864 39.304C86.312 38.856 86.536 38.24 86.536 37.456C86.536 36.688 86.312 36.096 85.864 35.68C85.416 35.248 84.736 35.032 83.824 35.032H81.016V39.952ZM98.935 49.216C97.655 49.216 96.503 48.936 95.479 48.376C94.455 47.8 93.647 46.992 93.055 45.952C92.479 44.912 92.191 43.712 92.191 42.352C92.191 40.992 92.487 39.792 93.079 38.752C93.687 37.712 94.511 36.912 95.551 36.352C96.591 35.776 97.751 35.488 99.031 35.488C100.311 35.488 101.471 35.776 102.511 36.352C103.551 36.912 104.367 37.712 104.959 38.752C105.567 39.792 105.871 40.992 105.871 42.352C105.871 43.712 105.559 44.912 104.935 45.952C104.327 46.992 103.495 47.8 102.439 48.376C101.399 48.936 100.231 49.216 98.935 49.216ZM98.935 46.288C99.543 46.288 100.111 46.144 100.639 45.856C101.183 45.552 101.615 45.104 101.935 44.512C102.255 43.92 102.415 43.2 102.415 42.352C102.415 41.088 102.079 40.12 101.407 39.448C100.751 38.76 99.943 38.416 98.983 38.416C98.023 38.416 97.215 38.76 96.559 39.448C95.919 40.12 95.599 41.088 95.599 42.352C95.599 43.616 95.911 44.592 96.535 45.28C97.175 45.952 97.975 46.288 98.935 46.288ZM120.888 35.704V49H117.504V47.32C117.072 47.896 116.504 48.352 115.8 48.688C115.112 49.008 114.36 49.168 113.544 49.168C112.504 49.168 111.584 48.952 110.784 48.52C109.984 48.072 109.352 47.424 108.888 46.576C108.44 45.712 108.216 44.688 108.216 43.504V35.704H111.576V43.024C111.576 44.08 111.84 44.896 112.368 45.472C112.896 46.032 113.616 46.312 114.528 46.312C115.456 46.312 116.184 46.032 116.712 45.472C117.24 44.896 117.504 44.08 117.504 43.024V35.704H120.888ZM128.115 38.464V44.896C128.115 45.344 128.219 45.672 128.427 45.88C128.651 46.072 129.019 46.168 129.531 46.168H131.091V49H128.979C126.147 49 124.731 47.624 124.731 44.872V38.464H123.147V35.704H124.731V32.416H128.115V35.704H131.091V38.464H128.115ZM145.868 42.064C145.868 42.544 145.836 42.976 145.772 43.36H136.052C136.132 44.32 136.468 45.072 137.06 45.616C137.652 46.16 138.38 46.432 139.244 46.432C140.492 46.432 141.38 45.896 141.908 44.824H145.532C145.148 46.104 144.412 47.16 143.324 47.992C142.236 48.808 140.9 49.216 139.316 49.216C138.036 49.216 136.884 48.936 135.86 48.376C134.852 47.8 134.06 46.992 133.484 45.952C132.924 44.912 132.644 43.712 132.644 42.352C132.644 40.976 132.924 39.768 133.484 38.728C134.044 37.688 134.828 36.888 135.836 36.328C136.844 35.768 138.004 35.488 139.316 35.488C140.58 35.488 141.708 35.76 142.7 36.304C143.708 36.848 144.484 37.624 145.028 38.632C145.588 39.624 145.868 40.768 145.868 42.064ZM142.388 41.104C142.372 40.24 142.06 39.552 141.452 39.04C140.844 38.512 140.1 38.248 139.22 38.248C138.388 38.248 137.684 38.504 137.108 39.016C136.548 39.512 136.204 40.208 136.076 41.104H142.388ZM151.68 37.768C152.112 37.064 152.672 36.512 153.36 36.112C154.064 35.712 154.864 35.512 155.76 35.512V39.04H154.872C153.816 39.04 153.016 39.288 152.472 39.784C151.944 40.28 151.68 41.144 151.68 42.376V49H148.32V35.704H151.68V37.768Z" fill="white"/>
<path d="M81.772 24L79.614 20.295H78.184V24H77.001V14.939H79.926C80.6107 14.939 81.187 15.056 81.655 15.29C82.1317 15.524 82.487 15.8403 82.721 16.239C82.955 16.6377 83.072 17.0927 83.072 17.604C83.072 18.228 82.89 18.7783 82.526 19.255C82.1707 19.7317 81.6333 20.048 80.914 20.204L83.189 24H81.772ZM78.184 19.346H79.926C80.5673 19.346 81.0483 19.19 81.369 18.878C81.6897 18.5573 81.85 18.1327 81.85 17.604C81.85 17.0667 81.6897 16.6507 81.369 16.356C81.057 16.0613 80.576 15.914 79.926 15.914H78.184V19.346ZM91.4102 20.165C91.4102 20.3903 91.3972 20.6287 91.3712 20.88H85.6772C85.7205 21.582 85.9588 22.1323 86.3922 22.531C86.8342 22.921 87.3672 23.116 87.9912 23.116C88.5025 23.116 88.9272 22.999 89.2652 22.765C89.6118 22.5223 89.8545 22.2017 89.9932 21.803H91.2672C91.0765 22.4877 90.6952 23.0467 90.1232 23.48C89.5512 23.9047 88.8405 24.117 87.9912 24.117C87.3152 24.117 86.7085 23.9653 86.1712 23.662C85.6425 23.3587 85.2265 22.9297 84.9232 22.375C84.6198 21.8117 84.4682 21.1617 84.4682 20.425C84.4682 19.6883 84.6155 19.0427 84.9102 18.488C85.2048 17.9333 85.6165 17.5087 86.1452 17.214C86.6825 16.9107 87.2978 16.759 87.9912 16.759C88.6672 16.759 89.2652 16.9063 89.7852 17.201C90.3052 17.4957 90.7038 17.903 90.9812 18.423C91.2672 18.9343 91.4102 19.515 91.4102 20.165ZM90.1882 19.918C90.1882 19.4673 90.0885 19.0817 89.8892 18.761C89.6898 18.4317 89.4168 18.1847 89.0702 18.02C88.7322 17.8467 88.3552 17.76 87.9392 17.76C87.3412 17.76 86.8298 17.9507 86.4052 18.332C85.9892 18.7133 85.7508 19.242 85.6902 19.918H90.1882ZM92.5297 20.412C92.5297 19.684 92.677 19.047 92.9717 18.501C93.2664 17.9463 93.6694 17.5173 94.1807 17.214C94.7007 16.9107 95.2814 16.759 95.9227 16.759C96.538 16.759 97.0754 16.8977 97.5347 17.175C98.0027 17.4437 98.345 17.7773 98.5617 18.176V16.876H99.7577V27.38H98.5617V22.687C98.3364 23.0857 97.9897 23.4237 97.5217 23.701C97.0537 23.9783 96.5077 24.117 95.8837 24.117C95.2597 24.117 94.692 23.961 94.1807 23.649C93.6694 23.337 93.2664 22.8993 92.9717 22.336C92.677 21.7727 92.5297 21.1313 92.5297 20.412ZM98.5617 20.425C98.5617 19.8877 98.4534 19.4197 98.2367 19.021C98.02 18.6223 97.7254 18.319 97.3527 18.111C96.9887 17.8943 96.5857 17.786 96.1437 17.786C95.7017 17.786 95.2987 17.89 94.9347 18.098C94.5707 18.306 94.2804 18.6093 94.0637 19.008C93.847 19.4067 93.7387 19.8747 93.7387 20.412C93.7387 20.958 93.847 21.4347 94.0637 21.842C94.2804 22.2407 94.5707 22.5483 94.9347 22.765C95.2987 22.973 95.7017 23.077 96.1437 23.077C96.5857 23.077 96.9887 22.973 97.3527 22.765C97.7254 22.5483 98.02 22.2407 98.2367 21.842C98.4534 21.4347 98.5617 20.9623 98.5617 20.425ZM108.075 16.876V24H106.892V22.947C106.667 23.311 106.35 23.597 105.943 23.805C105.544 24.0043 105.102 24.104 104.617 24.104C104.062 24.104 103.564 23.9913 103.122 23.766C102.68 23.532 102.329 23.1853 102.069 22.726C101.818 22.2667 101.692 21.7077 101.692 21.049V16.876H102.862V20.893C102.862 21.595 103.04 22.1367 103.395 22.518C103.75 22.8907 104.236 23.077 104.851 23.077C105.484 23.077 105.982 22.882 106.346 22.492C106.71 22.102 106.892 21.5343 106.892 20.789V16.876H108.075ZM116.572 20.165C116.572 20.3903 116.559 20.6287 116.533 20.88H110.839C110.883 21.582 111.121 22.1323 111.554 22.531C111.996 22.921 112.529 23.116 113.153 23.116C113.665 23.116 114.089 22.999 114.427 22.765C114.774 22.5223 115.017 22.2017 115.155 21.803H116.429C116.239 22.4877 115.857 23.0467 115.285 23.48C114.713 23.9047 114.003 24.117 113.153 24.117C112.477 24.117 111.871 23.9653 111.333 23.662C110.805 23.3587 110.389 22.9297 110.085 22.375C109.782 21.8117 109.63 21.1617 109.63 20.425C109.63 19.6883 109.778 19.0427 110.072 18.488C110.367 17.9333 110.779 17.5087 111.307 17.214C111.845 16.9107 112.46 16.759 113.153 16.759C113.829 16.759 114.427 16.9063 114.947 17.201C115.467 17.4957 115.866 17.903 116.143 18.423C116.429 18.9343 116.572 19.515 116.572 20.165ZM115.35 19.918C115.35 19.4673 115.251 19.0817 115.051 18.761C114.852 18.4317 114.579 18.1847 114.232 18.02C113.894 17.8467 113.517 17.76 113.101 17.76C112.503 17.76 111.992 17.9507 111.567 18.332C111.151 18.7133 110.913 19.242 110.852 19.918H115.35ZM120.656 24.117C120.11 24.117 119.62 24.026 119.187 23.844C118.753 23.6533 118.411 23.3933 118.16 23.064C117.908 22.726 117.77 22.3403 117.744 21.907H118.966C119 22.2623 119.165 22.5527 119.46 22.778C119.763 23.0033 120.157 23.116 120.643 23.116C121.093 23.116 121.449 23.0163 121.709 22.817C121.969 22.6177 122.099 22.3663 122.099 22.063C122.099 21.751 121.96 21.5213 121.683 21.374C121.405 21.218 120.976 21.0663 120.396 20.919C119.867 20.7803 119.434 20.6417 119.096 20.503C118.766 20.3557 118.48 20.1433 118.238 19.866C118.004 19.58 117.887 19.2073 117.887 18.748C117.887 18.384 117.995 18.0503 118.212 17.747C118.428 17.4437 118.736 17.2053 119.135 17.032C119.533 16.85 119.988 16.759 120.5 16.759C121.288 16.759 121.925 16.9583 122.411 17.357C122.896 17.7557 123.156 18.3017 123.191 18.995H122.008C121.982 18.6223 121.83 18.3233 121.553 18.098C121.284 17.8727 120.92 17.76 120.461 17.76C120.036 17.76 119.698 17.851 119.447 18.033C119.195 18.215 119.07 18.4533 119.07 18.748C119.07 18.982 119.143 19.177 119.291 19.333C119.447 19.4803 119.637 19.6017 119.863 19.697C120.097 19.7837 120.417 19.8833 120.825 19.996C121.336 20.1347 121.752 20.2733 122.073 20.412C122.393 20.542 122.666 20.7413 122.892 21.01C123.126 21.2787 123.247 21.6297 123.256 22.063C123.256 22.453 123.147 22.804 122.931 23.116C122.714 23.428 122.406 23.675 122.008 23.857C121.618 24.0303 121.167 24.117 120.656 24.117ZM126.369 17.851V22.05C126.369 22.3967 126.442 22.6437 126.59 22.791C126.737 22.9297 126.993 22.999 127.357 22.999H128.228V24H127.162C126.503 24 126.009 23.8483 125.68 23.545C125.35 23.2417 125.186 22.7433 125.186 22.05V17.851H124.263V16.876H125.186V15.082H126.369V16.876H128.228V17.851H126.369ZM132.685 20.412C132.685 19.684 132.832 19.047 133.127 18.501C133.422 17.9463 133.825 17.5173 134.336 17.214C134.856 16.9107 135.432 16.759 136.065 16.759C136.689 16.759 137.231 16.8933 137.69 17.162C138.149 17.4307 138.492 17.7687 138.717 18.176V16.876H139.913V24H138.717V22.674C138.483 23.09 138.132 23.4367 137.664 23.714C137.205 23.9827 136.667 24.117 136.052 24.117C135.419 24.117 134.847 23.961 134.336 23.649C133.825 23.337 133.422 22.8993 133.127 22.336C132.832 21.7727 132.685 21.1313 132.685 20.412ZM138.717 20.425C138.717 19.8877 138.609 19.4197 138.392 19.021C138.175 18.6223 137.881 18.319 137.508 18.111C137.144 17.8943 136.741 17.786 136.299 17.786C135.857 17.786 135.454 17.89 135.09 18.098C134.726 18.306 134.436 18.6093 134.219 19.008C134.002 19.4067 133.894 19.8747 133.894 20.412C133.894 20.958 134.002 21.4347 134.219 21.842C134.436 22.2407 134.726 22.5483 135.09 22.765C135.454 22.973 135.857 23.077 136.299 23.077C136.741 23.077 137.144 22.973 137.508 22.765C137.881 22.5483 138.175 22.2407 138.392 21.842C138.609 21.4347 138.717 20.9623 138.717 20.425Z" fill="white"/>
</svg>
