<svg width="208" height="62" viewBox="0 0 208 62" fill="none" xmlns="http://www.w3.org/2000/svg">
<path d="M104.697 33.4224C101.083 33.4224 98.1371 36.1714 98.1371 39.9575C98.1371 43.7206 101.083 46.4926 104.697 46.4926C108.312 46.4926 111.258 43.7206 111.258 39.9575C111.256 36.1714 108.311 33.4224 104.697 33.4224ZM104.697 43.9204C102.716 43.9204 101.009 42.287 101.009 39.9591C101.009 37.6066 102.718 35.9977 104.697 35.9977C106.677 35.9977 108.385 37.6066 108.385 39.9591C108.385 42.2855 106.677 43.9204 104.697 43.9204ZM90.385 33.4224C86.771 33.4224 83.8253 36.1714 83.8253 39.9575C83.8253 43.7206 86.771 46.4926 90.385 46.4926C94.0006 46.4926 96.9462 43.7206 96.9462 39.9575C96.9462 36.1714 94.0006 33.4224 90.385 33.4224ZM90.385 43.9204C88.4043 43.9204 86.6972 42.287 86.6972 39.9591C86.6972 37.6066 88.4059 35.9977 90.385 35.9977C92.3657 35.9977 94.0728 37.6066 94.0728 39.9591C94.0744 42.2855 92.3657 43.9204 90.385 43.9204ZM73.3627 35.4292V38.2012H79.9977C79.7995 39.7608 79.2801 40.8995 78.4872 41.6908C77.5223 42.6558 76.0118 43.7206 73.3627 43.7206C69.2785 43.7206 66.0854 40.4277 66.0854 36.3435C66.0854 32.2592 69.2785 28.9663 73.3627 28.9663C75.5662 28.9663 77.175 29.833 78.3628 30.947L80.3188 28.9909C78.6593 27.4067 76.4574 26.1943 73.3627 26.1943C67.768 26.1943 63.0645 30.7488 63.0645 36.3435C63.0645 41.9382 67.768 46.4926 73.3627 46.4926C76.3821 46.4926 78.6609 45.5015 80.4418 43.6453C82.2734 41.8137 82.8435 39.2384 82.8435 37.1594C82.8435 36.5171 82.7943 35.9225 82.6944 35.4277H73.3627V35.4292ZM142.982 37.582C142.438 36.1222 140.779 33.4224 137.388 33.4224C134.021 33.4224 131.223 36.0715 131.223 39.9575C131.223 43.6208 133.996 46.4926 137.709 46.4926C140.704 46.4926 142.437 44.661 143.156 43.5962L140.928 42.1103C140.186 43.1997 139.17 43.9173 137.709 43.9173C136.249 43.9173 135.209 43.2489 134.54 41.9367L143.279 38.3226L142.982 37.582ZM134.07 39.7608C133.996 37.2347 136.026 35.9486 137.487 35.9486C138.626 35.9486 139.591 36.5187 139.914 37.3346L134.07 39.7608ZM126.966 46.0977H129.837V26.8889H126.966V46.0977ZM122.261 34.8837H122.163C121.519 34.1154 120.281 33.4224 118.723 33.4224C115.454 33.4224 112.46 36.2943 112.46 39.9837C112.46 43.6469 115.454 46.4942 118.723 46.4942C120.282 46.4942 121.519 45.8012 122.163 45.0098H122.261V45.9502C122.261 48.4502 120.925 49.7871 118.772 49.7871C117.014 49.7871 115.925 48.5255 115.479 47.4607L112.979 48.5009C113.697 50.2327 115.602 52.3624 118.772 52.3624C122.139 52.3624 124.986 50.3817 124.986 45.5538V33.8204H122.263V34.8837H122.261ZM118.97 43.9204C116.989 43.9204 115.331 42.2609 115.331 39.9837C115.331 37.6803 116.989 35.9977 118.97 35.9977C120.925 35.9977 122.46 37.6803 122.46 39.9837C122.46 42.2609 120.925 43.9204 118.97 43.9204ZM156.434 26.8889H149.564V46.0977H152.429V38.8205H156.432C159.61 38.8205 162.735 36.5202 162.735 32.8554C162.735 29.1907 159.611 26.8889 156.434 26.8889ZM156.507 36.1468H152.429V29.5625H156.507C158.651 29.5625 159.868 31.3373 159.868 32.8554C159.868 34.3428 158.651 36.1468 156.507 36.1468ZM174.227 33.3886C172.151 33.3886 170.002 34.3029 169.112 36.3297L171.657 37.3914C172.2 36.3297 173.215 35.9824 174.276 35.9824C175.759 35.9824 177.267 36.8721 177.291 38.4532V38.6514C176.772 38.3549 175.659 37.9108 174.301 37.9108C171.558 37.9108 168.765 39.4182 168.765 42.2348C168.765 44.8055 171.014 46.4604 173.534 46.4604C175.461 46.4604 176.524 45.5953 177.191 44.5811H177.29V46.0639H180.059V38.6991C180.06 35.2909 177.512 33.3886 174.227 33.3886ZM173.88 43.9158C172.943 43.9158 171.632 43.4456 171.632 42.2839C171.632 40.8011 173.264 40.2326 174.673 40.2326C175.931 40.2326 176.526 40.5046 177.291 40.8749C177.068 42.6558 175.536 43.9158 173.88 43.9158ZM190.142 33.8081L186.855 42.1364H186.757L183.345 33.8081H180.257L185.372 45.4478L182.456 51.9229H185.446L193.33 33.8081H190.142ZM164.318 46.0977H167.184V26.8889H164.318V46.0977Z" fill="white"/>
<path d="M72.8619 15.7393C72.8619 17.027 72.4808 18.0519 71.7171 18.8171C70.8505 19.7268 69.7196 20.1816 68.3305 20.1816C66.9998 20.1816 65.8673 19.7206 64.9377 18.7987C64.0065 17.8752 63.541 16.732 63.541 15.3675C63.541 14.0015 64.0065 12.8582 64.9377 11.9363C65.8673 11.0128 66.9998 10.5518 68.3305 10.5518C68.9912 10.5518 69.6228 10.6809 70.222 10.9375C70.8228 11.1957 71.3038 11.5383 71.6633 11.967L70.8536 12.7783C70.2435 12.0485 69.403 11.6843 68.329 11.6843C67.3578 11.6843 66.5189 12.0254 65.8105 12.7077C65.1021 13.3899 64.7487 14.2765 64.7487 15.366C64.7487 16.4554 65.1021 17.342 65.8105 18.0242C66.5189 18.7065 67.3578 19.0476 68.329 19.0476C69.3585 19.0476 70.2174 18.705 70.9043 18.0181C71.3499 17.571 71.608 16.9486 71.6772 16.1511H68.329V15.0433H72.7958C72.8419 15.2845 72.8619 15.5165 72.8619 15.7393Z" fill="white"/>
<path d="M79.9457 11.8887H75.7477V14.8113H79.5339V15.9192H75.7477V18.8418H79.9457V19.9758H74.563V10.7563H79.9457V11.8887Z" fill="white"/>
<path d="M84.9409 19.9758H83.7562V11.8887H81.1809V10.7563H87.5163V11.8887H84.9409V19.9758Z" fill="white"/>
<path d="M92.0998 19.9758V10.7563H93.2845V19.9758H92.0998Z" fill="white"/>
<path d="M98.5384 19.9758H97.3537V11.8887H94.7784V10.7563H101.114V11.8887H98.5384V19.9758Z" fill="white"/>
<path d="M113.106 18.7849C112.2 19.7161 111.073 20.1817 109.726 20.1817C108.378 20.1817 107.252 19.7161 106.347 18.7849C105.44 17.8538 104.989 16.7136 104.989 15.366C104.989 14.0184 105.44 12.8783 106.347 11.9471C107.252 11.0159 108.378 10.5488 109.726 10.5488C111.066 10.5488 112.191 11.0175 113.1 11.9533C114.01 12.889 114.465 14.0261 114.465 15.366C114.465 16.7136 114.011 17.8538 113.106 18.7849ZM107.221 18.012C107.904 18.7035 108.738 19.0477 109.726 19.0477C110.714 19.0477 111.55 18.702 112.231 18.012C112.913 17.3206 113.255 16.4386 113.255 15.366C113.255 14.2935 112.913 13.4115 112.231 12.72C111.55 12.0286 110.714 11.6844 109.726 11.6844C108.738 11.6844 107.904 12.0301 107.221 12.72C106.541 13.4115 106.198 14.2935 106.198 15.366C106.198 16.4386 106.541 17.3206 107.221 18.012Z" fill="white"/>
<path d="M116.127 19.9758V10.7563H117.569L122.049 17.9275H122.1L122.049 16.1512V10.7563H123.234V19.9758H121.997L117.309 12.4557H117.258L117.309 14.232V19.9758H116.127Z" fill="white"/>
<path d="M72.8619 15.7393C72.8619 17.027 72.4808 18.0519 71.7171 18.8171C70.8505 19.7268 69.7196 20.1816 68.3305 20.1816C66.9998 20.1816 65.8673 19.7206 64.9377 18.7987C64.0065 17.8752 63.541 16.732 63.541 15.3675C63.541 14.0015 64.0065 12.8582 64.9377 11.9363C65.8673 11.0128 66.9998 10.5518 68.3305 10.5518C68.9912 10.5518 69.6228 10.6809 70.222 10.9375C70.8228 11.1957 71.3038 11.5383 71.6633 11.967L70.8536 12.7783C70.2435 12.0485 69.403 11.6843 68.329 11.6843C67.3578 11.6843 66.5189 12.0254 65.8105 12.7077C65.1021 13.3899 64.7487 14.2765 64.7487 15.366C64.7487 16.4554 65.1021 17.342 65.8105 18.0242C66.5189 18.7065 67.3578 19.0476 68.329 19.0476C69.3585 19.0476 70.2174 18.705 70.9043 18.0181C71.3499 17.571 71.608 16.9486 71.6772 16.1511H68.329V15.0433H72.7958C72.8419 15.2845 72.8619 15.5165 72.8619 15.7393Z" stroke="white" stroke-width="0.307317" stroke-miterlimit="10"/>
<path d="M79.9457 11.8887H75.7477V14.8113H79.5339V15.9192H75.7477V18.8418H79.9457V19.9758H74.563V10.7563H79.9457V11.8887Z" stroke="white" stroke-width="0.307317" stroke-miterlimit="10"/>
<path d="M84.9409 19.9758H83.7562V11.8887H81.1809V10.7563H87.5163V11.8887H84.9409V19.9758Z" stroke="white" stroke-width="0.307317" stroke-miterlimit="10"/>
<path d="M92.0998 19.9758V10.7563H93.2845V19.9758H92.0998Z" stroke="white" stroke-width="0.307317" stroke-miterlimit="10"/>
<path d="M98.5384 19.9758H97.3537V11.8887H94.7784V10.7563H101.114V11.8887H98.5384V19.9758Z" stroke="white" stroke-width="0.307317" stroke-miterlimit="10"/>
<path d="M113.106 18.7849C112.2 19.7161 111.073 20.1817 109.726 20.1817C108.378 20.1817 107.252 19.7161 106.347 18.7849C105.44 17.8538 104.989 16.7136 104.989 15.366C104.989 14.0184 105.44 12.8783 106.347 11.9471C107.252 11.0159 108.378 10.5488 109.726 10.5488C111.066 10.5488 112.191 11.0175 113.1 11.9533C114.01 12.889 114.465 14.0261 114.465 15.366C114.465 16.7136 114.011 17.8538 113.106 18.7849ZM107.221 18.012C107.904 18.7035 108.738 19.0477 109.726 19.0477C110.714 19.0477 111.55 18.702 112.231 18.012C112.913 17.3206 113.255 16.4386 113.255 15.366C113.255 14.2935 112.913 13.4115 112.231 12.72C111.55 12.0286 110.714 11.6844 109.726 11.6844C108.738 11.6844 107.904 12.0301 107.221 12.72C106.541 13.4115 106.198 14.2935 106.198 15.366C106.198 16.4386 106.541 17.3206 107.221 18.012Z" stroke="white" stroke-width="0.307317" stroke-miterlimit="10"/>
<path d="M116.127 19.9758V10.7563H117.569L122.049 17.9275H122.1L122.049 16.1512V10.7563H123.234V19.9758H121.997L117.309 12.4557H117.258L117.309 14.232V19.9758H116.127Z" stroke="white" stroke-width="0.307317" stroke-miterlimit="10"/>
<g filter="url(#filter0_ii)">
<path d="M24.6029 15.9798C24.224 16.3809 24 17.0033 24 17.8093V46.6064C24 47.4137 24.224 48.0348 24.6029 48.4358L24.6992 48.5296L40.8309 32.3979V32.2078V32.0177L24.6992 15.8848L24.6029 15.9798Z" fill="url(#paint0_linear)"/>
<path d="M46.2072 37.7774L40.8309 32.3985V32.2084V32.0183L46.2085 26.6406L46.3296 26.7096L52.7008 30.3295C54.5198 31.3633 54.5198 33.0547 52.7008 34.0899L46.3296 37.7097L46.2072 37.7774Z" fill="url(#paint1_linear)"/>
<g filter="url(#filter1_i)">
<path d="M46.3296 37.7081L40.8296 32.208L24.6029 48.436C25.2018 49.0714 26.1927 49.1496 27.3086 48.5167L46.3296 37.7081Z" fill="url(#paint2_linear)"/>
</g>
<path d="M46.3296 26.7079L27.3086 15.9005C26.1927 15.2664 25.2018 15.3458 24.6029 15.9812L40.8309 32.2092L46.3296 26.7079Z" fill="url(#paint3_linear)"/>
</g>
<rect x="0.768293" y="0.768293" width="205.902" height="59.9268" rx="29.2317" stroke="#A6A6A6" stroke-width="1.53659"/>
<defs>
<filter id="filter0_ii" x="24" y="15.4629" width="30.065" height="33.4909" filterUnits="userSpaceOnUse" color-interpolation-filters="sRGB">
<feFlood flood-opacity="0" result="BackgroundImageFix"/>
<feBlend mode="normal" in="SourceGraphic" in2="BackgroundImageFix" result="shape"/>
<feColorMatrix in="SourceAlpha" type="matrix" values="0 0 0 0 0 0 0 0 0 0 0 0 0 0 0 0 0 0 127 0" result="hardAlpha"/>
<feOffset dy="-0.195314"/>
<feComposite in2="hardAlpha" operator="arithmetic" k2="-1" k3="1"/>
<feColorMatrix type="matrix" values="0 0 0 0 0 0 0 0 0 0 0 0 0 0 0 0 0 0 0.12 0"/>
<feBlend mode="normal" in2="shape" result="effect1_innerShadow"/>
<feColorMatrix in="SourceAlpha" type="matrix" values="0 0 0 0 0 0 0 0 0 0 0 0 0 0 0 0 0 0 127 0" result="hardAlpha"/>
<feOffset dy="0.195314"/>
<feComposite in2="hardAlpha" operator="arithmetic" k2="-1" k3="1"/>
<feColorMatrix type="matrix" values="0 0 0 0 1 0 0 0 0 1 0 0 0 0 1 0 0 0 0.25 0"/>
<feBlend mode="normal" in2="effect1_innerShadow" result="effect2_innerShadow"/>
</filter>
<filter id="filter1_i" x="24.6029" y="32.208" width="21.7267" height="16.7458" filterUnits="userSpaceOnUse" color-interpolation-filters="sRGB">
<feFlood flood-opacity="0" result="BackgroundImageFix"/>
<feBlend mode="normal" in="SourceGraphic" in2="BackgroundImageFix" result="shape"/>
<feColorMatrix in="SourceAlpha" type="matrix" values="0 0 0 0 0 0 0 0 0 0 0 0 0 0 0 0 0 0 127 0" result="hardAlpha"/>
<feOffset dy="-0.195314"/>
<feComposite in2="hardAlpha" operator="arithmetic" k2="-1" k3="1"/>
<feColorMatrix type="matrix" values="0 0 0 0 0 0 0 0 0 0 0 0 0 0 0 0 0 0 0.08 0"/>
<feBlend mode="normal" in2="shape" result="effect1_innerShadow"/>
</filter>
<linearGradient id="paint0_linear" x1="39.4009" y1="17.5046" x2="17.5492" y2="39.3563" gradientUnits="userSpaceOnUse">
<stop stop-color="#00A0FF"/>
<stop offset="0.0066" stop-color="#00A1FF"/>
<stop offset="0.2601" stop-color="#00BEFF"/>
<stop offset="0.5122" stop-color="#00D2FF"/>
<stop offset="0.7604" stop-color="#00DFFF"/>
<stop offset="1" stop-color="#00E3FF"/>
</linearGradient>
<linearGradient id="paint1_linear" x1="55.0686" y1="32.2084" x2="23.5633" y2="32.2084" gradientUnits="userSpaceOnUse">
<stop stop-color="#FFE000"/>
<stop offset="0.4087" stop-color="#FFBD00"/>
<stop offset="0.7754" stop-color="#FFA500"/>
<stop offset="1" stop-color="#FF9C00"/>
</linearGradient>
<linearGradient id="paint2_linear" x1="43.3428" y1="35.1949" x2="13.709" y2="64.8286" gradientUnits="userSpaceOnUse">
<stop stop-color="#FF3A44"/>
<stop offset="1" stop-color="#C31162"/>
</linearGradient>
<linearGradient id="paint3_linear" x1="20.5161" y1="6.39494" x2="33.7484" y2="19.6272" gradientUnits="userSpaceOnUse">
<stop stop-color="#32A071"/>
<stop offset="0.0685" stop-color="#2DA771"/>
<stop offset="0.4762" stop-color="#15CF74"/>
<stop offset="0.8009" stop-color="#06E775"/>
<stop offset="1" stop-color="#00F076"/>
</linearGradient>
</defs>
</svg>
