<svg width="164" height="164" viewBox="0 0 164 164" fill="none" xmlns="http://www.w3.org/2000/svg">
<path d="M156.23 146.144H141.351V69.2691H156.23C157.243 69.2681 158.153 68.652 158.529 67.7114C158.905 66.7718 158.673 65.6966 157.941 64.9962L103.384 12.9196C102.439 12.0177 100.955 12.0042 99.9917 12.8905L68.0202 42.4006C64.1445 37.5349 58.2965 34.6559 52.0766 34.5513C39.7723 34.5513 29.758 46.2318 29.758 60.5896C29.5953 68.9368 33.2473 76.9004 39.6774 82.2243V90.2218L22.274 96.0223C16.3727 97.9839 12.3943 103.505 12.3992 109.723V146.144H7.43949C6.06977 146.144 4.95966 147.255 4.95966 148.624C4.95966 149.994 6.06977 151.104 7.43949 151.104H156.23C157.6 151.104 158.71 149.994 158.71 148.624C158.71 147.255 157.6 146.144 156.23 146.144ZM136.391 146.144H123.992V91.5876C123.992 90.2189 122.882 89.1078 121.512 89.1078H84.3145C82.9448 89.1078 81.8347 90.2189 81.8347 91.5876V96.0077L64.4758 90.2218V82.2243C68.6043 78.8881 71.6131 74.3673 73.0932 69.2691H136.391V146.144ZM86.7943 98.8809V94.0675H99.1935V146.144H91.754V109.723C91.7463 105.563 89.9377 101.608 86.7943 98.8809ZM104.153 94.0675H119.032V146.144H104.153V94.0675ZM71.1171 46.2938L101.643 18.1156L150.03 64.3094H74.1472C74.307 63.0763 74.3893 61.8334 74.3951 60.5896C74.4165 55.659 73.1823 50.804 70.8071 46.4826C70.9156 46.4274 71.0183 46.3645 71.1171 46.2938ZM34.7177 60.5896C34.7177 48.9673 42.505 39.511 52.0766 39.511C61.6482 39.511 69.4355 48.9673 69.4355 60.5896C69.4355 72.2129 61.6482 81.6683 52.0766 81.6683C42.505 81.6683 34.7177 72.2129 34.7177 60.5896ZM17.3588 109.723C17.3569 105.64 19.9695 102.015 23.8442 100.726L42.938 94.361C43.9532 94.0239 44.6371 93.0765 44.6371 92.0071V85.109C49.3895 87.1355 54.7637 87.1355 59.5161 85.109V92.0071C59.5161 93.0746 60.199 94.0229 61.2123 94.361L80.3061 100.726C84.1828 102.015 86.7963 105.64 86.7943 109.723V146.144H17.3588V109.723Z" fill="#2D2E83"/>
</svg>
