<svg width="56" height="56" viewBox="0 0 56 56" fill="none" xmlns="http://www.w3.org/2000/svg">
<path d="M9.625 32.3745H7.875V34.1245H9.625V32.3745Z" fill="#2D2E83"/>
<path d="M13.125 32.3745H11.375V34.1245H13.125V32.3745Z" fill="#2D2E83"/>
<path d="M19.25 30.6245V29.7495C19.2481 28.1256 18.6022 26.5688 17.454 25.4205C16.3057 24.2723 14.7489 23.6264 13.125 23.6245H7.875C6.25112 23.6264 4.69428 24.2723 3.54602 25.4205C2.39776 26.5688 1.75185 28.1256 1.75 29.7495V30.6245C1.75173 30.8565 1.84258 31.0789 2.00375 31.2458L3.1675 32.4095C2.769 32.4866 2.4097 32.6999 2.15111 33.0127C1.89252 33.3256 1.75072 33.7186 1.75 34.1245V34.9995C1.75138 35.4632 1.9362 35.9075 2.26409 36.2354C2.59198 36.5633 3.0363 36.7481 3.5 36.7495H4.445C4.5649 37.5787 4.85347 38.3746 5.29291 39.0879C5.73236 39.8012 6.31334 40.417 7 40.897V43.312L3.85 45.6745C3.71214 45.7772 3.60782 45.9185 3.55019 46.0804C3.49257 46.2424 3.48424 46.4178 3.52625 46.5845L5.27625 53.5845C5.32315 53.7742 5.4322 53.9428 5.58602 54.0633C5.73985 54.1838 5.92959 54.2494 6.125 54.2495H14.875C15.0704 54.2494 15.2602 54.1838 15.414 54.0633C15.5678 53.9428 15.6769 53.7742 15.7237 53.5845L17.4737 46.5845C17.5158 46.4178 17.5074 46.2424 17.4498 46.0804C17.3922 45.9185 17.2879 45.7772 17.15 45.6745L14 43.312V40.897C14.6867 40.417 15.2676 39.8012 15.7071 39.0879C16.1465 38.3746 16.4351 37.5787 16.555 36.7495H17.5C17.9637 36.7481 18.408 36.5633 18.7359 36.2354C19.0638 35.9075 19.2486 35.4632 19.25 34.9995V34.1245C19.2493 33.7186 19.1075 33.3256 18.8489 33.0127C18.5903 32.6999 18.231 32.4866 17.8325 32.4095L18.9963 31.2458C19.1574 31.0789 19.2483 30.8565 19.25 30.6245ZM4.375 34.9995H3.5V34.1245H4.375V34.9995ZM15.6363 46.7245L14.1925 52.4995H6.8075L5.36375 46.7245L8.4 44.4495C8.50798 44.3674 8.59568 44.2615 8.65635 44.1402C8.71703 44.0188 8.74906 43.8852 8.75 43.7495V41.7458C9.89214 42.0841 11.1079 42.0841 12.25 41.7458V43.7495C12.2509 43.8852 12.283 44.0188 12.3436 44.1402C12.4043 44.2615 12.492 44.3674 12.6 44.4495L15.6363 46.7245ZM14.875 35.8745C14.875 37.0348 14.4141 38.1476 13.5936 38.9681C12.7731 39.7886 11.6603 40.2495 10.5 40.2495C9.33968 40.2495 8.22688 39.7886 7.40641 38.9681C6.58594 38.1476 6.125 37.0348 6.125 35.8745V31.167L8.855 29.802L14.875 31.307V35.8745ZM17.5 34.9995H16.625V34.1245H17.5V34.9995ZM17.5 30.2658L16.625 31.1408V30.6245C16.6248 30.4291 16.5593 30.2394 16.4388 30.0855C16.3182 29.9317 16.1497 29.8227 15.96 29.7758L8.96 28.0258C8.75696 27.9744 8.54215 27.9993 8.35625 28.0958L4.85625 29.8458C4.71118 29.9175 4.58916 30.0285 4.50409 30.1662C4.41901 30.3039 4.37428 30.4627 4.375 30.6245V31.1408L3.5 30.2658V29.7495C3.5 28.5892 3.96094 27.4764 4.78141 26.6559C5.60188 25.8354 6.71468 25.3745 7.875 25.3745H13.125C14.2853 25.3745 15.3981 25.8354 16.2186 26.6559C17.0391 27.4764 17.5 28.5892 17.5 29.7495V30.2658Z" fill="#2D2E83"/>
<path d="M54.25 26.2495V22.7495C54.25 22.5174 54.1578 22.2949 53.9937 22.1308C53.8296 21.9667 53.6071 21.8745 53.375 21.8745H42.875C41.2511 21.8764 39.6943 22.5223 38.546 23.6705C37.3978 24.8188 36.7519 26.3756 36.75 27.9995V29.7495C36.7521 30.4451 37.0293 31.1115 37.5211 31.6034C38.013 32.0952 38.6794 32.3724 39.375 32.3745H38.5C38.0363 32.3759 37.592 32.5607 37.2641 32.8886C36.9362 33.2165 36.7514 33.6608 36.75 34.1245V34.9995C36.7514 35.4632 36.9362 35.9075 37.2641 36.2354C37.592 36.5633 38.0363 36.7481 38.5 36.7495H39.445C39.5649 37.5787 39.8535 38.3746 40.2929 39.0879C40.7324 39.8012 41.3133 40.417 42 40.897V43.312L38.85 45.6745C38.7121 45.7772 38.6078 45.9185 38.5502 46.0804C38.4926 46.2424 38.4842 46.4178 38.5262 46.5845L40.2762 53.5845C40.3231 53.7742 40.4322 53.9428 40.586 54.0633C40.7398 54.1838 40.9296 54.2494 41.125 54.2495H49.875C50.0704 54.2494 50.2602 54.1838 50.414 54.0633C50.5678 53.9428 50.6769 53.7742 50.7238 53.5845L52.4738 46.5845C52.5158 46.4178 52.5074 46.2424 52.4498 46.0804C52.3922 45.9185 52.2879 45.7772 52.15 45.6745L49 43.312V40.897C49.6867 40.417 50.2676 39.8012 50.7071 39.0879C51.1465 38.3746 51.4351 37.5787 51.555 36.7495H52.5C52.9637 36.7481 53.408 36.5633 53.7359 36.2354C54.0638 35.9075 54.2486 35.4632 54.25 34.9995V34.1245C54.2486 33.6608 54.0638 33.2165 53.7359 32.8886C53.408 32.5607 52.9637 32.3759 52.5 32.3745H51.625V31.2545C52.4333 30.6934 53.0941 29.9453 53.5511 29.0739C54.0082 28.2024 54.2479 27.2335 54.25 26.2495ZM39.375 34.9995H38.5V34.1245H39.375V34.9995ZM50.6362 46.7245L49.1925 52.4995H41.8075L40.3638 46.7245L43.4 44.4495C43.508 44.3674 43.5957 44.2615 43.6564 44.1402C43.717 44.0188 43.7491 43.8852 43.75 43.7495V41.7458C44.8921 42.0841 46.1079 42.0841 47.25 41.7458V43.7495C47.2509 43.8852 47.283 44.0188 47.3436 44.1402C47.4043 44.2615 47.492 44.3674 47.6 44.4495L50.6362 46.7245ZM49.875 35.8745C49.875 37.0348 49.4141 38.1476 48.5936 38.9681C47.7731 39.7886 46.6603 40.2495 45.5 40.2495C44.3397 40.2495 43.2269 39.7886 42.4064 38.9681C41.5859 38.1476 41.125 37.0348 41.125 35.8745V31.167L43.5838 29.9333C43.4788 30.1083 43.3737 30.257 43.2775 30.3883C43.0822 30.5838 42.9497 30.833 42.8967 31.1042C42.8437 31.3753 42.8727 31.6561 42.98 31.9108C43.105 32.1194 43.2801 32.2935 43.4895 32.4172C43.6988 32.541 43.9357 32.6105 44.1788 32.6195C44.8642 32.6739 45.5531 32.5758 46.1961 32.3322C46.8391 32.0886 47.4202 31.7056 47.8975 31.2108C48.055 31.0358 48.2125 30.8783 48.3438 30.747L49.875 31.2545V35.8745ZM52.5 34.1245V34.9995H51.625V34.1245H52.5ZM50.785 29.7145L48.405 28.9183C48.2578 28.8697 48.1006 28.8603 47.9487 28.891C47.7968 28.9217 47.6555 28.9914 47.5388 29.0933C47.5213 29.1108 47.0838 29.5133 46.6112 30.0295C46.1924 30.446 45.6596 30.7291 45.08 30.8433C45.2297 30.5882 45.3528 30.3184 45.4475 30.0383C45.5453 29.7875 45.5918 29.5197 45.5843 29.2507C45.5768 28.9817 45.5154 28.7169 45.4037 28.472C45.3298 28.3293 45.2181 28.2098 45.0807 28.1264C44.9433 28.0431 44.7857 27.9992 44.625 27.9995H43.75C43.613 28.0003 43.4782 28.0333 43.3562 28.0958L39.8562 29.8458C39.7112 29.9175 39.5892 30.0285 39.5041 30.1662C39.419 30.3039 39.3743 30.4627 39.375 30.6245C39.1429 30.6245 38.9204 30.5323 38.7563 30.3682C38.5922 30.2041 38.5 29.9816 38.5 29.7495V27.9995C38.5 26.8392 38.9609 25.7264 39.7814 24.9059C40.6019 24.0854 41.7147 23.6245 42.875 23.6245H52.5V26.2495C52.4987 26.9199 52.3434 27.5809 52.046 28.1817C51.7487 28.7825 51.3172 29.3069 50.785 29.7145Z" fill="#2D2E83"/>
<path d="M48.125 33.2495H46.375V34.9995H48.125V33.2495Z" fill="#2D2E83"/>
<path d="M44.625 33.2495H42.875V34.9995H44.625V33.2495Z" fill="#2D2E83"/>
<path d="M25.375 16.6245H30.625C30.8571 16.6245 31.0796 16.5323 31.2437 16.3682C31.4078 16.2041 31.5 15.9816 31.5 15.7495V14.8745C31.5 13.9463 31.1313 13.056 30.4749 12.3996C29.8185 11.7433 28.9283 11.3745 28 11.3745C27.0717 11.3745 26.1815 11.7433 25.5251 12.3996C24.8687 13.056 24.5 13.9463 24.5 14.8745V15.7495C24.5 15.9816 24.5922 16.2041 24.7563 16.3682C24.9204 16.5323 25.1429 16.6245 25.375 16.6245ZM28 13.1245C28.4641 13.1245 28.9092 13.3089 29.2374 13.6371C29.5656 13.9653 29.75 14.4104 29.75 14.8745H26.25C26.25 14.4104 26.4344 13.9653 26.7626 13.6371C27.0908 13.3089 27.5359 13.1245 28 13.1245Z" fill="#2D2E83"/>
<path d="M41.7462 15.1285L28.6212 2.00348C28.456 1.83955 28.2327 1.74756 28 1.74756C27.7672 1.74756 27.5439 1.83955 27.3787 2.00348L14.2537 15.1285C14.0898 15.2937 13.9978 15.517 13.9978 15.7497C13.9978 15.9825 14.0898 16.2058 14.2537 16.371L16.8787 18.996C17.0501 19.1611 17.2795 19.2523 17.5175 19.2497C17.6345 19.247 17.7498 19.2208 17.8565 19.1727C17.9632 19.1246 18.0592 19.0556 18.1387 18.9697L20.125 16.8172V27.1247C20.125 27.3568 20.2172 27.5794 20.3813 27.7435C20.5454 27.9075 20.7679 27.9997 21 27.9997H27.125V38.6222C26.5238 38.7808 25.9754 39.0959 25.5358 39.5355C25.0962 39.9752 24.781 40.5235 24.6225 41.1247H18.375V42.8747H24.6225C24.8135 43.6255 25.2493 44.2913 25.8609 44.7668C26.4726 45.2423 27.2252 45.5004 28 45.5004C28.7747 45.5004 29.5274 45.2423 30.139 44.7668C30.7507 44.2913 31.1864 43.6255 31.3775 42.8747H37.625V41.1247H31.3775C31.219 40.5235 30.9038 39.9752 30.4642 39.5355C30.0245 39.0959 29.4762 38.7808 28.875 38.6222V27.9997H35C35.232 27.9997 35.4546 27.9075 35.6187 27.7435C35.7828 27.5794 35.875 27.3568 35.875 27.1247V16.8172L37.8612 18.9697C37.9408 19.0556 38.0368 19.1246 38.1435 19.1727C38.2502 19.2208 38.3655 19.247 38.4825 19.2497H38.5C38.7319 19.248 38.9544 19.1572 39.1212 18.996L41.7462 16.371C41.9102 16.2058 42.0021 15.9825 42.0021 15.7497C42.0021 15.517 41.9102 15.2937 41.7462 15.1285ZM29.75 41.9997C29.75 42.3458 29.6473 42.6842 29.455 42.972C29.2628 43.2598 28.9894 43.4841 28.6697 43.6165C28.3499 43.749 27.998 43.7836 27.6586 43.7161C27.3191 43.6486 27.0073 43.4819 26.7625 43.2372C26.5178 42.9924 26.3511 42.6806 26.2836 42.3411C26.2161 42.0017 26.2507 41.6498 26.3832 41.33C26.5156 41.0103 26.7399 40.7369 27.0277 40.5447C27.3155 40.3524 27.6539 40.2497 28 40.2497C28.4637 40.2511 28.908 40.4359 29.2359 40.7638C29.5638 41.0917 29.7486 41.536 29.75 41.9997ZM29.75 26.2497H26.25V20.9997H29.75V26.2497ZM34.125 26.2497H31.5V20.1247C31.5 19.8927 31.4078 19.6701 31.2437 19.506C31.0796 19.3419 30.857 19.2497 30.625 19.2497H25.375C25.1429 19.2497 24.9204 19.3419 24.7563 19.506C24.5922 19.6701 24.5 19.8927 24.5 20.1247V26.2497H21.875V14.9272L28 8.28598L34.125 14.9272V26.2497ZM38.5262 17.1147L28.6387 6.40473C28.5574 6.3165 28.4586 6.24607 28.3487 6.19791C28.2387 6.14974 28.12 6.12487 28 6.12487C27.88 6.12487 27.7612 6.14974 27.6513 6.19791C27.5414 6.24607 27.4426 6.3165 27.3612 6.40473L17.4737 17.1147L16.1087 15.7497L28 3.85848L39.8912 15.7497L38.5262 17.1147Z" fill="#2D2E83"/>
</svg>
