<svg width="56" height="56" viewBox="0 0 56 56" fill="none" xmlns="http://www.w3.org/2000/svg">
<path d="M4.375 13.1318H5.51141C4.49611 11.9993 3.83049 10.597 3.59497 9.09436C3.35947 7.59172 3.56414 6.05303 4.18428 4.66421C4.80442 3.27539 5.81347 2.09586 7.08952 1.26816C8.36557 0.440461 9.85402 0 11.375 0C12.896 0 14.3844 0.440461 15.6605 1.26816C16.9365 2.09586 17.9456 3.27539 18.5657 4.66421C19.1859 6.05303 19.3905 7.59172 19.155 9.09436C18.9195 10.597 18.2539 11.9993 17.2386 13.1318H28V4.3818C28 4.14973 28.0922 3.92717 28.2563 3.76308C28.4204 3.59898 28.6429 3.5068 28.875 3.5068H32.375C32.6071 3.5068 32.8296 3.59898 32.9937 3.76308C33.1578 3.92717 33.25 4.14973 33.25 4.3818V13.1318H34.125V0.881795C34.125 0.649731 34.2172 0.427171 34.3813 0.263076C34.5454 0.0989821 34.7679 0.00679494 35 0.00679494H38.5C38.7321 0.00679494 38.9546 0.0989821 39.1187 0.263076C39.2828 0.427171 39.375 0.649731 39.375 0.881795V13.1318H40.25V7.0068C40.25 6.77473 40.3422 6.55217 40.5063 6.38808C40.6704 6.22398 40.8929 6.1318 41.125 6.1318H44.625C44.8571 6.1318 45.0796 6.22398 45.2437 6.38808C45.4078 6.55217 45.5 6.77473 45.5 7.0068V13.1318H51.625C52.5529 13.1328 53.4426 13.5019 54.0987 14.1581C54.7549 14.8142 55.124 15.7039 55.125 16.6318V42.8818C55.124 43.8097 54.7549 44.6994 54.0987 45.3555C53.4426 46.0117 52.5529 46.3808 51.625 46.3818H33.5891L34.7561 49.8818H37.625C37.8571 49.8818 38.0796 49.974 38.2437 50.1381C38.4078 50.3022 38.5 50.5247 38.5 50.7568V52.5068H47.25C47.4821 52.5068 47.7046 52.599 47.8687 52.7631C48.0328 52.9272 48.125 53.1497 48.125 53.3818C48.125 53.6139 48.0328 53.8364 47.8687 54.0005C47.7046 54.1646 47.4821 54.2568 47.25 54.2568H8.75C8.51794 54.2568 8.29538 54.1646 8.13128 54.0005C7.96719 53.8364 7.875 53.6139 7.875 53.3818C7.875 53.1497 7.96719 52.9272 8.13128 52.7631C8.29538 52.599 8.51794 52.5068 8.75 52.5068H17.5V50.7568C17.5 50.5247 17.5922 50.3022 17.7563 50.1381C17.9204 49.974 18.1429 49.8818 18.375 49.8818H21.2439L22.4109 46.3818H4.375C3.44706 46.3808 2.55743 46.0117 1.90128 45.3555C1.24513 44.6994 0.876041 43.8097 0.875 42.8818V16.6318C0.876041 15.7039 1.24513 14.8142 1.90128 14.1581C2.55743 13.5019 3.44706 13.1328 4.375 13.1318ZM10.5 1.82023C9.19228 2.01106 7.9811 2.61893 7.04662 3.55341C6.11213 4.4879 5.50426 5.69908 5.31343 7.0068H10.5V1.82023ZM11.013 8.7568H5.31343C5.46457 9.80822 5.88672 10.8022 6.53839 11.6411C7.19006 12.4799 8.04881 13.1347 9.03022 13.5411C10.0116 13.9475 11.0819 14.0915 12.1358 13.9589C13.1898 13.8264 14.191 13.4218 15.0412 12.7851L11.013 8.7568ZM17.5 7.8818C17.4979 6.40959 16.9664 4.98724 16.0026 3.87441C15.0387 2.76157 13.7068 2.03248 12.25 1.82023V7.51976L16.2783 11.548C17.0725 10.4909 17.5014 9.20407 17.5 7.8818ZM31.5 5.2568H29.75V21.8818H31.5V5.2568ZM34.125 14.8818H33.25V21.8818H34.125V14.8818ZM37.625 1.7568H35.875V21.8818H37.625V1.7568ZM40.25 14.8818H39.375V21.8818H40.25V14.8818ZM43.75 7.8818H42V21.8818H43.75V7.8818ZM19.25 51.6318V52.5068H36.75V51.6318H19.25ZM32.9109 49.8818L31.7439 46.3818H24.2561L23.0891 49.8818H32.9109ZM2.625 42.8818C2.62561 43.3457 2.81018 43.7905 3.13823 44.1186C3.46629 44.4466 3.91106 44.6312 4.375 44.6318H51.625C52.0889 44.6312 52.5337 44.4466 52.8618 44.1186C53.1898 43.7905 53.3744 43.3457 53.375 42.8818V41.1318H2.625V42.8818ZM2.625 39.3818H53.375V16.6318C53.3744 16.1679 53.1898 15.7231 52.8618 15.395C52.5337 15.067 52.0889 14.8824 51.625 14.8818H45.5V21.8818H46.375V16.6318C46.375 16.3997 46.4672 16.1772 46.6313 16.0131C46.7954 15.849 47.0179 15.7568 47.25 15.7568H50.75C50.9821 15.7568 51.2046 15.849 51.3687 16.0131C51.5328 16.1772 51.625 16.3997 51.625 16.6318V22.7568C51.625 22.9889 51.5328 23.2114 51.3687 23.3755C51.2046 23.5396 50.9821 23.6318 50.75 23.6318H22.75C22.5179 23.6318 22.2954 23.5396 22.1313 23.3755C21.9672 23.2114 21.875 22.9889 21.875 22.7568V16.6318C21.875 16.3997 21.9672 16.1772 22.1313 16.0131C22.2954 15.849 22.5179 15.7568 22.75 15.7568H26.25C26.4821 15.7568 26.7046 15.849 26.8687 16.0131C27.0328 16.1772 27.125 16.3997 27.125 16.6318V21.8818H28V14.8818H14.9756C13.8625 15.4568 12.6279 15.7568 11.375 15.7568C10.1221 15.7568 8.8875 15.4568 7.77437 14.8818H4.375C3.91106 14.8824 3.46629 15.067 3.13823 15.395C2.81018 15.7231 2.62561 16.1679 2.625 16.6318V39.3818ZM48.125 17.5068V21.8818H49.875V17.5068H48.125ZM25.375 21.8818V17.5068H23.625V21.8818H25.375Z" fill="#2D2E83"/>
<path d="M45.5 42.0068H50.75C50.9821 42.0068 51.2046 42.099 51.3687 42.2631C51.5328 42.4272 51.625 42.6498 51.625 42.8818C51.625 43.1139 51.5328 43.3365 51.3687 43.5006C51.2046 43.6646 50.9821 43.7568 50.75 43.7568H45.5C45.2679 43.7568 45.0454 43.6646 44.8813 43.5006C44.7172 43.3365 44.625 43.1139 44.625 42.8818C44.625 42.6498 44.7172 42.4272 44.8813 42.2631C45.0454 42.099 45.2679 42.0068 45.5 42.0068Z" fill="#2D2E83"/>
<path d="M42 42.0068H42.875C43.1071 42.0068 43.3296 42.099 43.4937 42.2631C43.6578 42.4272 43.75 42.6498 43.75 42.8818C43.75 43.1139 43.6578 43.3365 43.4937 43.5006C43.3296 43.6646 43.1071 43.7568 42.875 43.7568H42C41.7679 43.7568 41.5454 43.6646 41.3813 43.5006C41.2172 43.3365 41.125 43.1139 41.125 42.8818C41.125 42.6498 41.2172 42.4272 41.3813 42.2631C41.5454 42.099 41.7679 42.0068 42 42.0068Z" fill="#2D2E83"/>
<path d="M18.375 21.8818C18.26 21.882 18.1462 21.8594 18.04 21.8155C17.9338 21.7715 17.8374 21.7069 17.7562 21.6256L14.5126 18.3818H6.99997C6.7679 18.3818 6.54534 18.2896 6.38125 18.1256C6.21715 17.9615 6.12497 17.7389 6.12497 17.5068C6.12497 17.2748 6.21715 17.0522 6.38125 16.8881C6.54534 16.724 6.7679 16.6318 6.99997 16.6318H14.875C14.9899 16.6318 15.1037 16.6545 15.2098 16.6984C15.316 16.7424 15.4124 16.8069 15.4937 16.8881L18.9937 20.3881C19.1161 20.5105 19.1994 20.6664 19.2332 20.8361C19.267 21.0059 19.2496 21.1818 19.1834 21.3417C19.1172 21.5016 19.005 21.6382 18.8611 21.7344C18.7172 21.8305 18.548 21.8818 18.375 21.8818Z" fill="#2D2E83"/>
<path d="M6.99987 31.5068C7.45969 31.5072 7.91136 31.6283 8.30966 31.858C8.70796 32.0878 9.03891 32.4182 9.2694 32.816L18.4296 27.472C18.5537 26.8757 18.8812 26.3411 19.3562 25.9598C19.8311 25.5786 20.4239 25.3743 21.0329 25.382C21.6419 25.3898 22.2293 25.6091 22.6944 26.0024C23.1595 26.3956 23.4733 26.9384 23.5822 27.5376L32.8003 34.4512C33.0511 34.065 33.3991 33.7517 33.8094 33.5426C34.2197 33.3336 34.6778 33.2363 35.1376 33.2605C35.5975 33.2846 36.0428 33.4294 36.4289 33.6803C36.815 33.9312 37.1283 34.2793 37.3372 34.6896L46.4482 30.8932C46.5919 30.2938 46.9419 29.7641 47.4369 29.3968C47.9319 29.0295 48.5403 28.848 49.1557 28.8841C49.771 28.9202 50.354 29.1716 50.8027 29.5943C51.2513 30.017 51.5369 30.584 51.6096 31.1961C51.6823 31.8082 51.5373 32.4263 51.2001 32.9423C50.8629 33.4583 50.355 33.8392 49.7652 34.0184C49.1754 34.1976 48.5414 34.1636 47.9742 33.9224C47.4069 33.6811 46.9426 33.2481 46.6625 32.699L37.5516 36.4954C37.4109 37.0808 37.0733 37.6001 36.5952 37.9661C36.1172 38.3321 35.5278 38.5226 34.926 38.5057C34.3242 38.4887 33.7465 38.2654 33.2897 37.8731C32.833 37.4808 32.5251 36.9434 32.4175 36.351L23.1994 29.4375C22.9552 29.8136 22.6186 30.1209 22.2217 30.3299C21.8249 30.5389 21.3811 30.6425 20.9327 30.631C20.4844 30.6195 20.0465 30.4932 19.6609 30.2641C19.2753 30.035 18.9549 29.7109 18.7303 29.3226L9.57018 34.6667C9.46907 35.1525 9.23232 35.5997 8.88737 35.9565C8.54243 36.3132 8.10343 36.5649 7.62127 36.6823C7.13911 36.7997 6.63355 36.778 6.16321 36.6198C5.69287 36.4616 5.27702 36.1732 4.96387 35.7883C4.65073 35.4033 4.45312 34.9375 4.39397 34.4448C4.33481 33.9521 4.41652 33.4527 4.62964 33.0045C4.84275 32.5564 5.17854 32.1778 5.59805 31.9127C6.01756 31.6476 6.50362 31.5069 6.99987 31.5068ZM48.1249 31.5112C48.1255 31.7437 48.2183 31.9664 48.383 32.1304C48.5476 32.2945 48.7707 32.3865 49.0032 32.3862C49.2356 32.3859 49.4584 32.2934 49.6227 32.1289C49.787 31.9644 49.8792 31.7415 49.8792 31.509C49.8792 31.2766 49.787 31.0536 49.6227 30.8891C49.4584 30.7247 49.2356 30.6321 49.0032 30.6318C48.7707 30.6315 48.5476 30.7235 48.383 30.8876C48.2183 31.0517 48.1255 31.2744 48.1249 31.5068V31.5112ZM34.9999 36.7568C35.2318 36.7565 35.4542 36.6642 35.6182 36.5002C35.7823 36.3362 35.8746 36.1138 35.8749 35.8818V35.8775C35.874 35.7046 35.822 35.5358 35.7253 35.3925C35.6286 35.2492 35.4917 35.1377 35.3317 35.0722C35.1717 35.0066 34.9959 34.9899 34.8265 35.0242C34.6571 35.0584 34.5016 35.1421 34.3796 35.2647C34.2577 35.3872 34.1748 35.5431 34.1414 35.7127C34.108 35.8823 34.1256 36.0581 34.1919 36.2177C34.2583 36.3773 34.3704 36.5137 34.5142 36.6097C34.658 36.7056 34.827 36.7568 34.9999 36.7568ZM20.9999 28.8818C21.1729 28.8818 21.3421 28.8305 21.486 28.7344C21.6299 28.6382 21.742 28.5016 21.8083 28.3417C21.8745 28.1818 21.8918 28.0059 21.8581 27.8361C21.8243 27.6664 21.741 27.5105 21.6186 27.3881C21.4962 27.2657 21.3403 27.1824 21.1706 27.1486C21.0008 27.1149 20.8249 27.1322 20.665 27.1984C20.5051 27.2647 20.3685 27.3768 20.2723 27.5207C20.1762 27.6646 20.1249 27.8338 20.1249 28.0068C20.1252 28.2388 20.2175 28.4612 20.3815 28.6252C20.5455 28.7892 20.7679 28.8815 20.9999 28.8818ZM6.99987 35.0068C7.17293 35.0068 7.3421 34.9555 7.48599 34.8594C7.62989 34.7632 7.74203 34.6266 7.80826 34.4667C7.87449 34.3068 7.89182 34.1309 7.85806 33.9611C7.8243 33.7914 7.74096 33.6355 7.61859 33.5131C7.49622 33.3907 7.34031 33.3074 7.17057 33.2736C7.00084 33.2399 6.82491 33.2572 6.66502 33.3234C6.50513 33.3897 6.36848 33.5018 6.27233 33.6457C6.17619 33.7896 6.12487 33.9588 6.12487 34.1318C6.12519 34.3638 6.21748 34.5862 6.3815 34.7502C6.54553 34.9142 6.7679 35.0065 6.99987 35.0068Z" fill="#2D2E83"/>
<path d="M14 36.7568H20.125C20.3571 36.7568 20.5796 36.849 20.7437 37.0131C20.9078 37.1772 21 37.3998 21 37.6318C21 37.8639 20.9078 38.0865 20.7437 38.2506C20.5796 38.4146 20.3571 38.5068 20.125 38.5068H14C13.7679 38.5068 13.5454 38.4146 13.3813 38.2506C13.2172 38.0865 13.125 37.8639 13.125 37.6318C13.125 37.3998 13.2172 37.1772 13.3813 37.0131C13.5454 36.849 13.7679 36.7568 14 36.7568Z" fill="#2D2E83"/>
<path d="M14 34.1318H16.625C16.8571 34.1318 17.0796 34.224 17.2437 34.3881C17.4078 34.5522 17.5 34.7748 17.5 35.0068C17.5 35.2389 17.4078 35.4615 17.2437 35.6256C17.0796 35.7896 16.8571 35.8818 16.625 35.8818H14C13.7679 35.8818 13.5454 35.7896 13.3813 35.6256C13.2172 35.4615 13.125 35.2389 13.125 35.0068C13.125 34.7748 13.2172 34.5522 13.3813 34.3881C13.5454 34.224 13.7679 34.1318 14 34.1318Z" fill="#2D2E83"/>
<path d="M50.75 26.2568H41.125C40.8929 26.2568 40.6704 26.1646 40.5063 26.0006C40.3422 25.8365 40.25 25.6139 40.25 25.3818C40.25 25.1498 40.3422 24.9272 40.5063 24.7631C40.6704 24.599 40.8929 24.5068 41.125 24.5068H50.75C50.9821 24.5068 51.2046 24.599 51.3687 24.7631C51.5328 24.9272 51.625 25.1498 51.625 25.3818C51.625 25.6139 51.5328 25.8365 51.3687 26.0006C51.2046 26.1646 50.9821 26.2568 50.75 26.2568Z" fill="#2D2E83"/>
<path d="M38.5 26.2568H37.625C37.3929 26.2568 37.1704 26.1646 37.0063 26.0006C36.8422 25.8365 36.75 25.6139 36.75 25.3818C36.75 25.1498 36.8422 24.9272 37.0063 24.7631C37.1704 24.599 37.3929 24.5068 37.625 24.5068H38.5C38.7321 24.5068 38.9546 24.599 39.1187 24.7631C39.2828 24.9272 39.375 25.1498 39.375 25.3818C39.375 25.6139 39.2828 25.8365 39.1187 26.0006C38.9546 26.1646 38.7321 26.2568 38.5 26.2568Z" fill="#2D2E83"/>
</svg>
