<svg width="53" height="53" viewBox="0 0 53 53" fill="none" xmlns="http://www.w3.org/2000/svg">
<path opacity="0.3" d="M8.83334 13.25L44.1667 13.25V17.6667H8.83334V13.25ZM8.83334 26.5H44.1667V39.75H8.83334L8.83334 26.5Z" fill="#CACBFF"/>
<path d="M44.1667 8.83301L8.83333 8.83301C6.38208 8.83301 4.43875 10.7984 4.43875 13.2497L4.41666 39.7497C4.41666 42.2009 6.38208 44.1663 8.83333 44.1663H44.1667C46.6179 44.1663 48.5833 42.2009 48.5833 39.7497V13.2497C48.5833 10.7984 46.6179 8.83301 44.1667 8.83301ZM44.1667 39.7497H8.83333L8.83333 26.4997L44.1667 26.4997V39.7497ZM44.1667 17.6663H8.83333V13.2497L44.1667 13.2497V17.6663Z" fill="#2D2E83"/>
</svg>
