<svg width="56" height="56" viewBox="0 0 56 56" fill="none" xmlns="http://www.w3.org/2000/svg">
<g clip-path="url(#clip0)">
<path d="M54.8333 53.6665H1.1667C0.522703 53.6665 0 54.1891 0 54.8331C0 55.4771 0.522703 55.9998 1.1667 55.9998H54.8334C55.4774 55.9998 56.0001 55.4771 56.0001 54.8331C56 54.1891 55.4773 53.6665 54.8333 53.6665Z" fill="#2D2E83"/>
<path d="M10.5002 39.6665H3.5002C2.8562 39.6665 2.3335 40.1892 2.3335 40.8332V54.8332C2.3335 55.4771 2.8562 55.9998 3.5002 55.9998H10.5002C11.1442 55.9998 11.6669 55.4771 11.6669 54.8331V40.8331C11.6669 40.1891 11.1442 39.6665 10.5002 39.6665ZM9.3335 53.6665H4.6669V41.9998H9.33361V53.6665H9.3335Z" fill="#2D2E83"/>
<path d="M24.5002 28H17.5002C16.8562 28 16.3335 28.5227 16.3335 29.1667V54.8334C16.3335 55.4774 16.8562 56.0001 17.5002 56.0001H24.5002C25.1442 56.0001 25.6669 55.4774 25.6669 54.8334V29.1667C25.6669 28.5227 25.1442 28 24.5002 28ZM23.3335 53.6667H18.6668V30.3333H23.3335V53.6667Z" fill="#2D2E83"/>
<path d="M38.5002 32.6665H31.5002C30.8562 32.6665 30.3335 33.1892 30.3335 33.8332V54.8332C30.3335 55.4772 30.8562 55.9999 31.5002 55.9999H38.5002C39.1442 55.9999 39.6669 55.4772 39.6669 54.8332V33.8332C39.6669 33.1891 39.1442 32.6665 38.5002 32.6665ZM37.3335 53.6665H32.6668V34.9998H37.3335V53.6665Z" fill="#2D2E83"/>
<path d="M52.5002 18.6665H45.5002C44.8562 18.6665 44.3335 19.1892 44.3335 19.8332V54.8332C44.3335 55.4772 44.8562 55.9999 45.5002 55.9999H52.5002C53.1442 55.9999 53.6669 55.4772 53.6669 54.8332V19.8332C53.6669 19.1891 53.1442 18.6665 52.5002 18.6665ZM51.3335 53.6665H46.6668V20.9998H51.3335V53.6665Z" fill="#2D2E83"/>
<path d="M7.0002 21C4.4265 21 2.3335 23.093 2.3335 25.6667C2.3335 28.2404 4.4265 30.3334 7.0002 30.3334C9.5739 30.3334 11.6669 28.2404 11.6669 25.6667C11.6669 23.093 9.5739 21 7.0002 21ZM7.0002 28C5.7122 28 4.6669 26.9523 4.6669 25.6667C4.6669 24.381 5.7122 23.3334 7.0002 23.3334C8.2882 23.3334 9.3335 24.3811 9.3335 25.6667C9.3335 26.9523 8.2882 28 7.0002 28Z" fill="#2D2E83"/>
<path d="M21.0002 9.3335C18.4265 9.3335 16.3335 11.4265 16.3335 14.0002C16.3335 16.5739 18.4265 18.6669 21.0002 18.6669C23.5739 18.6669 25.6669 16.5739 25.6669 14.0002C25.6669 11.4265 23.5739 9.3335 21.0002 9.3335ZM21.0002 16.3335C19.7122 16.3335 18.6669 15.2858 18.6669 14.0002C18.6669 12.7145 19.7122 11.6669 21.0002 11.6669C22.2882 11.6669 23.3335 12.7146 23.3335 14.0002C23.3335 15.2859 22.2882 16.3335 21.0002 16.3335Z" fill="#2D2E83"/>
<path d="M35.0002 14C32.4265 14 30.3335 16.093 30.3335 18.6667C30.3335 21.2404 32.4265 23.3334 35.0002 23.3334C37.5739 23.3334 39.6669 21.2404 39.6669 18.6667C39.6669 16.093 37.5739 14 35.0002 14ZM35.0002 21C33.7122 21 32.6669 19.9523 32.6669 18.6667C32.6669 17.381 33.7122 16.3334 35.0002 16.3334C36.2882 16.3334 37.3335 17.3811 37.3335 18.6667C37.3335 19.9523 36.2882 21 35.0002 21Z" fill="#2D2E83"/>
<path d="M49.0002 0C46.4265 0 44.3335 2.093 44.3335 4.6667C44.3335 7.24041 46.4265 9.33341 49.0002 9.33341C51.5739 9.33341 53.6669 7.24041 53.6669 4.6667C53.6669 2.093 51.5739 0 49.0002 0ZM49.0002 7C47.7122 7 46.6669 5.9523 46.6669 4.6667C46.6669 3.381 47.7122 2.33341 49.0002 2.33341C50.2882 2.33341 51.3335 3.38111 51.3335 4.6667C51.3335 5.9523 50.2882 7 49.0002 7Z" fill="#2D2E83"/>
<path d="M47.3528 6.31391C46.8978 5.85891 46.1581 5.85891 45.7031 6.31391L36.6498 15.3672C36.1948 15.8222 36.1948 16.5619 36.6498 17.0169C36.8785 17.2432 37.1771 17.3576 37.4758 17.3576C37.7721 17.3576 38.0708 17.2456 38.2995 17.0169L47.3528 7.96361C47.8078 7.50861 47.8078 6.76891 47.3528 6.31391Z" fill="#2D2E83"/>
<path d="M32.1789 15.9743L24.6842 13.837C24.0565 13.655 23.4195 14.019 23.2445 14.6397C23.0672 15.2604 23.4265 15.9044 24.0448 16.0817L31.5395 18.219C31.6468 18.2493 31.7542 18.2633 31.8592 18.2633C32.3679 18.2633 32.8345 17.9296 32.9815 17.4163C33.1589 16.798 32.7996 16.1516 32.1789 15.9743Z" fill="#2D2E83"/>
<path d="M19.1798 15.4536C18.7785 14.9496 18.0458 14.8679 17.5418 15.2669L8.74512 22.2809C8.24112 22.6846 8.15712 23.4172 8.56082 23.9212C8.79182 24.2105 9.13253 24.3599 9.47312 24.3599C9.72742 24.3599 9.98412 24.2759 10.1988 24.1079L18.9955 17.0939C19.4995 16.6902 19.5835 15.9576 19.1798 15.4536Z" fill="#2D2E83"/>
</g>
<defs>
<clipPath id="clip0">
<rect width="56" height="56" fill="white"/>
</clipPath>
</defs>
</svg>
