<svg width="57" height="57" viewBox="0 0 57 57" fill="none" xmlns="http://www.w3.org/2000/svg">
<path d="M22.5625 2.375C29.1209 2.375 34.4375 7.69161 34.4375 14.25C34.4375 15.446 33.5482 16.4554 32.3617 16.6061L27.1809 17.2657C28.0023 18.2053 28.5 19.4352 28.5 20.7812L28.4976 22.5981L28.7279 22.5748L29.0937 22.5625C30.9383 22.5625 32.5645 23.4971 33.5249 24.9186L33.649 25.118L33.9543 25.0461C34.1862 24.9986 34.4236 24.9662 34.6654 24.9498L35.0312 24.9375C36.8758 24.9375 38.5021 25.8721 39.4624 27.2935L39.5865 27.493L39.8918 27.4211C40.1237 27.3736 40.3611 27.3412 40.6029 27.3248L40.9687 27.3125C43.9201 27.3125 46.3125 29.7051 46.3125 32.6562V41.9995C46.3125 43.8084 45.8298 45.5185 44.8316 46.9343C42.8348 49.7652 40.4899 52.0704 37.748 53.2455C32.8706 55.3358 28.5076 55.3772 22.918 53.287C17.5814 51.2912 12.968 45.7848 9.03974 38.7314C7.46582 35.9055 8.24127 32.4028 10.7757 30.3753C12.8116 28.7468 15.5119 28.4421 17.8101 29.4096L17.8125 20.7812C17.8125 19.9189 18.0168 19.1042 18.3796 18.383L13.661 18.9811C12.4738 19.1318 11.3599 18.3758 11.0617 17.2169C10.814 16.2545 10.6875 15.2595 10.6875 14.25C10.6875 7.69161 16.0041 2.375 22.5625 2.375ZM23.1562 20.1875C22.8283 20.1875 22.5625 20.4533 22.5625 20.7812V34.4375C22.5625 36.5534 20.0043 37.613 18.5081 36.1169L16.6361 34.2449C15.8534 33.4621 14.6073 33.3931 13.7429 34.0845C12.9834 34.6921 12.7682 35.6638 13.1895 36.4202C16.5958 42.5363 20.6405 47.3639 24.5819 48.838C29.0478 50.508 32.1458 50.4786 35.877 48.8795C37.6282 48.129 39.4155 46.3719 40.9498 44.1968C41.3496 43.6297 41.5625 42.8754 41.5625 41.9995V32.6562C41.5625 32.3284 41.2967 32.0625 40.9687 32.0625C40.641 32.0625 40.375 32.3285 40.375 32.6562C40.375 35.8229 35.625 35.8229 35.625 32.6562V30.2812C35.625 29.9534 35.3592 29.6875 35.0312 29.6875C34.7035 29.6875 34.4375 29.9535 34.4375 30.2812C34.4375 33.4479 29.6875 33.4479 29.6875 30.2812V27.9062C29.6875 27.5784 29.4216 27.3125 29.0937 27.3125C28.7659 27.3125 28.5 27.5784 28.5 27.9062C28.5 31.0729 23.75 31.0729 23.75 27.9062V20.7812C23.75 20.4533 23.4841 20.1875 23.1562 20.1875ZM22.5625 7.125C18.6274 7.125 15.4375 10.315 15.4375 14.25L15.4428 13.965L29.3859 12.1932L29.2721 11.847C28.331 9.21944 25.8902 7.30565 22.9811 7.13709L22.5625 7.125Z" fill="#2D2E83"/>
</svg>
