<svg width="50" height="50" viewBox="0 0 50 50" fill="none" xmlns="http://www.w3.org/2000/svg">
<path fill-rule="evenodd" clip-rule="evenodd" d="M25.008 18.7498L25.0051 18.7498L24.9996 18.7498L24.983 18.7497L24.9282 18.7493C24.8822 18.7488 24.8174 18.7478 24.7353 18.746C24.5713 18.7424 24.3377 18.7352 24.0463 18.7211C23.4642 18.693 22.6466 18.637 21.6877 18.5255C20.1711 18.3492 18.2413 18.0272 16.3107 17.4283C12.2879 22.5152 9.38693 28.9228 7.41604 34.4837C5.79403 39.0602 9.30519 43.7498 14.6039 43.7498H35.3474C40.6578 43.7498 44.1796 39.0378 42.5472 34.445C40.5672 28.8746 37.67 22.4739 33.6887 17.4291C31.7619 18.0274 29.8367 18.3492 28.3236 18.5255C27.3665 18.637 26.5504 18.6929 25.9695 18.7211C25.6786 18.7352 25.4454 18.7423 25.2817 18.746C25.1998 18.7478 25.1351 18.7488 25.0891 18.7493L25.0344 18.7497L25.0179 18.7498L25.0124 18.7498L25.008 18.7498ZM17.2768 21.4435C18.0904 20.6299 19.4095 20.6299 20.2231 21.4435L24.9999 26.2204L29.7768 21.4435C30.5904 20.6299 31.9095 20.6299 32.7231 21.4435C33.5366 22.2571 33.5366 23.5762 32.7231 24.3898L30.0295 27.0833H31.2499C32.4005 27.0833 33.3333 28.016 33.3333 29.1666C33.3333 30.3172 32.4005 31.25 31.2499 31.25H27.0919V33.3333H31.2499C32.4005 33.3333 33.3333 34.266 33.3333 35.4166C33.3333 36.5672 32.4005 37.5 31.2499 37.5H27.0919V39.5833C27.0919 40.7339 26.1592 41.6666 25.0086 41.6666C23.858 41.6666 22.9252 40.7339 22.9252 39.5833V37.5H18.7499C17.5993 37.5 16.6666 36.5672 16.6666 35.4166C16.6666 34.266 17.5993 33.3333 18.7499 33.3333H22.9252V31.25H18.7499C17.5993 31.25 16.6666 30.3172 16.6666 29.1666C16.6666 28.016 17.5993 27.0833 18.7499 27.0833H19.9703L17.2768 24.3898C16.4632 23.5762 16.4632 22.2571 17.2768 21.4435Z" fill="white"/>
<path d="M20.2231 21.4437C19.4095 20.6301 18.0904 20.6301 17.2768 21.4437C16.4632 22.2573 16.4632 23.5764 17.2768 24.39L19.9703 27.0835H18.7499C17.5993 27.0835 16.6666 28.0162 16.6666 29.1668C16.6666 30.3174 17.5993 31.2502 18.7499 31.2502H22.9252V33.3335H18.7499C17.5993 33.3335 16.6666 34.2662 16.6666 35.4168C16.6666 36.5674 17.5993 37.5002 18.7499 37.5002H22.9252V39.5835C22.9252 40.7341 23.858 41.6668 25.0086 41.6668C26.1592 41.6668 27.0919 40.7341 27.0919 39.5835V37.5002H31.2499C32.4005 37.5002 33.3333 36.5674 33.3333 35.4168C33.3333 34.2662 32.4005 33.3335 31.2499 33.3335H27.0919V31.2502H31.2499C32.4005 31.2502 33.3333 30.3174 33.3333 29.1668C33.3333 28.0162 32.4005 27.0835 31.2499 27.0835H30.0295L32.7231 24.39C33.5367 23.5764 33.5367 22.2573 32.7231 21.4437C31.9095 20.6301 30.5904 20.6301 29.7768 21.4437L24.9999 26.2206L20.2231 21.4437Z" fill="#2D2E83"/>
<path fill-rule="evenodd" clip-rule="evenodd" d="M24.9999 2.0835C21.0292 2.0835 17.333 2.82206 14.5515 4.10583C11.9469 5.30792 9.37492 7.3885 9.37492 10.4168C9.37492 12.6246 10.7419 14.3286 12.4919 15.5557C8.35021 21.0295 5.43857 27.5901 3.48856 33.092C0.759746 40.7913 6.87835 47.9167 14.6037 47.9167H35.3472C43.0932 47.9167 49.2133 40.7594 46.473 33.0497C44.5168 27.5463 41.6099 20.9932 37.5063 15.5569C39.2571 14.3297 40.6249 12.6253 40.6249 10.4168C40.6249 7.3885 38.0529 5.30792 35.4484 4.10583C32.6669 2.82206 28.9707 2.0835 24.9999 2.0835ZM16.3896 17.4529C18.8741 18.2856 21.8506 18.7502 24.9999 18.7502C28.1406 18.7502 31.1095 18.2881 33.5898 17.4597C33.6227 17.4497 33.6556 17.4395 33.6886 17.4293C37.6699 22.4741 40.567 28.8748 42.547 34.4452C44.1794 39.038 40.6576 43.7501 35.3472 43.7501H14.6037C9.30501 43.7501 5.79384 39.0604 7.41586 34.4839C9.38675 28.9231 12.2877 22.5155 16.3106 17.4285C16.3369 17.4367 16.3632 17.4448 16.3896 17.4529ZM32.3166 13.4919C32.8141 13.3241 33.2774 13.1408 33.7023 12.9447C35.9989 11.8847 36.4583 10.8403 36.4583 10.4168C36.4583 9.99338 35.9989 8.94896 33.7023 7.88899C31.5827 6.91071 28.508 6.25016 24.9999 6.25016C21.4918 6.25016 18.4172 6.91071 16.2976 7.88899C14.001 8.94896 13.5416 9.99338 13.5416 10.4168C13.5416 10.8403 14.001 11.8847 16.2976 12.9447C16.7176 13.1385 17.1751 13.3199 17.666 13.4861C19.2177 13.9564 20.8241 14.2306 22.1688 14.387C23.0187 14.4858 23.7413 14.5351 24.2472 14.5595C24.4998 14.5717 24.6971 14.5777 24.828 14.5806C24.8934 14.5821 24.9421 14.5828 24.9727 14.5831L25.0074 14.5834H25.0097L25.0442 14.5831C25.0747 14.5828 25.1232 14.5821 25.1884 14.5806C25.319 14.5777 25.5158 14.5717 25.7677 14.5595C26.2724 14.5351 26.9932 14.4859 27.8412 14.3871C29.1777 14.2313 30.7733 13.9587 32.3166 13.4919Z" fill="#2D2E83"/>
</svg>
