<svg xmlns="http://www.w3.org/2000/svg" width="66.414" height="66.415" viewBox="0 0 66.414 66.415">
  <g id="rates" transform="translate(3533 575)">
    <g id="architecture" transform="translate(-3533 -575)">
      <path id="Path_2040" data-name="Path 2040" d="M192,304.008h4.428v2.214H192Zm0,0" transform="translate(-165.438 -261.945)" fill="#384b8a"/>
      <path id="Path_2041" data-name="Path 2041" d="M240,304.008h19.924v2.214H240Zm0,0" transform="translate(-206.797 -261.945)" fill="#384b8a"/>
      <path id="Path_2042" data-name="Path 2042" d="M192,352.008h4.428v2.214H192Zm0,0" transform="translate(-165.438 -303.303)" fill="#384b8a"/>
      <path id="Path_2043" data-name="Path 2043" d="M240,352.008h19.924v2.214H240Zm0,0" transform="translate(-206.797 -303.303)" fill="#384b8a"/>
      <path id="Path_2044" data-name="Path 2044" d="M192,400.008h4.428v2.214H192Zm0,0" transform="translate(-165.438 -344.662)" fill="#384b8a"/>
      <path id="Path_2045" data-name="Path 2045" d="M240,400.008h19.924v2.214H240Zm0,0" transform="translate(-206.797 -344.662)" fill="#384b8a"/>
      <path id="Path_2046" data-name="Path 2046" d="M129.111,182.649h8.855a1.107,1.107,0,0,0,1.107-1.107v-4.428a1.107,1.107,0,0,0-1.107-1.107h-8.855A1.107,1.107,0,0,0,128,177.115v4.428A1.107,1.107,0,0,0,129.111,182.649Zm1.107-4.428h6.641v2.214h-6.641Zm0,0" transform="translate(-110.294 -151.655)" fill="#384b8a"/>
      <path id="Path_2047" data-name="Path 2047" d="M139.073,245.542v-4.428a1.107,1.107,0,0,0-1.107-1.107h-8.855A1.107,1.107,0,0,0,128,241.115v4.428a1.107,1.107,0,0,0,1.107,1.107h8.855A1.107,1.107,0,0,0,139.073,245.542Zm-2.214-1.107h-6.641v-2.214h6.641Zm0,0" transform="translate(-110.294 -206.8)" fill="#384b8a"/>
      <path id="Path_2048" data-name="Path 2048" d="M65.31,59H60.827a12.169,12.169,0,0,0-24.241,0H15.5V57.893a7.748,7.748,0,1,0-15.5,0V99.955A7.757,7.757,0,0,0,7.752,107.7H63.1a3.321,3.321,0,0,0,3.321-3.321V60.106A1.107,1.107,0,0,0,65.31,59Zm-16.6-8.855a9.962,9.962,0,1,1-9.962,9.962A9.962,9.962,0,0,1,48.707,50.144ZM2.217,57.893a5.534,5.534,0,0,1,11.069,0V94.531a7.731,7.731,0,0,0-11.069.006Zm60.879,47.6H7.752a5.534,5.534,0,1,1,5.534-5.534,1.107,1.107,0,0,0,2.214,0V61.213H36.587a12.169,12.169,0,0,0,24.241,0H64.2V71.286l-.954-.893a19.831,19.831,0,0,1-27.006,1.89h1.394V70.069H33.21A1.107,1.107,0,0,0,32.1,71.175V75.6h2.214V73.582A22.027,22.027,0,0,0,64.2,72.541v31.841a1.107,1.107,0,0,1-1.107,1.107Zm0,0" transform="translate(-0.003 -41.288)" fill="#344684"/>
      <path id="Path_2049" data-name="Path 2049" d="M251.364,2.213a19.962,19.962,0,0,1,12.463,4.428h-1.394V8.854h4.428a1.107,1.107,0,0,0,1.107-1.107V3.32h-2.214V5.341A22.081,22.081,0,0,0,235.2,7.019l1.616,1.513a20,20,0,0,1,14.545-6.319Zm0,0" transform="translate(-202.66 0.002)" fill="#e5b909"/>
      <text id="_" data-name="%" transform="translate(48.414 24)" fill="#e5b909" font-size="16" font-family="OpenSans-Bold, Open Sans" font-weight="700"><tspan x="-7.207" y="0">%</tspan></text>
    </g>
  </g>
</svg>
