<svg width="50" height="50" viewBox="0 0 50 50" fill="none" xmlns="http://www.w3.org/2000/svg">
<path fill-rule="evenodd" clip-rule="evenodd" d="M10.4166 2.08301C11.5672 2.08301 12.5 3.01575 12.5 4.16634V22.9163H22.9166V4.16634C22.9166 3.01575 23.8494 2.08301 25 2.08301C26.1506 2.08301 27.0833 3.01575 27.0833 4.16634V22.9163H37.5V4.16634C37.5 3.01575 38.4327 2.08301 39.5833 2.08301C40.7339 2.08301 41.6666 3.01575 41.6666 4.16634V24.5721L47.7301 38.7201C47.8408 38.9631 47.9063 39.2313 47.9155 39.5136C47.9163 39.5367 47.9167 39.5598 47.9167 39.583L47.9166 39.588V45.833C47.9166 46.9836 46.9839 47.9163 45.8333 47.9163H4.16665C3.01605 47.9163 2.08331 46.9836 2.08331 45.833V39.583C2.08331 39.5662 2.08351 39.5495 2.08391 39.5328C2.09075 39.2434 2.1566 38.9686 2.26989 38.72L8.33331 24.5721V4.16634C8.33331 3.01575 9.26605 2.08301 10.4166 2.08301ZM6.24998 41.6663V43.7497H43.75V41.6663H6.24998ZM11.7904 27.083H38.2096L42.6739 37.4997H7.3261L11.7904 27.083Z" fill="#2D2E83"/>
<path d="M42.6739 37.4997L38.2096 27.083H11.7904L7.32611 37.4997H42.6739Z" fill="white"/>
</svg>
