<svg width="188" height="65" viewBox="0 0 188 65" fill="none" xmlns="http://www.w3.org/2000/svg">
<path d="M95.048 30.3281L90.368 47.0801H86.408L83.264 35.1521L79.976 47.0801L76.04 47.1041L71.528 30.3281H75.128L78.08 43.3361L81.488 30.3281H85.232L88.448 43.2641L91.424 30.3281H95.048ZM109.602 40.1441C109.602 40.6241 109.57 41.0561 109.506 41.4401H99.7859C99.8659 42.4001 100.202 43.1521 100.794 43.6961C101.386 44.2401 102.114 44.5121 102.978 44.5121C104.226 44.5121 105.114 43.9761 105.642 42.9041H109.266C108.882 44.1841 108.146 45.2401 107.058 46.0721C105.97 46.8881 104.634 47.2961 103.05 47.2961C101.77 47.2961 100.618 47.0161 99.5939 46.4561C98.5859 45.8801 97.7939 45.0721 97.2179 44.0321C96.6579 42.9921 96.3779 41.7921 96.3779 40.4321C96.3779 39.0561 96.6579 37.8481 97.2179 36.8081C97.7779 35.7681 98.5619 34.9681 99.5699 34.4081C100.578 33.8481 101.738 33.5681 103.05 33.5681C104.314 33.5681 105.442 33.8401 106.434 34.3841C107.442 34.9281 108.218 35.7041 108.762 36.7121C109.322 37.7041 109.602 38.8481 109.602 40.1441ZM106.122 39.1841C106.106 38.3201 105.794 37.6321 105.186 37.1201C104.578 36.5921 103.834 36.3281 102.954 36.3281C102.122 36.3281 101.418 36.5841 100.842 37.0961C100.282 37.5921 99.9379 38.2881 99.8099 39.1841H106.122ZM115.414 35.7281C115.846 35.0881 116.438 34.5681 117.19 34.1681C117.958 33.7681 118.83 33.5681 119.806 33.5681C120.942 33.5681 121.966 33.8481 122.878 34.4081C123.806 34.9681 124.534 35.7681 125.062 36.8081C125.606 37.8321 125.878 39.0241 125.878 40.3841C125.878 41.7441 125.606 42.9521 125.062 44.0081C124.534 45.0481 123.806 45.8561 122.878 46.4321C121.966 47.0081 120.942 47.2961 119.806 47.2961C118.814 47.2961 117.942 47.1041 117.19 46.7201C116.454 46.3201 115.862 45.8081 115.414 45.1841V47.0801H112.054V29.3201H115.414V35.7281ZM122.446 40.3841C122.446 39.5841 122.278 38.8961 121.942 38.3201C121.622 37.7281 121.19 37.2801 120.646 36.9761C120.118 36.6721 119.542 36.5201 118.918 36.5201C118.31 36.5201 117.734 36.6801 117.19 37.0001C116.662 37.3041 116.23 37.7521 115.894 38.3441C115.574 38.9361 115.414 39.6321 115.414 40.4321C115.414 41.2321 115.574 41.9281 115.894 42.5201C116.23 43.1121 116.662 43.5681 117.19 43.8881C117.734 44.1921 118.31 44.3441 118.918 44.3441C119.542 44.3441 120.118 44.1841 120.646 43.8641C121.19 43.5441 121.622 43.0881 121.942 42.4961C122.278 41.9041 122.446 41.2001 122.446 40.3841ZM133.408 47.2961C132.32 47.2961 131.344 47.1041 130.48 46.7201C129.616 46.3201 128.928 45.7841 128.416 45.1121C127.92 44.4401 127.648 43.6961 127.6 42.8801H130.984C131.048 43.3921 131.296 43.8161 131.728 44.1521C132.176 44.4881 132.728 44.6561 133.384 44.6561C134.024 44.6561 134.52 44.5281 134.872 44.2721C135.24 44.0161 135.424 43.6881 135.424 43.2881C135.424 42.8561 135.2 42.5361 134.752 42.3281C134.32 42.1041 133.624 41.8641 132.664 41.6081C131.672 41.3681 130.856 41.1201 130.216 40.8641C129.592 40.6081 129.048 40.2161 128.584 39.6881C128.136 39.1601 127.912 38.4481 127.912 37.5521C127.912 36.8161 128.12 36.1441 128.536 35.5361C128.968 34.9281 129.576 34.4481 130.36 34.0961C131.16 33.7441 132.096 33.5681 133.168 33.5681C134.752 33.5681 136.016 33.9681 136.96 34.7681C137.904 35.5521 138.424 36.6161 138.52 37.9601H135.304C135.256 37.4321 135.032 37.0161 134.632 36.7121C134.248 36.3921 133.728 36.2321 133.072 36.2321C132.464 36.2321 131.992 36.3441 131.656 36.5681C131.336 36.7921 131.176 37.1041 131.176 37.5041C131.176 37.9521 131.4 38.2961 131.848 38.5361C132.296 38.7601 132.992 38.9921 133.936 39.2321C134.896 39.4721 135.688 39.7201 136.312 39.9761C136.936 40.2321 137.472 40.6321 137.92 41.1761C138.384 41.7041 138.624 42.4081 138.64 43.2881C138.64 44.0561 138.424 44.7441 137.992 45.3521C137.576 45.9601 136.968 46.4401 136.168 46.7921C135.384 47.1281 134.464 47.2961 133.408 47.2961ZM143.102 32.2001C142.51 32.2001 142.014 32.0161 141.614 31.6481C141.23 31.2641 141.038 30.7921 141.038 30.2321C141.038 29.6721 141.23 29.2081 141.614 28.8401C142.014 28.4561 142.51 28.2641 143.102 28.2641C143.694 28.2641 144.182 28.4561 144.566 28.8401C144.966 29.2081 145.166 29.6721 145.166 30.2321C145.166 30.7921 144.966 31.2641 144.566 31.6481C144.182 32.0161 143.694 32.2001 143.102 32.2001ZM144.758 33.7841V47.0801H141.398V33.7841H144.758ZM151.99 36.5441V42.9761C151.99 43.4241 152.094 43.7521 152.302 43.9601C152.526 44.1521 152.894 44.2481 153.406 44.2481H154.966V47.0801H152.854C150.022 47.0801 148.606 45.7041 148.606 42.9521V36.5441H147.022V33.7841H148.606V30.4961H151.99V33.7841H154.966V36.5441H151.99ZM169.743 40.1441C169.743 40.6241 169.711 41.0561 169.647 41.4401H159.927C160.007 42.4001 160.343 43.1521 160.935 43.6961C161.527 44.2401 162.255 44.5121 163.119 44.5121C164.367 44.5121 165.255 43.9761 165.783 42.9041H169.407C169.023 44.1841 168.287 45.2401 167.199 46.0721C166.111 46.8881 164.775 47.2961 163.191 47.2961C161.911 47.2961 160.759 47.0161 159.735 46.4561C158.727 45.8801 157.935 45.0721 157.359 44.0321C156.799 42.9921 156.519 41.7921 156.519 40.4321C156.519 39.0561 156.799 37.8481 157.359 36.8081C157.919 35.7681 158.703 34.9681 159.711 34.4081C160.719 33.8481 161.879 33.5681 163.191 33.5681C164.455 33.5681 165.583 33.8401 166.575 34.3841C167.583 34.9281 168.359 35.7041 168.903 36.7121C169.463 37.7041 169.743 38.8481 169.743 40.1441ZM166.263 39.1841C166.247 38.3201 165.935 37.6321 165.327 37.1201C164.719 36.5921 163.975 36.3281 163.095 36.3281C162.263 36.3281 161.559 36.5841 160.983 37.0961C160.423 37.5921 160.079 38.2881 159.951 39.1841H166.263Z" fill="white"/>
<path d="M74.874 25.091C74.276 25.091 73.7387 24.987 73.262 24.779C72.794 24.5623 72.4257 24.2677 72.157 23.895C71.8883 23.5137 71.7497 23.076 71.741 22.582H73.002C73.0453 23.0067 73.2187 23.3663 73.522 23.661C73.834 23.947 74.2847 24.09 74.874 24.09C75.4373 24.09 75.8793 23.9513 76.2 23.674C76.5293 23.388 76.694 23.024 76.694 22.582C76.694 22.2353 76.5987 21.9537 76.408 21.737C76.2173 21.5203 75.979 21.3557 75.693 21.243C75.407 21.1303 75.0213 21.009 74.536 20.879C73.938 20.723 73.457 20.567 73.093 20.411C72.7377 20.255 72.43 20.0123 72.17 19.683C71.9187 19.345 71.793 18.8943 71.793 18.331C71.793 17.837 71.9187 17.3993 72.17 17.018C72.4213 16.6367 72.7723 16.342 73.223 16.134C73.6823 15.926 74.2067 15.822 74.796 15.822C75.6453 15.822 76.3387 16.0343 76.876 16.459C77.422 16.8837 77.7297 17.447 77.799 18.149H76.499C76.4557 17.8023 76.2737 17.499 75.953 17.239C75.6323 16.9703 75.2077 16.836 74.679 16.836C74.185 16.836 73.782 16.966 73.47 17.226C73.158 17.4773 73.002 17.8327 73.002 18.292C73.002 18.6213 73.093 18.89 73.275 19.098C73.4657 19.306 73.6953 19.4663 73.964 19.579C74.2413 19.683 74.627 19.8043 75.121 19.943C75.719 20.1077 76.2 20.2723 76.564 20.437C76.928 20.593 77.24 20.84 77.5 21.178C77.76 21.5073 77.89 21.958 77.89 22.53C77.89 22.972 77.773 23.388 77.539 23.778C77.305 24.168 76.9583 24.4843 76.499 24.727C76.0397 24.9697 75.498 25.091 74.874 25.091ZM80.2419 16.719C80.0165 16.719 79.8259 16.641 79.6699 16.485C79.5139 16.329 79.4359 16.1383 79.4359 15.913C79.4359 15.6877 79.5139 15.497 79.6699 15.341C79.8259 15.185 80.0165 15.107 80.2419 15.107C80.4585 15.107 80.6405 15.185 80.7879 15.341C80.9439 15.497 81.0219 15.6877 81.0219 15.913C81.0219 16.1383 80.9439 16.329 80.7879 16.485C80.6405 16.641 80.4585 16.719 80.2419 16.719ZM80.8139 17.876V25H79.6309V17.876H80.8139ZM85.7681 17.759C86.3834 17.759 86.9208 17.8933 87.3801 18.162C87.8481 18.4307 88.1948 18.7687 88.4201 19.176V17.876H89.6161V25.156C89.6161 25.806 89.4774 26.3823 89.2001 26.885C88.9228 27.3963 88.5241 27.795 88.0041 28.081C87.4928 28.367 86.8948 28.51 86.2101 28.51C85.2741 28.51 84.4941 28.289 83.8701 27.847C83.2461 27.405 82.8778 26.8027 82.7651 26.04H83.9351C84.0651 26.4733 84.3338 26.82 84.7411 27.08C85.1484 27.3487 85.6381 27.483 86.2101 27.483C86.8601 27.483 87.3888 27.2793 87.7961 26.872C88.2121 26.4647 88.4201 25.8927 88.4201 25.156V23.661C88.1861 24.077 87.8394 24.4237 87.3801 24.701C86.9208 24.9783 86.3834 25.117 85.7681 25.117C85.1354 25.117 84.5591 24.961 84.0391 24.649C83.5278 24.337 83.1248 23.8993 82.8301 23.336C82.5354 22.7727 82.3881 22.1313 82.3881 21.412C82.3881 20.684 82.5354 20.047 82.8301 19.501C83.1248 18.9463 83.5278 18.5173 84.0391 18.214C84.5591 17.9107 85.1354 17.759 85.7681 17.759ZM88.4201 21.425C88.4201 20.8877 88.3118 20.4197 88.0951 20.021C87.8784 19.6223 87.5838 19.319 87.2111 19.111C86.8471 18.8943 86.4441 18.786 86.0021 18.786C85.5601 18.786 85.1571 18.89 84.7931 19.098C84.4291 19.306 84.1388 19.6093 83.9221 20.008C83.7054 20.4067 83.5971 20.8747 83.5971 21.412C83.5971 21.958 83.7054 22.4347 83.9221 22.842C84.1388 23.2407 84.4291 23.5483 84.7931 23.765C85.1571 23.973 85.5601 24.077 86.0021 24.077C86.4441 24.077 86.8471 23.973 87.2111 23.765C87.5838 23.5483 87.8784 23.2407 88.0951 22.842C88.3118 22.4347 88.4201 21.9623 88.4201 21.425ZM95.0863 17.746C95.9529 17.746 96.6549 18.0103 97.1923 18.539C97.7296 19.059 97.9983 19.813 97.9983 20.801V25H96.8283V20.97C96.8283 20.2593 96.6506 19.7177 96.2953 19.345C95.9399 18.9637 95.4546 18.773 94.8393 18.773C94.2153 18.773 93.7169 18.968 93.3443 19.358C92.9803 19.748 92.7983 20.3157 92.7983 21.061V25H91.6153V17.876H92.7983V18.89C93.0323 18.526 93.3486 18.2443 93.7473 18.045C94.1546 17.8457 94.6009 17.746 95.0863 17.746ZM109.715 17.876V25H108.532V23.947C108.306 24.311 107.99 24.597 107.583 24.805C107.184 25.0043 106.742 25.104 106.257 25.104C105.702 25.104 105.204 24.9913 104.762 24.766C104.32 24.532 103.969 24.1853 103.709 23.726C103.457 23.2667 103.332 22.7077 103.332 22.049V17.876H104.502V21.893C104.502 22.595 104.679 23.1367 105.035 23.518C105.39 23.8907 105.875 24.077 106.491 24.077C107.123 24.077 107.622 23.882 107.986 23.492C108.35 23.102 108.532 22.5343 108.532 21.789V17.876H109.715ZM112.895 19.189C113.129 18.7817 113.476 18.4437 113.935 18.175C114.403 17.8977 114.945 17.759 115.56 17.759C116.193 17.759 116.765 17.9107 117.276 18.214C117.796 18.5173 118.203 18.9463 118.498 19.501C118.793 20.047 118.94 20.684 118.94 21.412C118.94 22.1313 118.793 22.7727 118.498 23.336C118.203 23.8993 117.796 24.337 117.276 24.649C116.765 24.961 116.193 25.117 115.56 25.117C114.953 25.117 114.416 24.9827 113.948 24.714C113.489 24.4367 113.138 24.0943 112.895 23.687V28.38H111.712V17.876H112.895V19.189ZM117.731 21.412C117.731 20.8747 117.623 20.4067 117.406 20.008C117.189 19.6093 116.895 19.306 116.522 19.098C116.158 18.89 115.755 18.786 115.313 18.786C114.88 18.786 114.477 18.8943 114.104 19.111C113.74 19.319 113.445 19.6267 113.22 20.034C113.003 20.4327 112.895 20.8963 112.895 21.425C112.895 21.9623 113.003 22.4347 113.22 22.842C113.445 23.2407 113.74 23.5483 114.104 23.765C114.477 23.973 114.88 24.077 115.313 24.077C115.755 24.077 116.158 23.973 116.522 23.765C116.895 23.5483 117.189 23.2407 117.406 22.842C117.623 22.4347 117.731 21.958 117.731 21.412ZM127.07 25.117C126.403 25.117 125.796 24.9653 125.25 24.662C124.713 24.3587 124.288 23.9297 123.976 23.375C123.673 22.8117 123.521 22.1617 123.521 21.425C123.521 20.697 123.677 20.0557 123.989 19.501C124.31 18.9377 124.743 18.5087 125.289 18.214C125.835 17.9107 126.446 17.759 127.122 17.759C127.798 17.759 128.409 17.9107 128.955 18.214C129.501 18.5087 129.93 18.9333 130.242 19.488C130.563 20.0427 130.723 20.6883 130.723 21.425C130.723 22.1617 130.558 22.8117 130.229 23.375C129.908 23.9297 129.471 24.3587 128.916 24.662C128.361 24.9653 127.746 25.117 127.07 25.117ZM127.07 24.077C127.495 24.077 127.893 23.9773 128.266 23.778C128.639 23.5787 128.938 23.2797 129.163 22.881C129.397 22.4823 129.514 21.997 129.514 21.425C129.514 20.853 129.401 20.3677 129.176 19.969C128.951 19.5703 128.656 19.2757 128.292 19.085C127.928 18.8857 127.534 18.786 127.109 18.786C126.676 18.786 126.277 18.8857 125.913 19.085C125.558 19.2757 125.272 19.5703 125.055 19.969C124.838 20.3677 124.73 20.853 124.73 21.425C124.73 22.0057 124.834 22.4953 125.042 22.894C125.259 23.2927 125.545 23.5917 125.9 23.791C126.255 23.9817 126.645 24.077 127.07 24.077ZM135.749 17.746C136.616 17.746 137.318 18.0103 137.855 18.539C138.393 19.059 138.661 19.813 138.661 20.801V25H137.491V20.97C137.491 20.2593 137.314 19.7177 136.958 19.345C136.603 18.9637 136.118 18.773 135.502 18.773C134.878 18.773 134.38 18.968 134.007 19.358C133.643 19.748 133.461 20.3157 133.461 21.061V25H132.278V17.876H133.461V18.89C133.695 18.526 134.012 18.2443 134.41 18.045C134.818 17.8457 135.264 17.746 135.749 17.746Z" fill="white"/>
<path d="M30 1.53659H158V-1.53659H30V1.53659ZM186.463 30V35H189.537V30H186.463ZM158 63.4634H30V66.5366H158V63.4634ZM1.53659 35V30H-1.53659V35H1.53659ZM30 63.4634C14.2801 63.4634 1.53659 50.7199 1.53659 35H-1.53659C-1.53659 52.4172 12.5828 66.5366 30 66.5366V63.4634ZM186.463 35C186.463 50.7199 173.72 63.4634 158 63.4634V66.5366C175.417 66.5366 189.537 52.4172 189.537 35H186.463ZM158 1.53659C173.72 1.53659 186.463 14.2801 186.463 30H189.537C189.537 12.5828 175.417 -1.53659 158 -1.53659V1.53659ZM30 -1.53659C12.5828 -1.53659 -1.53659 12.5828 -1.53659 30H1.53659C1.53659 14.2801 14.2801 1.53659 30 1.53659V-1.53659Z" fill="#A6A6A6"/>
<path d="M51.7317 43.7408C53.422 43.7408 54.7895 42.2672 54.7895 40.4662L54.8049 22.4554C54.8049 20.6543 53.422 19.1807 51.7317 19.1807H27.1463C25.4561 19.1807 24.0732 20.6543 24.0732 22.4554V40.4662C24.0732 42.2672 25.4561 43.7408 27.1463 43.7408H21C21 45.5419 22.3829 47.0155 24.0732 47.0155H54.8049C56.4951 47.0155 57.878 45.5419 57.878 43.7408H51.7317ZM27.1463 22.4554H51.7317V40.4662H27.1463V22.4554ZM39.439 45.3782C38.5939 45.3782 37.9024 44.6414 37.9024 43.7408C37.9024 42.8403 38.5939 42.1035 39.439 42.1035C40.2841 42.1035 40.9756 42.8403 40.9756 43.7408C40.9756 44.6414 40.2841 45.3782 39.439 45.3782Z" fill="white"/>
</svg>
