<svg width="57" height="57" viewBox="0 0 57 57" fill="none" xmlns="http://www.w3.org/2000/svg">
<path fill-rule="evenodd" clip-rule="evenodd" d="M47.5 4.75C48.8117 4.75 49.875 5.81332 49.875 7.125V49.875C49.875 51.1867 48.8117 52.25 47.5 52.25C46.1883 52.25 45.125 51.1867 45.125 49.875V7.125C45.125 5.81332 46.1883 4.75 47.5 4.75ZM34.4375 16.625C35.7492 16.625 36.8125 17.6883 36.8125 19V49.875C36.8125 51.1867 35.7492 52.25 34.4375 52.25C33.1258 52.25 32.0625 51.1867 32.0625 49.875V19C32.0625 17.6883 33.1258 16.625 34.4375 16.625ZM22.5625 28.5C23.8742 28.5 24.9375 29.5633 24.9375 30.875V49.875C24.9375 51.1867 23.8742 52.25 22.5625 52.25C21.2508 52.25 20.1875 51.1867 20.1875 49.875V30.875C20.1875 29.5633 21.2508 28.5 22.5625 28.5ZM9.5 40.375C10.8117 40.375 11.875 41.4383 11.875 42.75V49.875C11.875 51.1867 10.8117 52.25 9.5 52.25C8.18832 52.25 7.125 51.1867 7.125 49.875V42.75C7.125 41.4383 8.18832 40.375 9.5 40.375Z" fill="#2D2E83"/>
</svg>
