<svg width="57" height="57" viewBox="0 0 57 57" fill="none" xmlns="http://www.w3.org/2000/svg">
<path fill-rule="evenodd" clip-rule="evenodd" d="M28.5 7.125C27.1884 7.125 26.125 8.18834 26.125 9.5C26.125 10.8117 27.1883 11.875 28.4999 11.875C29.8116 11.875 30.875 10.8116 30.875 9.5C30.875 8.18834 29.8117 7.125 28.5 7.125ZM21.375 9.5C21.375 5.56495 24.565 2.375 28.5 2.375C32.435 2.375 35.625 5.56495 35.625 9.5C35.625 12.6023 33.6422 15.2415 30.8749 16.2196V27.1288L40.4267 32.6435C41.6809 31.5425 43.325 30.875 45.125 30.875C49.06 30.875 52.25 34.065 52.25 38C52.25 41.935 49.06 45.125 45.125 45.125C41.19 45.125 38 41.935 38 38C38 37.5864 38.0353 37.181 38.1029 36.7867L28.4999 31.2424L18.8971 36.7866C18.9648 37.1809 19 37.5863 19 38C19 41.935 15.81 45.125 11.875 45.125C7.93995 45.125 4.75 41.935 4.75 38C4.75 34.065 7.93995 30.875 11.875 30.875C13.675 30.875 15.3191 31.5425 16.5733 32.6434L26.1249 27.1288V16.2196C23.3576 15.2414 21.375 12.6022 21.375 9.5ZM11.875 16.625C10.5633 16.625 9.5 17.6884 9.5 19C9.5 20.3116 10.5633 21.375 11.875 21.375C13.1866 21.375 14.25 20.3116 14.25 19C14.25 17.6884 13.1866 16.625 11.875 16.625ZM4.75 19C4.75 15.065 7.93995 11.875 11.875 11.875C15.81 11.875 19 15.065 19 19C19 22.935 15.81 26.125 11.875 26.125C7.93995 26.125 4.75 22.935 4.75 19ZM45.125 16.625C43.8134 16.625 42.75 17.6884 42.75 19C42.75 20.3116 43.8134 21.375 45.125 21.375C46.4366 21.375 47.5 20.3116 47.5 19C47.5 17.6884 46.4366 16.625 45.125 16.625ZM38 19C38 15.065 41.19 11.875 45.125 11.875C49.06 11.875 52.25 15.065 52.25 19C52.25 22.935 49.06 26.125 45.125 26.125C41.19 26.125 38 22.935 38 19ZM11.875 35.625C10.5633 35.625 9.5 36.6884 9.5 38C9.5 39.3116 10.5633 40.375 11.875 40.375C13.1866 40.375 14.25 39.3116 14.25 38C14.25 36.6884 13.1866 35.625 11.875 35.625ZM45.125 35.625C43.8134 35.625 42.75 36.6884 42.75 38C42.75 39.3116 43.8134 40.375 45.125 40.375C46.4366 40.375 47.5 39.3116 47.5 38C47.5 36.6884 46.4366 35.625 45.125 35.625ZM28.5 45.125C27.1884 45.125 26.125 46.1884 26.125 47.5C26.125 48.8116 27.1884 49.875 28.5 49.875C29.8116 49.875 30.875 48.8116 30.875 47.5C30.875 46.1884 29.8116 45.125 28.5 45.125ZM21.375 47.5C21.375 43.565 24.565 40.375 28.5 40.375C32.435 40.375 35.625 43.565 35.625 47.5C35.625 51.435 32.435 54.625 28.5 54.625C24.565 54.625 21.375 51.435 21.375 47.5Z" fill="#2D2E83"/>
<path d="M26.125 9.5C26.125 8.18834 27.1884 7.125 28.5 7.125C29.8116 7.125 30.875 8.18834 30.875 9.5C30.875 10.8116 29.8116 11.875 28.4999 11.875C27.1883 11.875 26.125 10.8117 26.125 9.5Z" fill="#E3E3FF"/>
<path d="M9.5 19C9.5 17.6884 10.5633 16.625 11.875 16.625C13.1866 16.625 14.25 17.6884 14.25 19C14.25 20.3116 13.1866 21.375 11.875 21.375C10.5633 21.375 9.5 20.3116 9.5 19Z" fill="#E3E3FF"/>
<path d="M9.5 38C9.5 36.6884 10.5633 35.625 11.875 35.625C13.1866 35.625 14.25 36.6884 14.25 38C14.25 39.3116 13.1866 40.375 11.875 40.375C10.5633 40.375 9.5 39.3116 9.5 38Z" fill="#E3E3FF"/>
<path d="M26.125 47.5C26.125 46.1884 27.1884 45.125 28.5 45.125C29.8116 45.125 30.875 46.1884 30.875 47.5C30.875 48.8116 29.8116 49.875 28.5 49.875C27.1884 49.875 26.125 48.8116 26.125 47.5Z" fill="#E3E3FF"/>
<path d="M42.75 38C42.75 36.6884 43.8134 35.625 45.125 35.625C46.4366 35.625 47.5 36.6884 47.5 38C47.5 39.3116 46.4366 40.375 45.125 40.375C43.8134 40.375 42.75 39.3116 42.75 38Z" fill="#E3E3FF"/>
<path d="M42.75 19C42.75 17.6884 43.8134 16.625 45.125 16.625C46.4366 16.625 47.5 17.6884 47.5 19C47.5 20.3116 46.4366 21.375 45.125 21.375C43.8134 21.375 42.75 20.3116 42.75 19Z" fill="#E3E3FF"/>
</svg>
