<svg width="164" height="164" viewBox="0 0 164 164" fill="none" xmlns="http://www.w3.org/2000/svg">
<g clip-path="url(#clip0)">
<path d="M164 68.7742H158.056L149.197 73.4355C148.2 72.8853 147.163 72.419 146.044 72.1388L134.901 69.3502V68.0832C139.831 64.6424 142.839 58.9582 142.839 52.9032V48.2794C142.839 38.0035 134.787 29.4042 124.891 29.1045C124.388 29.0916 123.894 29.1097 123.397 29.1342L126.286 22.3702L112.279 8.36687L104.021 13.7411C100.884 11.9743 97.5662 10.5987 94.1202 9.63392L92.0808 0H71.9218L69.8824 9.6365C66.4364 10.6013 63.1158 11.9768 59.9811 13.7437L51.724 8.36946L37.7284 22.365L40.5686 29.1342C40.4601 29.1291 40.3568 29.1097 40.2483 29.1071C35.1827 28.9599 30.4116 30.8081 26.7874 34.3264C23.1581 37.8421 21.1613 42.5602 21.1613 47.6129V52.9032C21.1613 58.9582 24.1668 64.6398 29.0968 68.0806V69.3502L21.8277 71.1675L8.65231 63.4839H0V118.295L26.0228 126.968H31.091L31.7239 124.751L39.7007 129.539C39.8311 133.876 43.3094 137.366 47.6426 137.519C47.795 141.834 51.2629 145.302 55.5781 145.454C55.7305 149.769 59.1984 153.237 63.5136 153.39C63.6712 157.806 67.2876 161.355 71.7397 161.355C73.3929 161.355 75.0138 160.84 76.3764 159.921L78.7194 161.99C80.1879 163.283 82.0788 164 84.042 164H84.5315C88.9332 164 92.5148 160.442 92.5703 156.054C96.9242 155.999 100.45 152.473 100.506 148.119C104.862 148.063 108.391 144.532 108.441 140.175C112.838 140.072 116.387 136.48 116.387 132.059C116.387 131.793 116.374 131.531 116.347 131.266L164 107.442V68.7742ZM137.548 48.2794V52.9032C137.548 57.5981 135.012 61.9843 130.928 64.3492L129.605 65.1139L129.615 73.4846L142.831 76.7859L113.742 92.0963V84.9706C113.742 81.4149 112.306 78.1588 109.954 75.7526L119.032 73.4846V65.1074L117.712 64.3441C113.631 61.9843 111.097 57.5981 111.097 52.9032V47.6129C111.097 44.0055 112.523 40.6319 115.115 38.1198C117.705 35.6089 121.14 34.2554 124.732 34.3948C131.798 34.6067 137.548 40.836 137.548 48.2794ZM85.9884 90.0169L74.0141 86.1899C68.5572 84.4411 62.6508 84.1802 57.0647 85.4175L55.5484 85.7533V84.9706C55.5484 81.3232 58.0218 78.1562 61.5581 77.2702L76.7097 73.4846V65.1074L75.3897 64.3441C71.3083 61.9843 68.7742 57.5981 68.7742 52.9032V47.6129C68.7742 44.0055 70.2001 40.6319 72.7923 38.1198C75.3819 35.6089 78.8395 34.2554 82.4094 34.3948C89.4757 34.6067 95.2258 40.836 95.2258 48.2794V52.9032C95.2258 57.5981 92.6891 61.9843 88.6052 64.3492L87.2826 65.1139L87.2929 73.4846L102.442 77.2702C105.978 78.1562 108.452 81.3232 108.452 84.9706V94.8822L107.798 95.2258H106.177L89.9148 90.5787C88.6336 90.2158 87.3136 90.0672 85.9884 90.0169ZM56.1412 39.5896C61.1087 29.9647 71.1068 23.8065 82 23.8065C92.7899 23.8065 102.745 29.8821 107.75 39.3765C106.491 41.9015 105.806 44.6978 105.806 47.6129V52.9032C105.806 58.9582 108.812 64.6398 113.742 68.0806V69.3502L103.161 71.9993L92.5781 69.3502V68.0832C97.508 64.6424 100.516 58.9582 100.516 52.9032V48.2794C100.516 38.0035 92.4644 29.4042 82.5683 29.1045C77.5053 28.956 72.7316 30.8055 69.1074 34.3238C65.4807 37.8421 63.4839 42.5602 63.4839 47.6129V52.9032C63.4839 58.9582 66.4894 64.6398 71.4194 68.0806V69.3502L60.8387 71.9993L50.2555 69.3502V68.0832C55.1855 64.6424 58.1936 58.9582 58.1936 52.9032V48.2794C58.1936 45.1666 57.4444 42.2115 56.1412 39.5896ZM43.9758 23.5921L52.4266 15.1412L59.8649 19.9821L61.2882 19.109C64.8542 16.9236 68.7083 15.3233 72.7419 14.3585L74.3693 13.9685L76.2098 5.29032H87.7928L89.6281 13.9659L91.2555 14.3547C95.2891 15.3208 99.1432 16.921 102.709 19.1064L104.133 19.9795L111.571 15.1386L120.011 23.5817L117.011 30.6066C114.969 31.4849 113.075 32.721 111.427 34.3186C111.319 34.4246 111.226 34.5382 111.12 34.6467C104.888 24.7403 93.8709 18.5161 82 18.5161C70.0438 18.5161 58.9956 24.7984 52.7792 34.8056C51.1157 33.0645 49.137 31.6541 46.9439 30.6686L43.9758 23.5921ZM34.3871 73.4846V65.1074L33.0671 64.3441C28.9857 61.9843 26.4516 57.5981 26.4516 52.9032V47.6129C26.4516 44.0055 27.8775 40.6319 30.4697 38.1198C33.0593 35.6089 36.5027 34.2554 40.0869 34.3948C47.1531 34.6067 52.9032 40.836 52.9032 48.2794V52.9032C52.9032 57.5981 50.3666 61.9843 46.2826 64.3492L44.96 65.1139L44.9703 73.4846L54.0463 75.7526C51.6943 78.1588 50.2581 81.4149 50.2581 84.9706V86.93L42.0074 88.764L42.2218 88.0149L42.3226 83.1263L28.3722 74.988L34.3871 73.4846ZM5.29032 68.7742H7.21866L26.2424 79.8702L16.6433 118.265L5.29032 114.479V68.7742ZM26.8804 121.677L21.674 119.943L30.9993 82.6458L37.0323 86.1641V86.9196L27.1026 121.677H26.8804ZM44.9677 129.293C44.9677 128.512 45.2829 127.748 45.8357 127.195L50.4854 122.545C51.0382 121.993 51.8028 121.677 52.5829 121.677C54.2181 121.677 55.5484 123.008 55.5484 124.643C55.5484 125.423 55.2332 126.188 54.6804 126.74L50.0307 131.39C49.478 131.943 48.7133 132.258 47.9332 132.258C46.2981 132.258 44.9677 130.928 44.9677 129.293ZM52.9032 137.228C52.9032 136.448 53.2184 135.683 53.7712 135.131L58.4209 130.481C58.9737 129.928 59.7383 129.613 60.5184 129.613C62.1535 129.613 63.4839 130.943 63.4839 132.578C63.4839 133.359 63.1687 134.123 62.6159 134.676L57.9662 139.326C57.4134 139.878 56.6488 140.194 55.8687 140.194C54.2336 140.194 52.9032 138.863 52.9032 137.228ZM60.8387 145.164C60.8387 144.383 61.1539 143.619 61.7067 143.066L66.3564 138.416C66.9091 137.864 67.6738 137.548 68.4539 137.548C70.089 137.548 71.4194 138.879 71.4194 140.514C71.4194 141.294 71.1042 142.059 70.5514 142.611L65.9017 147.261C65.3489 147.814 64.5843 148.129 63.8042 148.129C62.169 148.129 60.8387 146.799 60.8387 145.164ZM71.7397 156.065C70.1045 156.065 68.7742 154.734 68.7742 153.099C68.7742 152.319 69.0893 151.554 69.6421 151.002L74.2918 146.352C74.8446 145.799 75.6093 145.484 76.3894 145.484C78.0245 145.484 79.3548 146.814 79.3548 148.449C79.3548 149.229 79.0397 149.994 78.4869 150.547L73.8372 155.197C73.2844 155.749 72.5198 156.065 71.7397 156.065ZM84.5315 158.71H84.042C83.3678 158.71 82.722 158.464 82.2196 158.019L80.2409 156.274L82.2273 154.287C82.9364 153.578 83.4866 152.735 83.8935 151.829L86.2984 153.831C86.9274 154.356 87.2903 155.128 87.2903 155.951C87.2903 157.472 86.053 158.71 84.5315 158.71ZM108.253 134.903H107.795C107.132 134.903 106.483 134.668 105.976 134.242L91.6313 122.288L88.2422 126.354L102.172 137.96C102.798 138.485 103.161 139.257 103.161 140.08C103.161 141.601 101.924 142.839 100.402 142.839H99.8251C99.1832 142.839 98.5555 142.611 98.0608 142.198L83.6933 130.226L80.3042 134.292L94.2339 145.9C94.8629 146.42 95.2258 147.193 95.2258 148.015C95.2258 149.537 93.9885 150.774 92.467 150.774C91.4518 150.774 90.4625 150.414 89.6836 149.767L83.7798 144.846C82.4792 142.188 79.8069 140.334 76.6774 140.223C76.525 135.908 73.0571 132.44 68.7419 132.288C68.5895 127.973 65.1216 124.505 60.8064 124.352C60.6514 119.936 57.035 116.387 52.5829 116.387C50.4092 116.387 48.2819 117.268 46.745 118.805L42.0953 123.455C41.8176 123.732 41.5877 124.047 41.3539 124.36L33.2285 119.484L40.3516 94.5542L58.209 90.5839C62.8936 89.5364 67.8326 89.7637 72.401 91.2258L76.2977 92.4722L63.0874 99.0773C60.0689 100.59 58.1936 103.626 58.1936 107.002V107.526C58.1936 112.412 62.169 116.387 67.0551 116.387C68.6605 116.387 70.2401 115.951 71.6131 115.123L81.4627 109.216C83.4414 108.031 86.0969 108.29 87.8057 109.827L110.155 129.941C110.753 130.483 111.097 131.253 111.097 132.059C111.097 133.628 109.822 134.903 108.253 134.903ZM158.71 104.171L114.146 126.455C114.002 126.301 113.85 126.155 113.692 126.013L91.3459 105.899C89.3879 104.133 86.8564 103.161 84.2189 103.161C82.2906 103.161 80.3971 103.686 78.7388 104.68L68.8853 110.589C68.3325 110.922 67.7009 111.097 67.0551 111.097C65.0841 111.097 63.4839 109.497 63.4839 107.526V107.002C63.4839 105.64 64.2407 104.418 65.4574 103.81L80.2125 96.4322C82.7375 95.1677 85.7353 94.8848 88.4566 95.6675L105.079 100.415L109.105 100.516L158.71 74.4081V104.171Z" fill="#2D2E83"/>
</g>
<defs>
<clipPath id="clip0">
<rect width="164" height="164" fill="white"/>
</clipPath>
</defs>
</svg>
