<svg width="50" height="50" viewBox="0 0 50 50" fill="none" xmlns="http://www.w3.org/2000/svg">
<path d="M15.6249 26.4403C15.6249 25.2897 16.5577 24.3569 17.7083 24.3569H23.9583C25.1088 24.3569 26.0416 25.2897 26.0416 26.4403C26.0416 27.5909 25.1088 28.5236 23.9583 28.5236H17.7083C16.5577 28.5236 15.6249 27.5909 15.6249 26.4403Z" fill="#2D2E83"/>
<path d="M17.7083 30.6069C16.5577 30.6069 15.6249 31.5397 15.6249 32.6903C15.6249 33.8409 16.5577 34.7736 17.7083 34.7736H32.2916C33.4422 34.7736 34.3749 33.8409 34.3749 32.6903C34.3749 31.5397 33.4422 30.6069 32.2916 30.6069H17.7083Z" fill="#2D2E83"/>
<path fill-rule="evenodd" clip-rule="evenodd" d="M37.3509 5.47659C36.9235 4.40833 35.7111 3.88875 34.6428 4.31607L8.97521 14.5832H4.16659C3.01599 14.5832 2.08325 15.5159 2.08325 16.6665V22.9165C2.08325 24.0671 3.01599 24.9998 4.16659 24.9998C5.28519 24.9998 6.33568 25.3751 7.07937 26.0361C7.78471 26.6631 8.33325 27.6485 8.33325 29.1665C8.33325 30.6845 7.78473 31.67 7.07942 32.2969C6.33577 32.9579 5.28529 33.3332 4.16659 33.3332C3.01599 33.3332 2.08325 34.2659 2.08325 35.4165V41.6665C2.08325 42.8171 3.01599 43.7498 4.16659 43.7498H45.8333C46.9838 43.7498 47.9166 42.8171 47.9166 41.6665V35.4165C47.9166 34.2659 46.9838 33.3332 45.8333 33.3332C44.9568 33.3332 43.9131 32.8778 43.0488 31.9655C42.1969 31.0663 41.6666 29.8715 41.6666 28.6457C41.6666 26.49 43.4871 24.9998 45.8333 24.9998C46.9838 24.9998 47.9166 24.0671 47.9166 22.9165V16.6665C47.9166 15.5159 46.9838 14.5832 45.8333 14.5832H40.9939L37.3509 5.47659ZM39.5166 18.7498C39.5616 18.7513 39.6067 18.7513 39.652 18.7498H43.7499V21.0808C40.5073 21.8516 37.4999 24.4138 37.4999 28.6457C37.4999 31.0657 38.5321 33.2563 40.024 34.8311C41.0322 35.8954 42.3201 36.7486 43.7499 37.184V39.5832H6.24992V37.2571C7.55095 36.9486 8.80083 36.3416 9.84763 35.4111C11.486 33.9547 12.4999 31.8151 12.4999 29.1665C12.4999 26.5178 11.486 24.3783 9.84755 22.9219C8.80076 21.9914 7.55091 21.3844 6.24992 21.0759V18.7498H9.30797C9.35296 18.7513 9.39813 18.7513 9.44339 18.7498H39.5166ZM36.5062 14.5832L34.256 8.95843L20.1943 14.5832H36.5062Z" fill="#2D2E83"/>
<path fill-rule="evenodd" clip-rule="evenodd" d="M39.6521 18.75C39.6068 18.7515 39.5617 18.7515 39.5167 18.75H9.44347C9.39821 18.7515 9.35305 18.7515 9.30805 18.75H6.25V21.0761C7.55099 21.3846 8.80084 21.9916 9.84763 22.9221C11.486 24.3784 12.5 26.518 12.5 29.1667C12.5 31.8153 11.4861 33.9549 9.84771 35.4113C8.80091 36.3418 7.55104 36.9488 6.25 37.2573V39.5833H43.75V37.1842C42.3202 36.7487 41.0323 35.8955 40.0241 34.8312C38.5322 33.2565 37.5 31.0659 37.5 28.6458C37.5 24.4139 40.5074 21.8518 43.75 21.0809V18.75H39.6521ZM15.625 26.4404C15.625 25.2898 16.5577 24.3571 17.7083 24.3571H23.9583C25.1089 24.3571 26.0417 25.2898 26.0417 26.4404C26.0417 27.591 25.1089 28.5238 23.9583 28.5238H17.7083C16.5577 28.5238 15.625 27.591 15.625 26.4404ZM17.7083 30.6071C16.5577 30.6071 15.625 31.5398 15.625 32.6904C15.625 33.841 16.5577 34.7738 17.7083 34.7738H32.2917C33.4423 34.7738 34.375 33.841 34.375 32.6904C34.375 31.5398 33.4423 30.6071 32.2917 30.6071H17.7083Z" fill="#2D2E83"/>
</svg>
