<svg xmlns="http://www.w3.org/2000/svg" width="65.985" height="65.995" viewBox="0 0 65.985 65.995">
  <g id="tokens" transform="translate(2457.06 387)">
    <g id="business" transform="translate(-2457.06 -387)">
      <path id="Path_2050" data-name="Path 2050" d="M256.035,72.07h2.2v2.2h-2.2Zm0,0" transform="translate(-220.843 -62.163)" fill="#344684"/>
      <path id="Path_2051" data-name="Path 2051" d="M208.035,72.07h2.2v2.2h-2.2Zm0,0" transform="translate(-179.441 -62.163)" fill="#344684"/>
      <path id="Path_2052" data-name="Path 2052" d="M220.716,99.929a1.758,1.758,0,0,1-1.319-.66l-1.76,1.32a3.849,3.849,0,0,0,6.159,0l-1.76-1.32A1.772,1.772,0,0,1,220.716,99.929Zm0,0" transform="translate(-187.723 -85.623)" fill="#344684"/>
      <path id="Path_2053" data-name="Path 2053" d="M104.035,328.07h2.2v2.2h-2.2Zm0,0" transform="translate(-89.738 -282.97)" fill="#344684"/>
      <path id="Path_2054" data-name="Path 2054" d="M56.035,328.07h2.2v2.2h-2.2Zm0,0" transform="translate(-48.337 -282.97)" fill="#344684"/>
      <path id="Path_2055" data-name="Path 2055" d="M68.716,355.929a1.758,1.758,0,0,1-1.319-.66l-1.76,1.32a3.849,3.849,0,0,0,6.159,0l-1.76-1.32a1.772,1.772,0,0,1-1.32.66Zm0,0" transform="translate(-56.618 -306.43)" fill="#344684"/>
      <path id="Path_2056" data-name="Path 2056" d="M62.72,52.8H60.13a9.877,9.877,0,0,0-2.018-16.653A25.737,25.737,0,0,0,58.321,33,25.111,25.111,0,0,0,42.916,9.743a9.89,9.89,0,0,0-19.778,0A25.111,25.111,0,0,0,7.732,33a25.737,25.737,0,0,0,.209,3.143A9.877,9.877,0,0,0,5.923,52.8H3.333a3.3,3.3,0,0,0-3.3,3.3v4.4a3.3,3.3,0,0,0,3.3,3.3h1.1v1.1a1.1,1.1,0,0,0,1.1,1.1h13.2a1.1,1.1,0,0,0,1.1-1.1V63.8h1.1a3.3,3.3,0,0,0,3.3-3.3V56.713a25.232,25.232,0,0,0,17.6,0V60.5a3.3,3.3,0,0,0,3.3,3.3h1.1v1.1a1.1,1.1,0,0,0,1.1,1.1h13.2a1.1,1.1,0,0,0,1.1-1.1V63.8h1.1a3.3,3.3,0,0,0,3.3-3.3V56.1a3.3,3.3,0,0,0-3.3-3.3ZM3.333,61.6a1.1,1.1,0,0,1-1.1-1.1V56.1a1.1,1.1,0,0,1,1.1-1.1h1.1v6.6Zm50.589-8.8a7.642,7.642,0,0,1-7.611-8.793,8.736,8.736,0,0,0,2.248.31,7.877,7.877,0,0,0,2.394-.366,8.23,8.23,0,0,0,2.969-1.689,8.085,8.085,0,0,0,7.611,1.75,7.553,7.553,0,0,1,.087,1.09,7.708,7.708,0,0,1-7.7,7.7Zm6.992-10.9a6.009,6.009,0,0,1-3.363-.049,6.18,6.18,0,0,1-2.8-1.869,1.137,1.137,0,0,0-1.663,0,6.188,6.188,0,0,1-2.8,1.869,5.979,5.979,0,0,1-3.361.047,7.684,7.684,0,0,1,13.984,0ZM40.725,9.907a7.7,7.7,0,1,1-15.31-1.094,8.736,8.736,0,0,0,2.248.31,7.877,7.877,0,0,0,2.394-.366,8.23,8.23,0,0,0,2.969-1.689A8.217,8.217,0,0,0,36,8.756a8.25,8.25,0,0,0,4.645.062,7.71,7.71,0,0,1,.084,1.09Zm-13.2,9.9h4.4v7.7h2.2v-7.7h4.4v8.8h-11Zm5.5-17.6a7.7,7.7,0,0,1,6.992,4.5,6.009,6.009,0,0,1-3.363-.049,6.18,6.18,0,0,1-2.8-1.869,1.137,1.137,0,0,0-1.663,0,6.188,6.188,0,0,1-2.8,1.869,5.979,5.979,0,0,1-3.361.047,7.7,7.7,0,0,1,6.992-4.5ZM12.132,37.4a7.7,7.7,0,0,1,6.992,4.5,6.009,6.009,0,0,1-3.363-.049,6.18,6.18,0,0,1-2.8-1.869,1.137,1.137,0,0,0-1.663,0,6.188,6.188,0,0,1-2.8,1.869,5.979,5.979,0,0,1-3.361.047,7.7,7.7,0,0,1,6.992-4.5Zm-7.7,7.7a7.625,7.625,0,0,1,.087-1.094,8.737,8.737,0,0,0,2.248.31,7.877,7.877,0,0,0,2.394-.366,8.23,8.23,0,0,0,2.969-1.689,8.085,8.085,0,0,0,7.611,1.75,7.552,7.552,0,0,1,.087,1.09,7.7,7.7,0,0,1-15.4,0Zm13.2,18.7h-11V55h4.4v7.7h2.2V55h4.4Zm4.4-3.3a1.1,1.1,0,0,1-1.1,1.1h-1.1V55h1.1a1.1,1.1,0,0,1,1.1,1.1Zm23.095,1.1a1.1,1.1,0,0,1-1.1-1.1V56.1a1.1,1.1,0,0,1,1.1-1.1h1.1v6.6Zm0-8.8a3.28,3.28,0,0,0-2.55,1.232,23.075,23.075,0,0,1-19.094,0A3.28,3.28,0,0,0,20.93,52.8H18.34a9.891,9.891,0,0,0-8.27-17.376A23.814,23.814,0,0,1,9.932,33,22.927,22.927,0,0,1,23.365,12.038a9.909,9.909,0,0,0,3.453,5.568h-2.59a3.3,3.3,0,0,0-3.3,3.3v4.4a3.3,3.3,0,0,0,3.3,3.3h1.1v1.1a1.1,1.1,0,0,0,1.1,1.1h13.2a1.1,1.1,0,0,0,1.1-1.1V28.6h1.1a3.3,3.3,0,0,0,3.3-3.3V20.9a3.3,3.3,0,0,0-3.3-3.3h-2.59a9.907,9.907,0,0,0,3.453-5.568A22.927,22.927,0,0,1,56.122,33a23.662,23.662,0,0,1-.137,2.42A9.891,9.891,0,0,0,47.714,52.8ZM25.329,26.4h-1.1a1.1,1.1,0,0,1-1.1-1.1V20.9a1.1,1.1,0,0,1,1.1-1.1h1.1Zm15.4-6.6h1.1a1.1,1.1,0,0,1,1.1,1.1v4.4a1.1,1.1,0,0,1-1.1,1.1h-1.1Zm18.7,43.99h-11V55h4.4v7.7h2.2V55h4.4Zm4.4-3.3a1.1,1.1,0,0,1-1.1,1.1h-1.1V55h1.1a1.1,1.1,0,0,1,1.1,1.1Zm0,0" transform="translate(-0.034 0)" fill="#344684"/>
      <path id="Path_2057" data-name="Path 2057" d="M408.035,328.07h2.2v2.2h-2.2Zm0,0" transform="translate(-351.947 -282.97)" fill="#344684"/>
      <path id="Path_2058" data-name="Path 2058" d="M360.035,328.07h2.2v2.2h-2.2Zm0,0" transform="translate(-310.546 -282.97)" fill="#344684"/>
      <path id="Path_2059" data-name="Path 2059" d="M372.716,355.929a1.758,1.758,0,0,1-1.319-.66l-1.76,1.32a3.849,3.849,0,0,0,6.159,0l-1.76-1.32A1.772,1.772,0,0,1,372.716,355.929Zm0,0" transform="translate(-318.827 -306.43)" fill="#344684"/>
    </g>
    <g id="Group_1860" data-name="Group 1860" transform="translate(-2435.932 -353.841)">
      <path id="Path_2060" data-name="Path 2060" d="M40.72,19.259c-.086-.075-8.792-7.512-17.378,0l1.321,1.511c7.257-6.35,14.435-.263,14.737,0Z" transform="translate(-20.282 -12.109)" fill="#e5b909"/>
      <path id="Path_2061" data-name="Path 2061" d="M37.748,22.3c-1.982-1.982-6.925-4.528-11.455,0l1.419,1.419c4.162-4.16,8.174-.437,8.619,0Z" transform="translate(-20.272 -12.095)" fill="#e5b909"/>
      <path id="Path_2062" data-name="Path 2062" d="M21.712,18.73c10.184-10.185,20.236-.418,20.66,0l1.418-1.42c-.118-.118-11.884-11.614-23.5,0Z" transform="translate(-20.293 -12.122)" fill="#e5b909"/>
      <path id="Path_2063" data-name="Path 2063" d="M29,27.011A3.011,3.011,0,1,0,32.011,24,3.011,3.011,0,0,0,29,27.011Zm4.014,0a1,1,0,1,1-1-1A1,1,0,0,1,33.014,27.011Z" transform="translate(-20.262 -12.08)" fill="#e5b909"/>
    </g>
  </g>
</svg>
