<svg width="64" height="64" viewBox="0 0 64 64" fill="none" xmlns="http://www.w3.org/2000/svg">
<path d="M60.1014 21.8786L54.3979 17.3196V14.6482C54.3979 13.5752 53.5121 12.7022 52.4232 12.7022H48.6214L40.5643 6.26166C40.1728 5.94855 39.5977 6.00733 39.2799 6.3935C38.9622 6.77942 39.0221 7.34588 39.4137 7.65911L45.723 12.7022H16.2096L28.996 2.48162C30.1377 1.56918 31.7949 1.5693 32.9366 2.4815L36.3607 5.21858C36.7522 5.53168 37.3271 5.47242 37.6449 5.08662C37.9625 4.7007 37.9026 4.13423 37.511 3.82113L34.087 1.08393C32.2787 -0.361269 29.654 -0.361389 27.8458 1.08405L13.3111 12.7022H9.50932C8.4205 12.7022 7.53462 13.5751 7.53462 14.6482V17.3196L1.83111 21.8786C0.970545 22.5664 0.474708 23.5851 0.467039 24.6759C0.466917 24.6816 0.466552 24.6874 0.466552 24.6933C0.466552 24.6959 0.466309 24.6987 0.466309 24.7013V56.7394C0.466309 59.0886 2.40583 61 4.78993 61H57.1427C59.5267 61 61.4663 59.0886 61.4663 56.7394V24.7013C61.4663 23.6009 60.9688 22.5718 60.1014 21.8786ZM59.6038 24.3502L54.398 27.9313V26.5406C54.398 25.7354 53.7332 25.0803 52.9161 25.0803H52.6888C51.4957 25.0803 50.525 24.1237 50.525 22.9481C50.525 21.7724 51.4958 20.8158 52.6888 20.8158H52.9161C53.6427 20.8158 54.2475 20.2975 54.373 19.6166L58.9512 23.276C59.295 23.551 59.5214 23.9309 59.6038 24.3502ZM9.50932 14.5017H37.7817V15.5385C37.7817 16.0355 38.1905 16.4382 38.6947 16.4382C39.199 16.4382 39.6078 16.0355 39.6078 15.5385V14.5017H52.4233C52.5052 14.5017 52.5719 14.5674 52.5719 14.6482V17.7551V17.7553V19.0178C50.4257 19.079 48.6989 20.8185 48.6989 22.9479C48.6989 25.0774 50.4257 26.8169 52.5719 26.878V29.1875L39.6078 38.1056V37.9654C39.6078 37.4684 39.199 37.0657 38.6947 37.0657C38.1905 37.0657 37.7817 37.4684 37.7817 37.9654V38.0095L35.5442 36.2815C32.8893 34.2314 29.1779 34.2272 26.5185 36.2716L23.3429 38.713L9.3608 29.0946V17.7554C9.3608 17.7554 9.3608 17.7553 9.3608 17.7552V14.6483C9.3608 14.5674 9.42739 14.5017 9.50932 14.5017ZM2.98152 23.276L7.53462 19.6365V27.8385L2.34557 24.269C2.4404 23.8818 2.66001 23.5331 2.98152 23.276ZM57.1427 59.2007H4.78993C3.55491 59.2007 2.52915 58.3119 2.32998 57.1498L9.38941 51.7225C9.787 51.4169 9.85785 50.8515 9.54767 50.4598C9.23748 50.0681 8.66373 49.9981 8.26626 50.3038L2.29249 54.8965V26.4266L21.8364 39.871L11.3346 47.9448C10.9371 48.2504 10.8662 48.8158 11.1764 49.2075C11.3564 49.435 11.6252 49.5538 11.8968 49.5538C12.0932 49.5538 12.291 49.4917 12.4578 49.3635L27.6416 37.6902C29.6381 36.1554 32.4245 36.1584 34.4177 37.6976L44.2085 45.2592C44.6053 45.5655 45.1793 45.4969 45.4902 45.1061C45.8013 44.7149 45.7318 44.1494 45.3349 43.8429L40.2106 39.8853L59.6402 26.5195V54.8911L48.4198 46.2255C48.0231 45.9191 47.449 45.9876 47.1381 46.3787C46.827 46.7697 46.8965 47.3352 47.2934 47.6417L59.6028 57.1485C59.4041 58.3111 58.3782 59.2007 57.1427 59.2007Z" fill="#2D2E83"/>
<path d="M38.6948 22.5289C39.199 22.5289 39.6078 22.1261 39.6078 21.6291V19.6927C39.6078 19.1957 39.199 18.793 38.6948 18.793C38.1905 18.793 37.7817 19.1957 37.7817 19.6927V21.6291C37.7817 22.1261 38.1905 22.5289 38.6948 22.5289Z" fill="#2D2E83"/>
<path d="M38.6948 28.6202C39.199 28.6202 39.6078 28.2175 39.6078 27.7204V25.784C39.6078 25.287 39.199 24.8843 38.6948 24.8843C38.1905 24.8843 37.7817 25.287 37.7817 25.784V27.7204C37.7817 28.2173 38.1905 28.6202 38.6948 28.6202Z" fill="#2D2E83"/>
<path d="M38.6948 34.7105C39.199 34.7105 39.6078 34.3078 39.6078 33.8108V31.8743C39.6078 31.3773 39.199 30.9746 38.6948 30.9746C38.1905 30.9746 37.7817 31.3773 37.7817 31.8743V33.8108C37.7817 34.3078 38.1905 34.7105 38.6948 34.7105Z" fill="#2D2E83"/>
<path d="M22.0343 30.8786C22.1497 30.9263 22.2695 30.9489 22.3872 30.9489C22.744 30.9489 23.0828 30.7415 23.2295 30.3971L27.7894 19.6904C27.9845 19.2323 27.7658 18.7049 27.3009 18.5126C26.8357 18.3205 26.3009 18.536 26.1057 18.9941L21.5457 29.7008C21.3506 30.159 21.5694 30.6862 22.0343 30.8786Z" fill="#2D2E83"/>
<path d="M19.4881 24.3574C21.1024 24.3574 22.4159 22.919 22.4159 21.1507C22.4159 19.3824 21.1024 17.9438 19.4881 17.9438C17.8737 17.9438 16.5603 19.3824 16.5603 21.1507C16.5603 22.919 17.8737 24.3574 19.4881 24.3574ZM19.4881 19.7432C20.0853 19.7432 20.5898 20.3877 20.5898 21.1506C20.5898 21.9134 20.0852 22.5579 19.4881 22.5579C18.891 22.5579 18.3864 21.9134 18.3864 21.1506C18.3864 20.3877 18.8908 19.7432 19.4881 19.7432Z" fill="#2D2E83"/>
<path d="M26.772 28.4709C26.772 30.2392 28.0854 31.6777 29.6998 31.6777C31.3141 31.6777 32.6275 30.2392 32.6275 28.4709C32.6275 26.7026 31.3141 25.2642 29.6998 25.2642C28.0854 25.2642 26.772 26.7026 26.772 28.4709ZM29.6998 27.0636C30.297 27.0636 30.8015 27.708 30.8015 28.4709C30.8015 29.2337 30.2969 29.8783 29.6998 29.8783C29.1026 29.8783 28.598 29.2337 28.598 28.4709C28.598 27.708 29.1025 27.0636 29.6998 27.0636Z" fill="#2D2E83"/>
</svg>
