<svg width="185" height="62" viewBox="0 0 185 62" fill="none" xmlns="http://www.w3.org/2000/svg">
<path d="M125.296 30.0412V33.5616H123.089V35.8702H125.296V43.7144C125.296 46.393 126.508 47.4644 129.556 47.4644C130.092 47.4644 130.602 47.4006 131.048 47.3241V45.041C130.666 45.0792 130.423 45.1047 130.002 45.1047C128.638 45.1047 128.038 44.467 128.038 43.0129V35.8702H131.048V33.5616H128.038V30.0412H125.296Z" fill="white"/>
<path d="M138.814 47.6557C142.87 47.6557 145.357 44.9389 145.357 40.4364C145.357 35.9595 142.857 33.23 138.814 33.23C134.758 33.23 132.258 35.9595 132.258 40.4364C132.258 44.9389 134.745 47.6557 138.814 47.6557ZM138.814 45.2195C136.429 45.2195 135.09 43.4721 135.09 40.4364C135.09 37.4263 136.429 35.6661 138.814 35.6661C141.186 35.6661 142.538 37.4263 142.538 40.4364C142.538 43.4594 141.186 45.2195 138.814 45.2195Z" fill="white"/>
<path d="M147.485 47.3878H150.228V39.1865C150.228 37.235 151.694 35.9212 153.773 35.9212C154.258 35.9212 155.074 36.0105 155.304 36.087V33.383C155.011 33.3065 154.488 33.2682 154.08 33.2682C152.268 33.2682 150.725 34.2631 150.33 35.6279H150.126V33.4978H147.485V47.3878Z" fill="white"/>
<path d="M162.113 35.5641C164.141 35.5641 165.468 36.9799 165.531 39.161H158.516C158.669 36.9926 160.085 35.5641 162.113 35.5641ZM165.519 43.6379C165.008 44.7221 163.873 45.3216 162.215 45.3216C160.021 45.3216 158.605 43.7782 158.516 41.342V41.189H168.325V40.2324C168.325 35.8702 165.991 33.23 162.126 33.23C158.21 33.23 155.723 36.0488 155.723 40.4875C155.723 44.9262 158.159 47.6557 162.139 47.6557C165.315 47.6557 167.534 46.1251 168.159 43.6379H165.519Z" fill="white"/>
<path d="M107.312 42.2585C107.524 45.6692 110.366 47.8505 114.597 47.8505C119.118 47.8505 121.947 45.5635 121.947 41.9148C121.947 39.046 120.334 37.4596 116.421 36.5474L114.319 36.0318C111.834 35.4502 110.829 34.6702 110.829 33.3085C110.829 31.5899 112.389 30.4662 114.729 30.4662C116.95 30.4662 118.483 31.5635 118.761 33.3217H121.643C121.471 30.1093 118.642 27.8486 114.768 27.8486C110.604 27.8486 107.828 30.1093 107.828 33.5068C107.828 36.3095 109.401 37.9752 112.852 38.7816L115.31 39.3765C117.835 39.9714 118.946 40.8439 118.946 42.2981C118.946 43.9903 117.201 45.2198 114.821 45.2198C112.27 45.2198 110.498 44.0696 110.247 42.2585H107.312Z" fill="white"/>
<path d="M78.905 33.2682C77.0172 33.2682 75.3846 34.2121 74.5428 35.7937H74.3387V33.4978H71.6985V52.0051H74.4408V45.2833H74.6576C75.3846 46.7501 76.9535 47.6174 78.9305 47.6174C82.4381 47.6174 84.6702 44.8496 84.6702 40.4364C84.6702 36.0233 82.4381 33.2682 78.905 33.2682ZM78.1269 45.1557C75.831 45.1557 74.3897 43.3446 74.3897 40.4492C74.3897 37.5411 75.831 35.7299 78.1397 35.7299C80.4611 35.7299 81.8513 37.5028 81.8513 40.4364C81.8513 43.3828 80.4611 45.1557 78.1269 45.1557Z" fill="white"/>
<path d="M94.2659 33.2682C92.3782 33.2682 90.7456 34.2121 89.9037 35.7937H89.6997V33.4978H87.0594V52.0051H89.8017V45.2833H90.0185C90.7456 46.7501 92.3144 47.6174 94.2914 47.6174C97.799 47.6174 100.031 44.8496 100.031 40.4364C100.031 36.0233 97.799 33.2682 94.2659 33.2682ZM93.4878 45.1557C91.192 45.1557 89.7507 43.3446 89.7507 40.4492C89.7507 37.5411 91.192 35.7299 93.5006 35.7299C95.822 35.7299 97.2123 37.5028 97.2123 40.4364C97.2123 43.3828 95.822 45.1557 93.4878 45.1557Z" fill="white"/>
<path d="M66.7783 47.3878H69.9247L63.037 28.3113H59.851L52.9634 47.3878H56.004L57.7623 42.3246H65.0333L66.7783 47.3878ZM61.292 31.775H61.5167L64.2797 39.8392H58.5158L61.292 31.775Z" fill="white"/>
<path d="M54.8054 13.9215V23.1242H58.128C60.8703 23.1242 62.4583 21.4342 62.4583 18.4942C62.4583 15.5988 60.8576 13.9215 58.128 13.9215H54.8054ZM56.2339 15.2225H57.9686C59.8755 15.2225 61.0043 16.4343 61.0043 18.5133C61.0043 20.6242 59.8946 21.8232 57.9686 21.8232H56.2339V15.2225Z" fill="white"/>
<path d="M67.3217 23.2581C69.3498 23.2581 70.5934 21.8997 70.5934 19.6485C70.5934 17.41 69.3434 16.0452 67.3217 16.0452C65.2937 16.0452 64.0437 17.41 64.0437 19.6485C64.0437 21.8997 65.2873 23.2581 67.3217 23.2581ZM67.3217 22.04C66.1292 22.04 65.4595 21.1663 65.4595 19.6485C65.4595 18.1434 66.1292 17.2633 67.3217 17.2633C68.5079 17.2633 69.184 18.1434 69.184 19.6485C69.184 21.1599 68.5079 22.04 67.3217 22.04Z" fill="white"/>
<path d="M81.1837 16.1792H79.8126L78.5754 21.4788H78.4669L77.0384 16.1792H75.7246L74.2961 21.4788H74.1941L72.9505 16.1792H71.5602L73.4734 23.1242H74.8828L76.3114 18.0095H76.4198L77.8547 23.1242H79.2769L81.1837 16.1792Z" fill="white"/>
<path d="M82.7628 23.1242H84.1339V19.0618C84.1339 17.9776 84.778 17.3016 85.7921 17.3016C86.8061 17.3016 87.2908 17.8564 87.2908 18.9725V23.1242H88.6619V18.6281C88.6619 16.9763 87.8073 16.0452 86.2576 16.0452C85.2117 16.0452 84.5229 16.5108 84.1849 17.2825H84.0829V16.1792H82.7628V23.1242Z" fill="white"/>
<path d="M90.8213 23.1242H92.1924V13.4688H90.8213V23.1242Z" fill="white"/>
<path d="M97.3492 23.2581C99.3773 23.2581 100.621 21.8997 100.621 19.6485C100.621 17.41 99.3709 16.0452 97.3492 16.0452C95.3212 16.0452 94.0712 17.41 94.0712 19.6485C94.0712 21.8997 95.3148 23.2581 97.3492 23.2581ZM97.3492 22.04C96.1567 22.04 95.487 21.1663 95.487 19.6485C95.487 18.1434 96.1567 17.2633 97.3492 17.2633C98.5354 17.2633 99.2114 18.1434 99.2114 19.6485C99.2114 21.1599 98.5354 22.04 97.3492 22.04Z" fill="white"/>
<path d="M104.706 22.0847C103.96 22.0847 103.418 21.7211 103.418 21.0962C103.418 20.4839 103.852 20.1587 104.808 20.0949L106.505 19.9865V20.5668C106.505 21.4278 105.739 22.0847 104.706 22.0847ZM104.355 23.239C105.267 23.239 106.026 22.8436 106.441 22.1484H106.549V23.1242H107.869V18.3794C107.869 16.9126 106.887 16.0452 105.146 16.0452C103.571 16.0452 102.449 16.8105 102.308 18.0031H103.635C103.788 17.512 104.317 17.2314 105.083 17.2314C106.02 17.2314 106.505 17.646 106.505 18.3794V18.9788L104.623 19.0873C102.972 19.1893 102.04 19.91 102.04 21.1599C102.04 22.429 103.016 23.239 104.355 23.239Z" fill="white"/>
<path d="M112.522 23.239C113.479 23.239 114.289 22.7862 114.703 22.0273H114.812V23.1242H116.126V13.4688H114.755V17.2825H114.652C114.276 16.5172 113.473 16.0644 112.522 16.0644C110.769 16.0644 109.64 17.4546 109.64 19.6485C109.64 21.8487 110.756 23.239 112.522 23.239ZM112.911 17.2952C114.059 17.2952 114.78 18.2072 114.78 19.6549C114.78 21.1089 114.066 22.0081 112.911 22.0081C111.751 22.0081 111.056 21.1217 111.056 19.6485C111.056 18.188 111.757 17.2952 112.911 17.2952Z" fill="white"/>
<path d="M125.017 23.2581C127.045 23.2581 128.289 21.8997 128.289 19.6485C128.289 17.41 127.039 16.0452 125.017 16.0452C122.989 16.0452 121.739 17.41 121.739 19.6485C121.739 21.8997 122.983 23.2581 125.017 23.2581ZM125.017 22.04C123.824 22.04 123.155 21.1663 123.155 19.6485C123.155 18.1434 123.824 17.2633 125.017 17.2633C126.203 17.2633 126.879 18.1434 126.879 19.6485C126.879 21.1599 126.203 22.04 125.017 22.04Z" fill="white"/>
<path d="M130.104 23.1242H131.475V19.0618C131.475 17.9776 132.119 17.3016 133.133 17.3016C134.147 17.3016 134.632 17.8564 134.632 18.9725V23.1242H136.003V18.6281C136.003 16.9763 135.148 16.0452 133.599 16.0452C132.553 16.0452 131.864 16.5108 131.526 17.2825H131.424V16.1792H130.104V23.1242Z" fill="white"/>
<path d="M142.318 14.4509V16.211H141.214V17.3654H142.318V21.2875C142.318 22.6267 142.924 23.1624 144.448 23.1624C144.716 23.1624 144.971 23.1306 145.194 23.0923V21.9507C145.003 21.9699 144.881 21.9826 144.671 21.9826C143.989 21.9826 143.689 21.6637 143.689 20.9367V17.3654H145.194V16.211H143.689V14.4509H142.318Z" fill="white"/>
<path d="M147.035 23.1242H148.406V19.0681C148.406 18.0159 149.031 17.308 150.153 17.308C151.122 17.308 151.639 17.8692 151.639 18.9788V23.1242H153.01V18.6408C153.01 16.9891 152.098 16.0516 150.619 16.0516C149.573 16.0516 148.839 16.5172 148.501 17.2952H148.393V13.4688H147.035V23.1242Z" fill="white"/>
<path d="M157.956 17.2123C158.971 17.2123 159.634 17.9202 159.666 19.0107H156.158C156.235 17.9266 156.942 17.2123 157.956 17.2123ZM159.659 21.2492C159.404 21.7913 158.837 22.091 158.008 22.091C156.911 22.091 156.203 21.3194 156.158 20.1013V20.0247H161.062V19.5464C161.062 17.3654 159.895 16.0452 157.963 16.0452C156.005 16.0452 154.761 17.4546 154.761 19.674C154.761 21.8933 155.979 23.2581 157.969 23.2581C159.557 23.2581 160.667 22.4928 160.979 21.2492H159.659Z" fill="white"/>
<path d="M38.0841 31.7317C38.1174 29.1487 39.5045 26.7046 41.7051 25.3517C40.3169 23.369 37.9916 22.1119 35.5724 22.0363C32.9921 21.7654 30.4906 23.5803 29.1757 23.5803C27.8354 23.5803 25.811 22.0631 23.631 22.108C20.7894 22.1998 18.1404 23.8153 16.7579 26.2996C13.7862 31.4447 16.0029 39.0063 18.8495 43.1653C20.2738 45.2018 21.9384 47.4766 24.1164 47.396C26.2477 47.3076 27.0437 46.0369 29.6164 46.0369C32.1653 46.0369 32.9121 47.396 35.1343 47.3447C37.4213 47.3076 38.8623 45.2991 40.2366 43.2433C41.2599 41.7922 42.0473 40.1885 42.5698 38.4914C39.8821 37.3547 38.0872 34.6499 38.0841 31.7317Z" fill="white"/>
<path d="M33.8867 19.3011C35.1336 17.8042 35.748 15.8801 35.5992 13.9375C33.6941 14.1376 31.9343 15.0481 30.6705 16.4876C29.4346 17.8941 28.7915 19.7843 28.9131 21.6527C30.8189 21.6723 32.6924 20.7865 33.8867 19.3011Z" fill="white"/>
<path d="M6.66433 61.1818L7.25236 59.7621L6.66433 61.1818ZM0.843173 55.3606L-0.576446 55.9486L0.843173 55.3606ZM183.596 55.3606L185.016 55.9486L183.596 55.3606ZM177.775 61.1818L177.187 59.7621L177.775 61.1818ZM177.775 1.35587L178.363 -0.0637512L177.775 1.35587ZM183.596 7.17703L182.176 7.76505L183.596 7.17703ZM6.66433 1.35587L6.07631 -0.0637512L6.66433 1.35587ZM0.843173 7.17703L-0.576446 6.589L0.843173 7.17703ZM16.1586 2.07369H168.281V-0.999476H16.1586V2.07369ZM182.878 16.6713V45.8664H185.951V16.6713H182.878ZM168.281 60.4639H16.1586V63.5371H168.281V60.4639ZM1.561 45.8664V16.6713H-1.51217V45.8664H1.561ZM16.1586 60.4639C13.6317 60.4639 11.8135 60.4631 10.3779 60.3652C8.95612 60.2682 8.02225 60.081 7.25236 59.7621L6.07631 62.6014C7.28307 63.1012 8.59046 63.3235 10.1687 63.4312C11.7332 63.5379 13.6737 63.5371 16.1586 63.5371V60.4639ZM-1.51217 45.8664C-1.51217 48.3512 -1.513 50.2918 -1.40626 51.8562C-1.29858 53.4345 -1.07631 54.7419 -0.576446 55.9486L2.26279 54.7726C1.94389 54.0027 1.75679 53.0688 1.65978 51.647C1.56183 50.2115 1.561 48.3933 1.561 45.8664H-1.51217ZM7.25236 59.7621C4.99332 58.8264 3.19852 57.0316 2.26279 54.7726L-0.576446 55.9486C0.671187 58.9607 3.06425 61.3537 6.07631 62.6014L7.25236 59.7621ZM182.878 45.8664C182.878 48.3932 182.877 50.2115 182.779 51.647C182.682 53.0688 182.495 54.0027 182.176 54.7726L185.016 55.9486C185.515 54.7419 185.738 53.4345 185.845 51.8562C185.952 50.2918 185.951 48.3512 185.951 45.8664H182.878ZM168.281 63.5371C170.765 63.5371 172.706 63.5379 174.27 63.4312C175.849 63.3235 177.156 63.1012 178.363 62.6014L177.187 59.7621C176.417 60.081 175.483 60.2682 174.061 60.3652C172.626 60.4631 170.807 60.4639 168.281 60.4639V63.5371ZM182.176 54.7726C181.241 57.0316 179.446 58.8264 177.187 59.7621L178.363 62.6014C181.375 61.3537 183.768 58.9607 185.016 55.9486L182.176 54.7726ZM168.281 2.07369C170.807 2.07369 172.626 2.07453 174.061 2.17248C175.483 2.26948 176.417 2.45659 177.187 2.77549L178.363 -0.0637512C177.156 -0.56361 175.849 -0.785884 174.27 -0.893567C172.706 -1.00031 170.765 -0.999476 168.281 -0.999476V2.07369ZM185.951 16.6713C185.951 14.1864 185.952 12.2458 185.845 10.6814C185.738 9.10315 185.515 7.79577 185.016 6.589L182.176 7.76505C182.495 8.53495 182.682 9.46882 182.779 10.8906C182.877 12.3262 182.878 14.1444 182.878 16.6713H185.951ZM177.187 2.77549C179.446 3.71121 181.241 5.50601 182.176 7.76505L185.016 6.589C183.768 3.57695 181.375 1.18388 178.363 -0.0637512L177.187 2.77549ZM16.1586 -0.999476C13.6737 -0.999476 11.7331 -1.00031 10.1687 -0.893567C8.59046 -0.785884 7.28307 -0.56361 6.07631 -0.0637512L7.25236 2.77549C8.02225 2.45659 8.95612 2.26948 10.3779 2.17248C11.8135 2.07453 13.6317 2.07369 16.1586 2.07369V-0.999476ZM1.561 16.6713C1.561 14.1444 1.56183 12.3262 1.65978 10.8906C1.75679 9.46882 1.94389 8.53495 2.26279 7.76505L-0.576446 6.589C-1.07631 7.79577 -1.29858 9.10315 -1.40626 10.6814C-1.513 12.2458 -1.51217 14.1864 -1.51217 16.6713H1.561ZM6.07631 -0.0637512C3.06425 1.18388 0.671187 3.57695 -0.576446 6.589L2.26279 7.76505C3.19852 5.50601 4.99332 3.71121 7.25236 2.77549L6.07631 -0.0637512Z" fill="#A6A6A6"/>
</svg>
