<svg width="624" height="249" viewBox="0 0 624 249" fill="none" xmlns="http://www.w3.org/2000/svg">
<ellipse cx="2.70237" cy="2.53469" rx="2.70237" ry="2.53469" fill="#9FA0E8"/>
<ellipse cx="2.70237" cy="22.812" rx="2.70237" ry="2.53469" fill="#9FA0E8"/>
<ellipse cx="2.70237" cy="43.0899" rx="2.70237" ry="2.53469" fill="#9FA0E8"/>
<ellipse cx="2.70237" cy="63.3677" rx="2.70237" ry="2.53469" fill="#9FA0E8"/>
<ellipse cx="2.70237" cy="83.645" rx="2.70237" ry="2.53469" fill="#9FA0E8"/>
<ellipse cx="2.70237" cy="103.922" rx="2.70237" ry="2.5347" fill="#9FA0E8"/>
<ellipse cx="2.70237" cy="124.2" rx="2.70237" ry="2.5347" fill="#9FA0E8"/>
<ellipse cx="2.70237" cy="144.478" rx="2.70237" ry="2.53468" fill="#9FA0E8"/>
<ellipse cx="2.70237" cy="164.755" rx="2.70237" ry="2.53468" fill="#9FA0E8"/>
<ellipse cx="2.70237" cy="185.033" rx="2.70237" ry="2.5347" fill="#9FA0E8"/>
<ellipse cx="2.70237" cy="205.31" rx="2.70237" ry="2.53468" fill="#9FA0E8"/>
<ellipse cx="2.70237" cy="225.587" rx="2.70237" ry="2.53468" fill="#9FA0E8"/>
<ellipse cx="2.70237" cy="245.865" rx="2.70237" ry="2.53468" fill="#9FA0E8"/>
<ellipse cx="29.7253" cy="2.53469" rx="2.70237" ry="2.53469" fill="#9FA0E8"/>
<ellipse cx="29.7253" cy="22.812" rx="2.70237" ry="2.53469" fill="#9FA0E8"/>
<ellipse cx="29.7253" cy="43.0899" rx="2.70237" ry="2.53469" fill="#9FA0E8"/>
<ellipse cx="29.7253" cy="63.3677" rx="2.70237" ry="2.53469" fill="#9FA0E8"/>
<ellipse cx="29.7253" cy="83.645" rx="2.70237" ry="2.53469" fill="#9FA0E8"/>
<ellipse cx="29.7253" cy="103.922" rx="2.70237" ry="2.5347" fill="#9FA0E8"/>
<ellipse cx="29.7253" cy="124.2" rx="2.70237" ry="2.5347" fill="#9FA0E8"/>
<ellipse cx="29.7253" cy="144.478" rx="2.70237" ry="2.53468" fill="#9FA0E8"/>
<ellipse cx="29.7253" cy="164.755" rx="2.70237" ry="2.53468" fill="#9FA0E8"/>
<ellipse cx="29.7253" cy="185.033" rx="2.70237" ry="2.5347" fill="#9FA0E8"/>
<ellipse cx="29.7253" cy="205.31" rx="2.70237" ry="2.53468" fill="#9FA0E8"/>
<ellipse cx="29.7253" cy="225.587" rx="2.70237" ry="2.53468" fill="#9FA0E8"/>
<ellipse cx="29.7253" cy="245.865" rx="2.70237" ry="2.53468" fill="#9FA0E8"/>
<ellipse cx="56.7502" cy="2.53469" rx="2.70237" ry="2.53469" fill="#9FA0E8"/>
<ellipse cx="56.7502" cy="22.812" rx="2.70237" ry="2.53469" fill="#9FA0E8"/>
<ellipse cx="56.7502" cy="43.0899" rx="2.70237" ry="2.53469" fill="#9FA0E8"/>
<ellipse cx="56.7502" cy="63.3677" rx="2.70237" ry="2.53469" fill="#9FA0E8"/>
<ellipse cx="56.7502" cy="83.645" rx="2.70237" ry="2.53469" fill="#9FA0E8"/>
<ellipse cx="56.7502" cy="103.922" rx="2.70237" ry="2.5347" fill="#9FA0E8"/>
<ellipse cx="56.7502" cy="124.2" rx="2.70237" ry="2.5347" fill="#9FA0E8"/>
<ellipse cx="56.7502" cy="144.478" rx="2.70237" ry="2.53468" fill="#9FA0E8"/>
<ellipse cx="56.7502" cy="164.755" rx="2.70237" ry="2.53468" fill="#9FA0E8"/>
<ellipse cx="56.7502" cy="185.033" rx="2.70237" ry="2.5347" fill="#9FA0E8"/>
<ellipse cx="56.7502" cy="205.31" rx="2.70237" ry="2.53468" fill="#9FA0E8"/>
<ellipse cx="56.7502" cy="225.587" rx="2.70237" ry="2.53468" fill="#9FA0E8"/>
<ellipse cx="56.7502" cy="245.865" rx="2.70237" ry="2.53468" fill="#9FA0E8"/>
<ellipse cx="83.7732" cy="2.53469" rx="2.70239" ry="2.53469" fill="#9FA0E8"/>
<ellipse cx="83.7732" cy="22.812" rx="2.70239" ry="2.53469" fill="#9FA0E8"/>
<ellipse cx="83.7732" cy="43.0899" rx="2.70239" ry="2.53469" fill="#9FA0E8"/>
<ellipse cx="83.7732" cy="63.3677" rx="2.70239" ry="2.53469" fill="#9FA0E8"/>
<ellipse cx="83.7732" cy="83.645" rx="2.70239" ry="2.53469" fill="#9FA0E8"/>
<ellipse cx="83.7732" cy="103.922" rx="2.70239" ry="2.5347" fill="#9FA0E8"/>
<ellipse cx="83.7732" cy="124.2" rx="2.70239" ry="2.5347" fill="#9FA0E8"/>
<ellipse cx="83.7732" cy="144.478" rx="2.70239" ry="2.53468" fill="#9FA0E8"/>
<ellipse cx="83.7732" cy="164.755" rx="2.70239" ry="2.53468" fill="#9FA0E8"/>
<ellipse cx="83.7732" cy="185.033" rx="2.70239" ry="2.5347" fill="#9FA0E8"/>
<ellipse cx="83.7732" cy="205.31" rx="2.70239" ry="2.53468" fill="#9FA0E8"/>
<ellipse cx="83.7732" cy="225.587" rx="2.70239" ry="2.53468" fill="#9FA0E8"/>
<ellipse cx="83.7732" cy="245.865" rx="2.70239" ry="2.53468" fill="#9FA0E8"/>
<ellipse cx="110.798" cy="2.53469" rx="2.70239" ry="2.53469" fill="#9FA0E8"/>
<ellipse cx="110.798" cy="22.812" rx="2.70239" ry="2.53469" fill="#9FA0E8"/>
<ellipse cx="110.798" cy="43.0899" rx="2.70239" ry="2.53469" fill="#9FA0E8"/>
<ellipse cx="110.798" cy="63.3677" rx="2.70239" ry="2.53469" fill="#9FA0E8"/>
<ellipse cx="110.798" cy="83.645" rx="2.70239" ry="2.53469" fill="#9FA0E8"/>
<ellipse cx="110.798" cy="103.922" rx="2.70239" ry="2.5347" fill="#9FA0E8"/>
<ellipse cx="110.798" cy="124.2" rx="2.70239" ry="2.5347" fill="#9FA0E8"/>
<ellipse cx="110.798" cy="144.478" rx="2.70239" ry="2.53468" fill="#9FA0E8"/>
<ellipse cx="110.798" cy="164.755" rx="2.70239" ry="2.53468" fill="#9FA0E8"/>
<ellipse cx="110.798" cy="185.033" rx="2.70239" ry="2.5347" fill="#9FA0E8"/>
<ellipse cx="110.798" cy="205.31" rx="2.70239" ry="2.53468" fill="#9FA0E8"/>
<ellipse cx="110.798" cy="225.587" rx="2.70239" ry="2.53468" fill="#9FA0E8"/>
<ellipse cx="110.798" cy="245.865" rx="2.70239" ry="2.53468" fill="#9FA0E8"/>
<ellipse cx="137.821" cy="2.53469" rx="2.70238" ry="2.53469" fill="#9FA0E8"/>
<ellipse cx="137.821" cy="22.812" rx="2.70238" ry="2.53469" fill="#9FA0E8"/>
<ellipse cx="137.821" cy="43.0899" rx="2.70238" ry="2.53469" fill="#9FA0E8"/>
<ellipse cx="137.821" cy="63.3677" rx="2.70238" ry="2.53469" fill="#9FA0E8"/>
<ellipse cx="137.821" cy="83.645" rx="2.70238" ry="2.53469" fill="#9FA0E8"/>
<ellipse cx="137.821" cy="103.922" rx="2.70238" ry="2.5347" fill="#9FA0E8"/>
<ellipse cx="137.821" cy="124.2" rx="2.70238" ry="2.5347" fill="#9FA0E8"/>
<ellipse cx="137.821" cy="144.478" rx="2.70238" ry="2.53468" fill="#9FA0E8"/>
<ellipse cx="137.821" cy="164.755" rx="2.70238" ry="2.53468" fill="#9FA0E8"/>
<ellipse cx="137.821" cy="185.033" rx="2.70238" ry="2.5347" fill="#9FA0E8"/>
<ellipse cx="137.821" cy="205.31" rx="2.70238" ry="2.53468" fill="#9FA0E8"/>
<ellipse cx="137.821" cy="225.587" rx="2.70238" ry="2.53468" fill="#9FA0E8"/>
<ellipse cx="137.821" cy="245.865" rx="2.70238" ry="2.53468" fill="#9FA0E8"/>
<ellipse cx="164.846" cy="2.53469" rx="2.70237" ry="2.53469" fill="#9FA0E8"/>
<ellipse cx="164.846" cy="22.812" rx="2.70237" ry="2.53469" fill="#9FA0E8"/>
<ellipse cx="164.846" cy="43.0899" rx="2.70237" ry="2.53469" fill="#9FA0E8"/>
<ellipse cx="164.846" cy="63.3677" rx="2.70237" ry="2.53469" fill="#9FA0E8"/>
<ellipse cx="164.846" cy="83.645" rx="2.70237" ry="2.53469" fill="#9FA0E8"/>
<ellipse cx="164.846" cy="103.922" rx="2.70237" ry="2.5347" fill="#9FA0E8"/>
<ellipse cx="164.846" cy="124.2" rx="2.70237" ry="2.5347" fill="#9FA0E8"/>
<ellipse cx="164.846" cy="144.478" rx="2.70237" ry="2.53468" fill="#9FA0E8"/>
<ellipse cx="164.846" cy="164.755" rx="2.70237" ry="2.53468" fill="#9FA0E8"/>
<ellipse cx="164.846" cy="185.033" rx="2.70237" ry="2.5347" fill="#9FA0E8"/>
<ellipse cx="164.846" cy="205.31" rx="2.70237" ry="2.53468" fill="#9FA0E8"/>
<ellipse cx="164.846" cy="225.587" rx="2.70237" ry="2.53468" fill="#9FA0E8"/>
<ellipse cx="164.846" cy="245.865" rx="2.70237" ry="2.53468" fill="#9FA0E8"/>
<ellipse cx="191.868" cy="2.53469" rx="2.70238" ry="2.53469" fill="#9FA0E8"/>
<ellipse cx="191.868" cy="22.812" rx="2.70238" ry="2.53469" fill="#9FA0E8"/>
<ellipse cx="191.868" cy="43.0899" rx="2.70238" ry="2.53469" fill="#9FA0E8"/>
<ellipse cx="191.868" cy="63.3677" rx="2.70238" ry="2.53469" fill="#9FA0E8"/>
<ellipse cx="191.868" cy="83.645" rx="2.70238" ry="2.53469" fill="#9FA0E8"/>
<ellipse cx="191.868" cy="103.922" rx="2.70238" ry="2.5347" fill="#9FA0E8"/>
<ellipse cx="191.868" cy="124.2" rx="2.70238" ry="2.5347" fill="#9FA0E8"/>
<ellipse cx="191.868" cy="144.478" rx="2.70238" ry="2.53468" fill="#9FA0E8"/>
<ellipse cx="191.868" cy="164.755" rx="2.70238" ry="2.53468" fill="#9FA0E8"/>
<ellipse cx="191.868" cy="185.033" rx="2.70238" ry="2.5347" fill="#9FA0E8"/>
<ellipse cx="191.868" cy="205.31" rx="2.70238" ry="2.53468" fill="#9FA0E8"/>
<ellipse cx="191.868" cy="225.587" rx="2.70238" ry="2.53468" fill="#9FA0E8"/>
<ellipse cx="191.868" cy="245.865" rx="2.70238" ry="2.53468" fill="#9FA0E8"/>
<ellipse cx="218.893" cy="2.53469" rx="2.70238" ry="2.53469" fill="#9FA0E8"/>
<ellipse cx="218.893" cy="22.812" rx="2.70238" ry="2.53469" fill="#9FA0E8"/>
<ellipse cx="218.893" cy="43.0899" rx="2.70238" ry="2.53469" fill="#9FA0E8"/>
<ellipse cx="218.893" cy="63.3677" rx="2.70238" ry="2.53469" fill="#9FA0E8"/>
<ellipse cx="218.893" cy="83.645" rx="2.70238" ry="2.53469" fill="#9FA0E8"/>
<ellipse cx="218.893" cy="103.922" rx="2.70238" ry="2.5347" fill="#9FA0E8"/>
<ellipse cx="218.893" cy="124.2" rx="2.70238" ry="2.5347" fill="#9FA0E8"/>
<ellipse cx="218.893" cy="144.478" rx="2.70238" ry="2.53468" fill="#9FA0E8"/>
<ellipse cx="218.893" cy="164.755" rx="2.70238" ry="2.53468" fill="#9FA0E8"/>
<ellipse cx="218.893" cy="185.033" rx="2.70238" ry="2.5347" fill="#9FA0E8"/>
<ellipse cx="218.893" cy="205.31" rx="2.70238" ry="2.53468" fill="#9FA0E8"/>
<ellipse cx="218.893" cy="225.587" rx="2.70238" ry="2.53468" fill="#9FA0E8"/>
<ellipse cx="218.893" cy="245.865" rx="2.70238" ry="2.53468" fill="#9FA0E8"/>
<ellipse cx="245.916" cy="2.53469" rx="2.70239" ry="2.53469" fill="#9FA0E8"/>
<ellipse cx="245.916" cy="22.812" rx="2.70239" ry="2.53469" fill="#9FA0E8"/>
<ellipse cx="245.916" cy="43.0899" rx="2.70239" ry="2.53469" fill="#9FA0E8"/>
<ellipse cx="245.916" cy="63.3677" rx="2.70239" ry="2.53469" fill="#9FA0E8"/>
<ellipse cx="245.916" cy="83.645" rx="2.70239" ry="2.53469" fill="#9FA0E8"/>
<ellipse cx="245.916" cy="103.922" rx="2.70239" ry="2.5347" fill="#9FA0E8"/>
<ellipse cx="245.916" cy="124.2" rx="2.70239" ry="2.5347" fill="#9FA0E8"/>
<ellipse cx="245.916" cy="144.478" rx="2.70239" ry="2.53468" fill="#9FA0E8"/>
<ellipse cx="245.916" cy="164.755" rx="2.70239" ry="2.53468" fill="#9FA0E8"/>
<ellipse cx="245.916" cy="185.033" rx="2.70239" ry="2.5347" fill="#9FA0E8"/>
<ellipse cx="245.916" cy="205.31" rx="2.70239" ry="2.53468" fill="#9FA0E8"/>
<ellipse cx="245.916" cy="225.587" rx="2.70239" ry="2.53468" fill="#9FA0E8"/>
<ellipse cx="245.916" cy="245.865" rx="2.70239" ry="2.53468" fill="#9FA0E8"/>
<ellipse cx="272.941" cy="2.53469" rx="2.70238" ry="2.53469" fill="#9FA0E8"/>
<ellipse cx="272.941" cy="22.812" rx="2.70238" ry="2.53469" fill="#9FA0E8"/>
<ellipse cx="272.941" cy="43.0899" rx="2.70238" ry="2.53469" fill="#9FA0E8"/>
<ellipse cx="272.941" cy="63.3677" rx="2.70238" ry="2.53469" fill="#9FA0E8"/>
<ellipse cx="272.941" cy="83.645" rx="2.70238" ry="2.53469" fill="#9FA0E8"/>
<ellipse cx="272.941" cy="103.922" rx="2.70238" ry="2.5347" fill="#9FA0E8"/>
<ellipse cx="272.941" cy="124.2" rx="2.70238" ry="2.5347" fill="#9FA0E8"/>
<ellipse cx="272.941" cy="144.478" rx="2.70238" ry="2.53468" fill="#9FA0E8"/>
<ellipse cx="272.941" cy="164.755" rx="2.70238" ry="2.53468" fill="#9FA0E8"/>
<ellipse cx="272.941" cy="185.033" rx="2.70238" ry="2.5347" fill="#9FA0E8"/>
<ellipse cx="272.941" cy="205.31" rx="2.70238" ry="2.53468" fill="#9FA0E8"/>
<ellipse cx="272.941" cy="225.587" rx="2.70238" ry="2.53468" fill="#9FA0E8"/>
<ellipse cx="272.941" cy="245.865" rx="2.70238" ry="2.53468" fill="#9FA0E8"/>
<ellipse cx="299.964" cy="2.53469" rx="2.70238" ry="2.53469" fill="#9FA0E8"/>
<ellipse cx="299.964" cy="22.812" rx="2.70238" ry="2.53469" fill="#9FA0E8"/>
<ellipse cx="299.964" cy="43.0899" rx="2.70238" ry="2.53469" fill="#9FA0E8"/>
<ellipse cx="299.964" cy="63.3677" rx="2.70238" ry="2.53469" fill="#9FA0E8"/>
<ellipse cx="299.964" cy="83.645" rx="2.70238" ry="2.53469" fill="#9FA0E8"/>
<ellipse cx="299.964" cy="103.922" rx="2.70238" ry="2.5347" fill="#9FA0E8"/>
<ellipse cx="299.964" cy="124.2" rx="2.70238" ry="2.5347" fill="#9FA0E8"/>
<ellipse cx="299.964" cy="144.478" rx="2.70238" ry="2.53468" fill="#9FA0E8"/>
<ellipse cx="299.964" cy="164.755" rx="2.70238" ry="2.53468" fill="#9FA0E8"/>
<ellipse cx="299.964" cy="185.033" rx="2.70238" ry="2.5347" fill="#9FA0E8"/>
<ellipse cx="299.964" cy="205.31" rx="2.70238" ry="2.53468" fill="#9FA0E8"/>
<ellipse cx="299.964" cy="225.587" rx="2.70238" ry="2.53468" fill="#9FA0E8"/>
<ellipse cx="299.964" cy="245.865" rx="2.70238" ry="2.53468" fill="#9FA0E8"/>
<ellipse cx="326.989" cy="2.53469" rx="2.70238" ry="2.53469" fill="#9FA0E8"/>
<ellipse cx="326.989" cy="22.812" rx="2.70238" ry="2.53469" fill="#9FA0E8"/>
<ellipse cx="326.989" cy="43.0899" rx="2.70238" ry="2.53469" fill="#9FA0E8"/>
<ellipse cx="326.989" cy="63.3677" rx="2.70238" ry="2.53469" fill="#9FA0E8"/>
<ellipse cx="326.989" cy="83.645" rx="2.70238" ry="2.53469" fill="#9FA0E8"/>
<ellipse cx="326.989" cy="103.922" rx="2.70238" ry="2.5347" fill="#9FA0E8"/>
<ellipse cx="326.989" cy="124.2" rx="2.70238" ry="2.5347" fill="#9FA0E8"/>
<ellipse cx="326.989" cy="144.478" rx="2.70238" ry="2.53468" fill="#9FA0E8"/>
<ellipse cx="326.989" cy="164.755" rx="2.70238" ry="2.53468" fill="#9FA0E8"/>
<ellipse cx="326.989" cy="185.033" rx="2.70238" ry="2.5347" fill="#9FA0E8"/>
<ellipse cx="326.989" cy="205.31" rx="2.70238" ry="2.53468" fill="#9FA0E8"/>
<ellipse cx="326.989" cy="225.587" rx="2.70238" ry="2.53468" fill="#9FA0E8"/>
<ellipse cx="326.989" cy="245.865" rx="2.70238" ry="2.53468" fill="#9FA0E8"/>
<ellipse cx="354.012" cy="2.53469" rx="2.70238" ry="2.53469" fill="#9FA0E8"/>
<ellipse cx="354.012" cy="22.812" rx="2.70238" ry="2.53469" fill="#9FA0E8"/>
<ellipse cx="354.012" cy="43.0899" rx="2.70238" ry="2.53469" fill="#9FA0E8"/>
<ellipse cx="354.012" cy="63.3677" rx="2.70238" ry="2.53469" fill="#9FA0E8"/>
<ellipse cx="354.012" cy="83.645" rx="2.70238" ry="2.53469" fill="#9FA0E8"/>
<ellipse cx="354.012" cy="103.922" rx="2.70238" ry="2.5347" fill="#9FA0E8"/>
<ellipse cx="354.012" cy="124.2" rx="2.70238" ry="2.5347" fill="#9FA0E8"/>
<ellipse cx="354.012" cy="144.478" rx="2.70238" ry="2.53468" fill="#9FA0E8"/>
<ellipse cx="354.012" cy="164.755" rx="2.70238" ry="2.53468" fill="#9FA0E8"/>
<ellipse cx="354.012" cy="185.033" rx="2.70238" ry="2.5347" fill="#9FA0E8"/>
<ellipse cx="354.012" cy="205.31" rx="2.70238" ry="2.53468" fill="#9FA0E8"/>
<ellipse cx="354.012" cy="225.587" rx="2.70238" ry="2.53468" fill="#9FA0E8"/>
<ellipse cx="354.012" cy="245.865" rx="2.70238" ry="2.53468" fill="#9FA0E8"/>
<ellipse cx="381.035" cy="2.53469" rx="2.70238" ry="2.53469" fill="#9FA0E8"/>
<ellipse cx="381.035" cy="22.812" rx="2.70238" ry="2.53469" fill="#9FA0E8"/>
<ellipse cx="381.035" cy="43.0899" rx="2.70238" ry="2.53469" fill="#9FA0E8"/>
<ellipse cx="381.035" cy="63.3677" rx="2.70238" ry="2.53469" fill="#9FA0E8"/>
<ellipse cx="381.035" cy="83.645" rx="2.70238" ry="2.53469" fill="#9FA0E8"/>
<ellipse cx="381.035" cy="103.922" rx="2.70238" ry="2.5347" fill="#9FA0E8"/>
<ellipse cx="381.035" cy="124.2" rx="2.70238" ry="2.5347" fill="#9FA0E8"/>
<ellipse cx="381.035" cy="144.478" rx="2.70238" ry="2.53468" fill="#9FA0E8"/>
<ellipse cx="381.035" cy="164.755" rx="2.70238" ry="2.53468" fill="#9FA0E8"/>
<ellipse cx="381.035" cy="185.033" rx="2.70238" ry="2.5347" fill="#9FA0E8"/>
<ellipse cx="381.035" cy="205.31" rx="2.70238" ry="2.53468" fill="#9FA0E8"/>
<ellipse cx="381.035" cy="225.587" rx="2.70238" ry="2.53468" fill="#9FA0E8"/>
<ellipse cx="381.035" cy="245.865" rx="2.70238" ry="2.53468" fill="#9FA0E8"/>
<ellipse cx="408.06" cy="2.53469" rx="2.70238" ry="2.53469" fill="#9FA0E8"/>
<ellipse cx="408.06" cy="22.812" rx="2.70238" ry="2.53469" fill="#9FA0E8"/>
<ellipse cx="408.06" cy="43.0899" rx="2.70238" ry="2.53469" fill="#9FA0E8"/>
<ellipse cx="408.06" cy="63.3677" rx="2.70238" ry="2.53469" fill="#9FA0E8"/>
<ellipse cx="408.06" cy="83.645" rx="2.70238" ry="2.53469" fill="#9FA0E8"/>
<ellipse cx="408.06" cy="103.922" rx="2.70238" ry="2.5347" fill="#9FA0E8"/>
<ellipse cx="408.06" cy="124.2" rx="2.70238" ry="2.5347" fill="#9FA0E8"/>
<ellipse cx="408.06" cy="144.478" rx="2.70238" ry="2.53468" fill="#9FA0E8"/>
<ellipse cx="408.06" cy="164.755" rx="2.70238" ry="2.53468" fill="#9FA0E8"/>
<ellipse cx="408.06" cy="185.033" rx="2.70238" ry="2.5347" fill="#9FA0E8"/>
<ellipse cx="408.06" cy="205.31" rx="2.70238" ry="2.53468" fill="#9FA0E8"/>
<ellipse cx="408.06" cy="225.587" rx="2.70238" ry="2.53468" fill="#9FA0E8"/>
<ellipse cx="408.06" cy="245.865" rx="2.70238" ry="2.53468" fill="#9FA0E8"/>
<ellipse cx="435.083" cy="2.53469" rx="2.70239" ry="2.53469" fill="#9FA0E8"/>
<ellipse cx="435.083" cy="22.812" rx="2.70239" ry="2.53469" fill="#9FA0E8"/>
<ellipse cx="435.083" cy="43.0899" rx="2.70239" ry="2.53469" fill="#9FA0E8"/>
<ellipse cx="435.083" cy="63.3677" rx="2.70239" ry="2.53469" fill="#9FA0E8"/>
<ellipse cx="435.083" cy="83.645" rx="2.70239" ry="2.53469" fill="#9FA0E8"/>
<ellipse cx="435.083" cy="103.922" rx="2.70239" ry="2.5347" fill="#9FA0E8"/>
<ellipse cx="435.083" cy="124.2" rx="2.70239" ry="2.5347" fill="#9FA0E8"/>
<ellipse cx="435.083" cy="144.478" rx="2.70239" ry="2.53468" fill="#9FA0E8"/>
<ellipse cx="435.083" cy="164.755" rx="2.70239" ry="2.53468" fill="#9FA0E8"/>
<ellipse cx="435.083" cy="185.033" rx="2.70239" ry="2.5347" fill="#9FA0E8"/>
<ellipse cx="435.083" cy="205.31" rx="2.70239" ry="2.53468" fill="#9FA0E8"/>
<ellipse cx="435.083" cy="225.587" rx="2.70239" ry="2.53468" fill="#9FA0E8"/>
<ellipse cx="435.083" cy="245.865" rx="2.70239" ry="2.53468" fill="#9FA0E8"/>
<ellipse cx="462.108" cy="2.53469" rx="2.70239" ry="2.53469" fill="#9FA0E8"/>
<ellipse cx="462.108" cy="22.812" rx="2.70239" ry="2.53469" fill="#9FA0E8"/>
<ellipse cx="462.108" cy="43.0899" rx="2.70239" ry="2.53469" fill="#9FA0E8"/>
<ellipse cx="462.108" cy="63.3677" rx="2.70239" ry="2.53469" fill="#9FA0E8"/>
<ellipse cx="462.108" cy="83.645" rx="2.70239" ry="2.53469" fill="#9FA0E8"/>
<ellipse cx="462.108" cy="103.922" rx="2.70239" ry="2.5347" fill="#9FA0E8"/>
<ellipse cx="462.108" cy="124.2" rx="2.70239" ry="2.5347" fill="#9FA0E8"/>
<ellipse cx="462.108" cy="144.478" rx="2.70239" ry="2.53468" fill="#9FA0E8"/>
<ellipse cx="462.108" cy="164.755" rx="2.70239" ry="2.53468" fill="#9FA0E8"/>
<ellipse cx="462.108" cy="185.033" rx="2.70239" ry="2.5347" fill="#9FA0E8"/>
<ellipse cx="462.108" cy="205.31" rx="2.70239" ry="2.53468" fill="#9FA0E8"/>
<ellipse cx="462.108" cy="225.587" rx="2.70239" ry="2.53468" fill="#9FA0E8"/>
<ellipse cx="462.108" cy="245.865" rx="2.70239" ry="2.53468" fill="#9FA0E8"/>
<ellipse cx="489.13" cy="2.53469" rx="2.70239" ry="2.53469" fill="#9FA0E8"/>
<ellipse cx="489.13" cy="22.812" rx="2.70239" ry="2.53469" fill="#9FA0E8"/>
<ellipse cx="489.13" cy="43.0899" rx="2.70239" ry="2.53469" fill="#9FA0E8"/>
<ellipse cx="489.13" cy="63.3677" rx="2.70239" ry="2.53469" fill="#9FA0E8"/>
<ellipse cx="489.13" cy="83.645" rx="2.70239" ry="2.53469" fill="#9FA0E8"/>
<ellipse cx="489.13" cy="103.922" rx="2.70239" ry="2.5347" fill="#9FA0E8"/>
<ellipse cx="489.13" cy="124.2" rx="2.70239" ry="2.5347" fill="#9FA0E8"/>
<ellipse cx="489.13" cy="144.478" rx="2.70239" ry="2.53468" fill="#9FA0E8"/>
<ellipse cx="489.13" cy="164.755" rx="2.70239" ry="2.53468" fill="#9FA0E8"/>
<ellipse cx="489.13" cy="185.033" rx="2.70239" ry="2.5347" fill="#9FA0E8"/>
<ellipse cx="489.13" cy="205.31" rx="2.70239" ry="2.53468" fill="#9FA0E8"/>
<ellipse cx="489.13" cy="225.587" rx="2.70239" ry="2.53468" fill="#9FA0E8"/>
<ellipse cx="489.13" cy="245.865" rx="2.70239" ry="2.53468" fill="#9FA0E8"/>
<ellipse cx="516.156" cy="2.53469" rx="2.70237" ry="2.53469" fill="#9FA0E8"/>
<ellipse cx="516.156" cy="22.812" rx="2.70237" ry="2.53469" fill="#9FA0E8"/>
<ellipse cx="516.156" cy="43.0899" rx="2.70237" ry="2.53469" fill="#9FA0E8"/>
<ellipse cx="516.156" cy="63.3677" rx="2.70237" ry="2.53469" fill="#9FA0E8"/>
<ellipse cx="516.156" cy="83.645" rx="2.70237" ry="2.53469" fill="#9FA0E8"/>
<ellipse cx="516.156" cy="103.922" rx="2.70237" ry="2.5347" fill="#9FA0E8"/>
<ellipse cx="516.156" cy="124.2" rx="2.70237" ry="2.5347" fill="#9FA0E8"/>
<ellipse cx="516.156" cy="144.478" rx="2.70237" ry="2.53468" fill="#9FA0E8"/>
<ellipse cx="516.156" cy="164.755" rx="2.70237" ry="2.53468" fill="#9FA0E8"/>
<ellipse cx="516.156" cy="185.033" rx="2.70237" ry="2.5347" fill="#9FA0E8"/>
<ellipse cx="516.156" cy="205.31" rx="2.70237" ry="2.53468" fill="#9FA0E8"/>
<ellipse cx="516.156" cy="225.587" rx="2.70237" ry="2.53468" fill="#9FA0E8"/>
<ellipse cx="516.156" cy="245.865" rx="2.70237" ry="2.53468" fill="#9FA0E8"/>
<ellipse cx="543.178" cy="2.53469" rx="2.70238" ry="2.53469" fill="#9FA0E8"/>
<ellipse cx="543.178" cy="22.812" rx="2.70238" ry="2.53469" fill="#9FA0E8"/>
<ellipse cx="543.178" cy="43.0899" rx="2.70238" ry="2.53469" fill="#9FA0E8"/>
<ellipse cx="543.178" cy="63.3677" rx="2.70238" ry="2.53469" fill="#9FA0E8"/>
<ellipse cx="543.178" cy="83.645" rx="2.70238" ry="2.53469" fill="#9FA0E8"/>
<ellipse cx="543.178" cy="103.922" rx="2.70238" ry="2.5347" fill="#9FA0E8"/>
<ellipse cx="543.178" cy="124.2" rx="2.70238" ry="2.5347" fill="#9FA0E8"/>
<ellipse cx="543.178" cy="144.478" rx="2.70238" ry="2.53468" fill="#9FA0E8"/>
<ellipse cx="543.178" cy="164.755" rx="2.70238" ry="2.53468" fill="#9FA0E8"/>
<ellipse cx="543.178" cy="185.033" rx="2.70238" ry="2.5347" fill="#9FA0E8"/>
<ellipse cx="543.178" cy="205.31" rx="2.70238" ry="2.53468" fill="#9FA0E8"/>
<ellipse cx="543.178" cy="225.587" rx="2.70238" ry="2.53468" fill="#9FA0E8"/>
<ellipse cx="543.178" cy="245.865" rx="2.70238" ry="2.53468" fill="#9FA0E8"/>
<ellipse cx="570.203" cy="2.53469" rx="2.70238" ry="2.53469" fill="#9FA0E8"/>
<ellipse cx="570.203" cy="22.812" rx="2.70238" ry="2.53469" fill="#9FA0E8"/>
<ellipse cx="570.203" cy="43.0899" rx="2.70238" ry="2.53469" fill="#9FA0E8"/>
<ellipse cx="570.203" cy="63.3677" rx="2.70238" ry="2.53469" fill="#9FA0E8"/>
<ellipse cx="570.203" cy="83.645" rx="2.70238" ry="2.53469" fill="#9FA0E8"/>
<ellipse cx="570.203" cy="103.922" rx="2.70238" ry="2.5347" fill="#9FA0E8"/>
<ellipse cx="570.203" cy="124.2" rx="2.70238" ry="2.5347" fill="#9FA0E8"/>
<ellipse cx="570.203" cy="144.478" rx="2.70238" ry="2.53468" fill="#9FA0E8"/>
<ellipse cx="570.203" cy="164.755" rx="2.70238" ry="2.53468" fill="#9FA0E8"/>
<ellipse cx="570.203" cy="185.033" rx="2.70238" ry="2.5347" fill="#9FA0E8"/>
<ellipse cx="570.203" cy="205.31" rx="2.70238" ry="2.53468" fill="#9FA0E8"/>
<ellipse cx="570.203" cy="225.587" rx="2.70238" ry="2.53468" fill="#9FA0E8"/>
<ellipse cx="570.203" cy="245.865" rx="2.70238" ry="2.53468" fill="#9FA0E8"/>
<ellipse cx="597.226" cy="2.53469" rx="2.70239" ry="2.53469" fill="#9FA0E8"/>
<ellipse cx="597.226" cy="22.812" rx="2.70239" ry="2.53469" fill="#9FA0E8"/>
<ellipse cx="597.226" cy="43.0899" rx="2.70239" ry="2.53469" fill="#9FA0E8"/>
<ellipse cx="597.226" cy="63.3677" rx="2.70239" ry="2.53469" fill="#9FA0E8"/>
<ellipse cx="597.226" cy="83.645" rx="2.70239" ry="2.53469" fill="#9FA0E8"/>
<ellipse cx="597.226" cy="103.922" rx="2.70239" ry="2.5347" fill="#9FA0E8"/>
<ellipse cx="597.226" cy="124.2" rx="2.70239" ry="2.5347" fill="#9FA0E8"/>
<ellipse cx="597.226" cy="144.478" rx="2.70239" ry="2.53468" fill="#9FA0E8"/>
<ellipse cx="597.226" cy="164.755" rx="2.70239" ry="2.53468" fill="#9FA0E8"/>
<ellipse cx="597.226" cy="185.033" rx="2.70239" ry="2.5347" fill="#9FA0E8"/>
<ellipse cx="597.226" cy="205.31" rx="2.70239" ry="2.53468" fill="#9FA0E8"/>
<ellipse cx="597.226" cy="225.587" rx="2.70239" ry="2.53468" fill="#9FA0E8"/>
<ellipse cx="597.226" cy="245.865" rx="2.70239" ry="2.53468" fill="#9FA0E8"/>
<ellipse cx="624.251" cy="2.53469" rx="2.70237" ry="2.53469" fill="#9FA0E8"/>
<ellipse cx="624.251" cy="22.812" rx="2.70237" ry="2.53469" fill="#9FA0E8"/>
<ellipse cx="624.251" cy="43.0899" rx="2.70237" ry="2.53469" fill="#9FA0E8"/>
<ellipse cx="624.251" cy="63.3677" rx="2.70237" ry="2.53469" fill="#9FA0E8"/>
<ellipse cx="624.251" cy="83.645" rx="2.70237" ry="2.53469" fill="#9FA0E8"/>
<ellipse cx="624.251" cy="103.922" rx="2.70237" ry="2.5347" fill="#9FA0E8"/>
<ellipse cx="624.251" cy="124.2" rx="2.70237" ry="2.5347" fill="#9FA0E8"/>
<ellipse cx="624.251" cy="144.478" rx="2.70237" ry="2.53468" fill="#9FA0E8"/>
<ellipse cx="624.251" cy="164.755" rx="2.70237" ry="2.53468" fill="#9FA0E8"/>
<ellipse cx="624.251" cy="185.033" rx="2.70237" ry="2.5347" fill="#9FA0E8"/>
<ellipse cx="624.251" cy="205.31" rx="2.70237" ry="2.53468" fill="#9FA0E8"/>
<ellipse cx="624.251" cy="225.587" rx="2.70237" ry="2.53468" fill="#9FA0E8"/>
<ellipse cx="624.251" cy="245.865" rx="2.70237" ry="2.53468" fill="#9FA0E8"/>
</svg>
