<svg width="536" height="249" viewBox="0 0 536 249" fill="none" xmlns="http://www.w3.org/2000/svg">
<ellipse cx="19.8459" cy="2.53469" rx="2.70237" ry="2.53469" fill="#9FA0E8"/>
<ellipse cx="19.8459" cy="22.812" rx="2.70237" ry="2.53469" fill="#9FA0E8"/>
<ellipse cx="19.8459" cy="43.0899" rx="2.70237" ry="2.53469" fill="#9FA0E8"/>
<ellipse cx="19.8459" cy="63.3677" rx="2.70237" ry="2.53469" fill="#9FA0E8"/>
<ellipse cx="19.8459" cy="83.645" rx="2.70237" ry="2.53469" fill="#9FA0E8"/>
<ellipse cx="19.8459" cy="103.922" rx="2.70237" ry="2.5347" fill="#9FA0E8"/>
<ellipse cx="19.8459" cy="124.2" rx="2.70237" ry="2.5347" fill="#9FA0E8"/>
<ellipse cx="19.8459" cy="144.478" rx="2.70237" ry="2.53468" fill="#9FA0E8"/>
<ellipse cx="19.8459" cy="164.755" rx="2.70237" ry="2.53468" fill="#9FA0E8"/>
<ellipse cx="19.8459" cy="185.033" rx="2.70237" ry="2.5347" fill="#9FA0E8"/>
<ellipse cx="19.8459" cy="205.31" rx="2.70237" ry="2.53468" fill="#9FA0E8"/>
<ellipse cx="19.8459" cy="225.587" rx="2.70237" ry="2.53468" fill="#9FA0E8"/>
<ellipse cx="19.8459" cy="245.865" rx="2.70237" ry="2.53468" fill="#9FA0E8"/>
<ellipse cx="46.8686" cy="2.53469" rx="2.70238" ry="2.53469" fill="#9FA0E8"/>
<ellipse cx="46.8686" cy="22.812" rx="2.70238" ry="2.53469" fill="#9FA0E8"/>
<ellipse cx="46.8686" cy="43.0899" rx="2.70238" ry="2.53469" fill="#9FA0E8"/>
<ellipse cx="46.8686" cy="63.3677" rx="2.70238" ry="2.53469" fill="#9FA0E8"/>
<ellipse cx="46.8686" cy="83.645" rx="2.70238" ry="2.53469" fill="#9FA0E8"/>
<ellipse cx="46.8686" cy="103.922" rx="2.70238" ry="2.5347" fill="#9FA0E8"/>
<ellipse cx="46.8686" cy="124.2" rx="2.70238" ry="2.5347" fill="#9FA0E8"/>
<ellipse cx="46.8686" cy="144.478" rx="2.70238" ry="2.53468" fill="#9FA0E8"/>
<ellipse cx="46.8686" cy="164.755" rx="2.70238" ry="2.53468" fill="#9FA0E8"/>
<ellipse cx="46.8686" cy="185.033" rx="2.70238" ry="2.5347" fill="#9FA0E8"/>
<ellipse cx="46.8686" cy="205.31" rx="2.70238" ry="2.53468" fill="#9FA0E8"/>
<ellipse cx="46.8686" cy="225.587" rx="2.70238" ry="2.53468" fill="#9FA0E8"/>
<ellipse cx="46.8686" cy="245.865" rx="2.70238" ry="2.53468" fill="#9FA0E8"/>
<ellipse cx="73.8934" cy="2.53469" rx="2.70238" ry="2.53469" fill="#9FA0E8"/>
<ellipse cx="73.8934" cy="22.812" rx="2.70238" ry="2.53469" fill="#9FA0E8"/>
<ellipse cx="73.8934" cy="43.0899" rx="2.70238" ry="2.53469" fill="#9FA0E8"/>
<ellipse cx="73.8934" cy="63.3677" rx="2.70238" ry="2.53469" fill="#9FA0E8"/>
<ellipse cx="73.8934" cy="83.645" rx="2.70238" ry="2.53469" fill="#9FA0E8"/>
<ellipse cx="73.8934" cy="103.922" rx="2.70238" ry="2.5347" fill="#9FA0E8"/>
<ellipse cx="73.8934" cy="124.2" rx="2.70238" ry="2.5347" fill="#9FA0E8"/>
<ellipse cx="73.8934" cy="144.478" rx="2.70238" ry="2.53468" fill="#9FA0E8"/>
<ellipse cx="73.8934" cy="164.755" rx="2.70238" ry="2.53468" fill="#9FA0E8"/>
<ellipse cx="73.8934" cy="185.033" rx="2.70238" ry="2.5347" fill="#9FA0E8"/>
<ellipse cx="73.8934" cy="205.31" rx="2.70238" ry="2.53468" fill="#9FA0E8"/>
<ellipse cx="73.8934" cy="225.587" rx="2.70238" ry="2.53468" fill="#9FA0E8"/>
<ellipse cx="73.8934" cy="245.865" rx="2.70238" ry="2.53468" fill="#9FA0E8"/>
<ellipse cx="100.916" cy="2.53469" rx="2.70239" ry="2.53469" fill="#9FA0E8"/>
<ellipse cx="100.916" cy="22.812" rx="2.70239" ry="2.53469" fill="#9FA0E8"/>
<ellipse cx="100.916" cy="43.0899" rx="2.70239" ry="2.53469" fill="#9FA0E8"/>
<ellipse cx="100.916" cy="63.3677" rx="2.70239" ry="2.53469" fill="#9FA0E8"/>
<ellipse cx="100.916" cy="83.645" rx="2.70239" ry="2.53469" fill="#9FA0E8"/>
<ellipse cx="100.916" cy="103.922" rx="2.70239" ry="2.5347" fill="#9FA0E8"/>
<ellipse cx="100.916" cy="124.2" rx="2.70239" ry="2.5347" fill="#9FA0E8"/>
<ellipse cx="100.916" cy="144.478" rx="2.70239" ry="2.53468" fill="#9FA0E8"/>
<ellipse cx="100.916" cy="164.755" rx="2.70239" ry="2.53468" fill="#9FA0E8"/>
<ellipse cx="100.916" cy="185.033" rx="2.70239" ry="2.5347" fill="#9FA0E8"/>
<ellipse cx="100.916" cy="205.31" rx="2.70239" ry="2.53468" fill="#9FA0E8"/>
<ellipse cx="100.916" cy="225.587" rx="2.70239" ry="2.53468" fill="#9FA0E8"/>
<ellipse cx="100.916" cy="245.865" rx="2.70239" ry="2.53468" fill="#9FA0E8"/>
<ellipse cx="127.941" cy="2.53469" rx="2.70238" ry="2.53469" fill="#9FA0E8"/>
<ellipse cx="127.941" cy="22.812" rx="2.70238" ry="2.53469" fill="#9FA0E8"/>
<ellipse cx="127.941" cy="43.0899" rx="2.70238" ry="2.53469" fill="#9FA0E8"/>
<ellipse cx="127.941" cy="63.3677" rx="2.70238" ry="2.53469" fill="#9FA0E8"/>
<ellipse cx="127.941" cy="83.645" rx="2.70238" ry="2.53469" fill="#9FA0E8"/>
<ellipse cx="127.941" cy="103.922" rx="2.70238" ry="2.5347" fill="#9FA0E8"/>
<ellipse cx="127.941" cy="124.2" rx="2.70238" ry="2.5347" fill="#9FA0E8"/>
<ellipse cx="127.941" cy="144.478" rx="2.70238" ry="2.53468" fill="#9FA0E8"/>
<ellipse cx="127.941" cy="164.755" rx="2.70238" ry="2.53468" fill="#9FA0E8"/>
<ellipse cx="127.941" cy="185.033" rx="2.70238" ry="2.5347" fill="#9FA0E8"/>
<ellipse cx="127.941" cy="205.31" rx="2.70238" ry="2.53468" fill="#9FA0E8"/>
<ellipse cx="127.941" cy="225.587" rx="2.70238" ry="2.53468" fill="#9FA0E8"/>
<ellipse cx="127.941" cy="245.865" rx="2.70238" ry="2.53468" fill="#9FA0E8"/>
<ellipse cx="154.964" cy="2.53469" rx="2.70238" ry="2.53469" fill="#9FA0E8"/>
<ellipse cx="154.964" cy="22.812" rx="2.70238" ry="2.53469" fill="#9FA0E8"/>
<ellipse cx="154.964" cy="43.0899" rx="2.70238" ry="2.53469" fill="#9FA0E8"/>
<ellipse cx="154.964" cy="63.3677" rx="2.70238" ry="2.53469" fill="#9FA0E8"/>
<ellipse cx="154.964" cy="83.645" rx="2.70238" ry="2.53469" fill="#9FA0E8"/>
<ellipse cx="154.964" cy="103.922" rx="2.70238" ry="2.5347" fill="#9FA0E8"/>
<ellipse cx="154.964" cy="124.2" rx="2.70238" ry="2.5347" fill="#9FA0E8"/>
<ellipse cx="154.964" cy="144.478" rx="2.70238" ry="2.53468" fill="#9FA0E8"/>
<ellipse cx="154.964" cy="164.755" rx="2.70238" ry="2.53468" fill="#9FA0E8"/>
<ellipse cx="154.964" cy="185.033" rx="2.70238" ry="2.5347" fill="#9FA0E8"/>
<ellipse cx="154.964" cy="205.31" rx="2.70238" ry="2.53468" fill="#9FA0E8"/>
<ellipse cx="154.964" cy="225.587" rx="2.70238" ry="2.53468" fill="#9FA0E8"/>
<ellipse cx="154.964" cy="245.865" rx="2.70238" ry="2.53468" fill="#9FA0E8"/>
<ellipse cx="181.989" cy="2.53469" rx="2.70238" ry="2.53469" fill="#9FA0E8"/>
<ellipse cx="181.989" cy="22.812" rx="2.70238" ry="2.53469" fill="#9FA0E8"/>
<ellipse cx="181.989" cy="43.0899" rx="2.70238" ry="2.53469" fill="#9FA0E8"/>
<ellipse cx="181.989" cy="63.3677" rx="2.70238" ry="2.53469" fill="#9FA0E8"/>
<ellipse cx="181.989" cy="83.645" rx="2.70238" ry="2.53469" fill="#9FA0E8"/>
<ellipse cx="181.989" cy="103.922" rx="2.70238" ry="2.5347" fill="#9FA0E8"/>
<ellipse cx="181.989" cy="124.2" rx="2.70238" ry="2.5347" fill="#9FA0E8"/>
<ellipse cx="181.989" cy="144.478" rx="2.70238" ry="2.53468" fill="#9FA0E8"/>
<ellipse cx="181.989" cy="164.755" rx="2.70238" ry="2.53468" fill="#9FA0E8"/>
<ellipse cx="181.989" cy="185.033" rx="2.70238" ry="2.5347" fill="#9FA0E8"/>
<ellipse cx="181.989" cy="205.31" rx="2.70238" ry="2.53468" fill="#9FA0E8"/>
<ellipse cx="181.989" cy="225.587" rx="2.70238" ry="2.53468" fill="#9FA0E8"/>
<ellipse cx="181.989" cy="245.865" rx="2.70238" ry="2.53468" fill="#9FA0E8"/>
<ellipse cx="209.012" cy="2.53469" rx="2.70238" ry="2.53469" fill="#9FA0E8"/>
<ellipse cx="209.012" cy="22.812" rx="2.70238" ry="2.53469" fill="#9FA0E8"/>
<ellipse cx="209.012" cy="43.0899" rx="2.70238" ry="2.53469" fill="#9FA0E8"/>
<ellipse cx="209.012" cy="63.3677" rx="2.70238" ry="2.53469" fill="#9FA0E8"/>
<ellipse cx="209.012" cy="83.645" rx="2.70238" ry="2.53469" fill="#9FA0E8"/>
<ellipse cx="209.012" cy="103.922" rx="2.70238" ry="2.5347" fill="#9FA0E8"/>
<ellipse cx="209.012" cy="124.2" rx="2.70238" ry="2.5347" fill="#9FA0E8"/>
<ellipse cx="209.012" cy="144.478" rx="2.70238" ry="2.53468" fill="#9FA0E8"/>
<ellipse cx="209.012" cy="164.755" rx="2.70238" ry="2.53468" fill="#9FA0E8"/>
<ellipse cx="209.012" cy="185.033" rx="2.70238" ry="2.5347" fill="#9FA0E8"/>
<ellipse cx="209.012" cy="205.31" rx="2.70238" ry="2.53468" fill="#9FA0E8"/>
<ellipse cx="209.012" cy="225.587" rx="2.70238" ry="2.53468" fill="#9FA0E8"/>
<ellipse cx="209.012" cy="245.865" rx="2.70238" ry="2.53468" fill="#9FA0E8"/>
<ellipse cx="236.035" cy="2.53469" rx="2.70238" ry="2.53469" fill="#9FA0E8"/>
<ellipse cx="236.035" cy="22.812" rx="2.70238" ry="2.53469" fill="#9FA0E8"/>
<ellipse cx="236.035" cy="43.0899" rx="2.70238" ry="2.53469" fill="#9FA0E8"/>
<ellipse cx="236.035" cy="63.3677" rx="2.70238" ry="2.53469" fill="#9FA0E8"/>
<ellipse cx="236.035" cy="83.645" rx="2.70238" ry="2.53469" fill="#9FA0E8"/>
<ellipse cx="236.035" cy="103.922" rx="2.70238" ry="2.5347" fill="#9FA0E8"/>
<ellipse cx="236.035" cy="124.2" rx="2.70238" ry="2.5347" fill="#9FA0E8"/>
<ellipse cx="236.035" cy="144.478" rx="2.70238" ry="2.53468" fill="#9FA0E8"/>
<ellipse cx="236.035" cy="164.755" rx="2.70238" ry="2.53468" fill="#9FA0E8"/>
<ellipse cx="236.035" cy="185.033" rx="2.70238" ry="2.5347" fill="#9FA0E8"/>
<ellipse cx="236.035" cy="205.31" rx="2.70238" ry="2.53468" fill="#9FA0E8"/>
<ellipse cx="236.035" cy="225.587" rx="2.70238" ry="2.53468" fill="#9FA0E8"/>
<ellipse cx="236.035" cy="245.865" rx="2.70238" ry="2.53468" fill="#9FA0E8"/>
<ellipse cx="263.06" cy="2.53469" rx="2.70238" ry="2.53469" fill="#9FA0E8"/>
<ellipse cx="263.06" cy="22.812" rx="2.70238" ry="2.53469" fill="#9FA0E8"/>
<ellipse cx="263.06" cy="43.0899" rx="2.70238" ry="2.53469" fill="#9FA0E8"/>
<ellipse cx="263.06" cy="63.3677" rx="2.70238" ry="2.53469" fill="#9FA0E8"/>
<ellipse cx="263.06" cy="83.645" rx="2.70238" ry="2.53469" fill="#9FA0E8"/>
<ellipse cx="263.06" cy="103.922" rx="2.70238" ry="2.5347" fill="#9FA0E8"/>
<ellipse cx="263.06" cy="124.2" rx="2.70238" ry="2.5347" fill="#9FA0E8"/>
<ellipse cx="263.06" cy="144.478" rx="2.70238" ry="2.53468" fill="#9FA0E8"/>
<ellipse cx="263.06" cy="164.755" rx="2.70238" ry="2.53468" fill="#9FA0E8"/>
<ellipse cx="263.06" cy="185.033" rx="2.70238" ry="2.5347" fill="#9FA0E8"/>
<ellipse cx="263.06" cy="205.31" rx="2.70238" ry="2.53468" fill="#9FA0E8"/>
<ellipse cx="263.06" cy="225.587" rx="2.70238" ry="2.53468" fill="#9FA0E8"/>
<ellipse cx="263.06" cy="245.865" rx="2.70238" ry="2.53468" fill="#9FA0E8"/>
<ellipse cx="290.083" cy="2.53469" rx="2.70239" ry="2.53469" fill="#9FA0E8"/>
<ellipse cx="290.083" cy="22.812" rx="2.70239" ry="2.53469" fill="#9FA0E8"/>
<ellipse cx="290.083" cy="43.0899" rx="2.70239" ry="2.53469" fill="#9FA0E8"/>
<ellipse cx="290.083" cy="63.3677" rx="2.70239" ry="2.53469" fill="#9FA0E8"/>
<ellipse cx="290.083" cy="83.645" rx="2.70239" ry="2.53469" fill="#9FA0E8"/>
<ellipse cx="290.083" cy="103.922" rx="2.70239" ry="2.5347" fill="#9FA0E8"/>
<ellipse cx="290.083" cy="124.2" rx="2.70239" ry="2.5347" fill="#9FA0E8"/>
<ellipse cx="290.083" cy="144.478" rx="2.70239" ry="2.53468" fill="#9FA0E8"/>
<ellipse cx="290.083" cy="164.755" rx="2.70239" ry="2.53468" fill="#9FA0E8"/>
<ellipse cx="290.083" cy="185.033" rx="2.70239" ry="2.5347" fill="#9FA0E8"/>
<ellipse cx="290.083" cy="205.31" rx="2.70239" ry="2.53468" fill="#9FA0E8"/>
<ellipse cx="290.083" cy="225.587" rx="2.70239" ry="2.53468" fill="#9FA0E8"/>
<ellipse cx="290.083" cy="245.865" rx="2.70239" ry="2.53468" fill="#9FA0E8"/>
<ellipse cx="317.107" cy="2.53469" rx="2.70239" ry="2.53469" fill="#9FA0E8"/>
<ellipse cx="317.107" cy="22.812" rx="2.70239" ry="2.53469" fill="#9FA0E8"/>
<ellipse cx="317.107" cy="43.0899" rx="2.70239" ry="2.53469" fill="#9FA0E8"/>
<ellipse cx="317.107" cy="63.3677" rx="2.70239" ry="2.53469" fill="#9FA0E8"/>
<ellipse cx="317.107" cy="83.645" rx="2.70239" ry="2.53469" fill="#9FA0E8"/>
<ellipse cx="317.107" cy="103.922" rx="2.70239" ry="2.5347" fill="#9FA0E8"/>
<ellipse cx="317.107" cy="124.2" rx="2.70239" ry="2.5347" fill="#9FA0E8"/>
<ellipse cx="317.107" cy="144.478" rx="2.70239" ry="2.53468" fill="#9FA0E8"/>
<ellipse cx="317.107" cy="164.755" rx="2.70239" ry="2.53468" fill="#9FA0E8"/>
<ellipse cx="317.107" cy="185.033" rx="2.70239" ry="2.5347" fill="#9FA0E8"/>
<ellipse cx="317.107" cy="205.31" rx="2.70239" ry="2.53468" fill="#9FA0E8"/>
<ellipse cx="317.107" cy="225.587" rx="2.70239" ry="2.53468" fill="#9FA0E8"/>
<ellipse cx="317.107" cy="245.865" rx="2.70239" ry="2.53468" fill="#9FA0E8"/>
<ellipse cx="344.13" cy="2.53469" rx="2.70239" ry="2.53469" fill="#9FA0E8"/>
<ellipse cx="344.13" cy="22.812" rx="2.70239" ry="2.53469" fill="#9FA0E8"/>
<ellipse cx="344.13" cy="43.0899" rx="2.70239" ry="2.53469" fill="#9FA0E8"/>
<ellipse cx="344.13" cy="63.3677" rx="2.70239" ry="2.53469" fill="#9FA0E8"/>
<ellipse cx="344.13" cy="83.645" rx="2.70239" ry="2.53469" fill="#9FA0E8"/>
<ellipse cx="344.13" cy="103.922" rx="2.70239" ry="2.5347" fill="#9FA0E8"/>
<ellipse cx="344.13" cy="124.2" rx="2.70239" ry="2.5347" fill="#9FA0E8"/>
<ellipse cx="344.13" cy="144.478" rx="2.70239" ry="2.53468" fill="#9FA0E8"/>
<ellipse cx="344.13" cy="164.755" rx="2.70239" ry="2.53468" fill="#9FA0E8"/>
<ellipse cx="344.13" cy="185.033" rx="2.70239" ry="2.5347" fill="#9FA0E8"/>
<ellipse cx="344.13" cy="205.31" rx="2.70239" ry="2.53468" fill="#9FA0E8"/>
<ellipse cx="344.13" cy="225.587" rx="2.70239" ry="2.53468" fill="#9FA0E8"/>
<ellipse cx="344.13" cy="245.865" rx="2.70239" ry="2.53468" fill="#9FA0E8"/>
<ellipse cx="371.155" cy="2.53469" rx="2.70237" ry="2.53469" fill="#9FA0E8"/>
<ellipse cx="371.155" cy="22.812" rx="2.70237" ry="2.53469" fill="#9FA0E8"/>
<ellipse cx="371.155" cy="43.0899" rx="2.70237" ry="2.53469" fill="#9FA0E8"/>
<ellipse cx="371.155" cy="63.3677" rx="2.70237" ry="2.53469" fill="#9FA0E8"/>
<ellipse cx="371.155" cy="83.645" rx="2.70237" ry="2.53469" fill="#9FA0E8"/>
<ellipse cx="371.155" cy="103.922" rx="2.70237" ry="2.5347" fill="#9FA0E8"/>
<ellipse cx="371.155" cy="124.2" rx="2.70237" ry="2.5347" fill="#9FA0E8"/>
<ellipse cx="371.155" cy="144.478" rx="2.70237" ry="2.53468" fill="#9FA0E8"/>
<ellipse cx="371.155" cy="164.755" rx="2.70237" ry="2.53468" fill="#9FA0E8"/>
<ellipse cx="371.155" cy="185.033" rx="2.70237" ry="2.5347" fill="#9FA0E8"/>
<ellipse cx="371.155" cy="205.31" rx="2.70237" ry="2.53468" fill="#9FA0E8"/>
<ellipse cx="371.155" cy="225.587" rx="2.70237" ry="2.53468" fill="#9FA0E8"/>
<ellipse cx="371.155" cy="245.865" rx="2.70237" ry="2.53468" fill="#9FA0E8"/>
<ellipse cx="398.178" cy="2.53469" rx="2.70238" ry="2.53469" fill="#9FA0E8"/>
<ellipse cx="398.178" cy="22.812" rx="2.70238" ry="2.53469" fill="#9FA0E8"/>
<ellipse cx="398.178" cy="43.0899" rx="2.70238" ry="2.53469" fill="#9FA0E8"/>
<ellipse cx="398.178" cy="63.3677" rx="2.70238" ry="2.53469" fill="#9FA0E8"/>
<ellipse cx="398.178" cy="83.645" rx="2.70238" ry="2.53469" fill="#9FA0E8"/>
<ellipse cx="398.178" cy="103.922" rx="2.70238" ry="2.5347" fill="#9FA0E8"/>
<ellipse cx="398.178" cy="124.2" rx="2.70238" ry="2.5347" fill="#9FA0E8"/>
<ellipse cx="398.178" cy="144.478" rx="2.70238" ry="2.53468" fill="#9FA0E8"/>
<ellipse cx="398.178" cy="164.755" rx="2.70238" ry="2.53468" fill="#9FA0E8"/>
<ellipse cx="398.178" cy="185.033" rx="2.70238" ry="2.5347" fill="#9FA0E8"/>
<ellipse cx="398.178" cy="205.31" rx="2.70238" ry="2.53468" fill="#9FA0E8"/>
<ellipse cx="398.178" cy="225.587" rx="2.70238" ry="2.53468" fill="#9FA0E8"/>
<ellipse cx="398.178" cy="245.865" rx="2.70238" ry="2.53468" fill="#9FA0E8"/>
<ellipse cx="425.203" cy="2.53469" rx="2.70238" ry="2.53469" fill="#9FA0E8"/>
<ellipse cx="425.203" cy="22.812" rx="2.70238" ry="2.53469" fill="#9FA0E8"/>
<ellipse cx="425.203" cy="43.0899" rx="2.70238" ry="2.53469" fill="#9FA0E8"/>
<ellipse cx="425.203" cy="63.3677" rx="2.70238" ry="2.53469" fill="#9FA0E8"/>
<ellipse cx="425.203" cy="83.645" rx="2.70238" ry="2.53469" fill="#9FA0E8"/>
<ellipse cx="425.203" cy="103.922" rx="2.70238" ry="2.5347" fill="#9FA0E8"/>
<ellipse cx="425.203" cy="124.2" rx="2.70238" ry="2.5347" fill="#9FA0E8"/>
<ellipse cx="425.203" cy="144.478" rx="2.70238" ry="2.53468" fill="#9FA0E8"/>
<ellipse cx="425.203" cy="164.755" rx="2.70238" ry="2.53468" fill="#9FA0E8"/>
<ellipse cx="425.203" cy="185.033" rx="2.70238" ry="2.5347" fill="#9FA0E8"/>
<ellipse cx="425.203" cy="205.31" rx="2.70238" ry="2.53468" fill="#9FA0E8"/>
<ellipse cx="425.203" cy="225.587" rx="2.70238" ry="2.53468" fill="#9FA0E8"/>
<ellipse cx="425.203" cy="245.865" rx="2.70238" ry="2.53468" fill="#9FA0E8"/>
<ellipse cx="452.226" cy="2.53469" rx="2.70239" ry="2.53469" fill="#9FA0E8"/>
<ellipse cx="452.226" cy="22.812" rx="2.70239" ry="2.53469" fill="#9FA0E8"/>
<ellipse cx="452.226" cy="43.0899" rx="2.70239" ry="2.53469" fill="#9FA0E8"/>
<ellipse cx="452.226" cy="63.3677" rx="2.70239" ry="2.53469" fill="#9FA0E8"/>
<ellipse cx="452.226" cy="83.645" rx="2.70239" ry="2.53469" fill="#9FA0E8"/>
<ellipse cx="452.226" cy="103.922" rx="2.70239" ry="2.5347" fill="#9FA0E8"/>
<ellipse cx="452.226" cy="124.2" rx="2.70239" ry="2.5347" fill="#9FA0E8"/>
<ellipse cx="452.226" cy="144.478" rx="2.70239" ry="2.53468" fill="#9FA0E8"/>
<ellipse cx="452.226" cy="164.755" rx="2.70239" ry="2.53468" fill="#9FA0E8"/>
<ellipse cx="452.226" cy="185.033" rx="2.70239" ry="2.5347" fill="#9FA0E8"/>
<ellipse cx="452.226" cy="205.31" rx="2.70239" ry="2.53468" fill="#9FA0E8"/>
<ellipse cx="452.226" cy="225.587" rx="2.70239" ry="2.53468" fill="#9FA0E8"/>
<ellipse cx="452.226" cy="245.865" rx="2.70239" ry="2.53468" fill="#9FA0E8"/>
<ellipse cx="479.251" cy="2.53469" rx="2.70237" ry="2.53469" fill="#9FA0E8"/>
<ellipse cx="479.251" cy="22.812" rx="2.70237" ry="2.53469" fill="#9FA0E8"/>
<ellipse cx="479.251" cy="43.0899" rx="2.70237" ry="2.53469" fill="#9FA0E8"/>
<ellipse cx="479.251" cy="63.3677" rx="2.70237" ry="2.53469" fill="#9FA0E8"/>
<ellipse cx="479.251" cy="83.645" rx="2.70237" ry="2.53469" fill="#9FA0E8"/>
<ellipse cx="479.251" cy="103.922" rx="2.70237" ry="2.5347" fill="#9FA0E8"/>
<ellipse cx="479.251" cy="124.2" rx="2.70237" ry="2.5347" fill="#9FA0E8"/>
<ellipse cx="479.251" cy="144.478" rx="2.70237" ry="2.53468" fill="#9FA0E8"/>
<ellipse cx="479.251" cy="164.755" rx="2.70237" ry="2.53468" fill="#9FA0E8"/>
<ellipse cx="479.251" cy="185.033" rx="2.70237" ry="2.5347" fill="#9FA0E8"/>
<ellipse cx="479.251" cy="205.31" rx="2.70237" ry="2.53468" fill="#9FA0E8"/>
<ellipse cx="479.251" cy="225.587" rx="2.70237" ry="2.53468" fill="#9FA0E8"/>
<ellipse cx="479.251" cy="245.865" rx="2.70237" ry="2.53468" fill="#9FA0E8"/>
<ellipse cx="506.274" cy="2.53469" rx="2.70237" ry="2.53469" fill="#9FA0E8"/>
<ellipse cx="506.274" cy="22.812" rx="2.70237" ry="2.53469" fill="#9FA0E8"/>
<ellipse cx="506.274" cy="43.0899" rx="2.70237" ry="2.53469" fill="#9FA0E8"/>
<ellipse cx="506.274" cy="63.3677" rx="2.70237" ry="2.53469" fill="#9FA0E8"/>
<ellipse cx="506.274" cy="83.645" rx="2.70237" ry="2.53469" fill="#9FA0E8"/>
<ellipse cx="506.274" cy="103.922" rx="2.70237" ry="2.5347" fill="#9FA0E8"/>
<ellipse cx="506.274" cy="124.2" rx="2.70237" ry="2.5347" fill="#9FA0E8"/>
<ellipse cx="506.274" cy="144.478" rx="2.70237" ry="2.53468" fill="#9FA0E8"/>
<ellipse cx="506.274" cy="164.755" rx="2.70237" ry="2.53468" fill="#9FA0E8"/>
<ellipse cx="506.274" cy="185.033" rx="2.70237" ry="2.5347" fill="#9FA0E8"/>
<ellipse cx="506.274" cy="205.31" rx="2.70237" ry="2.53468" fill="#9FA0E8"/>
<ellipse cx="506.274" cy="225.587" rx="2.70237" ry="2.53468" fill="#9FA0E8"/>
<ellipse cx="506.274" cy="245.865" rx="2.70237" ry="2.53468" fill="#9FA0E8"/>
<ellipse cx="533.297" cy="2.53469" rx="2.70239" ry="2.53469" fill="#9FA0E8"/>
<ellipse cx="533.297" cy="22.812" rx="2.70239" ry="2.53469" fill="#9FA0E8"/>
<ellipse cx="533.297" cy="43.0899" rx="2.70239" ry="2.53469" fill="#9FA0E8"/>
<ellipse cx="533.297" cy="63.3677" rx="2.70239" ry="2.53469" fill="#9FA0E8"/>
<ellipse cx="533.297" cy="83.645" rx="2.70239" ry="2.53469" fill="#9FA0E8"/>
<ellipse cx="533.297" cy="103.922" rx="2.70239" ry="2.5347" fill="#9FA0E8"/>
<ellipse cx="533.297" cy="124.2" rx="2.70239" ry="2.5347" fill="#9FA0E8"/>
<ellipse cx="533.297" cy="144.478" rx="2.70239" ry="2.53468" fill="#9FA0E8"/>
<ellipse cx="533.297" cy="164.755" rx="2.70239" ry="2.53468" fill="#9FA0E8"/>
<ellipse cx="533.297" cy="185.033" rx="2.70239" ry="2.5347" fill="#9FA0E8"/>
<ellipse cx="533.297" cy="205.31" rx="2.70239" ry="2.53468" fill="#9FA0E8"/>
<ellipse cx="533.297" cy="225.587" rx="2.70239" ry="2.53468" fill="#9FA0E8"/>
<ellipse cx="533.297" cy="245.865" rx="2.70239" ry="2.53468" fill="#9FA0E8"/>
</svg>
