<svg width="208" height="62" viewBox="0 0 208 62" fill="none" xmlns="http://www.w3.org/2000/svg">
<path d="M7.95124 2.07369H200.024V-0.999476H7.95124V2.07369ZM206.171 8.22004V54.3176H209.244V8.22004H206.171ZM200.024 60.4639H7.95123V63.5371H200.024V60.4639ZM1.8049 54.3176V8.22004H-1.26827V54.3176H1.8049ZM7.95123 60.4639C4.5567 60.4639 1.8049 57.7121 1.8049 54.3176H-1.26827C-1.26827 59.4094 2.85944 63.5371 7.95123 63.5371V60.4639ZM206.171 54.3176C206.171 57.7121 203.419 60.4639 200.024 60.4639V63.5371C205.116 63.5371 209.244 59.4094 209.244 54.3176H206.171ZM200.024 2.07369C203.419 2.07369 206.171 4.8255 206.171 8.22004H209.244C209.244 3.12824 205.116 -0.999476 200.024 -0.999476V2.07369ZM7.95124 -0.999476C2.85944 -0.999476 -1.26827 3.12824 -1.26827 8.22004H1.8049C1.8049 4.82551 4.55671 2.07369 7.95124 2.07369V-0.999476Z" fill="#A6A6A6"/>
</svg>
