<?xml version="1.0" encoding="UTF-8"?>
<!DOCTYPE svg PUBLIC "-//W3C//DTD SVG 1.0//EN" "http://www.w3.org/TR/2001/REC-SVG-20010904/DTD/svg10.dtd">
<!-- Creator: CorelDRAW 2019 (64-Bit) -->
<svg xmlns="http://www.w3.org/2000/svg" xml:space="preserve" width="12.8in" height="7.2in" version="1.0" style="shape-rendering:geometricPrecision; text-rendering:geometricPrecision; image-rendering:optimizeQuality; fill-rule:evenodd; clip-rule:evenodd"
viewBox="0 0 12800 7200"
 xmlns:xlink="http://www.w3.org/1999/xlink"
 xmlns:xodm="http://www.corel.com/coreldraw/odm/2003">
 <defs>
  <style type="text/css">
   <![CDATA[
    .fil2 {fill:none}
    .fil1 {fill:#364876;fill-rule:nonzero;fill-opacity:0.850980}
    .fil0 {fill:url(#id2);fill-opacity:0.968627}
   ]]>
  </style>
   <clipPath id="id0">
    <path d="M-0 0l12800 0 0 7200 -12800 0 0 -7200z"/>
   </clipPath>
   <clipPath id="id1">
    <path d="M-0 0l12800 0 0 7200 -12800 0 0 -7200z"/>
   </clipPath>
  <radialGradient id="id2" gradientUnits="userSpaceOnUse" gradientTransform="matrix(-1.05365 -0.594271 0.447466 -0.793361 12224 10875)" cx="6784" cy="3816" r="6400" fx="6784" fy="3816">
   <stop offset="0" style="stop-opacity:1; stop-color:#364A86"/>
   <stop offset="0.439216" style="stop-opacity:1; stop-color:#364881"/>
   <stop offset="1" style="stop-opacity:1; stop-color:#36477C"/>
  </radialGradient>
 </defs>
 <g id="Layer_x0020_1">
  <metadata id="CorelCorpID_0Corel-Layer"/>
  <g style="clip-path:url(#id0)">
   <path class="fil0" d="M-0 0l12800 0 0 7200 -12800 0 0 -7200z"/>
  </g>
  <g style="clip-path:url(#id1)">
   <g id="_2558219041424">
    <g>
     <path id="1" class="fil1" d="M2109.72 3841.19c676.65,9.72 1202.87,204.34 1657.44,593.14 278.53,238.25 327.91,595.22 111.94,839.56 -220.28,249.22 -579.84,259.63 -854.28,24.82 -581.05,-497.22 -1366.35,-439.1 -1812.47,134.13 -389.35,500.31 -342.57,1185.77 111.19,1629.07 457.34,446.78 1160.54,473.22 1652.94,62.59 65.31,-54.45 126.63,-117.94 200.48,-157.03 255.21,-135.24 585.69,-50.16 746.52,183.7 164.6,239.33 124.46,547.31 -115.06,754.19 -606.52,523.92 -1306.35,735.53 -2098.5,578.58 -1113.1,-220.54 -1900.75,-1151.26 -1927.15,-2259.11 -25.79,-1083.71 753.54,-2066.9 1851.81,-2323.82 180.04,-42.13 368.83,-47.09 475.15,-59.82z"/>
     <path class="fil1" d="M1479.64 6158.9c0.98,-384.42 288.2,-674.04 671.52,-677.18 392.7,-3.2 678.13,293.11 672.16,697.84 -5.4,365.74 -303.35,671.03 -659.98,676.21 -383.08,5.6 -684.7,-301.84 -683.7,-696.87z"/>
     <path class="fil1" d="M2207.11 1307.68c1157.95,21.93 2198.33,368.63 3077.5,1145.39 206.83,182.73 230.35,356.68 81.33,539.29 -138.75,170 -347.68,179.15 -546.65,3.29 -505.27,-446.63 -1095.53,-745.5 -1744.62,-877.04 -1229.17,-249.05 -2373.46,-20.69 -3387.44,749.5 -108.56,82.47 -206.34,194.3 -328.69,239.69 -155.43,57.67 -310.45,26.56 -422.74,-135.89 -127.67,-184.66 -88.97,-348.8 57.11,-475.75 201.62,-175.19 418.15,-337.52 644.88,-478.75 519.06,-323.3 1093.3,-522.03 1686.07,-650.07 284.83,-61.5 587.11,-42.22 883.25,-59.65z"/>
     <path class="fil1" d="M4340.02 3425.72c-664.45,-551.76 -1410.94,-798.15 -2236.45,-791.8 -825.5,-6.35 -1572.02,240.04 -2236.47,791.8 -196.95,163.54 -220.82,363.32 -66.73,541.94 99.56,115.44 309.94,181.44 498.35,43.35 56.1,-28.56 111.39,-66.28 167.94,-110.12 477.45,-369.92 1017.85,-556.41 1593.85,-568.35 14.34,-0.15 28.74,-0.41 43.05,-0.32 14.31,-0.09 28.69,0.17 43.03,0.32 575.97,11.94 1116.39,198.43 1593.85,568.35 56.59,43.84 111.88,81.58 167.98,110.12 188.39,138.09 398.76,72.06 498.34,-43.35 154.07,-178.62 130.21,-378.41 -66.74,-541.94z"/>
     <path class="fil1" d="M2156.76 4016.3c448.53,-19.91 849.2,123.02 1211.74,379.63 225.86,159.9 276.2,361.27 149.07,552.22 -140.85,211.65 -338.07,249.8 -579.24,85.39 -535.05,-364.76 -1057.94,-358.99 -1591.74,4.87 -255.91,174.45 -446.6,133.94 -592.41,-91.76 -119.79,-185.39 -62.48,-383.52 169.82,-547 368.52,-259.34 773.11,-410.99 1232.75,-383.35z"/>
    </g>
    <g>
     <path class="fil1" d="M12603.06 -2012.15c676.65,9.72 1202.87,204.34 1657.44,593.14 278.53,238.25 327.91,595.22 111.94,839.56 -220.28,249.22 -579.84,259.63 -854.28,24.82 -581.05,-497.22 -1366.35,-439.1 -1812.47,134.13 -389.35,500.31 -342.57,1185.77 111.19,1629.07 457.34,446.78 1160.54,473.22 1652.94,62.59 65.31,-54.45 126.63,-117.94 200.48,-157.03 255.21,-135.24 585.69,-50.16 746.52,183.7 164.6,239.33 124.46,547.31 -115.06,754.19 -606.52,523.92 -1306.35,735.53 -2098.5,578.58 -1113.1,-220.54 -1900.75,-1151.26 -1927.15,-2259.11 -25.79,-1083.71 753.54,-2066.9 1851.81,-2323.82 180.04,-42.13 368.83,-47.09 475.15,-59.82z"/>
     <path class="fil1" d="M11972.97 305.57c0.98,-384.42 288.2,-674.04 671.52,-677.18 392.7,-3.2 678.13,293.11 672.16,697.84 -5.4,365.74 -303.35,671.03 -659.98,676.21 -383.08,5.6 -684.7,-301.84 -683.7,-696.87z"/>
     <path class="fil1" d="M12700.44 -4545.65c1157.95,21.93 2198.33,368.63 3077.5,1145.39 206.83,182.73 230.35,356.68 81.33,539.29 -138.75,170 -347.68,179.15 -546.65,3.29 -505.27,-446.63 -1095.53,-745.5 -1744.62,-877.04 -1229.17,-249.05 -2373.46,-20.69 -3387.44,749.5 -108.56,82.47 -206.34,194.3 -328.69,239.69 -155.43,57.67 -310.45,26.56 -422.74,-135.89 -127.67,-184.66 -88.97,-348.8 57.11,-475.75 201.62,-175.19 418.15,-337.52 644.88,-478.75 519.06,-323.3 1093.3,-522.03 1686.07,-650.07 284.83,-61.5 587.11,-42.22 883.25,-59.65z"/>
     <path class="fil1" d="M14833.35 -2427.61c-664.45,-551.76 -1410.94,-798.15 -2236.45,-791.8 -825.5,-6.35 -1572.02,240.04 -2236.47,791.8 -196.95,163.54 -220.82,363.32 -66.73,541.94 99.56,115.44 309.94,181.44 498.35,43.35 56.1,-28.56 111.39,-66.28 167.94,-110.12 477.45,-369.92 1017.85,-556.41 1593.85,-568.35 14.34,-0.15 28.74,-0.41 43.05,-0.32 14.31,-0.09 28.69,0.17 43.03,0.32 575.97,11.94 1116.39,198.43 1593.85,568.35 56.59,43.84 111.88,81.58 167.98,110.12 188.39,138.09 398.76,72.06 498.34,-43.35 154.07,-178.62 130.21,-378.41 -66.74,-541.94z"/>
     <path class="fil1" d="M12650.09 -1837.04c448.53,-19.91 849.2,123.02 1211.74,379.63 225.86,159.9 276.2,361.27 149.07,552.22 -140.85,211.65 -338.07,249.8 -579.24,85.39 -535.05,-364.76 -1057.94,-358.99 -1591.74,4.87 -255.91,174.45 -446.6,133.94 -592.41,-91.76 -119.79,-185.39 -62.48,-383.52 169.82,-547 368.52,-259.34 773.11,-410.99 1232.75,-383.35z"/>
    </g>
   </g>
  </g>
  <path class="fil2" d="M-0 0l12800 0 0 7200 -12800 0 0 -7200z"/>
 </g>
</svg>
