<svg width="208" height="62" viewBox="0 0 208 62" fill="none" xmlns="http://www.w3.org/2000/svg">
<path d="M104.697 33.9595C101.083 33.9595 98.1371 36.7085 98.1371 40.4946C98.1371 44.2577 101.083 47.0297 104.697 47.0297C108.312 47.0297 111.258 44.2577 111.258 40.4946C111.256 36.7085 108.311 33.9595 104.697 33.9595ZM104.697 44.4575C102.716 44.4575 101.009 42.8241 101.009 40.4962C101.009 38.1437 102.718 36.5349 104.697 36.5349C106.677 36.5349 108.385 38.1437 108.385 40.4962C108.385 42.8226 106.677 44.4575 104.697 44.4575ZM90.385 33.9595C86.771 33.9595 83.8253 36.7085 83.8253 40.4946C83.8253 44.2577 86.771 47.0297 90.385 47.0297C94.0006 47.0297 96.9462 44.2577 96.9462 40.4946C96.9462 36.7085 94.0006 33.9595 90.385 33.9595ZM90.385 44.4575C88.4043 44.4575 86.6972 42.8241 86.6972 40.4962C86.6972 38.1437 88.4059 36.5349 90.385 36.5349C92.3657 36.5349 94.0728 38.1437 94.0728 40.4962C94.0744 42.8226 92.3657 44.4575 90.385 44.4575ZM73.3627 35.9663V38.7383H79.9977C79.7995 40.298 79.2801 41.4366 78.4872 42.2279C77.5223 43.1929 76.0118 44.2577 73.3627 44.2577C69.2785 44.2577 66.0854 40.9648 66.0854 36.8806C66.0854 32.7963 69.2785 29.5034 73.3627 29.5034C75.5662 29.5034 77.175 30.3701 78.3628 31.4841L80.3188 29.528C78.6593 27.9438 76.4574 26.7314 73.3627 26.7314C67.768 26.7314 63.0645 31.2859 63.0645 36.8806C63.0645 42.4753 67.768 47.0297 73.3627 47.0297C76.3821 47.0297 78.6609 46.0386 80.4418 44.1824C82.2734 42.3508 82.8435 39.7755 82.8435 37.6965C82.8435 37.0542 82.7943 36.4596 82.6944 35.9648H73.3627V35.9663ZM142.982 38.1191C142.438 36.6593 140.779 33.9595 137.388 33.9595C134.021 33.9595 131.223 36.6086 131.223 40.4946C131.223 44.1579 133.996 47.0297 137.709 47.0297C140.704 47.0297 142.437 45.1981 143.156 44.1333L140.928 42.6474C140.186 43.7368 139.17 44.4544 137.709 44.4544C136.249 44.4544 135.209 43.786 134.54 42.4738L143.279 38.8597L142.982 38.1191ZM134.07 40.298C133.996 37.7718 136.026 36.4857 137.487 36.4857C138.626 36.4857 139.591 37.0558 139.914 37.8717L134.07 40.298ZM126.966 46.6348H129.837V27.426H126.966V46.6348ZM122.261 35.4208H122.163C121.519 34.6525 120.281 33.9595 118.723 33.9595C115.454 33.9595 112.46 36.8314 112.46 40.5208C112.46 44.184 115.454 47.0313 118.723 47.0313C120.282 47.0313 121.519 46.3383 122.163 45.5469H122.261V46.4873C122.261 48.9873 120.925 50.3242 118.772 50.3242C117.014 50.3242 115.925 49.0626 115.479 47.9978L112.979 49.0381C113.697 50.7698 115.602 52.8995 118.772 52.8995C122.139 52.8995 124.986 50.9188 124.986 46.0909V34.3575H122.263V35.4208H122.261ZM118.97 44.4575C116.989 44.4575 115.331 42.798 115.331 40.5208C115.331 38.2174 116.989 36.5349 118.97 36.5349C120.925 36.5349 122.46 38.2174 122.46 40.5208C122.46 42.798 120.925 44.4575 118.97 44.4575ZM156.434 27.426H149.564V46.6348H152.429V39.3576H156.432C159.61 39.3576 162.735 37.0573 162.735 33.3925C162.735 29.7278 159.611 27.426 156.434 27.426ZM156.507 36.6839H152.429V30.0996H156.507C158.651 30.0996 159.868 31.8744 159.868 33.3925C159.868 34.88 158.651 36.6839 156.507 36.6839ZM174.227 33.9257C172.151 33.9257 170.002 34.84 169.112 36.8668L171.657 37.9285C172.2 36.8668 173.215 36.5195 174.276 36.5195C175.759 36.5195 177.267 37.4092 177.291 38.9903V39.1885C176.772 38.892 175.659 38.4479 174.301 38.4479C171.558 38.4479 168.765 39.9553 168.765 42.7719C168.765 45.3426 171.014 46.9975 173.534 46.9975C175.461 46.9975 176.524 46.1324 177.191 45.1182H177.29V46.601H180.059V39.2362C180.06 35.828 177.512 33.9257 174.227 33.9257ZM173.88 44.4529C172.943 44.4529 171.632 43.9827 171.632 42.821C171.632 41.3382 173.264 40.7697 174.673 40.7697C175.931 40.7697 176.526 41.0417 177.291 41.412C177.068 43.1929 175.536 44.4529 173.88 44.4529ZM190.142 34.3452L186.855 42.6735H186.757L183.345 34.3452H180.257L185.372 45.9849L182.456 52.46H185.446L193.33 34.3452H190.142ZM164.318 46.6348H167.184V27.426H164.318V46.6348Z" fill="white"/>
<path d="M72.8619 16.2765C72.8619 17.5641 72.4808 18.589 71.7171 19.3542C70.8505 20.2639 69.7196 20.7187 68.3305 20.7187C66.9998 20.7187 65.8673 20.2577 64.9377 19.3358C64.0065 18.4123 63.541 17.2691 63.541 15.9046C63.541 14.5386 64.0065 13.3954 64.9377 12.4734C65.8673 11.5499 66.9998 11.0889 68.3305 11.0889C68.9912 11.0889 69.6228 11.218 70.222 11.4746C70.8228 11.7328 71.3038 12.0754 71.6633 12.5041L70.8536 13.3155C70.2435 12.5856 69.403 12.2214 68.329 12.2214C67.3578 12.2214 66.5189 12.5625 65.8105 13.2448C65.1021 13.927 64.7487 14.8136 64.7487 15.9031C64.7487 16.9925 65.1021 17.8791 65.8105 18.5614C66.5189 19.2436 67.3578 19.5847 68.329 19.5847C69.3585 19.5847 70.2174 19.2421 70.9043 18.5552C71.3499 18.1081 71.608 17.4857 71.6772 16.6883H68.329V15.5804H72.7958C72.8419 15.8216 72.8619 16.0536 72.8619 16.2765Z" fill="white"/>
<path d="M79.9457 12.4259H75.7477V15.3484H79.5339V16.4563H75.7477V19.3789H79.9457V20.5129H74.563V11.2934H79.9457V12.4259Z" fill="white"/>
<path d="M84.9409 20.5129H83.7562V12.4259H81.1809V11.2934H87.5163V12.4259H84.9409V20.5129Z" fill="white"/>
<path d="M92.0998 20.5129V11.2934H93.2845V20.5129H92.0998Z" fill="white"/>
<path d="M98.5384 20.5129H97.3537V12.4259H94.7784V11.2934H101.114V12.4259H98.5384V20.5129Z" fill="white"/>
<path d="M113.106 19.322C112.2 20.2532 111.073 20.7188 109.726 20.7188C108.378 20.7188 107.252 20.2532 106.347 19.322C105.44 18.3909 104.989 17.2507 104.989 15.9031C104.989 14.5555 105.44 13.4154 106.347 12.4842C107.252 11.5531 108.378 11.0859 109.726 11.0859C111.066 11.0859 112.191 11.5546 113.1 12.4904C114.01 13.4262 114.465 14.5632 114.465 15.9031C114.465 17.2507 114.011 18.3909 113.106 19.322ZM107.221 18.5491C107.904 19.2406 108.738 19.5848 109.726 19.5848C110.714 19.5848 111.55 19.2391 112.231 18.5491C112.913 17.8577 113.255 16.9757 113.255 15.9031C113.255 14.8306 112.913 13.9486 112.231 13.2571C111.55 12.5657 110.714 12.2215 109.726 12.2215C108.738 12.2215 107.904 12.5672 107.221 13.2571C106.541 13.9486 106.198 14.8306 106.198 15.9031C106.198 16.9757 106.541 17.8577 107.221 18.5491Z" fill="white"/>
<path d="M116.127 20.5129V11.2934H117.569L122.049 18.4646H122.1L122.049 16.6883V11.2934H123.234V20.5129H121.997L117.309 12.9929H117.258L117.309 14.7691V20.5129H116.127Z" fill="white"/>
<path d="M72.8619 16.2765C72.8619 17.5641 72.4808 18.589 71.7171 19.3542C70.8505 20.2639 69.7196 20.7187 68.3305 20.7187C66.9998 20.7187 65.8673 20.2577 64.9377 19.3358C64.0065 18.4123 63.541 17.2691 63.541 15.9046C63.541 14.5386 64.0065 13.3954 64.9377 12.4734C65.8673 11.5499 66.9998 11.0889 68.3305 11.0889C68.9912 11.0889 69.6228 11.218 70.222 11.4746C70.8228 11.7328 71.3038 12.0754 71.6633 12.5041L70.8536 13.3155C70.2435 12.5856 69.403 12.2214 68.329 12.2214C67.3578 12.2214 66.5189 12.5625 65.8105 13.2448C65.1021 13.927 64.7487 14.8136 64.7487 15.9031C64.7487 16.9925 65.1021 17.8791 65.8105 18.5614C66.5189 19.2436 67.3578 19.5847 68.329 19.5847C69.3585 19.5847 70.2174 19.2421 70.9043 18.5552C71.3499 18.1081 71.608 17.4857 71.6772 16.6883H68.329V15.5804H72.7958C72.8419 15.8216 72.8619 16.0536 72.8619 16.2765Z" stroke="white" stroke-width="0.307317" stroke-miterlimit="10"/>
<path d="M79.9457 12.4259H75.7477V15.3484H79.5339V16.4563H75.7477V19.3789H79.9457V20.5129H74.563V11.2934H79.9457V12.4259Z" stroke="white" stroke-width="0.307317" stroke-miterlimit="10"/>
<path d="M84.9409 20.5129H83.7562V12.4259H81.1809V11.2934H87.5163V12.4259H84.9409V20.5129Z" stroke="white" stroke-width="0.307317" stroke-miterlimit="10"/>
<path d="M92.0998 20.5129V11.2934H93.2845V20.5129H92.0998Z" stroke="white" stroke-width="0.307317" stroke-miterlimit="10"/>
<path d="M98.5384 20.5129H97.3537V12.4259H94.7784V11.2934H101.114V12.4259H98.5384V20.5129Z" stroke="white" stroke-width="0.307317" stroke-miterlimit="10"/>
<path d="M113.106 19.322C112.2 20.2532 111.073 20.7188 109.726 20.7188C108.378 20.7188 107.252 20.2532 106.347 19.322C105.44 18.3909 104.989 17.2507 104.989 15.9031C104.989 14.5555 105.44 13.4154 106.347 12.4842C107.252 11.5531 108.378 11.0859 109.726 11.0859C111.066 11.0859 112.191 11.5546 113.1 12.4904C114.01 13.4262 114.465 14.5632 114.465 15.9031C114.465 17.2507 114.011 18.3909 113.106 19.322ZM107.221 18.5491C107.904 19.2406 108.738 19.5848 109.726 19.5848C110.714 19.5848 111.55 19.2391 112.231 18.5491C112.913 17.8577 113.255 16.9757 113.255 15.9031C113.255 14.8306 112.913 13.9486 112.231 13.2571C111.55 12.5657 110.714 12.2215 109.726 12.2215C108.738 12.2215 107.904 12.5672 107.221 13.2571C106.541 13.9486 106.198 14.8306 106.198 15.9031C106.198 16.9757 106.541 17.8577 107.221 18.5491Z" stroke="white" stroke-width="0.307317" stroke-miterlimit="10"/>
<path d="M116.127 20.5129V11.2934H117.569L122.049 18.4646H122.1L122.049 16.6883V11.2934H123.234V20.5129H121.997L117.309 12.9929H117.258L117.309 14.7691V20.5129H116.127Z" stroke="white" stroke-width="0.307317" stroke-miterlimit="10"/>
<g filter="url(#filter0_ii)">
<path d="M16.0358 12.119C15.5887 12.5923 15.3244 13.3268 15.3244 14.2779V48.261C15.3244 49.2137 15.5887 49.9467 16.0358 50.4199L16.1495 50.5306L35.1863 31.4938V31.2695V31.0451L16.1495 12.0068L16.0358 12.119Z" fill="url(#paint0_linear)"/>
<path d="M41.5308 37.8416L35.1863 31.494V31.2697V31.0453L41.5324 24.6992L41.6753 24.7807L49.1938 29.0524C51.3404 30.2724 51.3404 32.2684 49.1938 33.49L41.6753 37.7617L41.5308 37.8416Z" fill="url(#paint1_linear)"/>
<g filter="url(#filter1_i)">
<path d="M41.6753 37.7601L35.1847 31.2695L16.0358 50.42C16.7426 51.1698 17.912 51.262 19.2288 50.5153L41.6753 37.7601Z" fill="url(#paint2_linear)"/>
</g>
<path d="M41.6753 24.7789L19.2288 12.0252C17.912 11.2769 16.7426 11.3706 16.0358 12.1205L35.1863 31.2709L41.6753 24.7789Z" fill="url(#paint3_linear)"/>
</g>
<path d="M7.68293 2.07369H199.756V-0.999476H7.68293V2.07369ZM205.902 8.22004V54.3176H208.976V8.22004H205.902ZM199.756 60.4639H7.68292V63.5371H199.756V60.4639ZM1.53659 54.3176V8.22004H-1.53659V54.3176H1.53659ZM7.68292 60.4639C4.28839 60.4639 1.53659 57.7121 1.53659 54.3176H-1.53659C-1.53659 59.4094 2.59113 63.5371 7.68292 63.5371V60.4639ZM205.902 54.3176C205.902 57.7121 203.151 60.4639 199.756 60.4639V63.5371C204.848 63.5371 208.976 59.4094 208.976 54.3176H205.902ZM199.756 2.07369C203.151 2.07369 205.902 4.8255 205.902 8.22004H208.976C208.976 3.12824 204.848 -0.999476 199.756 -0.999476V2.07369ZM7.68293 -0.999476C2.59113 -0.999476 -1.53659 3.12824 -1.53659 8.22004H1.53659C1.53659 4.82551 4.2884 2.07369 7.68293 2.07369V-0.999476Z" fill="#A6A6A6"/>
<defs>
<filter id="filter0_ii" x="15.3244" y="11.5088" width="35.4794" height="39.5223" filterUnits="userSpaceOnUse" color-interpolation-filters="sRGB">
<feFlood flood-opacity="0" result="BackgroundImageFix"/>
<feBlend mode="normal" in="SourceGraphic" in2="BackgroundImageFix" result="shape"/>
<feColorMatrix in="SourceAlpha" type="matrix" values="0 0 0 0 0 0 0 0 0 0 0 0 0 0 0 0 0 0 127 0" result="hardAlpha"/>
<feOffset dy="-0.230488"/>
<feComposite in2="hardAlpha" operator="arithmetic" k2="-1" k3="1"/>
<feColorMatrix type="matrix" values="0 0 0 0 0 0 0 0 0 0 0 0 0 0 0 0 0 0 0.12 0"/>
<feBlend mode="normal" in2="shape" result="effect1_innerShadow"/>
<feColorMatrix in="SourceAlpha" type="matrix" values="0 0 0 0 0 0 0 0 0 0 0 0 0 0 0 0 0 0 127 0" result="hardAlpha"/>
<feOffset dy="0.230488"/>
<feComposite in2="hardAlpha" operator="arithmetic" k2="-1" k3="1"/>
<feColorMatrix type="matrix" values="0 0 0 0 1 0 0 0 0 1 0 0 0 0 1 0 0 0 0.25 0"/>
<feBlend mode="normal" in2="effect1_innerShadow" result="effect2_innerShadow"/>
</filter>
<filter id="filter1_i" x="16.0358" y="31.2695" width="25.6395" height="19.7615" filterUnits="userSpaceOnUse" color-interpolation-filters="sRGB">
<feFlood flood-opacity="0" result="BackgroundImageFix"/>
<feBlend mode="normal" in="SourceGraphic" in2="BackgroundImageFix" result="shape"/>
<feColorMatrix in="SourceAlpha" type="matrix" values="0 0 0 0 0 0 0 0 0 0 0 0 0 0 0 0 0 0 127 0" result="hardAlpha"/>
<feOffset dy="-0.230488"/>
<feComposite in2="hardAlpha" operator="arithmetic" k2="-1" k3="1"/>
<feColorMatrix type="matrix" values="0 0 0 0 0 0 0 0 0 0 0 0 0 0 0 0 0 0 0.08 0"/>
<feBlend mode="normal" in2="shape" result="effect1_innerShadow"/>
</filter>
<linearGradient id="paint0_linear" x1="33.4988" y1="13.9183" x2="7.71181" y2="39.7053" gradientUnits="userSpaceOnUse">
<stop stop-color="#00A0FF"/>
<stop offset="0.0066" stop-color="#00A1FF"/>
<stop offset="0.2601" stop-color="#00BEFF"/>
<stop offset="0.5122" stop-color="#00D2FF"/>
<stop offset="0.7604" stop-color="#00DFFF"/>
<stop offset="1" stop-color="#00E3FF"/>
</linearGradient>
<linearGradient id="paint1_linear" x1="51.9881" y1="31.2697" x2="14.809" y2="31.2697" gradientUnits="userSpaceOnUse">
<stop stop-color="#FFE000"/>
<stop offset="0.4087" stop-color="#FFBD00"/>
<stop offset="0.7754" stop-color="#FFA500"/>
<stop offset="1" stop-color="#FF9C00"/>
</linearGradient>
<linearGradient id="paint2_linear" x1="38.1505" y1="34.7943" x2="3.18012" y2="69.7647" gradientUnits="userSpaceOnUse">
<stop stop-color="#FF3A44"/>
<stop offset="1" stop-color="#C31162"/>
</linearGradient>
<linearGradient id="paint3_linear" x1="11.2131" y1="0.807818" x2="26.8283" y2="16.4231" gradientUnits="userSpaceOnUse">
<stop stop-color="#32A071"/>
<stop offset="0.0685" stop-color="#2DA771"/>
<stop offset="0.4762" stop-color="#15CF74"/>
<stop offset="0.8009" stop-color="#06E775"/>
<stop offset="1" stop-color="#00F076"/>
</linearGradient>
</defs>
</svg>
