<svg width="208" height="62" viewBox="0 0 208 62" fill="none" xmlns="http://www.w3.org/2000/svg">
<path d="M7.68293 1.53659H199.756V-1.53659H7.68293V1.53659ZM205.902 7.68293V53.7805H208.976V7.68293H205.902ZM199.756 59.9268H7.68292V63H199.756V59.9268ZM1.53659 53.7805V7.68293H-1.53659V53.7805H1.53659ZM7.68292 59.9268C4.28839 59.9268 1.53659 57.175 1.53659 53.7805H-1.53659C-1.53659 58.8723 2.59113 63 7.68292 63V59.9268ZM205.902 53.7805C205.902 57.175 203.151 59.9268 199.756 59.9268V63C204.848 63 208.976 58.8723 208.976 53.7805H205.902ZM199.756 1.53659C203.151 1.53659 205.902 4.28839 205.902 7.68293H208.976C208.976 2.59113 204.848 -1.53659 199.756 -1.53659V1.53659ZM7.68293 -1.53659C2.59113 -1.53659 -1.53659 2.59114 -1.53659 7.68293H1.53659C1.53659 4.2884 4.2884 1.53659 7.68293 1.53659V-1.53659Z" fill="#A6A6A6"/>
</svg>
