<svg width="361" height="480" viewBox="0 0 361 480" fill="none" xmlns="http://www.w3.org/2000/svg">
<path d="M-193.389 72.6413C-196.242 64.9387 -190.483 57 -182.269 57H349C355.627 57 361 62.3726 361 69V466.73C361 473.833 354.946 479.354 347.899 478.461C291.244 471.282 65.4158 437.151 -40.5 338.5C-117.024 267.225 -175.589 120.695 -193.389 72.6413Z" fill="#2D2E83"/>
<ellipse cx="23.0826" cy="2.53469" rx="2.70239" ry="2.53469" fill="#9FA0E8"/>
<ellipse cx="23.0826" cy="22.812" rx="2.70239" ry="2.53469" fill="#9FA0E8"/>
<ellipse cx="23.0826" cy="43.0904" rx="2.70239" ry="2.53469" fill="#9FA0E8"/>
<ellipse cx="23.0826" cy="63.3677" rx="2.70239" ry="2.53469" fill="#9FA0E8"/>
<ellipse cx="23.0826" cy="83.645" rx="2.70239" ry="2.53469" fill="#9FA0E8"/>
<ellipse cx="23.0826" cy="103.922" rx="2.70239" ry="2.5347" fill="#9FA0E8"/>
<ellipse cx="23.0826" cy="124.2" rx="2.70239" ry="2.5347" fill="#9FA0E8"/>
<ellipse cx="23.0826" cy="144.478" rx="2.70239" ry="2.53468" fill="#9FA0E8"/>
<ellipse cx="23.0826" cy="164.755" rx="2.70239" ry="2.53468" fill="#9FA0E8"/>
<ellipse cx="23.0826" cy="185.033" rx="2.70239" ry="2.5347" fill="#9FA0E8"/>
<ellipse cx="23.0826" cy="205.31" rx="2.70239" ry="2.53468" fill="#9FA0E8"/>
<ellipse cx="23.0826" cy="225.587" rx="2.70239" ry="2.53468" fill="#9FA0E8"/>
<ellipse cx="23.0826" cy="245.865" rx="2.70239" ry="2.53468" fill="#9FA0E8"/>
<ellipse cx="50.1074" cy="2.53469" rx="2.70239" ry="2.53469" fill="#9FA0E8"/>
<ellipse cx="50.1074" cy="22.812" rx="2.70239" ry="2.53469" fill="#9FA0E8"/>
<ellipse cx="50.1074" cy="43.0904" rx="2.70239" ry="2.53469" fill="#9FA0E8"/>
<ellipse cx="50.1074" cy="63.3677" rx="2.70239" ry="2.53469" fill="#9FA0E8"/>
<ellipse cx="50.1074" cy="83.645" rx="2.70239" ry="2.53469" fill="#9FA0E8"/>
<ellipse cx="50.1074" cy="103.922" rx="2.70239" ry="2.5347" fill="#9FA0E8"/>
<ellipse cx="50.1074" cy="124.2" rx="2.70239" ry="2.5347" fill="#9FA0E8"/>
<ellipse cx="50.1074" cy="144.478" rx="2.70239" ry="2.53468" fill="#9FA0E8"/>
<ellipse cx="50.1074" cy="164.755" rx="2.70239" ry="2.53468" fill="#9FA0E8"/>
<ellipse cx="50.1074" cy="185.033" rx="2.70239" ry="2.5347" fill="#9FA0E8"/>
<ellipse cx="50.1074" cy="205.31" rx="2.70239" ry="2.53468" fill="#9FA0E8"/>
<ellipse cx="50.1074" cy="225.587" rx="2.70239" ry="2.53468" fill="#9FA0E8"/>
<ellipse cx="50.1074" cy="245.865" rx="2.70239" ry="2.53468" fill="#9FA0E8"/>
<ellipse cx="77.1302" cy="2.53469" rx="2.70239" ry="2.53469" fill="#9FA0E8"/>
<ellipse cx="77.1302" cy="22.812" rx="2.70239" ry="2.53469" fill="#9FA0E8"/>
<ellipse cx="77.1302" cy="43.0904" rx="2.70239" ry="2.53469" fill="#9FA0E8"/>
<ellipse cx="77.1302" cy="63.3677" rx="2.70239" ry="2.53469" fill="#9FA0E8"/>
<ellipse cx="77.1302" cy="83.645" rx="2.70239" ry="2.53469" fill="#9FA0E8"/>
<ellipse cx="77.1302" cy="103.922" rx="2.70239" ry="2.5347" fill="#9FA0E8"/>
<ellipse cx="77.1302" cy="124.2" rx="2.70239" ry="2.5347" fill="#9FA0E8"/>
<ellipse cx="77.1302" cy="144.478" rx="2.70239" ry="2.53468" fill="#9FA0E8"/>
<ellipse cx="77.1302" cy="164.755" rx="2.70239" ry="2.53468" fill="#9FA0E8"/>
<ellipse cx="77.1302" cy="185.033" rx="2.70239" ry="2.5347" fill="#9FA0E8"/>
<ellipse cx="77.1302" cy="205.31" rx="2.70239" ry="2.53468" fill="#9FA0E8"/>
<ellipse cx="77.1302" cy="225.587" rx="2.70239" ry="2.53468" fill="#9FA0E8"/>
<ellipse cx="77.1302" cy="245.865" rx="2.70239" ry="2.53468" fill="#9FA0E8"/>
<ellipse cx="104.155" cy="2.53469" rx="2.70237" ry="2.53469" fill="#9FA0E8"/>
<ellipse cx="104.155" cy="22.812" rx="2.70237" ry="2.53469" fill="#9FA0E8"/>
<ellipse cx="104.155" cy="43.0904" rx="2.70237" ry="2.53469" fill="#9FA0E8"/>
<ellipse cx="104.155" cy="63.3677" rx="2.70237" ry="2.53469" fill="#9FA0E8"/>
<ellipse cx="104.155" cy="83.645" rx="2.70237" ry="2.53469" fill="#9FA0E8"/>
<ellipse cx="104.155" cy="103.922" rx="2.70237" ry="2.5347" fill="#9FA0E8"/>
<ellipse cx="104.155" cy="124.2" rx="2.70237" ry="2.5347" fill="#9FA0E8"/>
<ellipse cx="104.155" cy="144.478" rx="2.70237" ry="2.53468" fill="#9FA0E8"/>
<ellipse cx="104.155" cy="164.755" rx="2.70237" ry="2.53468" fill="#9FA0E8"/>
<ellipse cx="104.155" cy="185.033" rx="2.70237" ry="2.5347" fill="#9FA0E8"/>
<ellipse cx="104.155" cy="205.31" rx="2.70237" ry="2.53468" fill="#9FA0E8"/>
<ellipse cx="104.155" cy="225.587" rx="2.70237" ry="2.53468" fill="#9FA0E8"/>
<ellipse cx="104.155" cy="245.865" rx="2.70237" ry="2.53468" fill="#9FA0E8"/>
<ellipse cx="131.178" cy="2.53469" rx="2.70238" ry="2.53469" fill="#9FA0E8"/>
<ellipse cx="131.178" cy="22.812" rx="2.70238" ry="2.53469" fill="#9FA0E8"/>
<ellipse cx="131.178" cy="43.0904" rx="2.70238" ry="2.53469" fill="#9FA0E8"/>
<ellipse cx="131.178" cy="63.3677" rx="2.70238" ry="2.53469" fill="#9FA0E8"/>
<ellipse cx="131.178" cy="83.645" rx="2.70238" ry="2.53469" fill="#9FA0E8"/>
<ellipse cx="131.178" cy="103.922" rx="2.70238" ry="2.5347" fill="#9FA0E8"/>
<ellipse cx="131.178" cy="124.2" rx="2.70238" ry="2.5347" fill="#9FA0E8"/>
<ellipse cx="131.178" cy="144.478" rx="2.70238" ry="2.53468" fill="#9FA0E8"/>
<ellipse cx="131.178" cy="164.755" rx="2.70238" ry="2.53468" fill="#9FA0E8"/>
<ellipse cx="131.178" cy="185.033" rx="2.70238" ry="2.5347" fill="#9FA0E8"/>
<ellipse cx="131.178" cy="205.31" rx="2.70238" ry="2.53468" fill="#9FA0E8"/>
<ellipse cx="131.178" cy="225.587" rx="2.70238" ry="2.53468" fill="#9FA0E8"/>
<ellipse cx="131.178" cy="245.865" rx="2.70238" ry="2.53468" fill="#9FA0E8"/>
<ellipse cx="158.203" cy="2.53469" rx="2.70238" ry="2.53469" fill="#9FA0E8"/>
<ellipse cx="158.203" cy="22.812" rx="2.70238" ry="2.53469" fill="#9FA0E8"/>
<ellipse cx="158.203" cy="43.0904" rx="2.70238" ry="2.53469" fill="#9FA0E8"/>
<ellipse cx="158.203" cy="63.3677" rx="2.70238" ry="2.53469" fill="#9FA0E8"/>
<ellipse cx="158.203" cy="83.645" rx="2.70238" ry="2.53469" fill="#9FA0E8"/>
<ellipse cx="158.203" cy="103.922" rx="2.70238" ry="2.5347" fill="#9FA0E8"/>
<ellipse cx="158.203" cy="124.2" rx="2.70238" ry="2.5347" fill="#9FA0E8"/>
<ellipse cx="158.203" cy="144.478" rx="2.70238" ry="2.53468" fill="#9FA0E8"/>
<ellipse cx="158.203" cy="164.755" rx="2.70238" ry="2.53468" fill="#9FA0E8"/>
<ellipse cx="158.203" cy="185.033" rx="2.70238" ry="2.5347" fill="#9FA0E8"/>
<ellipse cx="158.203" cy="205.31" rx="2.70238" ry="2.53468" fill="#9FA0E8"/>
<ellipse cx="158.203" cy="225.587" rx="2.70238" ry="2.53468" fill="#9FA0E8"/>
<ellipse cx="158.203" cy="245.865" rx="2.70238" ry="2.53468" fill="#9FA0E8"/>
<ellipse cx="185.226" cy="2.53469" rx="2.70239" ry="2.53469" fill="#9FA0E8"/>
<ellipse cx="185.226" cy="22.812" rx="2.70239" ry="2.53469" fill="#9FA0E8"/>
<ellipse cx="185.226" cy="43.0904" rx="2.70239" ry="2.53469" fill="#9FA0E8"/>
<ellipse cx="185.226" cy="63.3677" rx="2.70239" ry="2.53469" fill="#9FA0E8"/>
<ellipse cx="185.226" cy="83.645" rx="2.70239" ry="2.53469" fill="#9FA0E8"/>
<ellipse cx="185.226" cy="103.922" rx="2.70239" ry="2.5347" fill="#9FA0E8"/>
<ellipse cx="185.226" cy="124.2" rx="2.70239" ry="2.5347" fill="#9FA0E8"/>
<ellipse cx="185.226" cy="144.478" rx="2.70239" ry="2.53468" fill="#9FA0E8"/>
<ellipse cx="185.226" cy="164.755" rx="2.70239" ry="2.53468" fill="#9FA0E8"/>
<ellipse cx="185.226" cy="185.033" rx="2.70239" ry="2.5347" fill="#9FA0E8"/>
<ellipse cx="185.226" cy="205.31" rx="2.70239" ry="2.53468" fill="#9FA0E8"/>
<ellipse cx="185.226" cy="225.587" rx="2.70239" ry="2.53468" fill="#9FA0E8"/>
<ellipse cx="185.226" cy="245.865" rx="2.70239" ry="2.53468" fill="#9FA0E8"/>
<ellipse cx="212.251" cy="2.53469" rx="2.70237" ry="2.53469" fill="#9FA0E8"/>
<ellipse cx="212.251" cy="22.812" rx="2.70237" ry="2.53469" fill="#9FA0E8"/>
<ellipse cx="212.251" cy="43.0904" rx="2.70237" ry="2.53469" fill="#9FA0E8"/>
<ellipse cx="212.251" cy="63.3677" rx="2.70237" ry="2.53469" fill="#9FA0E8"/>
<ellipse cx="212.251" cy="83.645" rx="2.70237" ry="2.53469" fill="#9FA0E8"/>
<ellipse cx="212.251" cy="103.922" rx="2.70237" ry="2.5347" fill="#9FA0E8"/>
<ellipse cx="212.251" cy="124.2" rx="2.70237" ry="2.5347" fill="#9FA0E8"/>
<ellipse cx="212.251" cy="144.478" rx="2.70237" ry="2.53468" fill="#9FA0E8"/>
<ellipse cx="212.251" cy="164.755" rx="2.70237" ry="2.53468" fill="#9FA0E8"/>
<ellipse cx="212.251" cy="185.033" rx="2.70237" ry="2.5347" fill="#9FA0E8"/>
<ellipse cx="212.251" cy="205.31" rx="2.70237" ry="2.53468" fill="#9FA0E8"/>
<ellipse cx="212.251" cy="225.587" rx="2.70237" ry="2.53468" fill="#9FA0E8"/>
<ellipse cx="212.251" cy="245.865" rx="2.70237" ry="2.53468" fill="#9FA0E8"/>
<ellipse cx="239.274" cy="2.53469" rx="2.70237" ry="2.53469" fill="#9FA0E8"/>
<ellipse cx="239.274" cy="22.812" rx="2.70237" ry="2.53469" fill="#9FA0E8"/>
<ellipse cx="239.274" cy="43.0904" rx="2.70237" ry="2.53469" fill="#9FA0E8"/>
<ellipse cx="239.274" cy="63.3677" rx="2.70237" ry="2.53469" fill="#9FA0E8"/>
<ellipse cx="239.274" cy="83.645" rx="2.70237" ry="2.53469" fill="#9FA0E8"/>
<ellipse cx="239.274" cy="103.922" rx="2.70237" ry="2.5347" fill="#9FA0E8"/>
<ellipse cx="239.274" cy="124.2" rx="2.70237" ry="2.5347" fill="#9FA0E8"/>
<ellipse cx="239.274" cy="144.478" rx="2.70237" ry="2.53468" fill="#9FA0E8"/>
<ellipse cx="239.274" cy="164.755" rx="2.70237" ry="2.53468" fill="#9FA0E8"/>
<ellipse cx="239.274" cy="185.033" rx="2.70237" ry="2.5347" fill="#9FA0E8"/>
<ellipse cx="239.274" cy="205.31" rx="2.70237" ry="2.53468" fill="#9FA0E8"/>
<ellipse cx="239.274" cy="225.587" rx="2.70237" ry="2.53468" fill="#9FA0E8"/>
<ellipse cx="239.274" cy="245.865" rx="2.70237" ry="2.53468" fill="#9FA0E8"/>
<ellipse cx="266.297" cy="2.53469" rx="2.70239" ry="2.53469" fill="#9FA0E8"/>
<ellipse cx="266.297" cy="22.812" rx="2.70239" ry="2.53469" fill="#9FA0E8"/>
<ellipse cx="266.297" cy="43.0904" rx="2.70239" ry="2.53469" fill="#9FA0E8"/>
<ellipse cx="266.297" cy="63.3677" rx="2.70239" ry="2.53469" fill="#9FA0E8"/>
<ellipse cx="266.297" cy="83.645" rx="2.70239" ry="2.53469" fill="#9FA0E8"/>
<ellipse cx="266.297" cy="103.922" rx="2.70239" ry="2.5347" fill="#9FA0E8"/>
<ellipse cx="266.297" cy="124.2" rx="2.70239" ry="2.5347" fill="#9FA0E8"/>
<ellipse cx="266.297" cy="144.478" rx="2.70239" ry="2.53468" fill="#9FA0E8"/>
<ellipse cx="266.297" cy="164.755" rx="2.70239" ry="2.53468" fill="#9FA0E8"/>
<ellipse cx="266.297" cy="185.033" rx="2.70239" ry="2.5347" fill="#9FA0E8"/>
<ellipse cx="266.297" cy="205.31" rx="2.70239" ry="2.53468" fill="#9FA0E8"/>
<ellipse cx="266.297" cy="225.587" rx="2.70239" ry="2.53468" fill="#9FA0E8"/>
<ellipse cx="266.297" cy="245.865" rx="2.70239" ry="2.53468" fill="#9FA0E8"/>
</svg>
