<svg xmlns="http://www.w3.org/2000/svg" viewBox="0 0 531.19 308.83"><defs><style>.cls-1{fill:#fff;}</style></defs><title>Asset 1</title><g id="Layer_2" data-name="Layer 2"><g id="Layer_1-2" data-name="Layer 1"><path class="cls-1" d="M269.38,0C362.53,1.77,446.22,29.65,517,92.14c16.64,14.7,18.53,28.7,6.54,43.39-11.16,13.67-28,14.41-44,.26-40.65-35.93-88.13-60-140.35-70.55-98.88-20-190.94-1.67-272.51,60.29-8.73,6.63-16.6,15.63-26.44,19.28-12.5,4.64-25,2.14-34-10.93C-4.06,119-.95,105.82,10.81,95.61A410,410,0,0,1,62.68,57.1c41.76-26,88-42,135.64-52.3C221.24-.15,245.55,1.4,269.38,0Z"/><path class="cls-1" d="M441,170.39c-53.45-44.39-113.5-64.21-179.91-63.7-66.41-.51-126.47,19.31-179.92,63.7-15.84,13.15-17.76,29.23-5.37,43.6,8,9.28,24.94,14.59,40.09,3.48a86,86,0,0,0,13.51-8.85c38.41-29.77,81.89-44.77,128.22-45.73,1.16,0,2.32,0,3.47,0s2.3,0,3.46,0c46.33,1,89.81,16,128.22,45.73a87.25,87.25,0,0,0,13.51,8.86c15.16,11.1,32.08,5.79,40.09-3.49C458.73,199.62,456.81,183.54,441,170.39Z"/><path class="cls-1" d="M265.33,217.9c36.08-1.6,68.31,9.89,97.47,30.54C381,261.3,385,277.5,374.8,292.86c-11.33,17-27.2,20.1-46.6,6.87-43-29.34-85.11-28.88-128,.39-20.58,14-35.93,10.78-47.66-7.38-9.63-14.91-5-30.85,13.66-44C195.8,227.87,228.35,215.68,265.33,217.9Z"/></g></g></svg>