<svg id="Layer_1" data-name="Layer 1" xmlns="http://www.w3.org/2000/svg" viewBox="0 0 118.25 40"><defs><style>.cls-1{fill:#13679b;}.cls-2{fill:#ed1c24;}</style></defs><title>logo</title><path class="cls-1" d="M21.75,2.79v11.8H20.8a14.51,14.51,0,0,0-1.66-5.41A8.55,8.55,0,0,0,15.74,6,9.57,9.57,0,0,0,11.16,4.8,6.29,6.29,0,0,0,6.75,6.4,4.82,4.82,0,0,0,5,10a4.26,4.26,0,0,0,1.1,2.84q1.59,1.89,7.58,5a52.55,52.55,0,0,1,6.66,3.94,9.67,9.67,0,0,1,2.75,3.23,8.38,8.38,0,0,1,1,3.9A8.75,8.75,0,0,1,21,35.65a11.26,11.26,0,0,1-7.9,2.8,17.07,17.07,0,0,1-2.85-.23,29.26,29.26,0,0,1-3.3-.92,15.1,15.1,0,0,0-3.17-.79,1.36,1.36,0,0,0-1,.38,3,3,0,0,0-.55,1.56h-1V26.76h1A16.27,16.27,0,0,0,4,32.26a8.56,8.56,0,0,0,3.45,3,10.9,10.9,0,0,0,5.1,1.21,7.36,7.36,0,0,0,5.07-1.66,5.1,5.1,0,0,0,1.86-3.93,5.24,5.24,0,0,0-.71-2.54A7.66,7.66,0,0,0,16.58,26q-1-.75-5.47-3.21a53.2,53.2,0,0,1-6.36-3.91,10.61,10.61,0,0,1-2.86-3.22,7.85,7.85,0,0,1-1-3.87A8.32,8.32,0,0,1,3.79,5.44a10.37,10.37,0,0,1,7.32-2.65A15,15,0,0,1,17,4.12a6.14,6.14,0,0,0,2,.63,1.55,1.55,0,0,0,1.09-.39,3.08,3.08,0,0,0,.68-1.57Z"/><path class="cls-1" d="M23.81,14.64h9.56v.93a3.08,3.08,0,0,0-1.73.48,1.39,1.39,0,0,0-.41,1.08A5.44,5.44,0,0,0,31.65,19l4.88,13.26,4.91-10.79-1.3-3.4A4,4,0,0,0,38.57,16a4.55,4.55,0,0,0-2-.43v-.93H47.39v.93a4.57,4.57,0,0,0-2.54.65,1.55,1.55,0,0,0-.5,1.28,2.89,2.89,0,0,0,.2,1l5.18,13.23L54.54,19a6.7,6.7,0,0,0,.5-2.16,1.07,1.07,0,0,0-.49-.86,3.55,3.55,0,0,0-1.9-.43v-.93h7.2v.93a4.12,4.12,0,0,0-3.19,3L49,38.38H48l-5.7-14.71L35.66,38.38h-.92L27.42,19A7,7,0,0,0,26,16.54a4.72,4.72,0,0,0-2.19-1Z"/><path class="cls-1" d="M68.26,36.42a2.15,2.15,0,0,1-.88-1.07,8.79,8.79,0,0,1-.3-2.88V14H66l-6.57,2.82.33.91a4.55,4.55,0,0,1,1.62-.38,1.42,1.42,0,0,1,1,.31,2,2,0,0,1,.53,1.12,33.44,33.44,0,0,1,.21,4.85v8.88a8.55,8.55,0,0,1-.32,2.89,2.22,2.22,0,0,1-.87,1.08,4.68,4.68,0,0,1-2.14.33v.91H70.39v-.91A4.46,4.46,0,0,1,68.26,36.42Z"/><path class="cls-1" d="M79.28,16.45V31.59q0,3.22.67,4.07a2.85,2.85,0,0,0,2.35,1.11h2v.91h-13v-.91h1a3.15,3.15,0,0,0,1.74-.5,2.58,2.58,0,0,0,1.08-1.36,12.08,12.08,0,0,0,.3-3.32V16.45H71.11V14.64h4.24V13.13a14.49,14.49,0,0,1,1-5.84,9,9,0,0,1,3.2-3.86A8.4,8.4,0,0,1,84.45,2,7.1,7.1,0,0,1,89,3.67a3.26,3.26,0,0,1,1.38,2.54,2.07,2.07,0,0,1-.62,1.42,1.81,1.81,0,0,1-1.33.67,2.07,2.07,0,0,1-1.16-.41A6.66,6.66,0,0,1,85.83,6.1a6.22,6.22,0,0,0-1.62-1.85,3,3,0,0,0-1.64-.48,2.87,2.87,0,0,0-1.86.62,3.52,3.52,0,0,0-1.1,1.91A38.06,38.06,0,0,0,79.28,13v1.66H84.9v1.81Z"/><path class="cls-1" d="M91.21,7.07v7.57h5.4V16.4h-5.4V31.34a5,5,0,0,0,.64,3,2.05,2.05,0,0,0,1.65.78,2.9,2.9,0,0,0,1.62-.52,3.3,3.3,0,0,0,1.21-1.52h1a7.91,7.91,0,0,1-2.5,3.71,5.39,5.39,0,0,1-3.33,1.25,4.47,4.47,0,0,1-2.27-.64,3.87,3.87,0,0,1-1.64-1.84,9.62,9.62,0,0,1-.53-3.69V16.4H83.4v-.83a9.55,9.55,0,0,0,2.84-1.87,14.83,14.83,0,0,0,2.59-3.13,28.08,28.08,0,0,0,1.62-3.5Z"/><path class="cls-1" d="M108.74,34.36a37.75,37.75,0,0,1-4.43,3.17,6.74,6.74,0,0,1-2.88.63,5.16,5.16,0,0,1-3.92-1.63A6,6,0,0,1,96,32.22a5.52,5.52,0,0,1,.75-2.92,9.94,9.94,0,0,1,3.57-3.22,55.4,55.4,0,0,1,8.45-3.67V21.5q0-3.44-1.09-4.73a3.93,3.93,0,0,0-3.17-1.28,3.54,3.54,0,0,0-2.5.85,2.58,2.58,0,0,0-1,2l0,1.46a2.52,2.52,0,0,1-.59,1.79,2,2,0,0,1-1.54.63,1.94,1.94,0,0,1-1.52-.65,2.56,2.56,0,0,1-.59-1.79,5.15,5.15,0,0,1,2.21-4A9.48,9.48,0,0,1,105.23,14a10.68,10.68,0,0,1,5,1,4.75,4.75,0,0,1,2.18,2.44,13.8,13.8,0,0,1,.45,4.43v7.82a35.57,35.57,0,0,0,.13,4,1.67,1.67,0,0,0,.41,1,1,1,0,0,0,.66.25,1.35,1.35,0,0,0,.7-.18,15.71,15.71,0,0,0,2-1.84v1.41q-2.81,3.77-5.36,3.77a2.43,2.43,0,0,1-2-.85A4.63,4.63,0,0,1,108.74,34.36Zm-.3-1.33V23.94a23.93,23.93,0,0,0-7.65,4.61,4.14,4.14,0,0,0-1.06,2.74,4.74,4.74,0,0,0,1.35,3.11,5.12,5.12,0,0,0,3.1,1.24C105.76,35.63,108.44,33,108.44,33Z"/><ellipse class="cls-2" cx="63.95" cy="5.8" rx="4.19" ry="4.3"/></svg>